<?xml version="1.0" encoding="utf-8"?>
<!-- Generator: Adobe Illustrator 16.0.0, SVG Export Plug-In . SVG Version: 6.00 Build 0)  -->
<!DOCTYPE svg PUBLIC "-//W3C//DTD SVG 1.1//EN" "http://www.w3.org/Graphics/SVG/1.1/DTD/svg11.dtd">
<svg version="1.1" id="圖層_1" xmlns="http://www.w3.org/2000/svg" xmlns:xlink="http://www.w3.org/1999/xlink" x="0px" y="0px"
	 width="100px" height="100px" viewBox="0 0 100 100" enable-background="new 0 0 100 100" xml:space="preserve">
<linearGradient id="SVGID_1_" gradientUnits="userSpaceOnUse" x1="-236.2944" y1="-578.272" x2="-236.2944" y2="-459.9663" gradientTransform="matrix(0.7745 0 0 -0.7745 232.9082 -352.0586)">
	<stop  offset="0" style="stop-color:#EDAF6D"/>
	<stop  offset="1" style="stop-color:#F7E1C6"/>
</linearGradient>
<path fill="url(#SVGID_1_)" d="M49.897,4.186c1.463,0,2.908,0.071,4.346,0.196C66.412,16.679,80.35,28.299,96.045,39.238
	c0.869,3.455,1.327,7.059,1.327,10.762c0,25.231-21.325,45.813-47.475,45.813C23.745,95.813,2.423,75.235,2.423,50
	C2.423,24.766,23.745,4.186,49.897,4.186z"/>
<linearGradient id="SVGID_2_" gradientUnits="userSpaceOnUse" x1="-295.3174" y1="-443.3208" x2="-295.3174" y2="-352.6484" gradientTransform="matrix(1 0 0 -1 345.2217 -347.9824)">
	<stop  offset="0" style="stop-color:#F1B97F"/>
	<stop  offset="1" style="stop-color:#F7E4CC"/>
</linearGradient>
<path fill="url(#SVGID_2_)" d="M49.897,4.666c1.598,0,3.168,0.087,4.713,0.248c12.04,11.955,25.65,23.308,40.837,34.056
	c0.935,3.53,1.438,7.229,1.438,11.034c0,24.972-21.11,45.335-46.979,45.335c-25.876,0-46.981-20.367-46.981-45.335
	C2.924,25.038,24.021,4.666,49.897,4.666z"/>
<linearGradient id="SVGID_3_" gradientUnits="userSpaceOnUse" x1="-295.3286" y1="-442.8364" x2="-295.3286" y2="-353.1284" gradientTransform="matrix(1 0 0 -1 345.2217 -347.9824)">
	<stop  offset="0" style="stop-color:#F3C18B"/>
	<stop  offset="1" style="stop-color:#F8E7CF"/>
</linearGradient>
<path fill="url(#SVGID_3_)" d="M49.897,5.146c1.721,0,3.418,0.099,5.085,0.296C66.9,17.054,80.189,28.138,94.851,38.694
	c0.993,3.607,1.527,7.401,1.527,11.306c0,24.702-20.88,44.854-46.48,44.854c-25.6,0-46.488-20.152-46.488-44.854
	C3.409,25.297,24.297,5.146,49.897,5.146z"/>
<linearGradient id="SVGID_4_" gradientUnits="userSpaceOnUse" x1="-295.3242" y1="-442.3579" x2="-295.3242" y2="-353.606" gradientTransform="matrix(1 0 0 -1 345.2217 -347.9824)">
	<stop  offset="0" style="stop-color:#F3C795"/>
	<stop  offset="1" style="stop-color:#F9E8D2"/>
</linearGradient>
<path fill="url(#SVGID_4_)" d="M49.897,5.624c1.847,0,3.668,0.117,5.456,0.346c11.79,11.27,24.757,22.09,38.895,32.453
	c1.062,3.686,1.637,7.57,1.637,11.578c0,24.442-20.662,44.376-45.987,44.376C24.564,94.376,3.911,74.442,3.911,50
	C3.911,25.557,24.564,5.624,49.897,5.624z"/>
<linearGradient id="SVGID_5_" gradientUnits="userSpaceOnUse" x1="-295.3267" y1="-441.8853" x2="-295.3267" y2="-354.0894" gradientTransform="matrix(1 0 0 -1 345.2217 -347.9824)">
	<stop  offset="0" style="stop-color:#F3CD9F"/>
	<stop  offset="1" style="stop-color:#F9EAD4"/>
</linearGradient>
<path fill="url(#SVGID_5_)" d="M49.897,6.107c1.98,0,3.918,0.135,5.824,0.401c11.664,10.926,24.306,21.473,37.933,31.65
	c1.129,3.759,1.737,7.74,1.737,11.846c0,24.179-20.437,43.899-45.494,43.899c-25.065,0-45.499-19.719-45.499-43.899
	C4.399,25.822,24.841,6.107,49.897,6.107z"/>
<linearGradient id="SVGID_6_" gradientUnits="userSpaceOnUse" x1="-295.3237" y1="-441.4087" x2="-295.3237" y2="-354.5635" gradientTransform="matrix(1 0 0 -1 345.2217 -347.9824)">
	<stop  offset="0" style="stop-color:#F4D0A6"/>
	<stop  offset="1" style="stop-color:#F9EBD7"/>
</linearGradient>
<path fill="url(#SVGID_6_)" d="M49.897,6.581c2.106,0,4.17,0.156,6.191,0.455C67.628,17.616,79.952,27.902,93.053,37.88
	c1.195,3.844,1.839,7.913,1.839,12.124c0,23.913-20.213,43.423-44.994,43.423c-24.781,0-44.993-19.51-44.993-43.423
	C4.904,26.09,25.117,6.581,49.897,6.581z"/>
<linearGradient id="SVGID_7_" gradientUnits="userSpaceOnUse" x1="-295.3237" y1="-440.9204" x2="-295.3237" y2="-355.0425" gradientTransform="matrix(1 0 0 -1 345.2217 -347.9824)">
	<stop  offset="0" style="stop-color:#F5D4AC"/>
	<stop  offset="1" style="stop-color:#F9ECD8"/>
</linearGradient>
<path fill="url(#SVGID_7_)" d="M49.897,7.06c2.232,0,4.422,0.174,6.56,0.509C67.87,17.806,79.868,27.819,92.46,37.608
	c1.254,3.918,1.938,8.082,1.938,12.392c0,23.649-19.994,42.938-44.501,42.938c-24.502,0-44.5-19.289-44.5-42.938
	S25.395,7.06,49.897,7.06z"/>
<linearGradient id="SVGID_8_" gradientUnits="userSpaceOnUse" x1="-295.3286" y1="-440.4438" x2="-295.3286" y2="-355.522" gradientTransform="matrix(1 0 0 -1 345.2217 -347.9824)">
	<stop  offset="0" style="stop-color:#F5D8B2"/>
	<stop  offset="1" style="stop-color:#F9EDDA"/>
</linearGradient>
<path fill="url(#SVGID_8_)" d="M49.897,7.54c2.365,0,4.68,0.19,6.936,0.557c11.279,9.898,22.96,19.644,35.035,29.238
	c1.318,4,2.028,8.256,2.028,12.665c0,23.388-19.76,42.462-43.999,42.462C25.659,92.462,5.891,73.388,5.891,50
	C5.891,26.61,25.659,7.54,49.897,7.54z"/>
<linearGradient id="SVGID_9_" gradientUnits="userSpaceOnUse" x1="-295.3247" y1="-439.9634" x2="-295.3247" y2="-355.9995" gradientTransform="matrix(1 0 0 -1 345.2217 -347.9824)">
	<stop  offset="0" style="stop-color:#F5DBB7"/>
	<stop  offset="1" style="stop-color:#F9EEDB"/>
</linearGradient>
<path fill="url(#SVGID_9_)" d="M49.897,8.017c2.49,0,4.931,0.208,7.303,0.608c11.154,9.552,22.518,19.029,34.065,28.438
	c1.387,4.073,2.138,8.426,2.138,12.937c0,23.126-19.542,41.981-43.506,41.981C25.935,91.981,6.391,73.126,6.391,50
	C6.391,26.875,25.935,8.017,49.897,8.017z"/>
<linearGradient id="SVGID_10_" gradientUnits="userSpaceOnUse" x1="-224.6802" y1="-594.8364" x2="-224.6802" y2="-483.1108" gradientTransform="matrix(0.743 0 0 -0.743 216.8325 -350.4575)">
	<stop  offset="0" style="stop-color:#F6DDBB"/>
	<stop  offset="1" style="stop-color:#F9EFDC"/>
</linearGradient>
<path fill="url(#SVGID_10_)" d="M49.897,8.498c2.615,0,5.18,0.23,7.67,0.663l33.098,27.634C92.117,40.944,92.91,45.39,92.91,50
	c0,22.862-19.329,41.507-43.013,41.507C26.202,91.507,6.88,72.862,6.88,50c0-22.856,19.322-41.506,43.017-41.506V8.498z"/>
<path fill="#D4AA80" d="M54.243,4.382c-0.744,40.28,35.226,32.135,41.802,34.856C81.047,28.304,67.109,16.679,54.243,4.382z"/>
<path fill="#D56712" d="M42.884,21.997v11.07c0,11.249,10.035,15.254,9.563,23.089L50.88,82.731c-6.998,0-13.975,0-20.964,0
	l-1.583-26.575c-0.468-7.832,9.566-11.84,9.566-23.089v-11.07c-0.542-0.012-0.986-0.508-0.986-1.119v-2.494
	c0-0.609,0.448-1.107,0.986-1.119h0.018h4.946h0.017c0.542,0.012,0.985,0.506,0.985,1.119v2.494c0,0.606-0.447,1.106-0.985,1.119
	H42.884z"/>
<path fill="#D56712" d="M74.129,50.448c-1.195,0-2.165,0.942-2.165,2.096c0,1.15,0.97,2.092,2.165,2.092s2.171-0.941,2.171-2.092
	C76.3,51.391,75.324,50.448,74.129,50.448z"/>
<path fill="#D56712" d="M67.992,46.438c-1.196,0-2.17,0.941-2.17,2.092c0,1.153,0.974,2.092,2.17,2.092
	c1.19,0,2.172-0.938,2.172-2.092C70.164,47.379,69.183,46.438,67.992,46.438z"/>
<path fill="#D56712" d="M58.687,51.846c-0.848,0-1.531,0.664-1.531,1.478c0,0.816,0.684,1.482,1.531,1.482
	c0.845,0,1.53-0.666,1.53-1.482C60.217,52.51,59.531,51.846,58.687,51.846z"/>
<path fill="#D56712" d="M61.661,43.123c-0.793,0-1.444,0.623-1.444,1.396c0,0.77,0.651,1.395,1.444,1.395
	c0.808,0,1.446-0.625,1.446-1.395C63.107,43.746,62.469,43.123,61.661,43.123z"/>
<path fill="#D56712" d="M66.274,53.067c-0.844,0-1.537,0.666-1.537,1.479c0,0.817,0.693,1.48,1.537,1.48
	c0.845,0,1.537-0.663,1.537-1.48C67.812,53.733,67.119,53.067,66.274,53.067z"/>
<path fill="#F7E3C8" d="M52.438,58.008h-8.502c1.796,4.694,3.768,7.679,7.934,9.747c0.279-3.209,0.473-6.455,0.576-9.747H52.438z"/>
<path fill="#D56712" d="M47.161,60.071c1.5,3.906,5.373,6.994,14.5,8.277c1.008,3.678,1.254,7.373,0.426,11.051
	c-0.418,1.852-0.34,1.564-2.225,2.006l-5.611,1.326c6.12,0,12.211,0,18.324,0l-5.608-1.326c-1.879-0.441-1.796-0.154-2.222-2.006
	c-0.827-3.678-0.585-7.373,0.426-11.051c9.124-1.283,13.001-4.371,14.497-8.277c-10.845,0-21.661,0-32.511,0H47.161z"/>
<linearGradient id="SVGID_11_" gradientUnits="userSpaceOnUse" x1="-204.6777" y1="-483.1611" x2="-212.7767" y2="-492.7209" gradientTransform="matrix(0.7745 0 0 -0.7745 233.8613 -352.626)">
	<stop  offset="0" style="stop-color:#E7E9EC"/>
	<stop  offset="0.34" style="stop-color:#FBFBFC"/>
	<stop  offset="1" style="stop-color:#FFFFFF"/>
</linearGradient>
<path fill="url(#SVGID_11_)" d="M54.243,4.382c0.088,25.375,25.512,20.778,41.802,34.856L54.243,4.382z"/>
<path fill="#F7E3C7" d="M32.522,79.763c-0.613-7.619-1.362-17.809-1.466-24.817c0.622-4.083,3.062-6.218,4.499-8.152
	c-5.2,8.131-1.115,29.763-1.341,32.966h-1.692V79.763z"/>
</svg>
