<?xml version="1.0" encoding="utf-8"?>
<!-- Generator: Adobe Illustrator 16.0.0, SVG Export Plug-In . SVG Version: 6.00 Build 0)  -->
<!DOCTYPE svg PUBLIC "-//W3C//DTD SVG 1.1//EN" "http://www.w3.org/Graphics/SVG/1.1/DTD/svg11.dtd">
<svg version="1.1" id="圖層_1" xmlns="http://www.w3.org/2000/svg" xmlns:xlink="http://www.w3.org/1999/xlink" x="0px" y="0px"
	 width="100px" height="100px" viewBox="0 0 100 100" enable-background="new 0 0 100 100" xml:space="preserve">
<linearGradient id="SVGID_1_" gradientUnits="userSpaceOnUse" x1="-202.4209" y1="-510.6772" x2="-202.4209" y2="-394.4136" gradientTransform="matrix(0.7745 0 0 -0.7745 206.7754 -300.4961)">
	<stop  offset="0" style="stop-color:#E7945C"/>
	<stop  offset="1" style="stop-color:#F6D0B2"/>
</linearGradient>
<path fill="url(#SVGID_1_)" d="M50.005,4.985c1.437,0,2.856,0.063,4.269,0.19c12.811,12.264,26.564,23.626,41.08,34.251
	c0.846,3.392,1.305,6.941,1.305,10.574c0,24.8-20.957,45.023-46.653,45.023C24.304,95.023,3.341,74.805,3.341,50
	c0-24.796,20.963-45.023,46.664-45.023V4.985z"/>
<linearGradient id="SVGID_2_" gradientUnits="userSpaceOnUse" x1="-269.0845" y1="-390.979" x2="-269.0845" y2="-301.8667" gradientTransform="matrix(1 0 0 -1 319.0889 -296.4229)">
	<stop  offset="0" style="stop-color:#E18A4E"/>
	<stop  offset="1" style="stop-color:#F3BF95"/>
</linearGradient>
<path fill="url(#SVGID_2_)" d="M50.005,5.444c1.56,0,3.103,0.088,4.632,0.246c12.596,11.909,26.02,23.018,40.133,33.469
	c0.916,3.469,1.404,7.106,1.404,10.846c0,24.542-20.74,44.552-46.165,44.552c-25.437,0-46.173-20.014-46.173-44.552
	c0-24.539,20.739-44.552,46.173-44.552L50.005,5.444z"/>
<linearGradient id="SVGID_3_" gradientUnits="userSpaceOnUse" x1="-269.0894" y1="-390.5122" x2="-269.0894" y2="-302.3354" gradientTransform="matrix(1 0 0 -1 319.0889 -296.4229)">
	<stop  offset="0" style="stop-color:#DC8141"/>
	<stop  offset="1" style="stop-color:#F0B07C"/>
</linearGradient>
<path fill="url(#SVGID_3_)" d="M50.005,5.913c1.69,0,3.356,0.099,4.991,0.293c12.383,11.547,25.492,22.398,39.191,32.683
	c0.977,3.549,1.502,7.273,1.502,11.112c0,24.285-20.52,44.089-45.685,44.089C24.839,94.09,4.311,74.285,4.311,50
	C4.311,25.721,24.839,5.913,50.005,5.913z"/>
<linearGradient id="SVGID_4_" gradientUnits="userSpaceOnUse" x1="-269.0884" y1="-390.0513" x2="-269.0884" y2="-302.8022" gradientTransform="matrix(1 0 0 -1 319.0889 -296.4229)">
	<stop  offset="0" style="stop-color:#D87C37"/>
	<stop  offset="1" style="stop-color:#F0A568"/>
</linearGradient>
<path fill="url(#SVGID_4_)" d="M50.005,6.379c1.813,0,3.604,0.12,5.36,0.345C67.527,17.92,80.311,28.517,93.604,38.623
	c1.043,3.625,1.604,7.444,1.604,11.382c0,24.026-20.307,43.624-45.202,43.624c-24.903,0-45.21-19.598-45.21-43.624
	C4.795,25.978,25.102,6.379,50.005,6.379z"/>
<linearGradient id="SVGID_5_" gradientUnits="userSpaceOnUse" x1="-269.0879" y1="-389.5845" x2="-269.0879" y2="-303.27" gradientTransform="matrix(1 0 0 -1 319.0889 -296.4229)">
	<stop  offset="0" style="stop-color:#D4762D"/>
	<stop  offset="1" style="stop-color:#ED9B54"/>
</linearGradient>
<path fill="url(#SVGID_5_)" d="M50.005,6.847c1.938,0,3.851,0.135,5.722,0.396c11.947,10.838,24.404,21.178,37.295,31.11
	c1.109,3.7,1.709,7.614,1.709,11.651c0,23.769-20.092,43.157-44.729,43.157S5.272,73.777,5.272,50.005
	c0-23.77,20.091-43.158,44.729-43.158H50.005z"/>
<linearGradient id="SVGID_6_" gradientUnits="userSpaceOnUse" x1="-269.0884" y1="-389.1079" x2="-269.0884" y2="-303.7373" gradientTransform="matrix(1 0 0 -1 319.0889 -296.4229)">
	<stop  offset="0" style="stop-color:#D17126"/>
	<stop  offset="1" style="stop-color:#EA9244"/>
</linearGradient>
<path fill="url(#SVGID_6_)" d="M50.005,7.314c2.069,0,4.097,0.15,6.085,0.44c11.725,10.486,23.869,20.567,36.35,30.326
	c1.17,3.783,1.807,7.78,1.807,11.92c0,23.511-19.883,42.685-44.241,42.685c-24.371,0-44.25-19.178-44.25-42.685
	C5.755,26.492,25.638,7.314,50.005,7.314z"/>
<linearGradient id="SVGID_7_" gradientUnits="userSpaceOnUse" x1="-269.0884" y1="-388.6509" x2="-269.0884" y2="-304.1973" gradientTransform="matrix(1 0 0 -1 319.0889 -296.4229)">
	<stop  offset="0" style="stop-color:#CF6C20"/>
	<stop  offset="1" style="stop-color:#E98B33"/>
</linearGradient>
<path fill="url(#SVGID_7_)" d="M50.005,7.774c2.192,0,4.353,0.17,6.454,0.499c11.502,10.126,23.318,19.958,35.396,29.542
	c1.24,3.851,1.906,7.947,1.906,12.185c0,23.259-19.658,42.228-43.757,42.228C25.897,92.229,6.24,73.26,6.24,50
	C6.24,26.742,25.897,7.774,50.005,7.774z"/>
<linearGradient id="SVGID_8_" gradientUnits="userSpaceOnUse" x1="-269.0884" y1="-388.1821" x2="-269.0884" y2="-304.6646" gradientTransform="matrix(1 0 0 -1 319.0889 -296.4229)">
	<stop  offset="0" style="stop-color:#CC671D"/>
	<stop  offset="1" style="stop-color:#E88326"/>
</linearGradient>
<path fill="url(#SVGID_8_)" d="M50.005,8.242c2.323,0,4.597,0.187,6.813,0.547C68.109,18.562,79.605,28.14,91.273,37.55
	c1.297,3.929,2.004,8.113,2.004,12.451c0,23.001-19.445,41.759-43.272,41.759C26.168,91.76,6.725,73.002,6.725,50
	C6.725,27,26.168,8.242,50.005,8.242z"/>
<linearGradient id="SVGID_9_" gradientUnits="userSpaceOnUse" x1="-269.0884" y1="-387.7212" x2="-269.0884" y2="-305.1323" gradientTransform="matrix(1 0 0 -1 319.0889 -296.4229)">
	<stop  offset="0" style="stop-color:#CA641C"/>
	<stop  offset="1" style="stop-color:#E67E1F"/>
</linearGradient>
<path fill="url(#SVGID_9_)" d="M50.005,8.709c2.446,0,4.845,0.206,7.175,0.602c11.078,9.413,22.252,18.731,33.51,27.969
	c1.363,4.002,2.104,8.288,2.104,12.725c0,22.739-19.223,41.294-42.788,41.294c-23.574,0-42.796-18.547-42.796-41.294
	C7.209,27.257,26.431,8.709,50.005,8.709z"/>
<linearGradient id="SVGID_10_" gradientUnits="userSpaceOnUse" x1="-189.2002" y1="-524.5728" x2="-189.2002" y2="-414.7759" gradientTransform="matrix(0.7437 0 0 -0.7437 190.7129 -299.2925)">
	<stop  offset="0" style="stop-color:#C8611D"/>
	<stop  offset="1" style="stop-color:#E6781C"/>
</linearGradient>
<path fill="url(#SVGID_10_)" d="M50.005,9.176c2.569,0,5.091,0.227,7.546,0.651L90.107,37.01c1.428,4.088,2.207,8.454,2.207,12.995
	c0,22.485-19.008,40.827-42.31,40.827c-23.302,0-42.311-18.342-42.311-40.827C7.694,27.515,26.703,9.176,50.005,9.176z"/>
<path fill="#9F653A" d="M54.273,5.176c-0.73,39.584,34.619,31.573,41.08,34.251C80.492,28.568,66.871,17.123,54.273,5.176z"/>
<linearGradient id="SVGID_11_" gradientUnits="userSpaceOnUse" x1="-171.3735" y1="-417.2295" x2="-179.3339" y2="-426.6256" gradientTransform="matrix(0.7745 0 0 -0.7745 207.7285 -301.0645)">
	<stop  offset="0" style="stop-color:#DCDDE1"/>
	<stop  offset="0.29" style="stop-color:#F2F3F5"/>
	<stop  offset="1" style="stop-color:#FFFFFF"/>
</linearGradient>
<path fill="url(#SVGID_11_)" d="M54.273,5.176C54.361,30.11,79.342,25.594,95.35,39.427L54.273,5.176z"/>
<path fill="#F9E8D2" d="M61.631,79.391c0.123,1.078-0.221,1.217-1.043,1.217H43.663c-0.822,0-1.154-0.139-1.043-1.217
	c0.517-14.402-2.534-28.51-4.792-42.642h28.594C64.096,50.801,61.34,65.146,61.631,79.391z"/>
<path fill="#F9E8D2" d="M22.478,25.166l11.976-0.8c1.945-0.135,2.89-0.237,3.875,2.194l3.366,8.318h-2.561l-2.39-5.891
	c-0.706-1.73-1.625-2.563-3.563-2.428l-10.47,0.761c-0.082-1.031-0.155-1.129-0.229-2.152L22.478,25.166z"/>
<path fill="#D56712" d="M61.482,54.533c-0.771,7.736-1.891,15.469-1.969,23.377c0.016,0.42-0.197,0.455-0.484,0.42
	c-4.451-0.697-9.382-0.689-13.807,0c-0.28,0.039-0.501,0.008-0.485-0.42c0.034-7.898-1.302-15.633-1.97-23.377H61.482z"/>
<path fill="#F9E8D2" d="M42.368,40.37c5.551,11.358,7.443,23.595,4.68,36.478C46.613,64.686,44.299,52.529,42.368,40.37z"/>
</svg>
