<?xml version="1.0" encoding="utf-8"?>
<!-- Generator: Adobe Illustrator 16.0.0, SVG Export Plug-In . SVG Version: 6.00 Build 0)  -->
<!DOCTYPE svg PUBLIC "-//W3C//DTD SVG 1.1//EN" "http://www.w3.org/Graphics/SVG/1.1/DTD/svg11.dtd">
<svg version="1.1" id="圖層_1" xmlns="http://www.w3.org/2000/svg" xmlns:xlink="http://www.w3.org/1999/xlink" x="0px" y="0px"
	 width="100px" height="100px" viewBox="0 0 100 100" enable-background="new 0 0 100 100" xml:space="preserve">
<linearGradient id="SVGID_1_" gradientUnits="userSpaceOnUse" x1="-134.7935" y1="-513.3013" x2="-134.7935" y2="-394.0806" gradientTransform="matrix(0.7745 0 0 -0.7745 154.3969 -301.3835)">
	<stop  offset="0" style="stop-color:#E7945C"/>
	<stop  offset="1" style="stop-color:#F6D0B2"/>
</linearGradient>
<path fill="url(#SVGID_1_)" d="M49.994,3.84c1.476,0,2.937,0.065,4.381,0.195c13.141,12.577,27.234,24.227,42.121,35.122
	c0.877,3.478,1.345,7.118,1.345,10.843c0,25.43-21.493,46.168-47.843,46.168c-26.352,0-47.84-20.733-47.84-46.168
	c0-25.426,21.488-46.168,47.84-46.168L49.994,3.84z"/>
<linearGradient id="SVGID_2_" gradientUnits="userSpaceOnUse" x1="-216.8296" y1="-393.1196" x2="-216.8296" y2="-301.7412" gradientTransform="matrix(1 0 0 -1 266.8228 -297.4219)">
	<stop  offset="0" style="stop-color:#E18A4E"/>
	<stop  offset="1" style="stop-color:#F3BF95"/>
</linearGradient>
<path fill="url(#SVGID_2_)" d="M49.994,4.319c1.608,0,3.191,0.085,4.751,0.249c12.92,12.206,26.685,23.602,41.154,34.318
	c0.938,3.554,1.442,7.288,1.442,11.122c0,25.163-21.27,45.69-47.348,45.69c-26.076,0-47.35-20.531-47.35-45.694
	c0-25.166,21.27-45.685,47.346-45.685H49.994z"/>
<linearGradient id="SVGID_3_" gradientUnits="userSpaceOnUse" x1="-216.8276" y1="-392.6362" x2="-216.8276" y2="-302.2163" gradientTransform="matrix(1 0 0 -1 266.8228 -297.4219)">
	<stop  offset="0" style="stop-color:#DC8141"/>
	<stop  offset="1" style="stop-color:#F0B07C"/>
</linearGradient>
<path fill="url(#SVGID_3_)" d="M49.994,4.794c1.734,0,3.446,0.102,5.128,0.3c12.694,11.842,26.13,22.972,40.181,33.518
	c1.004,3.632,1.548,7.459,1.548,11.392c0,24.902-21.045,45.21-46.856,45.21c-25.809,0-46.854-20.304-46.854-45.21
	C3.141,25.103,24.186,4.794,49.994,4.794z"/>
<linearGradient id="SVGID_4_" gradientUnits="userSpaceOnUse" x1="-216.8306" y1="-392.1597" x2="-216.8306" y2="-302.6919" gradientTransform="matrix(1 0 0 -1 266.8228 -297.4219)">
	<stop  offset="0" style="stop-color:#D87C37"/>
	<stop  offset="1" style="stop-color:#F0A568"/>
</linearGradient>
<path fill="url(#SVGID_4_)" d="M49.994,5.274c1.867,0,3.701,0.118,5.498,0.353c12.471,11.48,25.58,22.347,39.211,32.71
	c1.072,3.717,1.646,7.633,1.646,11.671c0,24.638-20.824,44.73-46.355,44.73c-25.528,0-46.358-20.097-46.358-44.734
	C3.636,25.367,24.461,5.27,49.99,5.27L49.994,5.274z"/>
<linearGradient id="SVGID_5_" gradientUnits="userSpaceOnUse" x1="-216.8267" y1="-391.689" x2="-216.8267" y2="-303.1714" gradientTransform="matrix(1 0 0 -1 266.8228 -297.4219)">
	<stop  offset="0" style="stop-color:#D4762D"/>
	<stop  offset="1" style="stop-color:#ED9B54"/>
</linearGradient>
<path fill="url(#SVGID_5_)" d="M49.994,5.753c1.994,0,3.953,0.134,5.873,0.406c12.246,11.115,25.023,21.721,38.242,31.902
	c1.137,3.793,1.75,7.808,1.75,11.947c0,24.375-20.602,44.259-45.865,44.259c-25.261,0-45.861-19.885-45.861-44.263
	c0-24.374,20.601-44.255,45.861-44.255V5.753z"/>
<linearGradient id="SVGID_6_" gradientUnits="userSpaceOnUse" x1="-216.8257" y1="-391.2007" x2="-216.8257" y2="-303.6504" gradientTransform="matrix(1 0 0 -1 266.8228 -297.4219)">
	<stop  offset="0" style="stop-color:#D17126"/>
	<stop  offset="1" style="stop-color:#EA9244"/>
</linearGradient>
<path fill="url(#SVGID_6_)" d="M49.994,6.229c2.126,0,4.208,0.154,6.248,0.455C68.27,17.437,80.715,27.776,93.515,37.785
	c1.201,3.876,1.854,7.979,1.854,12.22c0,24.11-20.382,43.775-45.37,43.775c-24.984,0-45.371-19.665-45.371-43.775
	C4.627,25.894,25.01,6.229,49.994,6.229z"/>
<linearGradient id="SVGID_7_" gradientUnits="userSpaceOnUse" x1="-216.8276" y1="-390.7261" x2="-216.8276" y2="-304.126" gradientTransform="matrix(1 0 0 -1 266.8228 -297.4219)">
	<stop  offset="0" style="stop-color:#CF6C20"/>
	<stop  offset="1" style="stop-color:#E98B33"/>
</linearGradient>
<path fill="url(#SVGID_7_)" d="M49.994,6.704c2.257,0,4.463,0.174,6.618,0.511c11.8,10.385,23.92,20.471,36.298,30.294
	c1.266,3.948,1.957,8.149,1.957,12.496c0,23.846-20.156,43.3-44.873,43.3c-24.714,0-44.871-19.454-44.871-43.3
	C5.123,26.158,25.28,6.704,49.994,6.704z"/>
<linearGradient id="SVGID_8_" gradientUnits="userSpaceOnUse" x1="-216.8247" y1="-390.2456" x2="-216.8247" y2="-304.6055" gradientTransform="matrix(1 0 0 -1 266.8228 -297.4219)">
	<stop  offset="0" style="stop-color:#CC671D"/>
	<stop  offset="1" style="stop-color:#E88326"/>
</linearGradient>
<path fill="url(#SVGID_8_)" d="M49.994,7.184c2.385,0,4.717,0.191,6.992,0.561c11.58,10.021,23.365,19.844,35.334,29.488
	c1.334,4.029,2.058,8.329,2.058,12.772c0,23.582-19.938,42.82-44.38,42.82c-24.438,0-44.38-19.238-44.38-42.82
	C5.618,26.419,25.557,7.184,49.994,7.184z"/>
<linearGradient id="SVGID_9_" gradientUnits="userSpaceOnUse" x1="-216.8296" y1="-389.771" x2="-216.8296" y2="-305.0806" gradientTransform="matrix(1 0 0 -1 266.8228 -297.4219)">
	<stop  offset="0" style="stop-color:#CA641C"/>
	<stop  offset="1" style="stop-color:#E67E1F"/>
</linearGradient>
<path fill="url(#SVGID_9_)" d="M49.994,7.663c2.514,0,4.973,0.211,7.363,0.613c11.355,9.656,22.814,19.211,34.357,28.684
	c1.402,4.106,2.157,8.499,2.157,13.048c0,23.322-19.715,42.341-43.882,42.341c-24.168,0-43.875-19.02-43.875-42.345
	c0-23.326,19.713-42.346,43.879-42.346V7.663z"/>
<linearGradient id="SVGID_10_" gradientUnits="userSpaceOnUse" x1="-118.7622" y1="-527.1421" x2="-118.7622" y2="-414.5513" gradientTransform="matrix(0.7437 0 0 -0.7437 138.3191 -300.1644)">
	<stop  offset="0" style="stop-color:#C8611D"/>
	<stop  offset="1" style="stop-color:#E6781C"/>
</linearGradient>
<path fill="url(#SVGID_10_)" d="M49.994,8.138c2.645,0,5.227,0.232,7.74,0.667L91.121,36.68c1.463,4.191,2.26,8.669,2.26,13.325
	c0,23.058-19.489,41.867-43.387,41.867c-23.895,0-43.385-18.809-43.385-41.867C6.609,26.942,26.1,8.138,49.994,8.138z"/>
<path fill="#9F653A" d="M54.371,4.035c-0.746,40.591,35.5,32.376,42.121,35.122C81.252,28.023,67.287,16.287,54.371,4.035z"/>
<path fill="#F9E8D2" d="M58.645,46.438c1.998,1.365,4.343,2.25,6.783,2.539v27.21H34.555v-27.21
	c2.428-0.297,4.789-1.174,6.789-2.539c4.404,3.006,10.233,3.494,15.145,1.22l-0.013,0.007c0.757-0.349,1.485-0.764,2.173-1.227
	H58.645z M58.645,27.812c-4.455-5.326-12.852-5.317-17.301,0c-6.377-7.626-19.758-3.579-19.758,6.714
	c0,10.299,13.386,14.34,19.758,6.711c4.449,5.322,12.846,5.326,17.301,0c6.366,7.622,19.756,3.583,19.756-6.711
	C78.4,24.233,65.007,20.191,58.645,27.812z"/>
<path fill="#D4AA80" d="M59.902,26.531c4.638,6.602,11.539,9.396,18.174,10.665c0.211-0.833,0.324-1.723,0.324-2.669
	c0-9.656-11.781-13.811-18.502-8.002L59.902,26.531z"/>
<linearGradient id="SVGID_11_" gradientUnits="userSpaceOnUse" x1="-102.9326" y1="-417.4512" x2="-111.0963" y2="-427.0872" gradientTransform="matrix(0.7745 0 0 -0.7745 155.3501 -301.9518)">
	<stop  offset="0" style="stop-color:#DCDDE1"/>
	<stop  offset="0.29" style="stop-color:#F2F3F5"/>
	<stop  offset="1" style="stop-color:#FFFFFF"/>
</linearGradient>
<path fill="url(#SVGID_11_)" d="M54.371,4.035c0.09,25.569,25.709,20.938,42.121,35.122L54.371,4.035z"/>
</svg>
