<?xml version="1.0" encoding="utf-8"?>
<!-- Generator: Adobe Illustrator 16.0.0, SVG Export Plug-In . SVG Version: 6.00 Build 0)  -->
<!DOCTYPE svg PUBLIC "-//W3C//DTD SVG 1.1//EN" "http://www.w3.org/Graphics/SVG/1.1/DTD/svg11.dtd">
<svg version="1.1" id="圖層_1" xmlns="http://www.w3.org/2000/svg" xmlns:xlink="http://www.w3.org/1999/xlink" x="0px" y="0px"
	 width="100px" height="100px" viewBox="0 0 100 100" enable-background="new 0 0 100 100" xml:space="preserve">
<linearGradient id="SVGID_1_" gradientUnits="userSpaceOnUse" x1="-168.5347" y1="-581.2231" x2="-168.5347" y2="-459.3081" gradientTransform="matrix(0.7745 0 0 -0.7745 180.5297 -352.946)">
	<stop  offset="0" style="stop-color:#FADB7A"/>
	<stop  offset="1" style="stop-color:#F8F6D5"/>
</linearGradient>
<path fill="url(#SVGID_1_)" d="M49.996,2.793c1.512,0,3.002,0.073,4.478,0.202l43.077,35.917c0.89,3.561,1.373,7.274,1.373,11.09
	c0,26-21.979,47.209-48.925,47.209c-26.942,0-48.924-21.205-48.924-47.209C1.075,24,23.057,2.789,49.999,2.789L49.996,2.793z"/>
<linearGradient id="SVGID_2_" gradientUnits="userSpaceOnUse" x1="-168.5347" y1="-581.2231" x2="-168.5347" y2="-459.3081" gradientTransform="matrix(0.7745 0 0 -0.7745 180.5297 -352.946)">
	<stop  offset="0" style="stop-color:#EDAF6D"/>
	<stop  offset="1" style="stop-color:#F7E1C6"/>
</linearGradient>
<path fill="url(#SVGID_2_)" d="M49.996,2.793c1.506,0,3.002,0.073,4.478,0.202C67.011,15.667,81.372,27.64,97.547,38.913
	c0.894,3.561,1.377,7.274,1.377,11.09c0,26-21.979,47.209-48.925,47.209c-26.949,0-48.924-21.205-48.924-47.209
	C1.075,24,23.05,2.789,49.999,2.789L49.996,2.793z"/>
<linearGradient id="SVGID_3_" gradientUnits="userSpaceOnUse" x1="-242.959" y1="-445.7046" x2="-242.959" y2="-352.2695" gradientTransform="matrix(1 0 0 -1 292.9556 -348.9824)">
	<stop  offset="0" style="stop-color:#F1B97F"/>
	<stop  offset="1" style="stop-color:#F7E4CC"/>
</linearGradient>
<path fill="url(#SVGID_3_)" d="M49.996,3.287c1.643,0,3.26,0.09,4.855,0.255C67.263,15.861,81.29,27.561,96.931,38.637
	c0.964,3.637,1.479,7.449,1.479,11.37c0,25.733-21.751,46.716-48.414,46.716c-26.669,0-48.413-20.988-48.413-46.716
	c0-25.727,21.75-46.716,48.413-46.716V3.287z"/>
<linearGradient id="SVGID_4_" gradientUnits="userSpaceOnUse" x1="-242.9644" y1="-445.2056" x2="-242.9644" y2="-352.7646" gradientTransform="matrix(1 0 0 -1 292.9556 -348.9824)">
	<stop  offset="0" style="stop-color:#F3C18B"/>
	<stop  offset="1" style="stop-color:#F8E7CF"/>
</linearGradient>
<path fill="url(#SVGID_4_)" d="M49.996,3.782c1.771,0,3.516,0.102,5.235,0.305c12.283,11.966,25.975,23.388,41.081,34.266
	c1.024,3.717,1.582,7.626,1.582,11.65c0,25.454-21.521,46.221-47.904,46.221S2.089,75.457,2.089,50.003
	c0-25.455,21.519-46.221,47.901-46.221H49.996z"/>
<linearGradient id="SVGID_5_" gradientUnits="userSpaceOnUse" x1="-242.957" y1="-444.7124" x2="-242.957" y2="-353.2563" gradientTransform="matrix(1 0 0 -1 292.9556 -348.9824)">
	<stop  offset="0" style="stop-color:#F3C795"/>
	<stop  offset="1" style="stop-color:#F9E8D2"/>
</linearGradient>
<path fill="url(#SVGID_5_)" d="M49.996,4.274c1.904,0,3.776,0.121,5.619,0.357c12.147,11.613,25.511,22.763,40.09,33.441
	c1.092,3.799,1.682,7.801,1.682,11.931c0,25.188-21.287,45.728-47.388,45.728S2.611,75.19,2.611,50.003S23.902,4.274,49.999,4.274
	H49.996z"/>
<linearGradient id="SVGID_6_" gradientUnits="userSpaceOnUse" x1="-242.9624" y1="-444.2261" x2="-242.9624" y2="-353.7554" gradientTransform="matrix(1 0 0 -1 292.9556 -348.9824)">
	<stop  offset="0" style="stop-color:#F3CD9F"/>
	<stop  offset="1" style="stop-color:#F9EAD4"/>
</linearGradient>
<path fill="url(#SVGID_6_)" d="M49.996,4.773c2.034,0,4.036,0.139,5.999,0.413C68.015,16.444,81.042,27.312,95.083,37.8
	c1.162,3.873,1.788,7.976,1.788,12.207c0,24.915-21.058,45.237-46.875,45.237c-25.82,0-46.88-20.319-46.88-45.237
	C3.116,25.088,24.176,4.773,49.996,4.773z"/>
<linearGradient id="SVGID_7_" gradientUnits="userSpaceOnUse" x1="-242.9614" y1="-443.7339" x2="-242.9614" y2="-354.2432" gradientTransform="matrix(1 0 0 -1 292.9556 -348.9824)">
	<stop  offset="0" style="stop-color:#F4D0A6"/>
	<stop  offset="1" style="stop-color:#F9EBD7"/>
</linearGradient>
<path fill="url(#SVGID_7_)" d="M49.996,5.261c2.166,0,4.296,0.162,6.377,0.469c11.89,10.903,24.589,21.502,38.095,31.784
	c1.226,3.961,1.897,8.154,1.897,12.494c0,24.643-20.834,44.745-46.369,44.745c-25.538,0-46.373-20.103-46.373-44.745
	C3.624,25.365,24.453,5.261,49.996,5.261z"/>
<linearGradient id="SVGID_8_" gradientUnits="userSpaceOnUse" x1="-242.9565" y1="-443.231" x2="-242.9565" y2="-354.7368" gradientTransform="matrix(1 0 0 -1 292.9556 -348.9824)">
	<stop  offset="0" style="stop-color:#F5D4AC"/>
	<stop  offset="1" style="stop-color:#F9ECD8"/>
</linearGradient>
<path fill="url(#SVGID_8_)" d="M49.996,5.754c2.3,0,4.556,0.18,6.759,0.524c11.758,10.549,24.129,20.867,37.101,30.954
	c1.298,4.037,1.999,8.328,1.999,12.77c0,24.369-20.6,44.246-45.855,44.246c-25.255,0-45.854-19.877-45.854-44.246
	c0-24.371,20.6-44.249,45.854-44.249H49.996z"/>
<linearGradient id="SVGID_9_" gradientUnits="userSpaceOnUse" x1="-242.9629" y1="-442.7397" x2="-242.9629" y2="-355.231" gradientTransform="matrix(1 0 0 -1 292.9556 -348.9824)">
	<stop  offset="0" style="stop-color:#F5D8B2"/>
	<stop  offset="1" style="stop-color:#F9EDDA"/>
</linearGradient>
<path fill="url(#SVGID_9_)" d="M49.996,6.249c2.432,0,4.815,0.196,7.14,0.574c11.629,10.2,23.664,20.243,36.102,30.129
	c1.358,4.123,2.102,8.508,2.102,13.051c0,24.102-20.371,43.755-45.343,43.755c-24.979,0-45.349-19.653-45.349-43.755
	C4.647,25.9,25.017,6.249,49.996,6.249z"/>
<linearGradient id="SVGID_10_" gradientUnits="userSpaceOnUse" x1="-242.9614" y1="-442.2456" x2="-242.9614" y2="-355.7236" gradientTransform="matrix(1 0 0 -1 292.9556 -348.9824)">
	<stop  offset="0" style="stop-color:#F5DBB7"/>
	<stop  offset="1" style="stop-color:#F9EEDB"/>
</linearGradient>
<path fill="url(#SVGID_10_)" d="M49.996,6.741c2.563,0,5.071,0.214,7.523,0.626c11.497,9.843,23.2,19.609,35.103,29.305
	c1.43,4.197,2.203,8.682,2.203,13.331c0,23.83-20.136,43.261-44.829,43.261c-24.696,0-44.833-19.431-44.833-43.261
	C5.164,26.173,25.304,6.741,49.996,6.741z"/>
<linearGradient id="SVGID_11_" gradientUnits="userSpaceOnUse" x1="-154.0342" y1="-597.7173" x2="-154.0342" y2="-482.5854" gradientTransform="matrix(0.743 0 0 -0.743 164.4386 -351.329)">
	<stop  offset="0" style="stop-color:#F6DDBB"/>
	<stop  offset="1" style="stop-color:#F9EFDC"/>
</linearGradient>
<path fill="url(#SVGID_11_)" d="M49.996,7.236c2.694,0,5.332,0.237,7.901,0.683L92.01,36.395c1.494,4.276,2.304,8.857,2.304,13.608
	c0,23.559-19.91,42.772-44.317,42.772c-24.415,0-44.328-19.214-44.328-42.772c0-23.552,19.913-42.771,44.328-42.771V7.236z"/>
<path fill="#D4AA80" d="M54.47,2.995c-0.766,41.508,36.307,33.114,43.073,35.917C82.094,27.646,67.733,15.667,54.47,2.995z"/>
<path fill="#D56712" d="M72.19,73.199c0,1.274-5.22,3.169-12.934,3.765H34.041c-7.714-0.596-12.93-2.49-12.93-3.765H72.19z
	 M45.521,41.086c5.374-2.733,4.563-6.573,2.001-10.686c-1.099-1.752-2.709-3.771-0.185-7.354c-4.8,1.787-4.056,6.359-2.672,8.893
	C46.429,35.17,47.626,36.535,45.521,41.086z M58.167,69.532c-0.05,0.468-0.088,0.975-0.105,1.507H35.24
	c-0.357-11.627-9.438-12.347-7.963-26.95h38.745c0.076,0.73,0.126,1.407,0.151,2.053c4.655-1.266,7.971-0.864,9.99,0.475
	c9.952,6.632-10.113,22.543-17.996,22.911V69.532z M74.548,48.875c-1.484-0.987-4.254-1.146-8.456,0.148
	c-0.71,7.408-5.531,12.137-7.347,17.727C64.176,66.38,81.063,53.217,74.548,48.875z"/>
<linearGradient id="SVGID_12_" gradientUnits="userSpaceOnUse" x1="-135.9326" y1="-483.1958" x2="-144.2781" y2="-493.0466" gradientTransform="matrix(0.7745 0 0 -0.7745 181.4824 -353.5133)">
	<stop  offset="0" style="stop-color:#E7E9EC"/>
	<stop  offset="0.34" style="stop-color:#FBFBFC"/>
	<stop  offset="1" style="stop-color:#FFFFFF"/>
</linearGradient>
<path fill="url(#SVGID_12_)" d="M54.47,2.995c0.094,26.148,26.292,21.412,43.073,35.917L54.47,2.995z"/>
<path fill="#F7E4C9" d="M35.442,59.243c-1.974-3.46-4.389-6.623-4.501-10.598c-0.073-2.642,1.465-2.884,2.788-0.761
	c1.585,2.552,3.104,6.742,3.988,10.925C38.216,61.172,36.761,61.544,35.442,59.243z"/>
</svg>
