<?xml version="1.0" encoding="utf-8"?>
<!-- Generator: Adobe Illustrator 16.0.0, SVG Export Plug-In . SVG Version: 6.00 Build 0)  -->
<!DOCTYPE svg PUBLIC "-//W3C//DTD SVG 1.1//EN" "http://www.w3.org/Graphics/SVG/1.1/DTD/svg11.dtd">
<svg version="1.1" id="圖層_1" xmlns="http://www.w3.org/2000/svg" xmlns:xlink="http://www.w3.org/1999/xlink" x="0px" y="0px"
	 width="100px" height="100px" viewBox="0 0 100 100" enable-background="new 0 0 100 100" xml:space="preserve">
<linearGradient id="SVGID_1_" gradientUnits="userSpaceOnUse" x1="-236.0171" y1="-547.395" x2="-236.0171" y2="-426.561" gradientTransform="matrix(0.7745 0 0 -0.7745 232.7954 -327.1647)">
	<stop  offset="0" style="stop-color:#E7945C"/>
	<stop  offset="1" style="stop-color:#F6D0B2"/>
</linearGradient>
<path fill="url(#SVGID_1_)" d="M50.005,3.212c1.493,0,2.97,0.07,4.438,0.197C67.76,16.152,82.049,27.964,97.136,39.016
	c0.888,3.523,1.355,7.205,1.355,10.979c0,25.771-21.779,46.798-48.486,46.798c-26.71,0-48.497-21.023-48.497-46.798
	c0-25.765,21.787-46.788,48.497-46.788V3.212z"/>
<linearGradient id="SVGID_2_" gradientUnits="userSpaceOnUse" x1="-295.2144" y1="-419.5083" x2="-295.2144" y2="-326.8989" gradientTransform="matrix(1 0 0 -1 345.2217 -323.2021)">
	<stop  offset="0" style="stop-color:#E18A4E"/>
	<stop  offset="1" style="stop-color:#F3BF95"/>
</linearGradient>
<path fill="url(#SVGID_2_)" d="M50.005,3.697c1.631,0,3.235,0.083,4.813,0.248C67.917,16.325,81.869,27.87,96.533,38.726
	c0.958,3.603,1.461,7.387,1.461,11.279c0,25.501-21.561,46.302-47.981,46.302c-26.428,0-47.991-20.811-47.991-46.302
	C2.021,24.502,23.577,3.697,50.005,3.697z"/>
<linearGradient id="SVGID_3_" gradientUnits="userSpaceOnUse" x1="-295.2183" y1="-419.0181" x2="-295.2183" y2="-327.3809" gradientTransform="matrix(1 0 0 -1 345.2217 -323.2021)">
	<stop  offset="0" style="stop-color:#DC8141"/>
	<stop  offset="1" style="stop-color:#F0B07C"/>
</linearGradient>
<path fill="url(#SVGID_3_)" d="M50.005,4.179c1.757,0,3.49,0.099,5.196,0.305c12.86,11.998,26.48,23.279,40.723,33.967
	c1.013,3.681,1.567,7.559,1.567,11.544c0,25.239-21.336,45.821-47.486,45.821c-26.155,0-47.489-20.582-47.489-45.821
	C2.516,24.757,23.85,4.179,50.005,4.179z"/>
<linearGradient id="SVGID_4_" gradientUnits="userSpaceOnUse" x1="-295.2168" y1="-418.5356" x2="-295.2168" y2="-327.8589" gradientTransform="matrix(1 0 0 -1 345.2217 -323.2021)">
	<stop  offset="0" style="stop-color:#D87C37"/>
	<stop  offset="1" style="stop-color:#F0A568"/>
</linearGradient>
<path fill="url(#SVGID_4_)" d="M50.005,4.657c1.886,0,3.746,0.123,5.571,0.363c12.64,11.635,25.926,22.644,39.742,33.151
	c1.083,3.764,1.673,7.732,1.673,11.824c0,24.976-21.113,45.339-46.986,45.339c-25.882,0-46.986-20.363-46.986-45.339
	C3.019,25.029,24.123,4.657,50.005,4.657z"/>
<linearGradient id="SVGID_5_" gradientUnits="userSpaceOnUse" x1="-295.2192" y1="-418.0513" x2="-295.2192" y2="-328.3447" gradientTransform="matrix(1 0 0 -1 345.2217 -323.2021)">
	<stop  offset="0" style="stop-color:#D4762D"/>
	<stop  offset="1" style="stop-color:#ED9B54"/>
</linearGradient>
<path fill="url(#SVGID_5_)" d="M50.005,5.143c2.022,0,4.001,0.14,5.947,0.412c12.417,11.265,25.364,22.019,38.76,32.336
	c1.152,3.846,1.775,7.915,1.775,12.104c0,24.704-20.882,44.854-46.482,44.854c-25.609,0-46.487-20.146-46.487-44.854
	C3.518,25.292,24.405,5.143,50.005,5.143z"/>
<linearGradient id="SVGID_6_" gradientUnits="userSpaceOnUse" x1="-295.21" y1="-417.5688" x2="-295.21" y2="-328.8345" gradientTransform="matrix(1 0 0 -1 345.2217 -323.2021)">
	<stop  offset="0" style="stop-color:#D17126"/>
	<stop  offset="1" style="stop-color:#EA9244"/>
</linearGradient>
<path fill="url(#SVGID_6_)" d="M50.005,5.632c2.15,0,4.268,0.153,6.333,0.457c12.184,10.902,24.797,21.376,37.77,31.526
	c1.219,3.927,1.881,8.086,1.881,12.389c0,24.431-20.654,44.362-45.976,44.362c-25.327,0-45.977-19.932-45.977-44.362
	c0-24.432,20.65-44.369,45.977-44.369L50.005,5.632z"/>
<linearGradient id="SVGID_7_" gradientUnits="userSpaceOnUse" x1="-295.2212" y1="-417.0825" x2="-295.2212" y2="-329.3164" gradientTransform="matrix(1 0 0 -1 345.2217 -323.2021)">
	<stop  offset="0" style="stop-color:#CF6C20"/>
	<stop  offset="1" style="stop-color:#E98B33"/>
</linearGradient>
<path fill="url(#SVGID_7_)" d="M50.005,6.114c2.288,0,4.523,0.173,6.707,0.519C68.668,17.156,80.957,27.376,93.5,37.331
	c1.289,4.003,1.98,8.259,1.98,12.665c0,24.169-20.429,43.886-45.476,43.886c-25.046,0-45.484-19.717-45.484-43.886
	C4.521,25.832,24.959,6.114,50.005,6.114L50.005,6.114z"/>
<linearGradient id="SVGID_8_" gradientUnits="userSpaceOnUse" x1="-295.2212" y1="-416.6001" x2="-295.2212" y2="-329.8018" gradientTransform="matrix(1 0 0 -1 345.2217 -323.2021)">
	<stop  offset="0" style="stop-color:#CC671D"/>
	<stop  offset="1" style="stop-color:#E88326"/>
</linearGradient>
<path fill="url(#SVGID_8_)" d="M50.005,6.6c2.416,0,4.779,0.19,7.083,0.568c11.733,10.153,23.68,20.114,35.807,29.882
	c1.357,4.089,2.083,8.441,2.083,12.945c0,23.905-20.2,43.403-44.973,43.403S5.024,73.9,5.024,49.995
	C5.024,26.091,25.232,6.6,50.005,6.6z"/>
<linearGradient id="SVGID_9_" gradientUnits="userSpaceOnUse" x1="-295.2163" y1="-416.1157" x2="-295.2163" y2="-330.2793" gradientTransform="matrix(1 0 0 -1 345.2217 -323.2021)">
	<stop  offset="0" style="stop-color:#CA641C"/>
	<stop  offset="1" style="stop-color:#E67E1F"/>
</linearGradient>
<path fill="url(#SVGID_9_)" d="M50.005,7.077c2.543,0,5.036,0.214,7.466,0.626c11.505,9.79,23.119,19.475,34.819,29.068
	c1.423,4.167,2.192,8.613,2.192,13.224c0,23.638-19.982,42.919-44.478,42.919c-24.5,0-44.477-19.277-44.477-42.919
	C5.528,26.368,25.505,7.077,50.005,7.077z"/>
<linearGradient id="SVGID_10_" gradientUnits="userSpaceOnUse" x1="-224.1631" y1="-562.564" x2="-224.1631" y2="-448.4507" gradientTransform="matrix(0.7437 0 0 -0.7437 216.7175 -325.9456)">
	<stop  offset="0" style="stop-color:#C8611D"/>
	<stop  offset="1" style="stop-color:#E6781C"/>
</linearGradient>
<path fill="url(#SVGID_10_)" d="M50.005,7.567c2.671,0,5.29,0.238,7.843,0.68l33.834,28.252c1.486,4.241,2.297,8.787,2.297,13.496
	c0,23.378-19.756,42.438-43.974,42.438c-24.217,0-43.969-19.061-43.969-42.438C6.036,26.626,25.788,7.567,50.005,7.567z"/>
<path fill="#9F653A" d="M54.443,3.405c-0.76,41.139,35.978,32.822,42.692,35.606C81.689,27.721,67.533,15.823,54.443,3.405z"/>
<path fill="#F9E8D2" d="M22.646,27.517v7.101c0,1.45,2.066,1.457,2.066,0V26.14c3.029,0.643,2.533,14.966-3.018,14.983
	c-5.535,0.024-6.135-14.317-3.021-14.983v8.478c0,1.457,2.079,1.45,2.079,0v-7.101c0-2.258,1.901-2.249,1.901,0H22.646z
	 M22.937,45.158c-0.819,0.267-1.664,0.267-2.495,0l-0.807,27.35c-0.068,2.221,4.171,2.211,4.104,0L22.937,45.158L22.937,45.158z
	 M50.471,33.597c-9.6,0-17.435,7.559-17.435,16.823c0,9.26,7.834,16.811,17.435,16.811c9.596,0,17.422-7.551,17.422-16.811
	C67.893,41.156,60.066,33.597,50.471,33.597z M77.816,25.832v28.932h1.535C85.744,44.482,83.456,27.465,77.816,25.832z
	 M77.816,58.757V74.02c1.34,0.365,7.961,1.344,1.535-15.263H77.816z M72.712,50.419c0,11.825-9.993,21.471-22.247,21.471
	S28.21,62.244,28.21,50.419c0-11.828,10.002-21.479,22.255-21.479S72.712,38.591,72.712,50.419z M70.598,50.419
	c0-10.697-9.047-19.425-20.127-19.425c-11.094,0-20.14,8.728-20.14,19.425c0,10.694,9.045,19.422,20.14,19.422
	C61.551,69.842,70.598,61.113,70.598,50.419z"/>
<path fill="#D4AA80" d="M77.816,36.899c1.809,0.371,3.592,0.622,5.324,0.803c-0.375-6.037-2.396-11.027-5.324-11.87V36.899z"/>
<linearGradient id="SVGID_11_" gradientUnits="userSpaceOnUse" x1="-203.6992" y1="-450.2354" x2="-211.9713" y2="-459.9995" gradientTransform="matrix(0.7745 0 0 -0.7745 233.7485 -327.7331)">
	<stop  offset="0" style="stop-color:#DCDDE1"/>
	<stop  offset="0.29" style="stop-color:#F2F3F5"/>
	<stop  offset="1" style="stop-color:#FFFFFF"/>
</linearGradient>
<path fill="url(#SVGID_11_)" d="M54.443,3.405c0.089,25.913,26.055,21.22,42.692,35.598L54.443,3.405z"/>
</svg>
