<?xml version="1.0" encoding="utf-8"?>
<!-- Generator: Adobe Illustrator 16.0.0, SVG Export Plug-In . SVG Version: 6.00 Build 0)  -->
<!DOCTYPE svg PUBLIC "-//W3C//DTD SVG 1.1//EN" "http://www.w3.org/Graphics/SVG/1.1/DTD/svg11.dtd">
<svg version="1.1" id="圖層_1" xmlns="http://www.w3.org/2000/svg" xmlns:xlink="http://www.w3.org/1999/xlink" x="0px" y="0px"
	 width="100px" height="100px" viewBox="0 0 100 100" enable-background="new 0 0 100 100" xml:space="preserve">
<linearGradient id="SVGID_1_" gradientUnits="userSpaceOnUse" x1="-168.6782" y1="-544.2632" x2="-168.6782" y2="-427.4028" gradientTransform="matrix(0.7745 0 0 -0.7745 180.6426 -326.2773)">
	<stop  offset="0" style="stop-color:#E7945C"/>
	<stop  offset="1" style="stop-color:#F6D0B2"/>
</linearGradient>
<path fill="url(#SVGID_1_)" d="M49.997,4.751c1.449,0,2.878,0.067,4.293,0.19c12.878,12.325,26.701,23.749,41.288,34.436
	c0.855,3.408,1.318,6.968,1.318,10.619C96.896,74.92,75.83,95.255,50,95.255c-25.825,0-46.896-20.332-46.896-45.259
	c0-24.918,21.07-45.25,46.896-45.25L49.997,4.751z"/>
<linearGradient id="SVGID_2_" gradientUnits="userSpaceOnUse" x1="-242.9595" y1="-416.9868" x2="-242.9595" y2="-327.4224" gradientTransform="matrix(1 0 0 -1 292.9556 -322.2021)">
	<stop  offset="0" style="stop-color:#E18A4E"/>
	<stop  offset="1" style="stop-color:#F3BF95"/>
</linearGradient>
<path fill="url(#SVGID_2_)" d="M49.997,5.22c1.577,0,3.125,0.08,4.656,0.239c12.664,11.975,26.156,23.139,40.342,33.639
	c0.92,3.484,1.415,7.144,1.415,10.907c0,24.664-20.853,44.78-46.413,44.78c-25.563,0-46.413-20.125-46.413-44.789
	C3.584,25.333,24.43,5.22,49.993,5.22H49.997z"/>
<linearGradient id="SVGID_3_" gradientUnits="userSpaceOnUse" x1="-242.9648" y1="-416.5122" x2="-242.9648" y2="-327.8882" gradientTransform="matrix(1 0 0 -1 292.9556 -322.2021)">
	<stop  offset="0" style="stop-color:#DC8141"/>
	<stop  offset="1" style="stop-color:#F0B07C"/>
</linearGradient>
<path fill="url(#SVGID_3_)" d="M49.997,5.686c1.699,0,3.375,0.096,5.024,0.295c12.443,11.604,25.62,22.514,39.386,32.851
	c0.982,3.56,1.512,7.31,1.512,11.164c0,24.41-20.627,44.314-45.925,44.314c-25.295,0-45.929-19.904-45.929-44.314
	c0-24.409,20.629-44.31,45.929-44.31H49.997z"/>
<linearGradient id="SVGID_4_" gradientUnits="userSpaceOnUse" x1="-242.9595" y1="-416.0464" x2="-242.9595" y2="-328.3506" gradientTransform="matrix(1 0 0 -1 292.9556 -322.2021)">
	<stop  offset="0" style="stop-color:#D87C37"/>
	<stop  offset="1" style="stop-color:#F0A568"/>
</linearGradient>
<path fill="url(#SVGID_4_)" d="M49.997,6.148c1.831,0,3.625,0.119,5.388,0.351c12.223,11.252,25.074,21.899,38.435,32.062
	c1.054,3.64,1.614,7.478,1.614,11.436c0,24.155-20.41,43.849-45.437,43.849S4.559,74.151,4.559,49.996
	C4.559,25.851,24.974,6.148,49.997,6.148z"/>
<linearGradient id="SVGID_5_" gradientUnits="userSpaceOnUse" x1="-242.9585" y1="-415.5776" x2="-242.9585" y2="-328.8198" gradientTransform="matrix(1 0 0 -1 292.9556 -322.2021)">
	<stop  offset="0" style="stop-color:#D4762D"/>
	<stop  offset="1" style="stop-color:#ED9B54"/>
</linearGradient>
<path fill="url(#SVGID_5_)" d="M49.997,6.618c1.953,0,3.874,0.136,5.754,0.398C67.756,17.911,80.285,28.311,93.236,38.29
	c1.115,3.719,1.717,7.653,1.717,11.706c0,23.892-20.195,43.38-44.957,43.38c-24.757,0-44.956-19.484-44.956-43.38
	C5.041,26.105,25.235,6.618,49.997,6.618z"/>
<linearGradient id="SVGID_6_" gradientUnits="userSpaceOnUse" x1="-242.9575" y1="-415.1118" x2="-242.9575" y2="-329.2939" gradientTransform="matrix(1 0 0 -1 292.9556 -322.2021)">
	<stop  offset="0" style="stop-color:#D17126"/>
	<stop  offset="1" style="stop-color:#EA9244"/>
</linearGradient>
<path fill="url(#SVGID_6_)" d="M49.997,7.092c2.082,0,4.125,0.147,6.123,0.442c11.789,10.543,23.988,20.673,36.533,30.49
	c1.181,3.797,1.816,7.82,1.816,11.981C94.469,73.633,74.492,92.91,50,92.91c-24.491,0-44.473-19.277-44.473-42.914
	C5.528,26.368,25.505,7.092,49.997,7.092z"/>
<linearGradient id="SVGID_7_" gradientUnits="userSpaceOnUse" x1="-242.9624" y1="-414.6411" x2="-242.9624" y2="-329.7598" gradientTransform="matrix(1 0 0 -1 292.9556 -322.2021)">
	<stop  offset="0" style="stop-color:#CF6C20"/>
	<stop  offset="1" style="stop-color:#E98B33"/>
</linearGradient>
<path fill="url(#SVGID_7_)" d="M49.997,7.558c2.209,0,4.375,0.168,6.488,0.501c11.563,10.178,23.446,20.062,35.578,29.689
	c1.245,3.871,1.916,7.987,1.916,12.248c0,23.374-19.762,42.443-43.986,42.443S6.008,73.37,6.008,49.996
	c0-23.369,19.761-42.438,43.985-42.438H49.997z"/>
<linearGradient id="SVGID_8_" gradientUnits="userSpaceOnUse" x1="-242.9575" y1="-414.1743" x2="-242.9575" y2="-330.229" gradientTransform="matrix(1 0 0 -1 292.9556 -322.2021)">
	<stop  offset="0" style="stop-color:#CC671D"/>
	<stop  offset="1" style="stop-color:#E88326"/>
</linearGradient>
<path fill="url(#SVGID_8_)" d="M49.997,8.027c2.335,0,4.621,0.185,6.854,0.55c11.35,9.818,22.906,19.452,34.631,28.9
	c1.308,3.955,2.017,8.164,2.017,12.519c0,23.119-19.543,41.977-43.498,41.977c-23.954,0-43.501-18.857-43.501-41.977
	C6.499,26.877,26.042,8.027,49.997,8.027z"/>
<linearGradient id="SVGID_9_" gradientUnits="userSpaceOnUse" x1="-242.9595" y1="-413.7056" x2="-242.9595" y2="-330.6914" gradientTransform="matrix(1 0 0 -1 292.9556 -322.2021)">
	<stop  offset="0" style="stop-color:#CA641C"/>
	<stop  offset="1" style="stop-color:#E67E1F"/>
</linearGradient>
<path fill="url(#SVGID_9_)" d="M49.997,8.489c2.462,0,4.871,0.207,7.216,0.606c11.13,9.468,22.361,18.834,33.682,28.112
	c1.369,4.029,2.113,8.33,2.113,12.789c0,22.86-19.318,41.508-43.011,41.508c-23.688,0-43.012-18.643-43.012-41.508
	C6.985,27.145,26.308,8.489,49.997,8.489z"/>
<linearGradient id="SVGID_10_" gradientUnits="userSpaceOnUse" x1="-154.0693" y1="-559.5171" x2="-154.0693" y2="-449.1558" gradientTransform="matrix(0.7437 0 0 -0.7437 164.5801 -325.0737)">
	<stop  offset="0" style="stop-color:#C8611D"/>
	<stop  offset="1" style="stop-color:#E6781C"/>
</linearGradient>
<path fill="url(#SVGID_10_)" d="M49.997,8.963c2.589,0,5.121,0.23,7.584,0.657l32.731,27.323c1.436,4.101,2.213,8.498,2.213,13.052
	c0,22.609-19.104,41.043-42.529,41.043c-23.426,0-42.525-18.434-42.525-41.043C7.471,27.396,26.575,8.963,49.997,8.963z"/>
<path fill="#9F653A" d="M54.286,4.938c-0.733,39.787,34.801,31.744,41.292,34.436C80.641,28.455,66.944,16.947,54.286,4.938z"/>
<linearGradient id="SVGID_11_" gradientUnits="userSpaceOnUse" x1="-137.4771" y1="-450.3223" x2="-145.4759" y2="-459.7637" gradientTransform="matrix(0.7745 0 0 -0.7745 181.5957 -326.8457)">
	<stop  offset="0" style="stop-color:#DCDDE1"/>
	<stop  offset="0.29" style="stop-color:#F2F3F5"/>
	<stop  offset="1" style="stop-color:#FFFFFF"/>
</linearGradient>
<path fill="url(#SVGID_11_)" d="M54.286,4.938C54.375,30,79.486,25.46,95.574,39.365L54.286,4.938z"/>
<path fill="#F9E8D2" d="M22.301,59.454c1.851,1.044,4.181,1.346,7.572,0c2.528-1.004,5.854,0.676,8.567,0
	c7.407-1.84,15.812-2.876,22.229,0c1.455,0.652,2.932,0.669,4.398,0c2.08-0.944,5.277,1.026,7.298,0
	c1.767-0.904,3.528-0.904,5.294,0c1.75,0.892,2.109-4.779,0-4.779c-5.906,0-12.237,1.638-17.729,0
	c-5.911-1.778-11.825-1.572-17.732,0c-6.257,1.645-13.263,0-19.894,0c-2.108,0-1.686,3.827,0,4.779H22.301z"/>
<path fill="#F9E8D2" d="M76.656,63.447v4.457c0,2.043-2.697,3.714-5.993,3.714H29.308c-3.297,0-5.992-1.671-5.992-3.714v-3.736
	c0.654,0.14,1.339,0.235,2.071,0.255h0.016c1.776,0.052,3.777-0.299,6.083-1.214c0.252-0.097,1.263,0.048,2.275,0.19
	c1.818,0.259,3.647,0.515,5.725,0c3.446-0.853,7.101-1.521,10.578-1.64c3.24-0.109,6.307,0.25,8.843,1.389
	c1.298,0.577,2.625,0.877,3.978,0.877c1.338,0,2.675-0.295,3.989-0.896c0.224-0.101,0.396,0.227,1.017,0.342
	c2.055,0.386,4.1,0.769,6.443-0.422c0.259-0.129,0.486-0.191,0.682-0.191c0.202,0,0.432,0.063,0.685,0.191
	c0.326,0.166,0.646,0.295,0.96,0.397H76.656z"/>
<path fill="#F9E8D2" d="M22.523,50.598c-8.851-29.613,64.075-29.613,54.939,0c-1.939,0.009-4.061,0.199-6.181,0.391
	c-3.613,0.334-7.231,0.661-10.113-0.207c-3.405-1.02-6.785-1.462-10.136-1.445c-3.334,0.032-6.647,0.525-9.938,1.394
	c-3.415,0.911-7.572,0.57-11.731,0.234C27.179,50.781,24.99,50.606,22.523,50.598z"/>
<path fill="#D56712" d="M25.801,46.878c-0.25-9.173,7.234-13.602,18.974-15.7C36.051,36.124,28.929,41.683,25.801,46.878z"/>
<path fill="#D4AA80" d="M62.085,29.869c3.638,3.719,8.169,5.789,12.739,6.976C71.902,33.56,67.338,31.237,62.085,29.869z"/>
</svg>
