<?xml version="1.0" encoding="utf-8"?>
<!-- Generator: Adobe Illustrator 16.0.0, SVG Export Plug-In . SVG Version: 6.00 Build 0)  -->
<!DOCTYPE svg PUBLIC "-//W3C//DTD SVG 1.1//EN" "http://www.w3.org/Graphics/SVG/1.1/DTD/svg11.dtd">
<svg version="1.1" id="圖層_1" xmlns="http://www.w3.org/2000/svg" xmlns:xlink="http://www.w3.org/1999/xlink" x="0px" y="0px"
	 width="100px" height="100px" viewBox="0 0 100 100" enable-background="new 0 0 100 100" xml:space="preserve">
<linearGradient id="SVGID_1_" gradientUnits="userSpaceOnUse" x1="83.3809" y1="1188.8438" x2="83.3809" y2="1073.2979" gradientTransform="matrix(0.7745 0 0 0.7745 -14.5791 -826.016)">
	<stop  offset="0" style="stop-color:#E7945C"/>
	<stop  offset="1" style="stop-color:#F6D0B2"/>
</linearGradient>
<path fill="url(#SVGID_1_)" d="M50.004,5.259c1.43,0,2.84,0.064,4.245,0.188c12.733,12.184,26.397,23.481,40.825,34.045
	c0.85,3.37,1.297,6.894,1.297,10.506c0,24.645-20.828,44.746-46.367,44.746c-25.542,0-46.375-20.098-46.375-44.746
	c0-24.643,20.833-44.744,46.375-44.744V5.259z"/>
<linearGradient id="SVGID_2_" gradientUnits="userSpaceOnUse" x1="-47.6147" y1="938.8906" x2="-47.6147" y2="850.3262" gradientTransform="matrix(1 0 0 1 97.6221 -844.6045)">
	<stop  offset="0" style="stop-color:#E18A4E"/>
	<stop  offset="1" style="stop-color:#F3BF95"/>
</linearGradient>
<path fill="url(#SVGID_2_)" d="M50.004,5.721c1.561,0,3.094,0.087,4.604,0.245C67.133,17.797,80.475,28.84,94.498,39.227
	c0.916,3.445,1.396,7.064,1.396,10.78c0,24.386-20.617,44.279-45.882,44.279C24.74,94.285,4.12,74.389,4.12,50.006
	c0-24.393,20.62-44.279,45.893-44.279L50.004,5.721z"/>
<linearGradient id="SVGID_3_" gradientUnits="userSpaceOnUse" x1="-47.6196" y1="938.4209" x2="-47.6196" y2="850.791" gradientTransform="matrix(1 0 0 1 97.6221 -844.6045)">
	<stop  offset="0" style="stop-color:#DC8141"/>
	<stop  offset="1" style="stop-color:#F0B07C"/>
</linearGradient>
<path fill="url(#SVGID_3_)" d="M50.004,6.186c1.682,0,3.337,0.096,4.971,0.292C67.271,17.955,80.296,28.74,93.914,38.959
	c0.968,3.524,1.499,7.229,1.499,11.045c0,24.133-20.401,43.813-45.41,43.813c-25.011,0-45.412-19.68-45.412-43.813
	C4.592,25.868,24.994,6.186,50.004,6.186z"/>
<linearGradient id="SVGID_4_" gradientUnits="userSpaceOnUse" x1="-47.6167" y1="937.96" x2="-47.6167" y2="851.251" gradientTransform="matrix(1 0 0 1 97.6221 -844.6045)">
	<stop  offset="0" style="stop-color:#D87C37"/>
	<stop  offset="1" style="stop-color:#F0A568"/>
</linearGradient>
<path fill="url(#SVGID_4_)" d="M50.004,6.646c1.805,0,3.583,0.116,5.33,0.343c12.085,11.126,24.791,21.659,38.003,31.7
	c1.034,3.604,1.599,7.398,1.599,11.314c0,23.879-20.188,43.353-44.931,43.353c-24.75,0-44.93-19.474-44.93-43.353
	S25.255,6.646,50.004,6.646z"/>
<linearGradient id="SVGID_5_" gradientUnits="userSpaceOnUse" x1="-47.6206" y1="937.499" x2="-47.6206" y2="851.7139" gradientTransform="matrix(1 0 0 1 97.6221 -844.6045)">
	<stop  offset="0" style="stop-color:#D4762D"/>
	<stop  offset="1" style="stop-color:#ED9B54"/>
</linearGradient>
<path fill="url(#SVGID_5_)" d="M50.004,7.109c1.936,0,3.827,0.133,5.688,0.396c11.873,10.772,24.254,21.052,37.064,30.919
	c1.102,3.677,1.697,7.567,1.697,11.58c0,23.62-19.969,42.891-44.45,42.891c-24.489,0-44.454-19.268-44.454-42.891
	C5.551,26.376,25.524,7.109,50.004,7.109z"/>
<linearGradient id="SVGID_6_" gradientUnits="userSpaceOnUse" x1="-47.6108" y1="937.0313" x2="-47.6108" y2="852.1836" gradientTransform="matrix(1 0 0 1 97.6221 -844.6045)">
	<stop  offset="0" style="stop-color:#D17126"/>
	<stop  offset="1" style="stop-color:#EA9244"/>
</linearGradient>
<path fill="url(#SVGID_6_)" d="M50.004,7.578c2.057,0,4.081,0.147,6.057,0.438c11.65,10.422,23.713,20.44,36.117,30.141
	c1.165,3.758,1.799,7.732,1.799,11.846c0,23.366-19.752,42.424-43.964,42.424c-24.22,0-43.966-19.063-43.966-42.424
	C6.046,26.64,25.785,7.578,50.004,7.578z"/>
<linearGradient id="SVGID_7_" gradientUnits="userSpaceOnUse" x1="-47.6201" y1="936.5713" x2="-47.6201" y2="852.6426" gradientTransform="matrix(1 0 0 1 97.6221 -844.6045)">
	<stop  offset="0" style="stop-color:#CF6C20"/>
	<stop  offset="1" style="stop-color:#E98B33"/>
</linearGradient>
<path fill="url(#SVGID_7_)" d="M50.004,8.037c2.188,0,4.326,0.169,6.415,0.496c11.433,10.064,23.185,19.836,35.179,29.359
	c1.232,3.826,1.895,7.898,1.895,12.112c0,23.107-19.536,41.963-43.487,41.963c-23.95,0-43.494-18.855-43.494-41.963
	C6.51,26.888,26.055,8.037,50.004,8.037L50.004,8.037z"/>
<linearGradient id="SVGID_8_" gradientUnits="userSpaceOnUse" x1="-47.6216" y1="936.1064" x2="-47.6216" y2="853.1055" gradientTransform="matrix(1 0 0 1 97.6221 -844.6045)">
	<stop  offset="0" style="stop-color:#CC671D"/>
	<stop  offset="1" style="stop-color:#E88326"/>
</linearGradient>
<path fill="url(#SVGID_8_)" d="M50.004,8.501c2.311,0,4.57,0.185,6.773,0.543c11.222,9.712,22.646,19.23,34.24,28.579
	c1.299,3.908,1.991,8.068,1.991,12.379c0,22.854-19.315,41.5-43.005,41.5c-23.688,0-43.013-18.646-43.013-41.5
	C6.992,27.144,26.316,8.501,50.004,8.501z"/>
<linearGradient id="SVGID_9_" gradientUnits="userSpaceOnUse" x1="-47.6167" y1="935.6436" x2="-47.6167" y2="853.5645" gradientTransform="matrix(1 0 0 1 97.6221 -844.6045)">
	<stop  offset="0" style="stop-color:#CA641C"/>
	<stop  offset="1" style="stop-color:#E67E1F"/>
</linearGradient>
<path fill="url(#SVGID_9_)" d="M50.004,8.959c2.432,0,4.816,0.207,7.141,0.597c11,9.359,22.106,18.619,33.295,27.798
	c1.36,3.979,2.098,8.237,2.098,12.649c0,22.601-19.109,41.036-42.533,41.036c-23.427,0-42.531-18.43-42.531-41.036
	C7.473,27.397,26.577,8.959,50.004,8.959z"/>
<linearGradient id="SVGID_10_" gradientUnits="userSpaceOnUse" x1="108.4189" y1="1226.7041" x2="108.4189" y2="1117.5859" gradientTransform="matrix(0.7437 0 0 0.7437 -30.6262 -821.7159)">
	<stop  offset="0" style="stop-color:#C8611D"/>
	<stop  offset="1" style="stop-color:#E6781C"/>
</linearGradient>
<path fill="url(#SVGID_10_)" d="M50.004,9.433c2.555,0,5.061,0.22,7.5,0.644l32.354,27.017c1.42,4.06,2.195,8.402,2.195,12.914
	c0,22.348-18.891,40.576-42.05,40.576c-23.158,0-42.045-18.229-42.045-40.576C7.959,27.655,26.847,9.433,50.004,9.433z"/>
<path fill="#9F653A" d="M54.249,5.448C53.521,44.79,88.652,36.831,95.074,39.493C80.305,28.699,66.766,17.323,54.249,5.448z"/>
<linearGradient id="SVGID_11_" gradientUnits="userSpaceOnUse" x1="114.2295" y1="1095.9736" x2="106.319" y2="1105.311" gradientTransform="matrix(0.7745 0 0 0.7745 -13.626 -826.5834)">
	<stop  offset="0" style="stop-color:#DCDDE1"/>
	<stop  offset="0.29" style="stop-color:#F2F3F5"/>
	<stop  offset="1" style="stop-color:#FFFFFF"/>
</linearGradient>
<path fill="url(#SVGID_11_)" d="M54.249,5.444c0.085,24.782,24.916,20.295,40.825,34.042L54.249,5.444z"/>
<g>
	<g>
		<path fill-rule="evenodd" clip-rule="evenodd" fill="#CCCCCC" d="M13.441,38.627l0.076,7.153c0,0,12.179,14.043,13.51,13.884
			c1.331-0.159,31.45-10.073,32.487-12.297c1.035-2.223,1.625-6.195,1.625-6.195L44.723,27.671L13.441,38.627z"/>
		<path fill-rule="evenodd" clip-rule="evenodd" fill="#CCCCCC" d="M13.952,39.212l31.41-10.957c0,0,16.07,13.148,15.777,13.732
			c-0.293,0.585-31.556,12.271-32.724,12.127C27.247,53.968,13.952,39.212,13.952,39.212z"/>
		<g>
			<path fill-rule="evenodd" clip-rule="evenodd" fill="#FFEDA6" d="M13.732,39.008l0.146,6.882c0,0,11.76,13.333,13.067,13.19
				s31.071-9.749,32.087-11.757c1.016-2.006,1.597-5.591,1.597-5.591L44.513,29.545L13.732,39.008z"/>
			<path fill-rule="evenodd" clip-rule="evenodd" fill="#FFFFD3" d="M14.317,39.066l30.631-10.811c0,0,15.972,12.903,15.68,13.477
				c-0.292,0.573-31.361,12.044-32.521,11.899C26.944,53.488,14.317,39.066,14.317,39.066z"/>
		</g>
	</g>
	<polygon fill-rule="evenodd" clip-rule="evenodd" fill="#FFD35D" points="60.628,41.732 27.757,53.821 26.589,59.08 27.173,53.53 
		14.171,39.65 27.465,52.798 	"/>
</g>
<g>
	<g>
		<path fill-rule="evenodd" clip-rule="evenodd" fill="#CCCCCC" d="M32.939,54.923l0.075,7.152c0,0,12.181,14.043,13.512,13.885
			c1.332-0.159,31.448-10.072,32.484-12.297c1.035-2.223,1.628-6.193,1.628-6.193L64.221,43.966L32.939,54.923z"/>
		<path fill-rule="evenodd" clip-rule="evenodd" fill="#CCCCCC" d="M33.451,55.507L64.859,44.55c0,0,16.07,13.148,15.778,13.732
			c-0.292,0.585-31.555,12.271-32.724,12.126C46.745,70.263,33.451,55.507,33.451,55.507z"/>
		<g>
			<path fill-rule="evenodd" clip-rule="evenodd" fill="#FFEDA6" d="M33.231,55.303l0.146,6.882c0,0,11.759,13.334,13.067,13.191
				c1.306-0.144,31.068-9.75,32.084-11.757c1.016-2.008,1.599-5.592,1.599-5.592L64.012,45.84L33.231,55.303z"/>
			<path fill-rule="evenodd" clip-rule="evenodd" fill="#FFFFD3" d="M33.815,55.361l30.63-10.811c0,0,15.973,12.904,15.683,13.477
				c-0.291,0.574-31.362,12.044-32.523,11.899C46.445,69.784,33.815,55.361,33.815,55.361z"/>
		</g>
	</g>
	<polygon fill-rule="evenodd" clip-rule="evenodd" fill="#FFD35D" points="80.128,58.027 47.257,70.116 46.088,75.376 
		46.672,69.824 33.669,55.945 46.965,69.094 	"/>
</g>
<g>
	<g>
		<path fill-rule="evenodd" clip-rule="evenodd" fill="#CCCCCC" d="M24.306,41.481l0.075,7.153c0,0,12.181,14.042,13.512,13.883
			c1.331-0.157,31.449-10.071,32.484-12.295c1.035-2.224,1.629-6.195,1.629-6.195L55.588,30.525L24.306,41.481z"/>
		<path fill-rule="evenodd" clip-rule="evenodd" fill="#CCCCCC" d="M24.817,42.065l31.411-10.957c0,0,16.069,13.149,15.778,13.733
			c-0.293,0.584-31.558,12.271-32.726,12.126C38.112,56.821,24.817,42.065,24.817,42.065z"/>
		<g>
			<path fill-rule="evenodd" clip-rule="evenodd" fill="#FFEDA6" d="M24.599,41.862l0.145,6.883c0,0,11.76,13.334,13.066,13.19
				c1.307-0.143,31.069-9.75,32.086-11.757c1.018-2.007,1.598-5.592,1.598-5.592L55.379,32.399L24.599,41.862z"/>
			<path fill-rule="evenodd" clip-rule="evenodd" fill="#FFFFD3" d="M25.183,41.92l30.631-10.812c0,0,15.97,12.904,15.681,13.478
				c-0.291,0.575-31.361,12.044-32.522,11.899C37.81,56.343,25.183,41.92,25.183,41.92z"/>
		</g>
	</g>
	<polygon fill-rule="evenodd" clip-rule="evenodd" fill="#FFD35D" points="71.494,44.586 38.622,56.675 37.455,61.935 
		38.038,56.384 25.037,42.504 38.331,55.652 	"/>
</g>
</svg>
