<?xml version="1.0" encoding="utf-8"?>
<!-- Generator: Adobe Illustrator 16.0.0, SVG Export Plug-In . SVG Version: 6.00 Build 0)  -->
<!DOCTYPE svg PUBLIC "-//W3C//DTD SVG 1.1//EN" "http://www.w3.org/Graphics/SVG/1.1/DTD/svg11.dtd">
<svg version="1.1" id="圖層_1" xmlns="http://www.w3.org/2000/svg" xmlns:xlink="http://www.w3.org/1999/xlink" x="0px" y="0px"
	 width="100px" height="100px" viewBox="0 0 100 100" enable-background="new 0 0 100 100" xml:space="preserve">
<linearGradient id="SVGID_1_" gradientUnits="userSpaceOnUse" x1="-134.9395" y1="-576.8403" x2="-134.9395" y2="-461.3979" gradientTransform="matrix(0.7745 0 0 -0.7745 154.5098 -352.0586)">
	<stop  offset="0" style="stop-color:#E7945C"/>
	<stop  offset="1" style="stop-color:#F6D0B2"/>
</linearGradient>
<path fill="url(#SVGID_1_)" d="M49.995,5.299c1.429,0,2.843,0.069,4.242,0.191c12.725,12.176,26.372,23.461,40.787,34.011
	c0.847,3.371,1.301,6.888,1.301,10.501c0,24.621-20.813,44.703-46.326,44.703c-25.517,0-46.325-20.078-46.325-44.703
	c0-24.623,20.808-44.708,46.325-44.708L49.995,5.299z"/>
<linearGradient id="SVGID_2_" gradientUnits="userSpaceOnUse" x1="-216.8296" y1="-442.228" x2="-216.8296" y2="-353.7461" gradientTransform="matrix(1 0 0 -1 266.8228 -347.9824)">
	<stop  offset="0" style="stop-color:#E18A4E"/>
	<stop  offset="1" style="stop-color:#F3BF95"/>
</linearGradient>
<path fill="url(#SVGID_2_)" d="M49.995,5.764c1.557,0,3.089,0.084,4.6,0.242c12.511,11.822,25.839,22.854,39.851,33.23
	c0.908,3.444,1.397,7.058,1.397,10.771c0,24.367-20.597,44.24-45.848,44.24c-25.25,0-45.85-19.879-45.85-44.244
	c0-24.369,20.597-44.239,45.846-44.239H49.995z"/>
<linearGradient id="SVGID_3_" gradientUnits="userSpaceOnUse" x1="-216.8276" y1="-441.7612" x2="-216.8276" y2="-354.21" gradientTransform="matrix(1 0 0 -1 266.8228 -347.9824)">
	<stop  offset="0" style="stop-color:#DC8141"/>
	<stop  offset="1" style="stop-color:#F0B07C"/>
</linearGradient>
<path fill="url(#SVGID_3_)" d="M49.995,6.228c1.679,0,3.336,0.096,4.965,0.289c12.292,11.468,25.302,22.243,38.907,32.455
	c0.972,3.52,1.498,7.221,1.498,11.032c0,24.111-20.378,43.777-45.371,43.777c-24.991,0-45.369-19.66-45.369-43.777
	C4.626,25.887,25.004,6.228,49.995,6.228z"/>
<linearGradient id="SVGID_4_" gradientUnits="userSpaceOnUse" x1="-216.8291" y1="-441.2964" x2="-216.8291" y2="-354.6675" gradientTransform="matrix(1 0 0 -1 266.8228 -347.9824)">
	<stop  offset="0" style="stop-color:#D87C37"/>
	<stop  offset="1" style="stop-color:#F0A568"/>
</linearGradient>
<path fill="url(#SVGID_4_)" d="M49.995,6.685c1.808,0,3.583,0.116,5.324,0.343C67.395,18.146,80.088,28.667,93.287,38.7
	c1.039,3.603,1.596,7.393,1.596,11.303c0,23.859-20.166,43.312-44.888,43.312c-24.72,0-44.89-19.453-44.89-43.312
	c0-23.857,20.166-43.317,44.886-43.317H49.995z"/>
<linearGradient id="SVGID_5_" gradientUnits="userSpaceOnUse" x1="-216.8267" y1="-440.8413" x2="-216.8267" y2="-355.1299" gradientTransform="matrix(1 0 0 -1 266.8228 -347.9824)">
	<stop  offset="0" style="stop-color:#D4762D"/>
	<stop  offset="1" style="stop-color:#ED9B54"/>
</linearGradient>
<path fill="url(#SVGID_5_)" d="M49.995,7.153c1.93,0,3.828,0.131,5.686,0.393C67.54,18.311,79.912,28.582,92.713,38.438
	c1.1,3.673,1.693,7.562,1.693,11.568c0,23.599-19.949,42.853-44.412,42.853c-24.46,0-44.409-19.254-44.409-42.857
	c0-23.604,19.948-42.855,44.409-42.855V7.153z"/>
<linearGradient id="SVGID_6_" gradientUnits="userSpaceOnUse" x1="-216.8257" y1="-440.3706" x2="-216.8257" y2="-355.5981" gradientTransform="matrix(1 0 0 -1 266.8228 -347.9824)">
	<stop  offset="0" style="stop-color:#D17126"/>
	<stop  offset="1" style="stop-color:#EA9244"/>
</linearGradient>
<path fill="url(#SVGID_6_)" d="M49.995,7.616c2.058,0,4.074,0.149,6.049,0.439C67.69,18.468,79.74,28.478,92.135,38.167
	c1.164,3.755,1.796,7.726,1.796,11.835c0,23.347-19.736,42.386-43.932,42.386c-24.193,0-43.934-19.039-43.934-42.386
	C6.064,26.656,25.801,7.616,49.995,7.616z"/>
<linearGradient id="SVGID_7_" gradientUnits="userSpaceOnUse" x1="-216.8276" y1="-439.9136" x2="-216.8276" y2="-356.0586" gradientTransform="matrix(1 0 0 -1 266.8228 -347.9824)">
	<stop  offset="0" style="stop-color:#CF6C20"/>
	<stop  offset="1" style="stop-color:#E98B33"/>
</linearGradient>
<path fill="url(#SVGID_7_)" d="M49.995,8.076c2.185,0,4.321,0.169,6.408,0.495C67.83,18.624,79.565,28.39,91.551,37.902
	c1.226,3.824,1.895,7.891,1.895,12.1c0,23.087-19.519,41.929-43.451,41.929c-23.931,0-43.449-18.838-43.449-41.929
	C6.545,26.911,26.063,8.076,49.995,8.076z"/>
<linearGradient id="SVGID_8_" gradientUnits="userSpaceOnUse" x1="-216.8257" y1="-439.4487" x2="-216.8257" y2="-356.521" gradientTransform="matrix(1 0 0 -1 266.8228 -347.9824)">
	<stop  offset="0" style="stop-color:#CC671D"/>
	<stop  offset="1" style="stop-color:#E88326"/>
</linearGradient>
<path fill="url(#SVGID_8_)" d="M49.995,8.539c2.31,0,4.568,0.184,6.771,0.545c11.213,9.702,22.623,19.211,34.213,28.554
	c1.291,3.902,1.992,8.06,1.992,12.365c0,22.833-19.306,41.464-42.972,41.464c-23.664,0-42.974-18.631-42.974-41.464
	C7.024,27.164,26.331,8.539,49.995,8.539z"/>
<linearGradient id="SVGID_9_" gradientUnits="userSpaceOnUse" x1="-216.8286" y1="-438.9897" x2="-216.8286" y2="-356.981" gradientTransform="matrix(1 0 0 -1 266.8228 -347.9824)">
	<stop  offset="0" style="stop-color:#CA641C"/>
	<stop  offset="1" style="stop-color:#E67E1F"/>
</linearGradient>
<path fill="url(#SVGID_9_)" d="M49.995,9.002c2.433,0,4.814,0.204,7.129,0.597c10.997,9.348,22.091,18.6,33.269,27.773
	c1.359,3.975,2.09,8.229,2.09,12.634c0,22.58-19.092,41.001-42.492,41.001c-23.401,0-42.485-18.422-42.485-41.005
	c0-22.585,19.088-41.004,42.489-41.004V9.002z"/>
<linearGradient id="SVGID_10_" gradientUnits="userSpaceOnUse" x1="-118.9346" y1="-593.5083" x2="-118.9346" y2="-484.4937" gradientTransform="matrix(0.7437 0 0 -0.7437 138.4473 -350.854)">
	<stop  offset="0" style="stop-color:#C8611D"/>
	<stop  offset="1" style="stop-color:#E6781C"/>
</linearGradient>
<path fill="url(#SVGID_10_)" d="M49.995,9.464c2.56,0,5.062,0.227,7.494,0.645l32.33,26.993c1.416,4.056,2.188,8.397,2.188,12.9
	c0,22.328-18.872,40.537-42.011,40.537c-23.138,0-42.01-18.209-42.01-40.537S26.856,9.464,49.995,9.464z"/>
<path fill="#9F653A" d="M54.232,5.49C53.511,44.794,88.606,36.846,95.02,39.501C80.262,28.72,66.738,17.352,54.232,5.49z"/>
<linearGradient id="SVGID_11_" gradientUnits="userSpaceOnUse" x1="-104.1284" y1="-484.0518" x2="-112.0318" y2="-493.3806" gradientTransform="matrix(0.7745 0 0 -0.7745 155.4629 -352.626)">
	<stop  offset="0" style="stop-color:#DCDDE1"/>
	<stop  offset="0.29" style="stop-color:#F2F3F5"/>
	<stop  offset="1" style="stop-color:#FFFFFF"/>
</linearGradient>
<path fill="url(#SVGID_11_)" d="M54.232,5.49c0.087,24.76,24.895,20.274,40.787,34.011L54.232,5.49z"/>
<path fill="#F9E8D2" d="M63.086,62.324c-0.291,0.648-0.785,1.221-1.449,1.619c-1.748,1.061-4.074,0.541-5.166-1.146
	c-1.096-1.691-0.562-3.936,1.193-4.988c0.666-0.406,1.416-0.582,2.148-0.547l-4.947-7.637c-1.844,0-3.656-0.895-4.704-2.51
	c-1.047-1.618-1.084-3.578-0.275-5.18l-3.924-6.062c-0.167,0.128-0.346,0.25-0.534,0.361c-2.593,1.563-6.023,0.798-7.643-1.7
	c-1.62-2.501-0.826-5.812,1.761-7.375c0.187-0.111,0.381-0.213,0.577-0.303l-3.653-5.635c-15.087,9.097-19.703,28.385-10.272,42.942
	c9.425,14.555,29.416,19.008,44.503,9.914l-7.611-11.75L63.086,62.324z M28.13,51.113c-1.62-2.496-0.826-5.807,1.765-7.37
	c2.588-1.563,6.025-0.798,7.644,1.699c1.62,2.498,0.828,5.813-1.765,7.375C33.181,54.379,29.751,53.611,28.13,51.113z
	 M38.674,65.914c-1.753,1.059-4.074,0.537-5.167-1.148c-1.095-1.691-0.561-3.938,1.195-4.986c1.749-1.061,4.072-0.541,5.167,1.146
	C40.963,62.619,40.428,64.861,38.674,65.914z M42.274,59.291c-1.621-2.502-0.828-5.813,1.765-7.375
	c2.588-1.564,6.023-0.799,7.643,1.703c1.619,2.498,0.826,5.811-1.76,7.371c-2.593,1.564-6.025,0.799-7.644-1.699H42.274z
	 M57.104,72.984c-1.748,1.063-4.074,0.543-5.167-1.15c-1.094-1.688-0.56-3.932,1.193-4.986c1.755-1.055,4.075-0.539,5.173,1.152
	c1.094,1.691,0.559,3.936-1.195,4.984H57.104z"/>
</svg>
