<?xml version="1.0" encoding="utf-8"?>
<!-- Generator: Adobe Illustrator 16.0.0, SVG Export Plug-In . SVG Version: 6.00 Build 0)  -->
<!DOCTYPE svg PUBLIC "-//W3C//DTD SVG 1.1//EN" "http://www.w3.org/Graphics/SVG/1.1/DTD/svg11.dtd">
<svg version="1.1" id="圖層_1" xmlns="http://www.w3.org/2000/svg" xmlns:xlink="http://www.w3.org/1999/xlink" x="0px" y="0px"
	 width="200px" height="200px" viewBox="0 0 200 200" enable-background="new 0 0 200 200" xml:space="preserve">
<g>
	<g>
		<path fill="#FF931E" d="M36.024,110.336c0,1.678-0.125,3.032-0.377,4.063c-0.251,1.032-0.646,1.9-1.183,2.605
			c-0.537,0.704-1.225,1.238-2.063,1.598c-0.839,0.361-1.854,0.542-3.045,0.542c-0.538,0-0.994-0.034-1.372-0.101
			c-0.377-0.068-0.667-0.144-0.868-0.228c-0.202-0.083-0.34-0.18-0.416-0.289c-0.076-0.109-0.13-0.235-0.163-0.378
			c-0.034-0.142-0.055-0.288-0.063-0.44c-0.008-0.151-0.012-0.336-0.012-0.553c0-0.303,0.012-0.563,0.038-0.781
			c0.026-0.217,0.066-0.394,0.125-0.527c0.059-0.135,0.126-0.231,0.202-0.29c0.076-0.06,0.172-0.088,0.29-0.088
			c0.1,0,0.297,0.021,0.591,0.063c0.293,0.042,0.632,0.063,1.019,0.063c0.554,0,1.027-0.084,1.422-0.252
			c0.394-0.168,0.717-0.44,0.969-0.818c0.251-0.377,0.436-0.867,0.554-1.471c0.117-0.605,0.176-1.52,0.176-2.744V86.679
			c0-0.116,0.033-0.226,0.101-0.327c0.066-0.101,0.18-0.184,0.34-0.251c0.159-0.067,0.374-0.117,0.642-0.151
			c0.268-0.034,0.604-0.051,1.006-0.051s0.738,0.017,1.006,0.051c0.269,0.034,0.481,0.084,0.642,0.151
			c0.16,0.067,0.272,0.15,0.34,0.251c0.066,0.101,0.1,0.211,0.1,0.327V110.336z M36.503,79.028c0,0.973-0.185,1.636-0.554,1.988
			c-0.369,0.352-1.048,0.528-2.038,0.528c-0.973,0-1.635-0.172-1.988-0.516c-0.353-0.344-0.528-0.994-0.528-1.95
			c0-0.973,0.18-1.636,0.542-1.988c0.36-0.353,1.035-0.528,2.025-0.528c0.991,0,1.661,0.172,2.014,0.516
			C36.327,77.422,36.503,78.072,36.503,79.028z"/>
		<path fill="#FF931E" d="M60.789,109.354c0,0.202-0.067,0.354-0.201,0.453c-0.135,0.102-0.319,0.176-0.555,0.227
			c-0.235,0.051-0.578,0.076-1.031,0.076c-0.438,0-0.785-0.025-1.045-0.076s-0.449-0.125-0.566-0.227
			c-0.117-0.1-0.176-0.251-0.176-0.453v-2.264c-0.99,1.057-2.093,1.878-3.309,2.466c-1.217,0.587-2.505,0.881-3.864,0.881
			c-1.191,0-2.269-0.155-3.233-0.466c-0.965-0.311-1.787-0.759-2.467-1.347c-0.679-0.587-1.208-1.309-1.585-2.164
			c-0.377-0.856-0.565-1.828-0.565-2.919c0-1.275,0.26-2.383,0.78-3.322c0.52-0.94,1.267-1.72,2.239-2.341
			c0.973-0.621,2.165-1.086,3.574-1.397c1.41-0.311,2.996-0.466,4.756-0.466h3.121v-1.761c0-0.873-0.092-1.645-0.276-2.316
			c-0.185-0.67-0.483-1.229-0.893-1.673c-0.412-0.445-0.944-0.781-1.599-1.007c-0.655-0.226-1.46-0.339-2.417-0.339
			c-1.023,0-1.941,0.122-2.755,0.365c-0.814,0.243-1.526,0.512-2.139,0.806c-0.613,0.293-1.125,0.562-1.535,0.805
			c-0.412,0.244-0.718,0.366-0.919,0.366c-0.134,0-0.252-0.034-0.352-0.101c-0.101-0.067-0.188-0.167-0.264-0.302
			c-0.076-0.134-0.13-0.305-0.165-0.516c-0.033-0.209-0.05-0.439-0.05-0.691c0-0.419,0.029-0.751,0.088-0.994
			s0.202-0.474,0.427-0.692c0.228-0.217,0.617-0.474,1.171-0.768c0.554-0.294,1.191-0.562,1.913-0.805
			c0.721-0.243,1.51-0.444,2.366-0.604c0.856-0.16,1.72-0.239,2.593-0.239c1.626,0,3.011,0.185,4.152,0.554
			c1.141,0.369,2.064,0.91,2.768,1.623c0.706,0.713,1.217,1.598,1.536,2.654c0.318,1.058,0.478,2.291,0.478,3.7V109.354z
			 M56.661,99.011h-3.548c-1.142,0-2.131,0.097-2.97,0.289c-0.839,0.194-1.535,0.478-2.088,0.856
			c-0.554,0.377-0.961,0.831-1.221,1.36c-0.26,0.527-0.391,1.136-0.391,1.824c0,1.174,0.374,2.109,1.12,2.806
			c0.746,0.696,1.791,1.044,3.133,1.044c1.09,0,2.102-0.276,3.033-0.83c0.931-0.554,1.909-1.4,2.932-2.542V99.011z"/>
		<path fill="#FF931E" d="M89.253,97.702c0,1.962-0.215,3.729-0.643,5.298c-0.427,1.568-1.058,2.906-1.887,4.014
			c-0.832,1.107-1.851,1.954-3.059,2.542c-1.208,0.587-2.592,0.881-4.151,0.881c-0.723,0-1.39-0.071-2.002-0.214
			s-1.212-0.373-1.8-0.692c-0.587-0.318-1.174-0.722-1.761-1.208c-0.588-0.486-1.208-1.073-1.862-1.762v2.768
			c0,0.135-0.034,0.252-0.102,0.354c-0.066,0.101-0.176,0.18-0.327,0.238c-0.15,0.06-0.339,0.105-0.565,0.139
			c-0.227,0.034-0.517,0.051-0.868,0.051c-0.337,0-0.621-0.017-0.856-0.051c-0.234-0.033-0.428-0.079-0.578-0.139
			c-0.151-0.059-0.252-0.138-0.303-0.238c-0.05-0.102-0.075-0.219-0.075-0.354V75.707c0-0.134,0.029-0.252,0.088-0.353
			s0.168-0.184,0.327-0.252c0.16-0.066,0.373-0.117,0.642-0.151c0.269-0.033,0.604-0.05,1.007-0.05c0.419,0,0.764,0.017,1.032,0.05
			c0.269,0.034,0.478,0.084,0.629,0.151c0.151,0.068,0.261,0.151,0.327,0.252s0.101,0.218,0.101,0.353v13.565
			c0.672-0.688,1.322-1.267,1.95-1.737c0.63-0.469,1.246-0.852,1.851-1.145c0.604-0.293,1.208-0.507,1.812-0.642
			c0.604-0.134,1.242-0.201,1.913-0.201c1.644,0,3.048,0.327,4.215,0.981c1.166,0.654,2.114,1.531,2.845,2.63
			c0.729,1.099,1.261,2.388,1.598,3.863C89.085,94.498,89.253,96.058,89.253,97.702z M84.948,98.18c0-1.158-0.089-2.281-0.265-3.372
			c-0.178-1.091-0.486-2.055-0.925-2.895c-0.439-0.839-1.021-1.514-1.747-2.026c-0.727-0.511-1.63-0.767-2.71-0.767
			c-0.54,0-1.072,0.075-1.595,0.226c-0.523,0.152-1.055,0.403-1.595,0.755c-0.541,0.353-1.103,0.805-1.685,1.359
			c-0.583,0.554-1.202,1.25-1.861,2.089v9.034c1.148,1.394,2.246,2.454,3.292,3.184c1.046,0.73,2.136,1.096,3.267,1.096
			c1.046,0,1.94-0.252,2.684-0.756c0.742-0.504,1.346-1.17,1.811-2c0.465-0.831,0.802-1.762,1.013-2.795
			C84.843,100.282,84.948,99.237,84.948,98.18z"/>
		<path fill="#FF931E" d="M116.559,97.753c0,1.845-0.244,3.544-0.73,5.096s-1.212,2.891-2.177,4.015
			c-0.966,1.123-2.173,2-3.624,2.629c-1.451,0.63-3.133,0.944-5.046,0.944c-1.862,0-3.486-0.276-4.87-0.831
			c-1.385-0.553-2.537-1.359-3.46-2.416s-1.611-2.34-2.063-3.85c-0.453-1.511-0.68-3.222-0.68-5.135
			c0-1.846,0.238-3.544,0.717-5.096c0.479-1.552,1.199-2.89,2.164-4.014c0.966-1.124,2.168-1.997,3.612-2.617
			c1.442-0.621,3.129-0.931,5.058-0.931c1.863,0,3.486,0.276,4.871,0.83c1.384,0.554,2.536,1.359,3.459,2.416
			c0.923,1.057,1.615,2.341,2.077,3.851C116.327,94.154,116.559,95.857,116.559,97.753z M112.254,98.029
			c0-1.225-0.113-2.381-0.342-3.473c-0.229-1.09-0.606-2.047-1.13-2.869c-0.526-0.822-1.236-1.472-2.134-1.95
			c-0.897-0.479-2.014-0.717-3.352-0.717c-1.237,0-2.299,0.218-3.188,0.654c-0.888,0.436-1.62,1.053-2.195,1.849
			c-0.576,0.798-1.004,1.741-1.282,2.832c-0.279,1.091-0.42,2.282-0.42,3.574c0,1.242,0.114,2.408,0.344,3.499
			c0.228,1.091,0.609,2.042,1.142,2.856c0.535,0.814,1.249,1.459,2.146,1.938s2.015,0.717,3.352,0.717
			c1.22,0,2.278-0.217,3.175-0.654c0.896-0.436,1.634-1.048,2.21-1.836c0.574-0.789,0.998-1.729,1.269-2.819
			C112.119,100.538,112.254,99.338,112.254,98.029z"/>
		<path fill="#FF931E" d="M142.178,109.328c0,0.135-0.034,0.248-0.101,0.341s-0.176,0.173-0.326,0.239
			c-0.151,0.066-0.362,0.117-0.631,0.15c-0.268,0.034-0.604,0.051-1.005,0.051c-0.421,0-0.766-0.017-1.033-0.051
			c-0.269-0.033-0.478-0.084-0.629-0.15s-0.26-0.146-0.326-0.239c-0.068-0.093-0.102-0.206-0.102-0.341V96.066
			c0-1.292-0.101-2.332-0.302-3.121c-0.202-0.789-0.495-1.468-0.881-2.039c-0.387-0.57-0.886-1.006-1.498-1.309
			c-0.613-0.302-1.32-0.453-2.126-0.453c-1.041,0-2.081,0.369-3.122,1.107c-1.039,0.739-2.13,1.821-3.271,3.247v15.829
			c0,0.135-0.034,0.248-0.101,0.341s-0.177,0.173-0.327,0.239c-0.151,0.066-0.361,0.117-0.629,0.15
			c-0.269,0.034-0.612,0.051-1.032,0.051c-0.403,0-0.738-0.017-1.007-0.051c-0.269-0.033-0.482-0.084-0.642-0.15
			s-0.269-0.146-0.326-0.239c-0.06-0.093-0.089-0.206-0.089-0.341V86.679c0-0.134,0.024-0.248,0.075-0.339
			c0.051-0.092,0.151-0.176,0.302-0.252c0.151-0.075,0.344-0.125,0.579-0.151c0.235-0.024,0.546-0.038,0.931-0.038
			c0.369,0,0.676,0.014,0.919,0.038c0.243,0.025,0.432,0.076,0.565,0.151c0.135,0.076,0.23,0.16,0.29,0.252
			c0.059,0.092,0.089,0.206,0.089,0.339v2.996c1.274-1.426,2.545-2.471,3.813-3.133c1.267-0.664,2.546-0.994,3.837-0.994
			c1.511,0,2.782,0.255,3.813,0.767c1.032,0.512,1.866,1.196,2.504,2.051c0.639,0.855,1.096,1.858,1.372,3.007
			c0.276,1.149,0.415,2.53,0.415,4.14V109.328z"/>
		<path fill="#FF931E" d="M168.679,87.71c0,0.587-0.08,1.011-0.24,1.271c-0.159,0.26-0.365,0.39-0.616,0.39h-3.246
			c0.587,0.604,0.998,1.271,1.233,2c0.234,0.73,0.353,1.49,0.353,2.278c0,1.309-0.211,2.466-0.63,3.473
			c-0.42,1.006-1.019,1.858-1.8,2.554c-0.779,0.696-1.707,1.229-2.78,1.598c-1.074,0.369-2.266,0.554-3.573,0.554
			c-0.925,0-1.8-0.121-2.631-0.364c-0.83-0.244-1.472-0.55-1.925-0.919c-0.302,0.303-0.55,0.646-0.743,1.033
			c-0.193,0.386-0.289,0.83-0.289,1.334c0,0.588,0.273,1.072,0.817,1.459c0.546,0.387,1.271,0.596,2.178,0.629l5.913,0.252
			c1.125,0.033,2.156,0.189,3.096,0.466c0.94,0.276,1.753,0.671,2.442,1.183c0.688,0.512,1.224,1.141,1.609,1.888
			c0.387,0.747,0.579,1.614,0.579,2.604c0,1.041-0.218,2.029-0.654,2.97c-0.436,0.938-1.104,1.766-2,2.479
			c-0.898,0.713-2.044,1.275-3.436,1.687c-1.393,0.41-3.037,0.617-4.933,0.617c-1.828,0-3.386-0.155-4.668-0.466
			c-1.285-0.311-2.337-0.734-3.16-1.271c-0.82-0.537-1.416-1.179-1.786-1.925c-0.368-0.747-0.553-1.557-0.553-2.428
			c0-0.555,0.066-1.092,0.201-1.611c0.135-0.521,0.34-1.016,0.617-1.484c0.276-0.471,0.619-0.92,1.03-1.348
			c0.412-0.428,0.886-0.851,1.422-1.271c-0.821-0.419-1.43-0.948-1.823-1.585c-0.394-0.638-0.591-1.326-0.591-2.064
			c0-1.023,0.209-1.938,0.628-2.743s0.94-1.526,1.561-2.164c-0.521-0.621-0.931-1.322-1.232-2.103
			c-0.302-0.78-0.454-1.723-0.454-2.831c0-1.292,0.219-2.45,0.654-3.474c0.437-1.023,1.04-1.886,1.813-2.592
			c0.772-0.705,1.698-1.245,2.781-1.623c1.082-0.377,2.261-0.566,3.536-0.566c0.687,0,1.329,0.038,1.924,0.113
			c0.596,0.076,1.154,0.18,1.674,0.314h6.846c0.286,0,0.499,0.139,0.642,0.416C168.605,86.716,168.679,87.141,168.679,87.71z
			 M164.273,111.619c0-0.974-0.398-1.725-1.195-2.253s-1.875-0.809-3.233-0.843l-5.864-0.201c-0.537,0.42-0.978,0.818-1.32,1.195
			c-0.345,0.377-0.618,0.738-0.819,1.082c-0.2,0.344-0.34,0.684-0.415,1.02s-0.113,0.68-0.113,1.032
			c0,1.091,0.555,1.915,1.661,2.479c1.107,0.563,2.651,0.844,4.632,0.844c1.258,0,2.311-0.123,3.157-0.366
			c0.849-0.242,1.531-0.565,2.051-0.968c0.521-0.403,0.895-0.864,1.121-1.385S164.273,112.189,164.273,111.619z M162.186,93.675
			c0-1.543-0.424-2.747-1.271-3.611s-2.051-1.296-3.61-1.296c-0.806,0-1.507,0.135-2.102,0.403
			c-0.597,0.269-1.092,0.638-1.485,1.107c-0.395,0.47-0.688,1.011-0.882,1.623c-0.192,0.613-0.289,1.254-0.289,1.925
			c0,1.494,0.425,2.667,1.271,3.524c0.848,0.855,2.033,1.284,3.562,1.284c0.821,0,1.534-0.13,2.138-0.391
			c0.604-0.26,1.104-0.621,1.498-1.083c0.395-0.461,0.688-0.994,0.881-1.598C162.089,94.959,162.186,94.33,162.186,93.675z"/>
	</g>
	<path fill="#FF931E" d="M181.73,90H177v-1h4.755c0,0,0.408-0.432,0.414-0.811c-0.006-0.757-0.414-1.189-0.414-1.189H177v-1h4.73
		c0.924-1,0.038-1,0.038-1h-2.389c0,0-1.995,0.068-2.794,0.09c-0.798,0.023-1.851,1.084-1.851,1.084l-4.166,0.046
		c0,0-0.245-0.045-0.497,0.012c-0.25,0.057-0.072,0.367-0.072,0.367v1.49v0.936c0,0-0.178,0.298,0.072,0.355
		c0.252,0.057,0.567,0,0.567,0l4.132,0.026c0,0,1.033,1.014,1.833,1.037c0.797,0.022,2.784,0,2.784,0l2.384,0.28
		C181.772,90.723,182.654,90,181.73,90z"/>
</g>
</svg>
