<?xml version="1.0" encoding="utf-8"?>
<!-- Generator: Adobe Illustrator 16.0.0, SVG Export Plug-In . SVG Version: 6.00 Build 0)  -->
<!DOCTYPE svg PUBLIC "-//W3C//DTD SVG 1.1//EN" "http://www.w3.org/Graphics/SVG/1.1/DTD/svg11.dtd">
<svg version="1.1" id="圖層_1" xmlns="http://www.w3.org/2000/svg" xmlns:xlink="http://www.w3.org/1999/xlink" x="0px" y="0px"
	 width="100px" height="100px" viewBox="0 0 100 100" enable-background="new 0 0 100 100" xml:space="preserve">
<linearGradient id="SVGID_1_" gradientUnits="userSpaceOnUse" x1="151.0088" y1="1159.8887" x2="151.0088" y2="1037.9746" gradientTransform="matrix(0.7745 0 0 0.7745 -66.9576 -801.1234)">
	<stop  offset="0" style="stop-color:#FADB7A"/>
	<stop  offset="1" style="stop-color:#F8F6D5"/>
</linearGradient>
<path fill="url(#SVGID_1_)" d="M49.996,2.793c1.512,0,3.002,0.073,4.479,0.202l43.076,35.917c0.891,3.561,1.373,7.274,1.373,11.09
	c0,26-21.979,47.209-48.925,47.209c-26.942,0-48.924-21.205-48.924-47.209C1.075,24,23.057,2.789,49.999,2.789L49.996,2.793z"/>
<linearGradient id="SVGID_2_" gradientUnits="userSpaceOnUse" x1="151.0088" y1="1159.8896" x2="151.0088" y2="1037.9746" gradientTransform="matrix(0.7745 0 0 0.7745 -66.9576 -801.1234)">
	<stop  offset="0" style="stop-color:#EDAF6D"/>
	<stop  offset="1" style="stop-color:#F7E1C6"/>
</linearGradient>
<path fill="url(#SVGID_2_)" d="M49.996,2.793c1.506,0,3.002,0.073,4.479,0.202C67.012,15.667,81.372,27.64,97.547,38.913
	c0.895,3.561,1.377,7.274,1.377,11.09c0,26-21.979,47.209-48.925,47.209c-26.949,0-48.924-21.205-48.924-47.209
	C1.075,24,23.05,2.789,49.999,2.789L49.996,2.793z"/>
<linearGradient id="SVGID_3_" gradientUnits="userSpaceOnUse" x1="4.6411" y1="916.5449" x2="4.6411" y2="823.1094" gradientTransform="matrix(1 0 0 1 45.3555 -819.8223)">
	<stop  offset="0" style="stop-color:#F1B97F"/>
	<stop  offset="1" style="stop-color:#F7E4CC"/>
</linearGradient>
<path fill="url(#SVGID_3_)" d="M49.996,3.287c1.643,0,3.26,0.09,4.855,0.255c12.412,12.319,26.438,24.019,42.08,35.095
	c0.963,3.637,1.479,7.449,1.479,11.37c0,25.733-21.751,46.716-48.414,46.716c-26.669,0-48.413-20.988-48.413-46.716
	c0-25.727,21.75-46.716,48.413-46.716V3.287z"/>
<linearGradient id="SVGID_4_" gradientUnits="userSpaceOnUse" x1="4.6362" y1="916.0469" x2="4.6362" y2="823.6055" gradientTransform="matrix(1 0 0 1 45.3555 -819.8223)">
	<stop  offset="0" style="stop-color:#F3C18B"/>
	<stop  offset="1" style="stop-color:#F8E7CF"/>
</linearGradient>
<path fill="url(#SVGID_4_)" d="M49.996,3.782c1.771,0,3.516,0.102,5.234,0.305c12.283,11.966,25.976,23.388,41.082,34.266
	c1.023,3.717,1.582,7.626,1.582,11.65c0,25.454-21.521,46.222-47.905,46.222c-26.383,0-47.901-20.768-47.901-46.222
	c0-25.455,21.519-46.221,47.901-46.221H49.996L49.996,3.782z"/>
<linearGradient id="SVGID_5_" gradientUnits="userSpaceOnUse" x1="4.6436" y1="915.5527" x2="4.6436" y2="824.0967" gradientTransform="matrix(1 0 0 1 45.3555 -819.8223)">
	<stop  offset="0" style="stop-color:#F3C795"/>
	<stop  offset="1" style="stop-color:#F9E8D2"/>
</linearGradient>
<path fill="url(#SVGID_5_)" d="M49.996,4.274c1.904,0,3.775,0.121,5.619,0.357c12.146,11.613,25.511,22.763,40.09,33.441
	c1.092,3.799,1.682,7.801,1.682,11.931c0,25.188-21.287,45.728-47.388,45.728c-26.101,0-47.388-20.541-47.388-45.728
	c0-25.187,21.291-45.729,47.388-45.729H49.996z"/>
<linearGradient id="SVGID_6_" gradientUnits="userSpaceOnUse" x1="4.6382" y1="915.0664" x2="4.6382" y2="824.5957" gradientTransform="matrix(1 0 0 1 45.3555 -819.8223)">
	<stop  offset="0" style="stop-color:#F3CD9F"/>
	<stop  offset="1" style="stop-color:#F9EAD4"/>
</linearGradient>
<path fill="url(#SVGID_6_)" d="M49.996,4.773c2.033,0,4.036,0.139,5.999,0.413C68.016,16.444,81.042,27.312,95.083,37.8
	c1.162,3.873,1.788,7.976,1.788,12.207c0,24.915-21.059,45.237-46.875,45.237c-25.82,0-46.88-20.319-46.88-45.237
	C3.116,25.088,24.176,4.773,49.996,4.773z"/>
<linearGradient id="SVGID_7_" gradientUnits="userSpaceOnUse" x1="4.6392" y1="914.5752" x2="4.6392" y2="825.084" gradientTransform="matrix(1 0 0 1 45.3555 -819.8223)">
	<stop  offset="0" style="stop-color:#F4D0A6"/>
	<stop  offset="1" style="stop-color:#F9EBD7"/>
</linearGradient>
<path fill="url(#SVGID_7_)" d="M49.996,5.261c2.166,0,4.296,0.162,6.377,0.469c11.891,10.903,24.589,21.502,38.095,31.784
	c1.226,3.961,1.897,8.154,1.897,12.494c0,24.643-20.834,44.745-46.369,44.745c-25.538,0-46.373-20.103-46.373-44.745
	C3.624,25.365,24.453,5.261,49.996,5.261z"/>
<linearGradient id="SVGID_8_" gradientUnits="userSpaceOnUse" x1="4.6455" y1="914.0703" x2="4.6455" y2="825.5762" gradientTransform="matrix(1 0 0 1 45.3555 -819.8223)">
	<stop  offset="0" style="stop-color:#F5D4AC"/>
	<stop  offset="1" style="stop-color:#F9ECD8"/>
</linearGradient>
<path fill="url(#SVGID_8_)" d="M49.996,5.754c2.3,0,4.557,0.18,6.759,0.524c11.759,10.549,24.129,20.867,37.101,30.954
	c1.299,4.037,2,8.328,2,12.77c0,24.369-20.601,44.246-45.855,44.246S4.146,74.371,4.146,50.002c0-24.371,20.6-44.249,45.854-44.249
	L49.996,5.754L49.996,5.754z"/>
<linearGradient id="SVGID_9_" gradientUnits="userSpaceOnUse" x1="4.6387" y1="913.5801" x2="4.6387" y2="826.0723" gradientTransform="matrix(1 0 0 1 45.3555 -819.8223)">
	<stop  offset="0" style="stop-color:#F5D8B2"/>
	<stop  offset="1" style="stop-color:#F9EDDA"/>
</linearGradient>
<path fill="url(#SVGID_9_)" d="M49.996,6.249c2.432,0,4.814,0.196,7.141,0.574c11.629,10.2,23.663,20.243,36.102,30.129
	c1.357,4.123,2.102,8.508,2.102,13.051c0,24.103-20.371,43.755-45.343,43.755c-24.979,0-45.349-19.652-45.349-43.755
	C4.647,25.9,25.017,6.249,49.996,6.249z"/>
<linearGradient id="SVGID_10_" gradientUnits="userSpaceOnUse" x1="4.6392" y1="913.0859" x2="4.6392" y2="826.5645" gradientTransform="matrix(1 0 0 1 45.3555 -819.8223)">
	<stop  offset="0" style="stop-color:#F5DBB7"/>
	<stop  offset="1" style="stop-color:#F9EEDB"/>
</linearGradient>
<path fill="url(#SVGID_10_)" d="M49.996,6.741c2.563,0,5.07,0.214,7.523,0.626c11.496,9.843,23.199,19.609,35.103,29.305
	c1.431,4.197,2.203,8.682,2.203,13.331c0,23.83-20.136,43.261-44.829,43.261c-24.696,0-44.833-19.431-44.833-43.261
	C5.164,26.173,25.304,6.741,49.996,6.741z"/>
<linearGradient id="SVGID_11_" gradientUnits="userSpaceOnUse" x1="179.0371" y1="1196.6563" x2="179.0371" y2="1081.5234" gradientTransform="matrix(0.743 0 0 0.743 -83.0331 -796.3405)">
	<stop  offset="0" style="stop-color:#F6DDBB"/>
	<stop  offset="1" style="stop-color:#F9EFDC"/>
</linearGradient>
<path fill="url(#SVGID_11_)" d="M49.996,7.236c2.693,0,5.332,0.237,7.9,0.683L92.01,36.395c1.494,4.276,2.305,8.857,2.305,13.608
	c0,23.56-19.91,42.772-44.317,42.772c-24.415,0-44.328-19.215-44.328-42.772c0-23.552,19.913-42.771,44.328-42.771L49.996,7.236
	L49.996,7.236z"/>
<path fill="#D4AA80" d="M54.471,2.995c-0.767,41.508,36.307,33.114,43.072,35.917C82.094,27.646,67.732,15.667,54.471,2.995z"/>
<linearGradient id="SVGID_12_" gradientUnits="userSpaceOnUse" x1="183.6123" y1="1061.8623" x2="175.2668" y2="1071.7131" gradientTransform="matrix(0.7745 0 0 0.7745 -66.0049 -801.6903)">
	<stop  offset="0" style="stop-color:#E7E9EC"/>
	<stop  offset="0.34" style="stop-color:#FBFBFC"/>
	<stop  offset="1" style="stop-color:#FFFFFF"/>
</linearGradient>
<path fill="url(#SVGID_12_)" d="M54.471,2.995c0.094,26.148,26.291,21.412,43.072,35.917L54.471,2.995z"/>
<path fill="#F7E4C9" d="M35.442,59.243c-1.974-3.46-4.389-6.623-4.501-10.598c-0.073-2.642,1.465-2.884,2.788-0.761
	c1.585,2.552,3.104,6.742,3.988,10.925C38.216,61.172,36.761,61.544,35.442,59.243z"/>
<g>
	<rect x="26.012" y="31.1" transform="matrix(0.832 0.5547 -0.5547 0.832 25.9668 -8.6428)" width="2.485" height="14.911"/>
	<rect x="16.698" y="35.245" transform="matrix(0.5547 -0.832 0.832 0.5547 -19.6043 36.343)" width="14.911" height="2.485"/>
	<rect x="22.901" y="39.381" transform="matrix(0.5547 -0.8321 0.8321 0.5547 -20.283 43.3491)" width="14.911" height="2.485"/>
	<rect x="70.643" y="60.039" transform="matrix(0.8319 0.555 -0.555 0.8319 47.3028 -29.2256)" width="2.486" height="6.835"/>
	<rect x="74.672" y="66.349" transform="matrix(-0.5547 0.8321 -0.8321 -0.5547 177.6449 40.11)" width="6.834" height="2.485"/>
	<rect x="63.988" y="68.935" transform="matrix(0.5546 -0.8321 0.8321 0.5546 -28.3735 87.3423)" width="6.835" height="2.484"/>
	<rect x="71.57" y="64.282" transform="matrix(-0.5546 0.8321 -0.8321 -0.5546 171.1003 39.47)" width="6.835" height="2.485"/>
	<rect x="72.366" y="70.896" transform="matrix(-0.8319 -0.5549 0.5549 -0.8319 93.6116 176.9795)" width="2.485" height="6.834"/>
	<rect x="67.09" y="71.002" transform="matrix(0.5547 -0.8321 0.8321 0.5547 -28.7143 90.8362)" width="6.834" height="2.485"/>
	<path d="M74.471,70.779"/>
	<line x1="69.646" y1="75.777" x2="70.68" y2="76.466"/>
	<path fill="#C60C30" d="M58.271,41.313c6.854,4.568,8.705,13.826,4.137,20.679c-4.568,6.852-13.827,8.704-20.678,4.137
		c-6.853-4.569-8.705-13.827-4.137-20.68C42.162,38.596,51.42,36.745,58.271,41.313L58.271,41.313z"/>
	<path fill="#003478" d="M37.593,45.448c-2.165,3.248-1.18,8.174,2.068,10.341c3.249,2.164,8.174,1.179,10.339-2.069
		c2.165-3.248,7.091-4.233,10.339-2.067c3.248,2.165,4.234,7.091,2.068,10.339c-2.166,3.249-5.654,5.585-9.482,6.351
		c-3.829,0.766-7.948-0.049-11.196-2.214c-3.249-2.167-5.585-5.655-6.351-9.483S35.428,48.696,37.593,45.448"/>
	<rect x="29.114" y="59.36" transform="matrix(0.8321 -0.5547 0.5547 0.8321 -31.9644 28.0604)" width="2.486" height="14.912"/>
	<polygon points="32.424,74.398 28.448,68.434 28.633,68.712 26.565,70.09 30.356,75.777 	"/>
	<rect x="21.598" y="64.281" transform="matrix(0.5548 0.832 -0.832 0.5548 65.6534 8.3607)" width="6.834" height="2.484"/>
	<polygon points="25.532,70.779 25.531,70.779 24.842,69.745 24.842,69.745 21.051,64.059 18.983,65.438 27.255,77.845 
		29.322,76.466 	"/>
	<polygon points="25.876,70.551 25.532,70.779 25.532,70.779 	"/>
	<line x1="32.424" y1="74.398" x2="33.458" y2="73.709"/>
	<line x1="25.187" y1="61.302" x2="24.153" y2="61.992"/>
	<rect x="68.468" y="42.74" transform="matrix(-0.5546 -0.8321 0.8321 -0.5546 75.1577 128.1938)" width="6.835" height="2.486"/>
	<rect x="66.163" y="33.846" transform="matrix(0.832 -0.5547 0.5547 0.832 -9.3486 43.6525)" width="2.485" height="6.834"/>
	<rect x="70.192" y="31.885" transform="matrix(0.5548 0.832 -0.832 0.5548 60.3291 -46.4931)" width="6.834" height="2.485"/>
	<rect x="67.09" y="33.953" transform="matrix(0.5547 0.832 -0.832 0.5547 60.6781 -42.9928)" width="6.834" height="2.485"/>
	<rect x="71.57" y="40.673" transform="matrix(-0.5547 -0.8321 0.8321 -0.5547 81.7067 127.5597)" width="6.834" height="2.486"/>
	<rect x="76.847" y="36.43" transform="matrix(-0.8319 0.5549 -0.5549 -0.8319 165.1649 29.6678)" width="2.485" height="6.834"/>
	<rect x="72.954" y="38.088" transform="matrix(-0.5536 -0.8328 0.8328 -0.5536 81.0708 122.1182)" width="0.621" height="2.486"/>
	<rect x="70.988" y="37.469" transform="matrix(0.8321 -0.5546 0.5546 0.8321 -8.8266 46.4026)" width="2.485" height="0.622"/>
	<polyline points="72.059,39.762 71.369,38.728 73.437,37.349 73.092,36.833 73.092,36.833 74.471,38.9 74.471,38.9 74.126,38.384 	
		"/>
	<path fill="#FFFFFF" d="M27.944,67.678"/>
	<path fill="#FFFFFF" d="M29.667,68.022"/>
</g>
</svg>
