<?xml version="1.0" encoding="utf-8"?>
<!-- Generator: Adobe Illustrator 16.0.0, SVG Export Plug-In . SVG Version: 6.00 Build 0)  -->
<!DOCTYPE svg PUBLIC "-//W3C//DTD SVG 1.1//EN" "http://www.w3.org/Graphics/SVG/1.1/DTD/svg11.dtd">
<svg version="1.1" id="圖層_1" xmlns="http://www.w3.org/2000/svg" xmlns:xlink="http://www.w3.org/1999/xlink" x="0px" y="0px"
	 width="100px" height="100px" viewBox="0 0 100 100" enable-background="new 0 0 100 100" xml:space="preserve">
<linearGradient id="SVGID_1_" gradientUnits="userSpaceOnUse" x1="151.0088" y1="1159.8887" x2="151.0088" y2="1037.9746" gradientTransform="matrix(0.7745 0 0 0.7745 -66.9576 -801.1234)">
	<stop  offset="0" style="stop-color:#FADB7A"/>
	<stop  offset="1" style="stop-color:#F8F6D5"/>
</linearGradient>
<path fill="url(#SVGID_1_)" d="M49.996,2.793c1.512,0,3.002,0.073,4.479,0.202l43.076,35.917c0.891,3.561,1.373,7.274,1.373,11.09
	c0,26-21.979,47.209-48.925,47.209c-26.942,0-48.924-21.205-48.924-47.209C1.075,24,23.057,2.789,49.999,2.789L49.996,2.793z"/>
<linearGradient id="SVGID_2_" gradientUnits="userSpaceOnUse" x1="151.0088" y1="1159.8896" x2="151.0088" y2="1037.9746" gradientTransform="matrix(0.7745 0 0 0.7745 -66.9576 -801.1234)">
	<stop  offset="0" style="stop-color:#EDAF6D"/>
	<stop  offset="1" style="stop-color:#F7E1C6"/>
</linearGradient>
<path fill="url(#SVGID_2_)" d="M49.996,2.793c1.506,0,3.002,0.073,4.479,0.202C67.012,15.667,81.372,27.64,97.547,38.913
	c0.895,3.561,1.377,7.274,1.377,11.09c0,26-21.979,47.209-48.925,47.209c-26.949,0-48.924-21.205-48.924-47.209
	C1.075,24,23.05,2.789,49.999,2.789L49.996,2.793z"/>
<linearGradient id="SVGID_3_" gradientUnits="userSpaceOnUse" x1="4.6411" y1="916.5449" x2="4.6411" y2="823.1094" gradientTransform="matrix(1 0 0 1 45.3555 -819.8223)">
	<stop  offset="0" style="stop-color:#F1B97F"/>
	<stop  offset="1" style="stop-color:#F7E4CC"/>
</linearGradient>
<path fill="url(#SVGID_3_)" d="M49.996,3.287c1.643,0,3.26,0.09,4.855,0.255c12.412,12.319,26.438,24.019,42.08,35.095
	c0.963,3.637,1.479,7.449,1.479,11.37c0,25.733-21.751,46.716-48.414,46.716c-26.669,0-48.413-20.988-48.413-46.716
	c0-25.727,21.75-46.716,48.413-46.716V3.287z"/>
<linearGradient id="SVGID_4_" gradientUnits="userSpaceOnUse" x1="4.6362" y1="916.0469" x2="4.6362" y2="823.6055" gradientTransform="matrix(1 0 0 1 45.3555 -819.8223)">
	<stop  offset="0" style="stop-color:#F3C18B"/>
	<stop  offset="1" style="stop-color:#F8E7CF"/>
</linearGradient>
<path fill="url(#SVGID_4_)" d="M49.996,3.782c1.771,0,3.516,0.102,5.234,0.305c12.283,11.966,25.976,23.388,41.082,34.266
	c1.023,3.717,1.582,7.626,1.582,11.65c0,25.454-21.521,46.222-47.905,46.222c-26.383,0-47.901-20.768-47.901-46.222
	c0-25.455,21.519-46.221,47.901-46.221H49.996L49.996,3.782z"/>
<linearGradient id="SVGID_5_" gradientUnits="userSpaceOnUse" x1="4.6436" y1="915.5527" x2="4.6436" y2="824.0967" gradientTransform="matrix(1 0 0 1 45.3555 -819.8223)">
	<stop  offset="0" style="stop-color:#F3C795"/>
	<stop  offset="1" style="stop-color:#F9E8D2"/>
</linearGradient>
<path fill="url(#SVGID_5_)" d="M49.996,4.274c1.904,0,3.775,0.121,5.619,0.357c12.146,11.613,25.511,22.763,40.09,33.441
	c1.092,3.799,1.682,7.801,1.682,11.931c0,25.188-21.287,45.728-47.388,45.728c-26.101,0-47.388-20.541-47.388-45.728
	c0-25.187,21.291-45.729,47.388-45.729H49.996z"/>
<linearGradient id="SVGID_6_" gradientUnits="userSpaceOnUse" x1="4.6382" y1="915.0664" x2="4.6382" y2="824.5957" gradientTransform="matrix(1 0 0 1 45.3555 -819.8223)">
	<stop  offset="0" style="stop-color:#F3CD9F"/>
	<stop  offset="1" style="stop-color:#F9EAD4"/>
</linearGradient>
<path fill="url(#SVGID_6_)" d="M49.996,4.773c2.033,0,4.036,0.139,5.999,0.413C68.016,16.444,81.042,27.312,95.083,37.8
	c1.162,3.873,1.788,7.976,1.788,12.207c0,24.915-21.059,45.237-46.875,45.237c-25.82,0-46.88-20.319-46.88-45.237
	C3.116,25.088,24.176,4.773,49.996,4.773z"/>
<linearGradient id="SVGID_7_" gradientUnits="userSpaceOnUse" x1="4.6392" y1="914.5752" x2="4.6392" y2="825.084" gradientTransform="matrix(1 0 0 1 45.3555 -819.8223)">
	<stop  offset="0" style="stop-color:#F4D0A6"/>
	<stop  offset="1" style="stop-color:#F9EBD7"/>
</linearGradient>
<path fill="url(#SVGID_7_)" d="M49.996,5.261c2.166,0,4.296,0.162,6.377,0.469c11.891,10.903,24.589,21.502,38.095,31.784
	c1.226,3.961,1.897,8.154,1.897,12.494c0,24.643-20.834,44.745-46.369,44.745c-25.538,0-46.373-20.103-46.373-44.745
	C3.624,25.365,24.453,5.261,49.996,5.261z"/>
<linearGradient id="SVGID_8_" gradientUnits="userSpaceOnUse" x1="4.6455" y1="914.0703" x2="4.6455" y2="825.5762" gradientTransform="matrix(1 0 0 1 45.3555 -819.8223)">
	<stop  offset="0" style="stop-color:#F5D4AC"/>
	<stop  offset="1" style="stop-color:#F9ECD8"/>
</linearGradient>
<path fill="url(#SVGID_8_)" d="M49.996,5.754c2.3,0,4.557,0.18,6.759,0.524c11.759,10.549,24.129,20.867,37.101,30.954
	c1.299,4.037,2,8.328,2,12.77c0,24.369-20.601,44.246-45.855,44.246S4.146,74.371,4.146,50.002c0-24.371,20.6-44.249,45.854-44.249
	L49.996,5.754L49.996,5.754z"/>
<linearGradient id="SVGID_9_" gradientUnits="userSpaceOnUse" x1="4.6387" y1="913.5801" x2="4.6387" y2="826.0723" gradientTransform="matrix(1 0 0 1 45.3555 -819.8223)">
	<stop  offset="0" style="stop-color:#F5D8B2"/>
	<stop  offset="1" style="stop-color:#F9EDDA"/>
</linearGradient>
<path fill="url(#SVGID_9_)" d="M49.996,6.249c2.432,0,4.814,0.196,7.141,0.574c11.629,10.2,23.663,20.243,36.102,30.129
	c1.357,4.123,2.102,8.508,2.102,13.051c0,24.103-20.371,43.755-45.343,43.755c-24.979,0-45.349-19.652-45.349-43.755
	C4.647,25.9,25.017,6.249,49.996,6.249z"/>
<linearGradient id="SVGID_10_" gradientUnits="userSpaceOnUse" x1="4.6392" y1="913.0859" x2="4.6392" y2="826.5645" gradientTransform="matrix(1 0 0 1 45.3555 -819.8223)">
	<stop  offset="0" style="stop-color:#F5DBB7"/>
	<stop  offset="1" style="stop-color:#F9EEDB"/>
</linearGradient>
<path fill="url(#SVGID_10_)" d="M49.996,6.741c2.563,0,5.07,0.214,7.523,0.626c11.496,9.843,23.199,19.609,35.103,29.305
	c1.431,4.197,2.203,8.682,2.203,13.331c0,23.83-20.136,43.261-44.829,43.261c-24.696,0-44.833-19.431-44.833-43.261
	C5.164,26.173,25.304,6.741,49.996,6.741z"/>
<linearGradient id="SVGID_11_" gradientUnits="userSpaceOnUse" x1="179.0371" y1="1196.6563" x2="179.0371" y2="1081.5234" gradientTransform="matrix(0.743 0 0 0.743 -83.0331 -796.3405)">
	<stop  offset="0" style="stop-color:#F6DDBB"/>
	<stop  offset="1" style="stop-color:#F9EFDC"/>
</linearGradient>
<path fill="url(#SVGID_11_)" d="M49.996,7.236c2.693,0,5.332,0.237,7.9,0.683L92.01,36.395c1.494,4.276,2.305,8.857,2.305,13.608
	c0,23.56-19.91,42.772-44.317,42.772c-24.415,0-44.328-19.215-44.328-42.772c0-23.552,19.913-42.771,44.328-42.771L49.996,7.236
	L49.996,7.236z"/>
<path fill="#D4AA80" d="M54.471,2.995c-0.767,41.508,36.307,33.114,43.072,35.917C82.094,27.646,67.732,15.667,54.471,2.995z"/>
<linearGradient id="SVGID_12_" gradientUnits="userSpaceOnUse" x1="183.6123" y1="1061.8623" x2="175.2668" y2="1071.7131" gradientTransform="matrix(0.7745 0 0 0.7745 -66.0049 -801.6903)">
	<stop  offset="0" style="stop-color:#E7E9EC"/>
	<stop  offset="0.34" style="stop-color:#FBFBFC"/>
	<stop  offset="1" style="stop-color:#FFFFFF"/>
</linearGradient>
<path fill="url(#SVGID_12_)" d="M54.471,2.995c0.094,26.148,26.291,21.412,43.072,35.917L54.471,2.995z"/>
<path fill="#F7E4C9" d="M35.442,59.243c-1.974-3.46-4.389-6.623-4.501-10.598c-0.073-2.642,1.465-2.884,2.788-0.761
	c1.585,2.552,3.104,6.742,3.988,10.925C38.216,61.172,36.761,61.544,35.442,59.243z"/>
<path fill="#E3BD00" d="M56.309,84.414c0,0,0.85,1.942-3.765,0.607c0,0-1.456-0.486-2.063-1.336l0.85-0.243
	C51.33,83.442,55.458,85.507,56.309,84.414z"/>
<path fill="#D56712" d="M54.352,82.593c0,0,0.179,1.578,1.957,1.457c0,0-0.712,2.429-4.979-0.607L54.352,82.593z"/>
<path fill="#E3BD00" d="M37.793,84.414c0,0-0.85,1.942,3.764,0.607c0,0,1.457-0.486,2.063-1.336l-0.85-0.243
	C42.771,83.442,38.643,85.507,37.793,84.414z"/>
<path fill="#D56712" d="M39.749,82.593c0,0-0.178,1.579-1.955,1.457c0,0,0.711,2.429,4.978-0.607L39.749,82.593z"/>
<path fill="#D56712" d="M41.071,55.58c0,0-6.677,14.57-5.342,26.073c0,0,11.898,6.902,22.46-0.128c0,0,1.457-16.359-5.099-25.945
	H41.071z"/>
<path fill="#D96651" d="M50.541,56.219c0,0,6.313,10.353,3.277,22.367c0,0,1.822-11.887-5.827-20.961c0,0,3.763,10.353,1.942,15.465
	c0,0-0.607-11.375-5.221-15.721c0,0-5.949,3.067-4.856,18.277c0,0-1.942-9.842,0.728-18.916
	C40.585,56.73,48.234,55.708,50.541,56.219z"/>
<polygon fill="#D56712" points="42.771,48.053 40.343,49.388 41.314,55.944 53.213,55.822 53.455,49.995 51.634,48.296 "/>
<linearGradient id="SVGID_13_" gradientUnits="userSpaceOnUse" x1="36.5962" y1="55.5195" x2="41.9214" y2="55.5195">
	<stop  offset="0" style="stop-color:#F3C18B"/>
	<stop  offset="1" style="stop-color:#F8E7CF"/>
</linearGradient>
<path fill="url(#SVGID_13_)" d="M40.464,49.752c0,0-4.613,2.308-3.764,10.927l5.221,0.607L40.464,49.752z"/>
<path fill="#FFD9B6" d="M45.381,45.199c0,0,0.91,2.914-2.55,2.914c0,0,5.463,5.646,8.559,0c0,0-4.552,0-2.914-3.277L45.381,45.199z"
	/>
<ellipse fill="#FFD9B6" cx="56.187" cy="37.733" rx="2.003" ry="2.276"/>
<ellipse fill="#FFD9B6" cx="36.519" cy="38.188" rx="2.003" ry="2.276"/>
<circle fill="#FFE6C2" cx="46.535" cy="35.912" r="9.834"/>
<circle fill="#977200" cx="39.705" cy="36.947" r="0.934"/>
<circle fill="#FFFFFF" cx="39.96" cy="37.312" r="0.371"/>
<circle fill="#977200" cx="52.486" cy="36.919" r="0.934"/>
<circle fill="#FFFFFF" cx="52.74" cy="37.283" r="0.371"/>
<ellipse fill="#FFCC99" cx="53.055" cy="39.873" rx="2.336" ry="1.231"/>
<ellipse fill="#FFCC99" cx="40.269" cy="40.073" rx="2.335" ry="1.231"/>
<circle fill="#FFFFFF" cx="38.953" cy="39.648" r="0.372"/>
<circle fill="#FFFFFF" cx="51.686" cy="39.491" r="0.371"/>
<path fill="#FF9999" d="M44.167,41.922h5.099C49.266,41.922,46.717,45.564,44.167,41.922z"/>
<path fill="#D56712" d="M36.701,36.459c0,0,3.023-6.01,8.504-5.464l0.945-3.46l0.756,3.46c0,0,5.102-0.729,9.827,4.917
	c0,0,0.189-12.93-10.772-13.294C45.96,22.618,35.378,22.618,36.701,36.459z"/>
<circle fill="#D56712" cx="55.913" cy="42.56" r="1.912"/>
<circle fill="#D56712" cx="58.281" cy="45.382" r="1.912"/>
<circle fill="#D56712" cx="61.923" cy="46.293" r="1.912"/>
<circle fill="#D56712" cx="65.201" cy="44.653" r="1.912"/>
<polygon fill="#E8F2FF" points="44.106,47.203 47.506,51.088 46.413,51.816 42.771,48.174 "/>
<polygon fill="#DCEBFF" points="49.934,47.567 46.292,51.331 47.506,52.424 51.27,48.235 "/>
<polygon fill="#ED6666" points="66.748,43.379 68.934,37.915 72.029,37.369 72.94,41.012 67.477,43.926 "/>
<polygon fill="#FF6666" points="66.807,43.435 72.495,41.929 74.781,44.087 72.4,46.991 66.803,44.345 "/>
<ellipse fill="#FF6666" cx="46.353" cy="53.88" rx="0.911" ry="0.972"/>
<path fill="#FF6666" d="M47.384,53.517l3.521-0.972c0,0,1.7,1.457,0.243,2.55l-4.007-0.972L47.384,53.517z"/>
<linearGradient id="SVGID_14_" gradientUnits="userSpaceOnUse" x1="34.1611" y1="62.0117" x2="44.6948" y2="62.0117">
	<stop  offset="0" style="stop-color:#F3CD9F"/>
	<stop  offset="1" style="stop-color:#F9EAD4"/>
</linearGradient>
<polygon fill="url(#SVGID_14_)" points="34.161,55.087 34.315,57.145 44.329,68.936 44.695,67.325 "/>
<linearGradient id="SVGID_15_" gradientUnits="userSpaceOnUse" x1="44.3286" y1="66.0918" x2="53.6426" y2="66.0918">
	<stop  offset="0" style="stop-color:#F3CD9F"/>
	<stop  offset="1" style="stop-color:#F9EAD4"/>
</linearGradient>
<polygon fill="url(#SVGID_15_)" points="53.643,63.247 53.406,65.091 44.329,68.936 44.335,67.353 "/>
<linearGradient id="SVGID_16_" gradientUnits="userSpaceOnUse" x1="34.1611" y1="58.7988" x2="53.7549" y2="58.7988">
	<stop  offset="0" style="stop-color:#F1B97F"/>
	<stop  offset="1" style="stop-color:#F7E4CC"/>
</linearGradient>
<polygon fill="url(#SVGID_16_)" points="34.161,55.087 43.036,50.04 53.755,63.116 44.834,67.559 "/>
<polygon fill="#FFFFFF" points="39.751,61.529 48.841,57.213 48.219,55.944 39.129,60.768 "/>
<linearGradient id="SVGID_17_" gradientUnits="userSpaceOnUse" x1="49.8125" y1="56.916" x2="57.9043" y2="56.916">
	<stop  offset="0" style="stop-color:#F1B97F"/>
	<stop  offset="1" style="stop-color:#F7E4CC"/>
</linearGradient>
<path fill="url(#SVGID_17_)" d="M53.576,50.116c0,0,10.926,9.714-1.942,13.599l-1.821-3.279c0,0,3.764-2.791,3.278-4.855
	L53.576,50.116z"/>
<polygon fill="#E8F2FF" points="48.963,60.436 51.115,63.715 52.119,63.472 49.824,59.95 "/>
<linearGradient id="SVGID_18_" gradientUnits="userSpaceOnUse" x1="35.5391" y1="61.5898" x2="39.0073" y2="61.5898">
	<stop  offset="0" style="stop-color:#F4D0A6"/>
	<stop  offset="1" style="stop-color:#F9EBD7"/>
</linearGradient>
<path fill="url(#SVGID_18_)" d="M36.094,58.615l2.914,1.214l-0.121,4.735C38.886,64.564,33.908,61.529,36.094,58.615z"/>
<polygon fill="#E8F2FF" points="39.007,59.829 38.886,64.564 39.979,64.807 39.979,60.193 "/>
<ellipse fill="#FFE6C2" cx="40.95" cy="62.834" rx="1.639" ry="1.518"/>
<polygon fill="#FFFFFF" points="39.25,52.545 49.327,65.171 49.448,66.628 48.477,66.992 48.356,65.778 38.158,53.03 "/>
<ellipse fill="#FFE6C2" cx="48.599" cy="62.52" rx="1.457" ry="1.573"/>
<path fill="#FF6666" d="M47.142,54.123c0,0,1.335,6.678,6.921,5.099l-1.215,2.186C52.848,61.407,47.384,59.95,47.142,54.123z"/>
</svg>
