<?xml version="1.0" encoding="utf-8"?>
<!-- Generator: Adobe Illustrator 16.0.0, SVG Export Plug-In . SVG Version: 6.00 Build 0)  -->
<!DOCTYPE svg PUBLIC "-//W3C//DTD SVG 1.1//EN" "http://www.w3.org/Graphics/SVG/1.1/DTD/svg11.dtd">
<svg version="1.1" id="圖層_1" xmlns="http://www.w3.org/2000/svg" xmlns:xlink="http://www.w3.org/1999/xlink" x="0px" y="0px"
	 width="100px" height="100px" viewBox="0 0 100 100" enable-background="new 0 0 100 100" xml:space="preserve">
<linearGradient id="SVGID_1_" gradientUnits="userSpaceOnUse" x1="-236.1621" y1="-610.1782" x2="-236.1621" y2="-494.6333" gradientTransform="matrix(0.7745 0 0 -0.7745 232.9082 -377.8389)">
	<stop  offset="0" style="stop-color:#E7945C"/>
	<stop  offset="1" style="stop-color:#F6D0B2"/>
</linearGradient>
<path fill="url(#SVGID_1_)" d="M50.004,5.259c1.429,0,2.84,0.064,4.245,0.188c12.733,12.184,26.397,23.481,40.825,34.045
	c0.85,3.37,1.297,6.894,1.297,10.506c0,24.644-20.828,44.746-46.367,44.746c-25.542,0-46.375-20.098-46.375-44.746
	c0-24.643,20.833-44.744,46.375-44.744V5.259z"/>
<linearGradient id="SVGID_2_" gradientUnits="userSpaceOnUse" x1="-295.2144" y1="-468.0493" x2="-295.2144" y2="-379.4858" gradientTransform="matrix(1 0 0 -1 345.2217 -373.7646)">
	<stop  offset="0" style="stop-color:#E18A4E"/>
	<stop  offset="1" style="stop-color:#F3BF95"/>
</linearGradient>
<path fill="url(#SVGID_2_)" d="M50.004,5.721c1.56,0,3.093,0.087,4.603,0.245C67.133,17.797,80.475,28.84,94.498,39.227
	c0.916,3.445,1.396,7.064,1.396,10.78c0,24.386-20.617,44.279-45.882,44.279C24.74,94.285,4.12,74.389,4.12,50.006
	c0-24.393,20.62-44.279,45.893-44.279L50.004,5.721z"/>
<linearGradient id="SVGID_3_" gradientUnits="userSpaceOnUse" x1="-295.2188" y1="-467.5806" x2="-295.2188" y2="-379.9507" gradientTransform="matrix(1 0 0 -1 345.2217 -373.7646)">
	<stop  offset="0" style="stop-color:#DC8141"/>
	<stop  offset="1" style="stop-color:#F0B07C"/>
</linearGradient>
<path fill="url(#SVGID_3_)" d="M50.004,6.186c1.681,0,3.337,0.096,4.97,0.292c12.297,11.477,25.322,22.262,38.94,32.481
	c0.968,3.524,1.499,7.229,1.499,11.045c0,24.133-20.402,43.813-45.41,43.813c-25.011,0-45.412-19.68-45.412-43.813
	C4.592,25.868,24.994,6.186,50.004,6.186z"/>
<linearGradient id="SVGID_4_" gradientUnits="userSpaceOnUse" x1="-295.2173" y1="-467.1196" x2="-295.2173" y2="-380.4111" gradientTransform="matrix(1 0 0 -1 345.2217 -373.7646)">
	<stop  offset="0" style="stop-color:#D87C37"/>
	<stop  offset="1" style="stop-color:#F0A568"/>
</linearGradient>
<path fill="url(#SVGID_4_)" d="M50.004,6.646c1.804,0,3.583,0.116,5.33,0.343c12.085,11.126,24.791,21.659,38.003,31.7
	c1.034,3.604,1.599,7.398,1.599,11.314c0,23.879-20.189,43.352-44.931,43.352c-24.75,0-44.93-19.473-44.93-43.352
	S25.255,6.646,50.004,6.646z"/>
<linearGradient id="SVGID_5_" gradientUnits="userSpaceOnUse" x1="-295.2192" y1="-466.6587" x2="-295.2192" y2="-380.874" gradientTransform="matrix(1 0 0 -1 345.2217 -373.7646)">
	<stop  offset="0" style="stop-color:#D4762D"/>
	<stop  offset="1" style="stop-color:#ED9B54"/>
</linearGradient>
<path fill="url(#SVGID_5_)" d="M50.004,7.109c1.935,0,3.827,0.133,5.688,0.396c11.872,10.772,24.253,21.052,37.064,30.919
	c1.102,3.677,1.697,7.567,1.697,11.58c0,23.62-19.969,42.891-44.45,42.891c-24.489,0-44.454-19.268-44.454-42.891
	C5.551,26.376,25.524,7.109,50.004,7.109z"/>
<linearGradient id="SVGID_6_" gradientUnits="userSpaceOnUse" x1="-295.2104" y1="-466.1919" x2="-295.2104" y2="-381.3428" gradientTransform="matrix(1 0 0 -1 345.2217 -373.7646)">
	<stop  offset="0" style="stop-color:#D17126"/>
	<stop  offset="1" style="stop-color:#EA9244"/>
</linearGradient>
<path fill="url(#SVGID_6_)" d="M50.004,7.578c2.057,0,4.081,0.147,6.056,0.438c11.651,10.422,23.713,20.44,36.117,30.141
	c1.166,3.758,1.799,7.732,1.799,11.846c0,23.366-19.752,42.424-43.964,42.424c-24.22,0-43.966-19.063-43.966-42.424
	C6.046,26.64,25.785,7.578,50.004,7.578z"/>
<linearGradient id="SVGID_7_" gradientUnits="userSpaceOnUse" x1="-295.2212" y1="-465.731" x2="-295.2212" y2="-381.8013" gradientTransform="matrix(1 0 0 -1 345.2217 -373.7646)">
	<stop  offset="0" style="stop-color:#CF6C20"/>
	<stop  offset="1" style="stop-color:#E98B33"/>
</linearGradient>
<path fill="url(#SVGID_7_)" d="M50.004,8.037c2.187,0,4.326,0.169,6.415,0.496c11.432,10.064,23.185,19.836,35.179,29.359
	c1.232,3.826,1.894,7.898,1.894,12.112c0,23.108-19.536,41.963-43.487,41.963c-23.95,0-43.494-18.855-43.494-41.963
	C6.51,26.888,26.055,8.037,50.004,8.037L50.004,8.037z"/>
<linearGradient id="SVGID_8_" gradientUnits="userSpaceOnUse" x1="-295.2212" y1="-465.2681" x2="-295.2212" y2="-382.2661" gradientTransform="matrix(1 0 0 -1 345.2217 -373.7646)">
	<stop  offset="0" style="stop-color:#CC671D"/>
	<stop  offset="1" style="stop-color:#E88326"/>
</linearGradient>
<path fill="url(#SVGID_8_)" d="M50.004,8.501c2.31,0,4.57,0.185,6.773,0.543c11.222,9.712,22.646,19.23,34.241,28.579
	c1.298,3.908,1.991,8.068,1.991,12.379c0,22.854-19.315,41.5-43.005,41.5c-23.688,0-43.013-18.646-43.013-41.5
	C6.992,27.144,26.316,8.501,50.004,8.501z"/>
<linearGradient id="SVGID_9_" gradientUnits="userSpaceOnUse" x1="-295.2163" y1="-464.8032" x2="-295.2163" y2="-382.7241" gradientTransform="matrix(1 0 0 -1 345.2217 -373.7646)">
	<stop  offset="0" style="stop-color:#CA641C"/>
	<stop  offset="1" style="stop-color:#E67E1F"/>
</linearGradient>
<path fill="url(#SVGID_9_)" d="M50.004,8.959c2.432,0,4.816,0.207,7.14,0.597c11.001,9.359,22.107,18.619,33.295,27.798
	c1.361,3.979,2.098,8.237,2.098,12.649c0,22.6-19.109,41.036-42.533,41.036c-23.427,0-42.531-18.43-42.531-41.036
	S26.577,8.959,50.004,8.959z"/>
<linearGradient id="SVGID_10_" gradientUnits="userSpaceOnUse" x1="-224.3359" y1="-628.23" x2="-224.3359" y2="-519.1147" gradientTransform="matrix(0.7437 0 0 -0.7437 216.8457 -376.6343)">
	<stop  offset="0" style="stop-color:#C8611D"/>
	<stop  offset="1" style="stop-color:#E6781C"/>
</linearGradient>
<path fill="url(#SVGID_10_)" d="M50.004,9.433c2.554,0,5.06,0.22,7.5,0.644l32.354,27.017c1.42,4.06,2.195,8.402,2.195,12.914
	c0,22.347-18.891,40.576-42.05,40.576c-23.158,0-42.045-18.229-42.045-40.576C7.959,27.655,26.847,9.433,50.004,9.433z"/>
<path fill="#9F653A" d="M54.249,5.448C53.522,44.79,88.652,36.831,95.074,39.493C80.305,28.699,66.766,17.323,54.249,5.448z"/>
<linearGradient id="SVGID_11_" gradientUnits="userSpaceOnUse" x1="-205.314" y1="-517.3081" x2="-213.2243" y2="-526.6453" gradientTransform="matrix(0.7745 0 0 -0.7745 233.8613 -378.4063)">
	<stop  offset="0" style="stop-color:#DCDDE1"/>
	<stop  offset="0.29" style="stop-color:#F2F3F5"/>
	<stop  offset="1" style="stop-color:#FFFFFF"/>
</linearGradient>
<path fill="url(#SVGID_11_)" d="M54.249,5.444c0.085,24.782,24.916,20.295,40.825,34.042L54.249,5.444z"/>
<path fill="#F9E8D2" d="M16.682,51.342L39.71,64.064c-3.978,5.955-11.514,8.434-18.172,4.746
	C15.335,65.375,12.81,57.264,16.682,51.342z M77.615,31.538l-7.92-1.658c-1.036-0.216-2.243,0.396-2.946,1.157L40.192,60.154
	l1.567,0.867l25.778-28.256c0.608-0.651,1.6-1.259,2.493-1.075l7.223,1.528c0.578,0.116,0.945-1.561,0.366-1.681H77.615z
	 M84.592,61.59l-5.504,7.627c-1.012,1.402-3.031,1.748-4.48,0.771l-12.297-8.283c-1.453-0.98-1.811-2.926-0.799-4.32l2.072-2.871
	l-6.194-4.176l1.579-1.734l5.98,4.028l2.072-2.875c1.021-1.392,3.041-1.75,4.481-0.762l12.302,8.283
	c1.457,0.975,1.799,2.92,0.791,4.313H84.592z M76.922,67.592c0.135-0.197-0.624-0.951-1.715-1.678l-9.143-6.164
	c-1.085-0.73-2.09-1.156-2.221-0.963l-0.782,1.084c-0.14,0.195,0.616,0.953,1.701,1.682l9.144,6.17
	c1.082,0.725,2.08,1.146,2.219,0.955l0.793-1.086H76.922z M79.985,63.352c0.14-0.199-0.624-0.949-1.714-1.674l-9.143-6.17
	c-1.086-0.719-2.09-1.154-2.225-0.961l-0.787,1.088c-0.139,0.193,0.624,0.943,1.701,1.678l9.157,6.166
	c1.075,0.723,2.081,1.154,2.22,0.963L79.985,63.352L79.985,63.352z M83.055,59.109c0.139-0.193-0.629-0.951-1.706-1.678l-9.164-6.16
	c-1.077-0.733-2.077-1.157-2.216-0.963l-0.779,1.081c-0.154,0.193,0.613,0.949,1.706,1.686l9.155,6.15
	c1.069,0.734,2.072,1.172,2.211,0.965l0.789-1.08H83.055z M34.456,29.748c-0.67-0.445-1.534-0.353-1.942,0.201
	c-0.723,1.008-1.464,2.02-2.175,3.024c-0.413,0.561-0.201,1.374,0.454,1.823c1.428,0.951,6.328,5.43,7.96,2.982l9.89,6.665
	l1.575-1.726l-10.109-6.806c1.68-2.435-4.117-5.128-5.656-6.164H34.456z"/>
<path fill="#D4AA80" d="M65.143,32.803c0.48,0.338,0.979,0.662,1.484,0.962l0.906-1c0.596-0.655,1.6-1.259,2.488-1.075l7.228,1.523
	c0.571,0.121,0.945-1.557,0.366-1.677l-7.92-1.658c-1.036-0.216-2.252,0.392-2.946,1.157L65.143,32.803z"/>
</svg>
