<?xml version="1.0" encoding="utf-8"?>
<!-- Generator: Adobe Illustrator 16.0.0, SVG Export Plug-In . SVG Version: 6.00 Build 0)  -->
<!DOCTYPE svg PUBLIC "-//W3C//DTD SVG 1.1//EN" "http://www.w3.org/Graphics/SVG/1.1/DTD/svg11.dtd">
<svg version="1.1" id="圖層_1" xmlns="http://www.w3.org/2000/svg" xmlns:xlink="http://www.w3.org/1999/xlink" x="0px" y="0px"
	 width="100px" height="100px" viewBox="0 0 100 100" enable-background="new 0 0 100 100" xml:space="preserve">
<linearGradient id="SVGID_1_" gradientUnits="userSpaceOnUse" x1="83.3809" y1="1188.8438" x2="83.3809" y2="1073.2979" gradientTransform="matrix(0.7745 0 0 0.7745 -14.5791 -826.016)">
	<stop  offset="0" style="stop-color:#E7945C"/>
	<stop  offset="1" style="stop-color:#F6D0B2"/>
</linearGradient>
<path fill="url(#SVGID_1_)" d="M50.004,5.259c1.43,0,2.84,0.064,4.245,0.188c12.733,12.184,26.397,23.481,40.825,34.045
	c0.85,3.37,1.297,6.894,1.297,10.506c0,24.645-20.828,44.746-46.367,44.746c-25.542,0-46.375-20.098-46.375-44.746
	c0-24.643,20.833-44.744,46.375-44.744V5.259z"/>
<linearGradient id="SVGID_2_" gradientUnits="userSpaceOnUse" x1="-47.6147" y1="938.8906" x2="-47.6147" y2="850.3262" gradientTransform="matrix(1 0 0 1 97.6221 -844.6045)">
	<stop  offset="0" style="stop-color:#E18A4E"/>
	<stop  offset="1" style="stop-color:#F3BF95"/>
</linearGradient>
<path fill="url(#SVGID_2_)" d="M50.004,5.721c1.561,0,3.094,0.087,4.604,0.245C67.133,17.797,80.475,28.84,94.498,39.227
	c0.916,3.445,1.396,7.064,1.396,10.78c0,24.386-20.617,44.279-45.882,44.279C24.74,94.285,4.12,74.389,4.12,50.006
	c0-24.393,20.62-44.279,45.893-44.279L50.004,5.721z"/>
<linearGradient id="SVGID_3_" gradientUnits="userSpaceOnUse" x1="-47.6196" y1="938.4209" x2="-47.6196" y2="850.791" gradientTransform="matrix(1 0 0 1 97.6221 -844.6045)">
	<stop  offset="0" style="stop-color:#DC8141"/>
	<stop  offset="1" style="stop-color:#F0B07C"/>
</linearGradient>
<path fill="url(#SVGID_3_)" d="M50.004,6.186c1.682,0,3.337,0.096,4.971,0.292C67.271,17.955,80.296,28.74,93.914,38.959
	c0.968,3.524,1.499,7.229,1.499,11.045c0,24.133-20.401,43.813-45.41,43.813c-25.011,0-45.412-19.68-45.412-43.813
	C4.592,25.868,24.994,6.186,50.004,6.186z"/>
<linearGradient id="SVGID_4_" gradientUnits="userSpaceOnUse" x1="-47.6167" y1="937.96" x2="-47.6167" y2="851.251" gradientTransform="matrix(1 0 0 1 97.6221 -844.6045)">
	<stop  offset="0" style="stop-color:#D87C37"/>
	<stop  offset="1" style="stop-color:#F0A568"/>
</linearGradient>
<path fill="url(#SVGID_4_)" d="M50.004,6.646c1.805,0,3.583,0.116,5.33,0.343c12.085,11.126,24.791,21.659,38.003,31.7
	c1.034,3.604,1.599,7.398,1.599,11.314c0,23.879-20.188,43.353-44.931,43.353c-24.75,0-44.93-19.474-44.93-43.353
	S25.255,6.646,50.004,6.646z"/>
<linearGradient id="SVGID_5_" gradientUnits="userSpaceOnUse" x1="-47.6206" y1="937.499" x2="-47.6206" y2="851.7139" gradientTransform="matrix(1 0 0 1 97.6221 -844.6045)">
	<stop  offset="0" style="stop-color:#D4762D"/>
	<stop  offset="1" style="stop-color:#ED9B54"/>
</linearGradient>
<path fill="url(#SVGID_5_)" d="M50.004,7.109c1.936,0,3.827,0.133,5.688,0.396c11.873,10.772,24.254,21.052,37.064,30.919
	c1.102,3.677,1.697,7.567,1.697,11.58c0,23.62-19.969,42.891-44.45,42.891c-24.489,0-44.454-19.268-44.454-42.891
	C5.551,26.376,25.524,7.109,50.004,7.109z"/>
<linearGradient id="SVGID_6_" gradientUnits="userSpaceOnUse" x1="-47.6108" y1="937.0313" x2="-47.6108" y2="852.1836" gradientTransform="matrix(1 0 0 1 97.6221 -844.6045)">
	<stop  offset="0" style="stop-color:#D17126"/>
	<stop  offset="1" style="stop-color:#EA9244"/>
</linearGradient>
<path fill="url(#SVGID_6_)" d="M50.004,7.578c2.057,0,4.081,0.147,6.057,0.438c11.65,10.422,23.713,20.44,36.117,30.141
	c1.165,3.758,1.799,7.732,1.799,11.846c0,23.366-19.752,42.424-43.964,42.424c-24.22,0-43.966-19.063-43.966-42.424
	C6.046,26.64,25.785,7.578,50.004,7.578z"/>
<linearGradient id="SVGID_7_" gradientUnits="userSpaceOnUse" x1="-47.6201" y1="936.5713" x2="-47.6201" y2="852.6426" gradientTransform="matrix(1 0 0 1 97.6221 -844.6045)">
	<stop  offset="0" style="stop-color:#CF6C20"/>
	<stop  offset="1" style="stop-color:#E98B33"/>
</linearGradient>
<path fill="url(#SVGID_7_)" d="M50.004,8.037c2.188,0,4.326,0.169,6.415,0.496c11.433,10.064,23.185,19.836,35.179,29.359
	c1.232,3.826,1.895,7.898,1.895,12.112c0,23.107-19.536,41.963-43.487,41.963c-23.95,0-43.494-18.855-43.494-41.963
	C6.51,26.888,26.055,8.037,50.004,8.037L50.004,8.037z"/>
<linearGradient id="SVGID_8_" gradientUnits="userSpaceOnUse" x1="-47.6216" y1="936.1064" x2="-47.6216" y2="853.1055" gradientTransform="matrix(1 0 0 1 97.6221 -844.6045)">
	<stop  offset="0" style="stop-color:#CC671D"/>
	<stop  offset="1" style="stop-color:#E88326"/>
</linearGradient>
<path fill="url(#SVGID_8_)" d="M50.004,8.501c2.311,0,4.57,0.185,6.773,0.543c11.222,9.712,22.646,19.23,34.24,28.579
	c1.299,3.908,1.991,8.068,1.991,12.379c0,22.854-19.315,41.5-43.005,41.5c-23.688,0-43.013-18.646-43.013-41.5
	C6.992,27.144,26.316,8.501,50.004,8.501z"/>
<linearGradient id="SVGID_9_" gradientUnits="userSpaceOnUse" x1="-47.6167" y1="935.6436" x2="-47.6167" y2="853.5645" gradientTransform="matrix(1 0 0 1 97.6221 -844.6045)">
	<stop  offset="0" style="stop-color:#CA641C"/>
	<stop  offset="1" style="stop-color:#E67E1F"/>
</linearGradient>
<path fill="url(#SVGID_9_)" d="M50.004,8.959c2.432,0,4.816,0.207,7.141,0.597c11,9.359,22.106,18.619,33.295,27.798
	c1.36,3.979,2.098,8.237,2.098,12.649c0,22.601-19.109,41.036-42.533,41.036c-23.427,0-42.531-18.43-42.531-41.036
	C7.473,27.397,26.577,8.959,50.004,8.959z"/>
<linearGradient id="SVGID_10_" gradientUnits="userSpaceOnUse" x1="108.4189" y1="1226.7041" x2="108.4189" y2="1117.5859" gradientTransform="matrix(0.7437 0 0 0.7437 -30.6262 -821.7159)">
	<stop  offset="0" style="stop-color:#C8611D"/>
	<stop  offset="1" style="stop-color:#E6781C"/>
</linearGradient>
<path fill="url(#SVGID_10_)" d="M50.004,9.433c2.555,0,5.061,0.22,7.5,0.644l32.354,27.017c1.42,4.06,2.195,8.402,2.195,12.914
	c0,22.348-18.891,40.576-42.05,40.576c-23.158,0-42.045-18.229-42.045-40.576C7.959,27.655,26.847,9.433,50.004,9.433z"/>
<path fill="#9F653A" d="M54.249,5.448C53.521,44.79,88.652,36.831,95.074,39.493C80.305,28.699,66.766,17.323,54.249,5.448z"/>
<linearGradient id="SVGID_11_" gradientUnits="userSpaceOnUse" x1="114.2295" y1="1095.9736" x2="106.319" y2="1105.311" gradientTransform="matrix(0.7745 0 0 0.7745 -13.626 -826.5834)">
	<stop  offset="0" style="stop-color:#DCDDE1"/>
	<stop  offset="0.29" style="stop-color:#F2F3F5"/>
	<stop  offset="1" style="stop-color:#FFFFFF"/>
</linearGradient>
<path fill="url(#SVGID_11_)" d="M54.249,5.444c0.085,24.782,24.916,20.295,40.825,34.042L54.249,5.444z"/>
<g>
	<g>
		<path fill-rule="evenodd" clip-rule="evenodd" fill="#FFCA7E" d="M29.303,47.962c0,0,6.255-6.549,12.386-8.597
			c6.132-2.046,13.766-1.773,13.766-1.773s8.884-3.413,14.015,4.776c0,0,9.637-0.955,8.137,10.371c0,0,3.627,6.549-8.51,12.281
			c-12.139,5.732-12.264,9.963-19.271,10.506c-7.008,0.547-33.286-7.094-26.278-20.195L29.303,47.962z"/>
		<path fill-rule="evenodd" clip-rule="evenodd" fill="#FFFF66" d="M27.737,46.667c0,0,6.256-6.551,12.389-8.598
			c6.132-2.047,13.765-1.774,13.765-1.774s8.885-3.412,14.016,4.776c0,0,9.637-0.955,8.135,10.371c0,0,3.627,6.551-8.512,12.281
			c-12.137,5.732-12.26,9.961-19.27,10.508c-7.008,0.547-33.285-7.096-26.276-20.195L27.737,46.667z"/>
	</g>
	<path fill-rule="evenodd" clip-rule="evenodd" fill="#AC8A54" d="M49.042,54.103c0,0-5.351,6.447-8.166,3.582
		c-2.816-2.865-2.909-5.936-1.221-7.676c1.689-1.739,10.982-3.377,12.295-4.195c1.313-0.819,3.754-2.866,4.506-1.023
		C57.207,46.632,51.67,51.954,49.042,54.103z"/>
	<path fill-rule="evenodd" clip-rule="evenodd" fill="#008A15" d="M47.695,65.294c0,0,14.393-0.547,14.516,0
		c0.125,0.545,0,2.045,0,2.045l-14.014,0.137L47.695,65.294z"/>
	<polygon fill-rule="evenodd" clip-rule="evenodd" fill="#008A15" points="67.469,48.099 57.207,56.015 61.086,56.015 
		68.094,48.509 	"/>
	<path fill-rule="evenodd" clip-rule="evenodd" fill="#008A15" d="M58.832,36.227c0,0-1.625,11.191-1.123,11.735
		c0.5,0.547,3.627-6.959,3.877-11.189L58.832,36.227z"/>
	<path fill-rule="evenodd" clip-rule="evenodd" fill="#008A15" d="M37.687,54.513l-9.386,8.051l2.002,0.82
		C30.303,63.384,37.56,54.923,37.687,54.513z"/>
	<path fill-rule="evenodd" clip-rule="evenodd" fill="#008A15" d="M45.068,43.868c0,0-10.637-0.409-11.262,0.273
		c-0.626,0.682-2.003,1.365-1.126,1.91c0.876,0.547,12.138-1.773,12.138-1.773L45.068,43.868z"/>
	<polygon fill-rule="evenodd" clip-rule="evenodd" fill="#FF9900" points="71.473,54.411 59.082,54.923 59.457,56.253 
		70.535,56.456 	"/>
	<polygon fill-rule="evenodd" clip-rule="evenodd" fill="#FF9900" points="54.859,50.624 44.067,50.624 44.443,52.466 
		55.799,53.183 	"/>
	<polygon fill-rule="evenodd" clip-rule="evenodd" fill="#FF9900" points="33.18,51.851 36.465,53.694 35.059,55.126 	"/>
	<polygon fill-rule="evenodd" clip-rule="evenodd" fill="#FF9900" points="42.754,62.7 37.123,69.968 44.35,62.905 	"/>
	<polygon fill-rule="evenodd" clip-rule="evenodd" fill="#FF9900" points="56.457,59.323 61.148,65.259 63.307,64.952 	"/>
	<path fill-rule="evenodd" clip-rule="evenodd" fill="#AC8A54" d="M65.84,53.694c0,0-6.004,9.621-8.916,10.746
		C56.924,64.44,66.217,65.976,65.84,53.694z"/>
	<path fill-rule="evenodd" clip-rule="evenodd" fill="#AC8A54" d="M52.139,39.365c0,0-11.918,8.495-16.048,10.235
		C36.09,49.601,48.291,38.137,52.139,39.365z"/>
	<path fill-rule="evenodd" clip-rule="evenodd" fill="#AC8A54" d="M31.961,55.435c0,0,0.75,11.973,17.925,12.281
		C49.887,67.716,35.341,63.62,31.961,55.435z"/>
	<path fill-rule="evenodd" clip-rule="evenodd" fill="#FF0000" d="M68.693,45.053c-1.461,2.462-9.256,2.665-9.256,2.665
		c2.523-4.342,7.846-4.969,7.846-4.969S70.154,42.589,68.693,45.053z M64.584,44.394c0,0-3.023,0.314-4.412,2.943
		c0,0,4.432-0.021,5.238-1.514C66.213,44.333,64.584,44.394,64.584,44.394z"/>
	<path fill-rule="evenodd" clip-rule="evenodd" fill="#FF0000" d="M47.604,39.876c2.686,0.167,6.703,7.455,6.703,7.455
		c-4.709-0.246-7.842-4.982-7.842-4.982S44.918,39.71,47.604,39.876z M49.111,44.097c0,0,1.747,2.71,4.528,2.726
		c0,0-2.21-4.191-3.798-4.216C48.258,42.582,49.111,44.097,49.111,44.097z"/>
	<path fill-rule="evenodd" clip-rule="evenodd" fill="#FF0000" d="M49.299,62.226c0.554-1.652,5.09-2.902,5.09-2.902
		c-0.947,2.906-3.986,4.045-3.986,4.045S48.744,63.878,49.299,62.226z M51.782,62.015c0,0,1.73-0.623,2.224-2.363
		c0,0-2.592,0.656-2.881,1.646C50.838,62.286,51.782,62.015,51.782,62.015z"/>
	<path fill-rule="evenodd" clip-rule="evenodd" fill="#FF0000" d="M47.68,61.688c0.555-1.654,5.09-2.902,5.09-2.902
		c-0.945,2.904-3.984,4.045-3.984,4.045S47.126,63.341,47.68,61.688z M50.166,61.476c0,0,1.729-0.621,2.222-2.361
		c0,0-2.591,0.656-2.88,1.646C49.22,61.749,50.166,61.476,50.166,61.476z"/>
</g>
</svg>
