<?xml version="1.0" encoding="utf-8"?>
<!-- Generator: Adobe Illustrator 16.0.0, SVG Export Plug-In . SVG Version: 6.00 Build 0)  -->
<!DOCTYPE svg PUBLIC "-//W3C//DTD SVG 1.1//EN" "http://www.w3.org/Graphics/SVG/1.1/DTD/svg11.dtd">
<svg version="1.1" id="圖層_1" xmlns="http://www.w3.org/2000/svg" xmlns:xlink="http://www.w3.org/1999/xlink" x="0px" y="0px"
	 width="100px" height="100px" viewBox="0 0 100 100" enable-background="new 0 0 100 100" xml:space="preserve">
<linearGradient id="SVGID_1_" gradientUnits="userSpaceOnUse" x1="402.9268" y1="-1566.5112" x2="402.9268" y2="-1450.9653" gradientTransform="matrix(0.7745 0 0 -0.7745 -262.0664 -1118.5187)">
	<stop  offset="0" style="stop-color:#E7945C"/>
	<stop  offset="1" style="stop-color:#F6D0B2"/>
</linearGradient>
<path fill="url(#SVGID_1_)" d="M50.004,5.259c1.43,0,2.84,0.064,4.245,0.188c12.733,12.184,26.397,23.481,40.825,34.045
	c0.85,3.37,1.297,6.894,1.297,10.506c0,24.645-20.828,44.746-46.367,44.746c-25.542,0-46.375-20.098-46.375-44.746
	c0-24.643,20.833-44.744,46.375-44.744V5.259z"/>
<linearGradient id="SVGID_2_" gradientUnits="userSpaceOnUse" x1="199.9863" y1="-1208.73" x2="199.9863" y2="-1120.1655" gradientTransform="matrix(1 0 0 -1 -149.9785 -1114.4443)">
	<stop  offset="0" style="stop-color:#E18A4E"/>
	<stop  offset="1" style="stop-color:#F3BF95"/>
</linearGradient>
<path fill="url(#SVGID_2_)" d="M50.004,5.721c1.561,0,3.094,0.087,4.604,0.245C67.133,17.797,80.475,28.84,94.498,39.227
	c0.916,3.445,1.396,7.064,1.396,10.78c0,24.386-20.617,44.279-45.882,44.279C24.74,94.285,4.12,74.389,4.12,50.006
	c0-24.393,20.62-44.279,45.893-44.279L50.004,5.721z"/>
<linearGradient id="SVGID_3_" gradientUnits="userSpaceOnUse" x1="199.9805" y1="-1208.2603" x2="199.9805" y2="-1120.6304" gradientTransform="matrix(1 0 0 -1 -149.9785 -1114.4443)">
	<stop  offset="0" style="stop-color:#DC8141"/>
	<stop  offset="1" style="stop-color:#F0B07C"/>
</linearGradient>
<path fill="url(#SVGID_3_)" d="M50.004,6.186c1.682,0,3.337,0.096,4.971,0.292C67.271,17.955,80.296,28.74,93.914,38.959
	c0.968,3.524,1.499,7.229,1.499,11.045c0,24.133-20.401,43.813-45.41,43.813c-25.011,0-45.412-19.68-45.412-43.813
	C4.592,25.868,24.994,6.186,50.004,6.186z"/>
<linearGradient id="SVGID_4_" gradientUnits="userSpaceOnUse" x1="199.9844" y1="-1207.7993" x2="199.9844" y2="-1121.0903" gradientTransform="matrix(1 0 0 -1 -149.9785 -1114.4443)">
	<stop  offset="0" style="stop-color:#D87C37"/>
	<stop  offset="1" style="stop-color:#F0A568"/>
</linearGradient>
<path fill="url(#SVGID_4_)" d="M50.004,6.646c1.805,0,3.583,0.116,5.33,0.343c12.085,11.126,24.791,21.659,38.003,31.7
	c1.034,3.604,1.599,7.398,1.599,11.314c0,23.879-20.188,43.353-44.931,43.353c-24.75,0-44.93-19.474-44.93-43.353
	S25.255,6.646,50.004,6.646z"/>
<linearGradient id="SVGID_5_" gradientUnits="userSpaceOnUse" x1="199.9795" y1="-1207.3384" x2="199.9795" y2="-1121.5532" gradientTransform="matrix(1 0 0 -1 -149.9785 -1114.4443)">
	<stop  offset="0" style="stop-color:#D4762D"/>
	<stop  offset="1" style="stop-color:#ED9B54"/>
</linearGradient>
<path fill="url(#SVGID_5_)" d="M50.004,7.109c1.936,0,3.827,0.133,5.688,0.396c11.873,10.772,24.254,21.052,37.064,30.919
	c1.102,3.677,1.697,7.567,1.697,11.58c0,23.62-19.969,42.891-44.45,42.891c-24.489,0-44.454-19.268-44.454-42.891
	C5.551,26.376,25.524,7.109,50.004,7.109z"/>
<linearGradient id="SVGID_6_" gradientUnits="userSpaceOnUse" x1="199.9902" y1="-1206.8706" x2="199.9902" y2="-1122.0225" gradientTransform="matrix(1 0 0 -1 -149.9785 -1114.4443)">
	<stop  offset="0" style="stop-color:#D17126"/>
	<stop  offset="1" style="stop-color:#EA9244"/>
</linearGradient>
<path fill="url(#SVGID_6_)" d="M50.004,7.578c2.057,0,4.081,0.147,6.057,0.438c11.65,10.422,23.713,20.44,36.117,30.141
	c1.165,3.758,1.799,7.732,1.799,11.846c0,23.366-19.752,42.424-43.963,42.424c-24.22,0-43.966-19.063-43.966-42.424
	C6.046,26.64,25.785,7.578,50.004,7.578z"/>
<linearGradient id="SVGID_7_" gradientUnits="userSpaceOnUse" x1="199.9805" y1="-1206.4106" x2="199.9805" y2="-1122.4814" gradientTransform="matrix(1 0 0 -1 -149.9785 -1114.4443)">
	<stop  offset="0" style="stop-color:#CF6C20"/>
	<stop  offset="1" style="stop-color:#E98B33"/>
</linearGradient>
<path fill="url(#SVGID_7_)" d="M50.004,8.037c2.188,0,4.326,0.169,6.415,0.496c11.433,10.064,23.185,19.836,35.179,29.359
	c1.232,3.826,1.896,7.898,1.896,12.112c0,23.107-19.536,41.963-43.487,41.963c-23.95,0-43.494-18.855-43.494-41.963
	C6.51,26.888,26.055,8.037,50.004,8.037L50.004,8.037z"/>
<linearGradient id="SVGID_8_" gradientUnits="userSpaceOnUse" x1="199.9766" y1="-1205.9458" x2="199.9766" y2="-1122.9453" gradientTransform="matrix(1 0 0 -1 -149.9785 -1114.4443)">
	<stop  offset="0" style="stop-color:#CC671D"/>
	<stop  offset="1" style="stop-color:#E88326"/>
</linearGradient>
<path fill="url(#SVGID_8_)" d="M50.004,8.501c2.311,0,4.57,0.185,6.773,0.543c11.222,9.712,22.646,19.23,34.24,28.579
	c1.299,3.908,1.99,8.068,1.99,12.379c0,22.854-19.314,41.5-43.005,41.5c-23.688,0-43.013-18.646-43.013-41.5
	C6.992,27.144,26.316,8.501,50.004,8.501z"/>
<linearGradient id="SVGID_9_" gradientUnits="userSpaceOnUse" x1="199.9844" y1="-1205.4829" x2="199.9844" y2="-1123.4033" gradientTransform="matrix(1 0 0 -1 -149.9785 -1114.4443)">
	<stop  offset="0" style="stop-color:#CA641C"/>
	<stop  offset="1" style="stop-color:#E67E1F"/>
</linearGradient>
<path fill="url(#SVGID_9_)" d="M50.004,8.959c2.432,0,4.816,0.207,7.141,0.597c11,9.359,22.106,18.619,33.295,27.798
	c1.36,3.979,2.099,8.237,2.099,12.649c0,22.601-19.108,41.036-42.533,41.036c-23.427,0-42.531-18.43-42.531-41.036
	C7.473,27.397,26.577,8.959,50.004,8.959z"/>
<linearGradient id="SVGID_10_" gradientUnits="userSpaceOnUse" x1="441.1768" y1="-1624.1733" x2="441.1768" y2="-1515.0552" gradientTransform="matrix(0.7437 0 0 -0.7437 -278.0979 -1117.3143)">
	<stop  offset="0" style="stop-color:#C8611D"/>
	<stop  offset="1" style="stop-color:#E6781C"/>
</linearGradient>
<path fill="url(#SVGID_10_)" d="M50.004,9.433c2.555,0,5.061,0.22,7.5,0.644l32.354,27.017c1.42,4.06,2.195,8.402,2.195,12.914
	c0,22.348-18.891,40.576-42.05,40.576c-23.158,0-42.045-18.229-42.045-40.576C7.959,27.655,26.847,9.433,50.004,9.433z"/>
<path fill="#9F653A" d="M54.249,5.448C53.521,44.79,88.652,36.831,95.074,39.493C80.305,28.699,66.766,17.323,54.249,5.448z"/>
<linearGradient id="SVGID_11_" gradientUnits="userSpaceOnUse" x1="433.7734" y1="-1473.6396" x2="425.8636" y2="-1482.9762" gradientTransform="matrix(0.7745 0 0 -0.7745 -261.1133 -1119.0861)">
	<stop  offset="0" style="stop-color:#DCDDE1"/>
	<stop  offset="0.29" style="stop-color:#F2F3F5"/>
	<stop  offset="1" style="stop-color:#FFFFFF"/>
</linearGradient>
<path fill="url(#SVGID_11_)" d="M54.249,5.444c0.085,24.782,24.916,20.295,40.825,34.042L54.249,5.444z"/>
<g>
	<path fill="#FBB03B" d="M57.831,66.828c-3.422,0-6.205-2.783-6.205-6.205s2.783-6.205,6.205-6.205c3.421,0,6.205,2.783,6.205,6.205
		S61.252,66.828,57.831,66.828z M57.831,55.691c-2.719,0-4.932,2.212-4.932,4.932s2.213,4.932,4.932,4.932
		c2.72,0,4.932-2.212,4.932-4.932S60.551,55.691,57.831,55.691z"/>
	<path fill="#FBB03B" d="M42.813,66.828c-3.421,0-6.205-2.783-6.205-6.205s2.784-6.205,6.205-6.205s6.204,2.783,6.204,6.205
		S46.234,66.828,42.813,66.828z M42.813,55.691c-2.72,0-4.932,2.212-4.932,4.932s2.212,4.932,4.932,4.932
		c2.719,0,4.932-2.212,4.932-4.932S45.532,55.691,42.813,55.691z"/>
	<path fill="#FBB03B" d="M80.528,69.48c-1.057-5.014-1.451-9.943-1.451-16.961c0-7.018-4.677-9.859-5.763-12.616
		c-1.086-2.757-7.852-3.008-9.523,0.417c-1.671,3.425-1.75,3.593-2.418,4.428c-0.639,0.798-10.136,0.785-11.026,0.782
		c-0.892,0.003-10.427,0.016-11.065-0.782c-0.668-0.835-0.767-1.003-2.438-4.428s-8.446-3.175-9.532-0.417
		c-1.086,2.757-5.769,5.598-5.769,12.616c0,7.018-0.396,11.947-1.452,16.961c-1.056,5.013,2.368,7.269,4.541,7.77
		c2.172,0.502,5.681,0,7.77-4.512s2.718-7.436,2.718-7.436s0.236-3.258,2.074-3.008c0.094,0.014,0.203,0.028,0.322,0.045
		c-0.175-0.541-0.271-1.117-0.271-1.717c0-3.076,2.493-5.568,5.569-5.568c3.075,0,5.568,2.492,5.568,5.568
		c0,1.085-0.312,2.096-0.848,2.953c0.984,0.071,1.939,0.116,2.814,0.121l0,0c0.852-0.005,1.79-0.05,2.765-0.121
		c-0.537-0.857-0.849-1.868-0.849-2.953c0-3.076,2.494-5.568,5.568-5.568c3.076,0,5.569,2.492,5.569,5.568
		c0,0.6-0.097,1.177-0.271,1.719c0.123-0.018,0.235-0.033,0.333-0.047c1.838-0.25,2.035,3.008,2.035,3.008s0.63,2.924,2.719,7.436
		s5.599,5.014,7.771,4.512C78.158,76.749,81.584,74.493,80.528,69.48z M30.222,48.615c0.777,0,1.407,0.63,1.407,1.407
		s-0.63,1.407-1.407,1.407s-1.407-0.63-1.407-1.407S29.445,48.615,30.222,48.615z M27.677,53.975c-0.777,0-1.407-0.63-1.407-1.406
		c0-0.777,0.63-1.408,1.407-1.408s1.407,0.631,1.407,1.408C29.084,53.345,28.454,53.975,27.677,53.975z M30.222,56.521
		c-0.777,0-1.407-0.63-1.407-1.407s0.63-1.406,1.407-1.406s1.407,0.629,1.407,1.406S30.999,56.521,30.222,56.521z M32.768,53.975
		c-0.777,0-1.407-0.63-1.407-1.406c0-0.777,0.63-1.408,1.407-1.408c0.777,0,1.407,0.631,1.407,1.408
		C34.175,53.345,33.545,53.975,32.768,53.975z M74.532,52.162h-3.668v4.127h-2.75v-4.127h-3.896v-2.75h3.896v-3.667h2.75v3.667
		h3.668V52.162z"/>
</g>
</svg>
