<?xml version="1.0" encoding="utf-8"?>
<!-- Generator: Adobe Illustrator 16.0.0, SVG Export Plug-In . SVG Version: 6.00 Build 0)  -->
<!DOCTYPE svg PUBLIC "-//W3C//DTD SVG 1.1//EN" "http://www.w3.org/Graphics/SVG/1.1/DTD/svg11.dtd">
<svg version="1.1" id="圖層_1" xmlns="http://www.w3.org/2000/svg" xmlns:xlink="http://www.w3.org/1999/xlink" x="0px" y="0px"
	 width="100px" height="100px" viewBox="0 0 100 100" enable-background="new 0 0 100 100" xml:space="preserve">
<linearGradient id="SVGID_1_" gradientUnits="userSpaceOnUse" x1="151.0088" y1="1159.8887" x2="151.0088" y2="1037.9746" gradientTransform="matrix(0.7745 0 0 0.7745 -66.9576 -801.1234)">
	<stop  offset="0" style="stop-color:#FADB7A"/>
	<stop  offset="1" style="stop-color:#F8F6D5"/>
</linearGradient>
<path fill="url(#SVGID_1_)" d="M49.996,2.793c1.512,0,3.002,0.073,4.479,0.202l43.076,35.917c0.891,3.561,1.373,7.274,1.373,11.09
	c0,26-21.979,47.209-48.925,47.209c-26.942,0-48.924-21.205-48.924-47.209C1.075,24,23.057,2.789,49.999,2.789L49.996,2.793z"/>
<linearGradient id="SVGID_2_" gradientUnits="userSpaceOnUse" x1="151.0088" y1="1159.8896" x2="151.0088" y2="1037.9746" gradientTransform="matrix(0.7745 0 0 0.7745 -66.9576 -801.1234)">
	<stop  offset="0" style="stop-color:#EDAF6D"/>
	<stop  offset="1" style="stop-color:#F7E1C6"/>
</linearGradient>
<path fill="url(#SVGID_2_)" d="M49.996,2.793c1.506,0,3.002,0.073,4.479,0.202C67.012,15.667,81.372,27.64,97.547,38.913
	c0.895,3.561,1.377,7.274,1.377,11.09c0,26-21.979,47.209-48.925,47.209c-26.949,0-48.924-21.205-48.924-47.209
	C1.075,24,23.05,2.789,49.999,2.789L49.996,2.793z"/>
<linearGradient id="SVGID_3_" gradientUnits="userSpaceOnUse" x1="4.6411" y1="916.5449" x2="4.6411" y2="823.1094" gradientTransform="matrix(1 0 0 1 45.3555 -819.8223)">
	<stop  offset="0" style="stop-color:#F1B97F"/>
	<stop  offset="1" style="stop-color:#F7E4CC"/>
</linearGradient>
<path fill="url(#SVGID_3_)" d="M49.996,3.287c1.643,0,3.26,0.09,4.855,0.255c12.412,12.319,26.438,24.019,42.08,35.095
	c0.963,3.637,1.479,7.449,1.479,11.37c0,25.733-21.751,46.716-48.414,46.716c-26.669,0-48.413-20.988-48.413-46.716
	c0-25.727,21.75-46.716,48.413-46.716V3.287z"/>
<linearGradient id="SVGID_4_" gradientUnits="userSpaceOnUse" x1="4.6362" y1="916.0469" x2="4.6362" y2="823.6055" gradientTransform="matrix(1 0 0 1 45.3555 -819.8223)">
	<stop  offset="0" style="stop-color:#F3C18B"/>
	<stop  offset="1" style="stop-color:#F8E7CF"/>
</linearGradient>
<path fill="url(#SVGID_4_)" d="M49.996,3.782c1.771,0,3.516,0.102,5.234,0.305c12.283,11.966,25.976,23.388,41.082,34.266
	c1.023,3.717,1.582,7.626,1.582,11.65c0,25.454-21.521,46.222-47.905,46.222c-26.383,0-47.901-20.768-47.901-46.222
	c0-25.455,21.519-46.221,47.901-46.221H49.996L49.996,3.782z"/>
<linearGradient id="SVGID_5_" gradientUnits="userSpaceOnUse" x1="4.6436" y1="915.5527" x2="4.6436" y2="824.0967" gradientTransform="matrix(1 0 0 1 45.3555 -819.8223)">
	<stop  offset="0" style="stop-color:#F3C795"/>
	<stop  offset="1" style="stop-color:#F9E8D2"/>
</linearGradient>
<path fill="url(#SVGID_5_)" d="M49.996,4.274c1.904,0,3.775,0.121,5.619,0.357c12.146,11.613,25.511,22.763,40.09,33.441
	c1.092,3.799,1.682,7.801,1.682,11.931c0,25.188-21.287,45.728-47.388,45.728c-26.101,0-47.388-20.541-47.388-45.728
	c0-25.187,21.291-45.729,47.388-45.729H49.996z"/>
<linearGradient id="SVGID_6_" gradientUnits="userSpaceOnUse" x1="4.6382" y1="915.0664" x2="4.6382" y2="824.5957" gradientTransform="matrix(1 0 0 1 45.3555 -819.8223)">
	<stop  offset="0" style="stop-color:#F3CD9F"/>
	<stop  offset="1" style="stop-color:#F9EAD4"/>
</linearGradient>
<path fill="url(#SVGID_6_)" d="M49.996,4.773c2.033,0,4.036,0.139,5.999,0.413C68.016,16.444,81.042,27.312,95.083,37.8
	c1.162,3.873,1.788,7.976,1.788,12.207c0,24.915-21.059,45.237-46.875,45.237c-25.82,0-46.88-20.319-46.88-45.237
	C3.116,25.088,24.176,4.773,49.996,4.773z"/>
<linearGradient id="SVGID_7_" gradientUnits="userSpaceOnUse" x1="4.6392" y1="914.5752" x2="4.6392" y2="825.084" gradientTransform="matrix(1 0 0 1 45.3555 -819.8223)">
	<stop  offset="0" style="stop-color:#F4D0A6"/>
	<stop  offset="1" style="stop-color:#F9EBD7"/>
</linearGradient>
<path fill="url(#SVGID_7_)" d="M49.996,5.261c2.166,0,4.296,0.162,6.377,0.469c11.891,10.903,24.589,21.502,38.095,31.784
	c1.226,3.961,1.897,8.154,1.897,12.494c0,24.643-20.834,44.745-46.369,44.745c-25.538,0-46.373-20.103-46.373-44.745
	C3.624,25.365,24.453,5.261,49.996,5.261z"/>
<linearGradient id="SVGID_8_" gradientUnits="userSpaceOnUse" x1="4.6455" y1="914.0703" x2="4.6455" y2="825.5762" gradientTransform="matrix(1 0 0 1 45.3555 -819.8223)">
	<stop  offset="0" style="stop-color:#F5D4AC"/>
	<stop  offset="1" style="stop-color:#F9ECD8"/>
</linearGradient>
<path fill="url(#SVGID_8_)" d="M49.996,5.754c2.3,0,4.557,0.18,6.759,0.524c11.759,10.549,24.129,20.867,37.101,30.954
	c1.299,4.037,2,8.328,2,12.77c0,24.369-20.601,44.246-45.855,44.246S4.146,74.371,4.146,50.002c0-24.371,20.6-44.249,45.854-44.249
	L49.996,5.754L49.996,5.754z"/>
<linearGradient id="SVGID_9_" gradientUnits="userSpaceOnUse" x1="4.6387" y1="913.5801" x2="4.6387" y2="826.0723" gradientTransform="matrix(1 0 0 1 45.3555 -819.8223)">
	<stop  offset="0" style="stop-color:#F5D8B2"/>
	<stop  offset="1" style="stop-color:#F9EDDA"/>
</linearGradient>
<path fill="url(#SVGID_9_)" d="M49.996,6.249c2.432,0,4.814,0.196,7.141,0.574c11.629,10.2,23.663,20.243,36.102,30.129
	c1.357,4.123,2.102,8.508,2.102,13.051c0,24.103-20.371,43.755-45.343,43.755c-24.979,0-45.349-19.652-45.349-43.755
	C4.647,25.9,25.017,6.249,49.996,6.249z"/>
<linearGradient id="SVGID_10_" gradientUnits="userSpaceOnUse" x1="4.6392" y1="913.0859" x2="4.6392" y2="826.5645" gradientTransform="matrix(1 0 0 1 45.3555 -819.8223)">
	<stop  offset="0" style="stop-color:#F5DBB7"/>
	<stop  offset="1" style="stop-color:#F9EEDB"/>
</linearGradient>
<path fill="url(#SVGID_10_)" d="M49.996,6.741c2.563,0,5.07,0.214,7.523,0.626c11.496,9.843,23.199,19.609,35.103,29.305
	c1.431,4.197,2.203,8.682,2.203,13.331c0,23.83-20.136,43.261-44.829,43.261c-24.696,0-44.833-19.431-44.833-43.261
	C5.164,26.173,25.304,6.741,49.996,6.741z"/>
<linearGradient id="SVGID_11_" gradientUnits="userSpaceOnUse" x1="179.0371" y1="1196.6563" x2="179.0371" y2="1081.5234" gradientTransform="matrix(0.743 0 0 0.743 -83.0331 -796.3405)">
	<stop  offset="0" style="stop-color:#F6DDBB"/>
	<stop  offset="1" style="stop-color:#F9EFDC"/>
</linearGradient>
<path fill="url(#SVGID_11_)" d="M49.996,7.236c2.693,0,5.332,0.237,7.9,0.683L92.01,36.395c1.494,4.276,2.305,8.857,2.305,13.608
	c0,23.56-19.91,42.772-44.317,42.772c-24.415,0-44.328-19.215-44.328-42.772c0-23.552,19.913-42.771,44.328-42.771L49.996,7.236
	L49.996,7.236z"/>
<path fill="#D4AA80" d="M54.471,2.995c-0.767,41.508,36.307,33.114,43.072,35.917C82.094,27.646,67.732,15.667,54.471,2.995z"/>
<linearGradient id="SVGID_12_" gradientUnits="userSpaceOnUse" x1="183.6123" y1="1061.8623" x2="175.2668" y2="1071.7131" gradientTransform="matrix(0.7745 0 0 0.7745 -66.0049 -801.6903)">
	<stop  offset="0" style="stop-color:#E7E9EC"/>
	<stop  offset="0.34" style="stop-color:#FBFBFC"/>
	<stop  offset="1" style="stop-color:#FFFFFF"/>
</linearGradient>
<path fill="url(#SVGID_12_)" d="M54.471,2.995c0.094,26.148,26.291,21.412,43.072,35.917L54.471,2.995z"/>
<g>
	<path fill="#FBB03B" d="M57.514,66.879c-3.422,0-6.205-2.783-6.205-6.205s2.783-6.205,6.205-6.205c3.421,0,6.205,2.783,6.205,6.205
		S60.935,66.879,57.514,66.879z M57.514,55.742c-2.719,0-4.932,2.212-4.932,4.932s2.213,4.932,4.932,4.932
		c2.72,0,4.932-2.212,4.932-4.932S60.233,55.742,57.514,55.742z"/>
	<path fill="#FBB03B" d="M42.495,66.879c-3.421,0-6.205-2.783-6.205-6.205s2.784-6.205,6.205-6.205s6.204,2.783,6.204,6.205
		S45.917,66.879,42.495,66.879z M42.495,55.742c-2.72,0-4.932,2.212-4.932,4.932s2.212,4.932,4.932,4.932
		c2.719,0,4.932-2.212,4.932-4.932S45.214,55.742,42.495,55.742z"/>
	<path fill="#FBB03B" d="M80.211,69.531c-1.057-5.014-1.451-9.943-1.451-16.961c0-7.018-4.677-9.859-5.763-12.616
		c-1.086-2.757-7.852-3.008-9.523,0.417c-1.671,3.425-1.75,3.593-2.418,4.428c-0.639,0.798-10.136,0.785-11.026,0.782
		c-0.892,0.003-10.427,0.016-11.065-0.782c-0.668-0.835-0.767-1.003-2.438-4.428s-8.446-3.175-9.532-0.417
		c-1.086,2.757-5.769,5.598-5.769,12.616c0,7.018-0.396,11.947-1.452,16.961c-1.056,5.013,2.368,7.269,4.541,7.77
		c2.172,0.502,5.681,0,7.77-4.512s2.718-7.436,2.718-7.436s0.236-3.258,2.074-3.008c0.094,0.014,0.203,0.028,0.322,0.045
		c-0.175-0.541-0.271-1.117-0.271-1.717c0-3.076,2.493-5.568,5.569-5.568c3.075,0,5.568,2.492,5.568,5.568
		c0,1.085-0.312,2.096-0.848,2.953c0.984,0.071,1.939,0.116,2.814,0.121l0,0c0.852-0.005,1.79-0.05,2.765-0.121
		c-0.537-0.857-0.849-1.868-0.849-2.953c0-3.076,2.494-5.568,5.568-5.568c3.076,0,5.569,2.492,5.569,5.568
		c0,0.6-0.097,1.177-0.271,1.719c0.123-0.018,0.235-0.033,0.333-0.047c1.838-0.25,2.035,3.008,2.035,3.008s0.63,2.924,2.719,7.436
		s5.599,5.014,7.771,4.512C77.841,76.8,81.267,74.544,80.211,69.531z M29.905,48.666c0.777,0,1.407,0.63,1.407,1.407
		s-0.63,1.407-1.407,1.407s-1.407-0.63-1.407-1.407S29.128,48.666,29.905,48.666z M27.359,54.025c-0.777,0-1.407-0.63-1.407-1.406
		c0-0.777,0.63-1.408,1.407-1.408s1.407,0.631,1.407,1.408C28.767,53.396,28.137,54.025,27.359,54.025z M29.905,56.571
		c-0.777,0-1.407-0.63-1.407-1.407s0.63-1.406,1.407-1.406s1.407,0.629,1.407,1.406S30.682,56.571,29.905,56.571z M32.45,54.025
		c-0.777,0-1.407-0.63-1.407-1.406c0-0.777,0.63-1.408,1.407-1.408c0.777,0,1.407,0.631,1.407,1.408
		C33.857,53.396,33.228,54.025,32.45,54.025z M74.215,52.213h-3.668v4.127h-2.75v-4.127H63.9v-2.75h3.896v-3.667h2.75v3.667h3.668
		V52.213z"/>
</g>
</svg>
