<?xml version="1.0" encoding="utf-8"?>
<!-- Generator: Adobe Illustrator 16.0.0, SVG Export Plug-In . SVG Version: 6.00 Build 0)  -->
<!DOCTYPE svg PUBLIC "-//W3C//DTD SVG 1.1//EN" "http://www.w3.org/Graphics/SVG/1.1/DTD/svg11.dtd">
<svg version="1.1" id="圖層_1" xmlns="http://www.w3.org/2000/svg" xmlns:xlink="http://www.w3.org/1999/xlink" x="0px" y="0px"
	 width="100px" height="100px" viewBox="0 0 100 100" enable-background="new 0 0 100 100" xml:space="preserve">
<linearGradient id="SVGID_1_" gradientUnits="userSpaceOnUse" x1="402.9268" y1="-1566.5112" x2="402.9268" y2="-1450.9653" gradientTransform="matrix(0.7745 0 0 -0.7745 -262.0664 -1118.5187)">
	<stop  offset="0" style="stop-color:#E7945C"/>
	<stop  offset="1" style="stop-color:#F6D0B2"/>
</linearGradient>
<path fill="url(#SVGID_1_)" d="M50.004,5.259c1.43,0,2.84,0.064,4.245,0.188c12.733,12.184,26.397,23.481,40.825,34.045
	c0.85,3.37,1.297,6.894,1.297,10.506c0,24.645-20.828,44.746-46.367,44.746c-25.542,0-46.375-20.098-46.375-44.746
	c0-24.643,20.833-44.744,46.375-44.744V5.259z"/>
<linearGradient id="SVGID_2_" gradientUnits="userSpaceOnUse" x1="199.9863" y1="-1208.73" x2="199.9863" y2="-1120.1655" gradientTransform="matrix(1 0 0 -1 -149.9785 -1114.4443)">
	<stop  offset="0" style="stop-color:#E18A4E"/>
	<stop  offset="1" style="stop-color:#F3BF95"/>
</linearGradient>
<path fill="url(#SVGID_2_)" d="M50.004,5.721c1.561,0,3.094,0.087,4.604,0.245C67.133,17.797,80.475,28.84,94.498,39.227
	c0.916,3.445,1.396,7.064,1.396,10.78c0,24.386-20.617,44.279-45.882,44.279C24.74,94.285,4.12,74.389,4.12,50.006
	c0-24.393,20.62-44.279,45.893-44.279L50.004,5.721z"/>
<linearGradient id="SVGID_3_" gradientUnits="userSpaceOnUse" x1="199.9805" y1="-1208.2603" x2="199.9805" y2="-1120.6304" gradientTransform="matrix(1 0 0 -1 -149.9785 -1114.4443)">
	<stop  offset="0" style="stop-color:#DC8141"/>
	<stop  offset="1" style="stop-color:#F0B07C"/>
</linearGradient>
<path fill="url(#SVGID_3_)" d="M50.004,6.186c1.682,0,3.337,0.096,4.971,0.292C67.271,17.955,80.296,28.74,93.914,38.959
	c0.968,3.524,1.499,7.229,1.499,11.045c0,24.133-20.401,43.813-45.41,43.813c-25.011,0-45.412-19.68-45.412-43.813
	C4.592,25.868,24.994,6.186,50.004,6.186z"/>
<linearGradient id="SVGID_4_" gradientUnits="userSpaceOnUse" x1="199.9844" y1="-1207.7993" x2="199.9844" y2="-1121.0903" gradientTransform="matrix(1 0 0 -1 -149.9785 -1114.4443)">
	<stop  offset="0" style="stop-color:#D87C37"/>
	<stop  offset="1" style="stop-color:#F0A568"/>
</linearGradient>
<path fill="url(#SVGID_4_)" d="M50.004,6.646c1.805,0,3.583,0.116,5.33,0.343c12.085,11.126,24.791,21.659,38.003,31.7
	c1.034,3.604,1.599,7.398,1.599,11.314c0,23.879-20.188,43.353-44.931,43.353c-24.75,0-44.93-19.474-44.93-43.353
	S25.255,6.646,50.004,6.646z"/>
<linearGradient id="SVGID_5_" gradientUnits="userSpaceOnUse" x1="199.9795" y1="-1207.3384" x2="199.9795" y2="-1121.5532" gradientTransform="matrix(1 0 0 -1 -149.9785 -1114.4443)">
	<stop  offset="0" style="stop-color:#D4762D"/>
	<stop  offset="1" style="stop-color:#ED9B54"/>
</linearGradient>
<path fill="url(#SVGID_5_)" d="M50.004,7.109c1.936,0,3.827,0.133,5.688,0.396c11.873,10.772,24.254,21.052,37.064,30.919
	c1.102,3.677,1.697,7.567,1.697,11.58c0,23.62-19.969,42.891-44.45,42.891c-24.489,0-44.454-19.268-44.454-42.891
	C5.551,26.376,25.524,7.109,50.004,7.109z"/>
<linearGradient id="SVGID_6_" gradientUnits="userSpaceOnUse" x1="199.9902" y1="-1206.8706" x2="199.9902" y2="-1122.0225" gradientTransform="matrix(1 0 0 -1 -149.9785 -1114.4443)">
	<stop  offset="0" style="stop-color:#D17126"/>
	<stop  offset="1" style="stop-color:#EA9244"/>
</linearGradient>
<path fill="url(#SVGID_6_)" d="M50.004,7.578c2.057,0,4.081,0.147,6.057,0.438c11.65,10.422,23.713,20.44,36.117,30.141
	c1.165,3.758,1.799,7.732,1.799,11.846c0,23.366-19.752,42.424-43.963,42.424c-24.22,0-43.966-19.063-43.966-42.424
	C6.046,26.64,25.785,7.578,50.004,7.578z"/>
<linearGradient id="SVGID_7_" gradientUnits="userSpaceOnUse" x1="199.9805" y1="-1206.4106" x2="199.9805" y2="-1122.4814" gradientTransform="matrix(1 0 0 -1 -149.9785 -1114.4443)">
	<stop  offset="0" style="stop-color:#CF6C20"/>
	<stop  offset="1" style="stop-color:#E98B33"/>
</linearGradient>
<path fill="url(#SVGID_7_)" d="M50.004,8.037c2.188,0,4.326,0.169,6.415,0.496c11.433,10.064,23.185,19.836,35.179,29.359
	c1.232,3.826,1.896,7.898,1.896,12.112c0,23.107-19.536,41.963-43.487,41.963c-23.95,0-43.494-18.855-43.494-41.963
	C6.51,26.888,26.055,8.037,50.004,8.037L50.004,8.037z"/>
<linearGradient id="SVGID_8_" gradientUnits="userSpaceOnUse" x1="199.9766" y1="-1205.9458" x2="199.9766" y2="-1122.9453" gradientTransform="matrix(1 0 0 -1 -149.9785 -1114.4443)">
	<stop  offset="0" style="stop-color:#CC671D"/>
	<stop  offset="1" style="stop-color:#E88326"/>
</linearGradient>
<path fill="url(#SVGID_8_)" d="M50.004,8.501c2.311,0,4.57,0.185,6.773,0.543c11.222,9.712,22.646,19.23,34.24,28.579
	c1.299,3.908,1.99,8.068,1.99,12.379c0,22.854-19.314,41.5-43.005,41.5c-23.688,0-43.013-18.646-43.013-41.5
	C6.992,27.144,26.316,8.501,50.004,8.501z"/>
<linearGradient id="SVGID_9_" gradientUnits="userSpaceOnUse" x1="199.9844" y1="-1205.4829" x2="199.9844" y2="-1123.4033" gradientTransform="matrix(1 0 0 -1 -149.9785 -1114.4443)">
	<stop  offset="0" style="stop-color:#CA641C"/>
	<stop  offset="1" style="stop-color:#E67E1F"/>
</linearGradient>
<path fill="url(#SVGID_9_)" d="M50.004,8.959c2.432,0,4.816,0.207,7.141,0.597c11,9.359,22.106,18.619,33.295,27.798
	c1.36,3.979,2.099,8.237,2.099,12.649c0,22.601-19.108,41.036-42.533,41.036c-23.427,0-42.531-18.43-42.531-41.036
	C7.473,27.397,26.577,8.959,50.004,8.959z"/>
<linearGradient id="SVGID_10_" gradientUnits="userSpaceOnUse" x1="441.1768" y1="-1624.1733" x2="441.1768" y2="-1515.0552" gradientTransform="matrix(0.7437 0 0 -0.7437 -278.0979 -1117.3143)">
	<stop  offset="0" style="stop-color:#C8611D"/>
	<stop  offset="1" style="stop-color:#E6781C"/>
</linearGradient>
<path fill="url(#SVGID_10_)" d="M50.004,9.433c2.555,0,5.061,0.22,7.5,0.644l32.354,27.017c1.42,4.06,2.195,8.402,2.195,12.914
	c0,22.348-18.891,40.576-42.05,40.576c-23.158,0-42.045-18.229-42.045-40.576C7.959,27.655,26.847,9.433,50.004,9.433z"/>
<path fill="#9F653A" d="M54.249,5.448C53.521,44.79,88.652,36.831,95.074,39.493C80.305,28.699,66.766,17.323,54.249,5.448z"/>
<linearGradient id="SVGID_11_" gradientUnits="userSpaceOnUse" x1="433.7734" y1="-1473.6396" x2="425.8636" y2="-1482.9762" gradientTransform="matrix(0.7745 0 0 -0.7745 -261.1133 -1119.0861)">
	<stop  offset="0" style="stop-color:#DCDDE1"/>
	<stop  offset="0.29" style="stop-color:#F2F3F5"/>
	<stop  offset="1" style="stop-color:#FFFFFF"/>
</linearGradient>
<path fill="url(#SVGID_11_)" d="M54.249,5.444c0.085,24.782,24.916,20.295,40.825,34.042L54.249,5.444z"/>
<g>
	<g>
		<g>
			<radialGradient id="SVGID_12_" cx="40.7246" cy="31.666" r="0.058" gradientUnits="userSpaceOnUse">
				<stop  offset="0" style="stop-color:#E52400"/>
				<stop  offset="0.2648" style="stop-color:#DF2400"/>
				<stop  offset="0.6224" style="stop-color:#CE2400"/>
				<stop  offset="1" style="stop-color:#B42400"/>
			</radialGradient>
			<path fill="url(#SVGID_12_)" d="M40.778,31.728c-0.03-0.04-0.064-0.076-0.096-0.113c-0.003-0.003-0.009-0.008-0.012-0.011
				C40.707,31.645,40.744,31.684,40.778,31.728z"/>
			<radialGradient id="SVGID_13_" cx="34.292" cy="41.7964" r="15.2217" gradientUnits="userSpaceOnUse">
				<stop  offset="0" style="stop-color:#E52400"/>
				<stop  offset="0.2648" style="stop-color:#DF2400"/>
				<stop  offset="0.6224" style="stop-color:#CE2400"/>
				<stop  offset="1" style="stop-color:#B42400"/>
			</radialGradient>
			<path fill="url(#SVGID_13_)" d="M49.404,43.599c-1.496-2.068-2.992-4.135-4.489-6.202c-0.763-1.055-1.527-2.11-2.29-3.164
				c-0.366-0.507-0.733-1.014-1.1-1.52c-0.267-0.368-0.513-0.779-0.843-1.098c0.032,0.037,0.066,0.073,0.096,0.113
				c-0.034-0.044-0.072-0.083-0.108-0.124c-0.077-0.075-0.155-0.15-0.246-0.213c0.092,0.059,0.171,0.134,0.246,0.213
				c0.003,0.003,0.008,0.007,0.012,0.011c-0.371-0.42-0.994-0.697-1.45-0.99c-0.617-0.397-1.236-0.796-1.854-1.194
				c-1.238-0.795-2.476-1.591-3.714-2.387c0.139,0.089-0.601-0.33-1.155-0.245c-0.772,0.12-1.369,0.837-1.931,1.323
				c-1.383,1.19-2.766,2.382-4.147,3.573c-1.382,1.192-2.765,2.383-4.147,3.574c-0.67,0.58-1.341,1.158-2.014,1.736
				c-0.147,0.125-0.975,0.84-0.83,0.715c-0.667,0.594-0.76,1.53-0.269,2.265c0.061,0.092,0.131,0.182,0.196,0.271
				c0.445,0.618,0.893,1.233,1.34,1.851c1.456,2.013,2.913,4.026,4.37,6.038c0.87,1.203,1.742,2.409,2.612,3.612
				c0.281,0.387,0.742,0.617,1.135,0.87c0.36,0.23,0.719,0.462,1.078,0.691c0.717,0.462,1.431,0.921,2.146,1.382
				c0.708,0.454,1.414,0.91,2.123,1.364c0.341,0.221,0.684,0.495,1.068,0.639c0.781,0.29,1.419-0.088,1.991-0.579
				c2.381-2.053,4.762-4.104,7.142-6.155c0.966-0.834,1.935-1.667,2.903-2.501c0.501-0.434,1.005-0.867,1.508-1.299
				c0.325-0.282,0.657-0.547,0.825-0.962C49.828,44.665,49.721,44.075,49.404,43.599z"/>
		</g>
		<path fill="#FFFFFF" d="M30.039,52.929l-0.935-0.603c-0.08-0.05-0.161-0.101-0.242-0.151c-0.302-0.183-0.588-0.357-0.755-0.587
			l-1.308-1.806l-1.307-1.807l-2.765-3.82l-1.605-2.218l-0.668-0.926l-0.669-0.925L19.719,40c-0.042-0.056-0.083-0.11-0.121-0.168
			c-0.359-0.539-0.287-1.179,0.183-1.598l0.118-0.102c0.11-0.095,0.27-0.231,0.411-0.354c-0.452,1.106-0.348,2.43,0.374,3.43
			l5.284,7.299c0.588,0.814,1.484,1.28,2.459,1.28c0.724,0,1.434-0.269,2-0.757l8.027-6.917c1.349-1.163,1.597-3.283,0.553-4.727
			l-5.285-7.3c-0.586-0.812-1.484-1.278-2.458-1.278c-0.209,0-0.417,0.022-0.621,0.065l0.271-0.233
			c0.121-0.106,0.245-0.221,0.373-0.341c0.417-0.389,0.846-0.792,1.302-0.863c0.027-0.004,0.054-0.004,0.082-0.004
			c0.093,0,0.252,0.017,0.504,0.105c0.113,0.039,0.205,0.081,0.253,0.101c0.009,0.003,0.019,0.008,0.029,0.012l0.587,0.378
			c-0.011,0.017-0.022,0.036-0.032,0.055c-0.207,0.408,0.081,0.898,0.388,1.323l6.209,8.58c0.667,0.922,1.991,2.176,2.952,2.792
			l3.444,2.214c0.561,0.361,0.84,0.403,1.001,0.403s0.309-0.049,0.422-0.143l0.563,0.775c0.229,0.348,0.288,0.761,0.144,1.117
			c-0.11,0.271-0.346,0.473-0.619,0.708l-0.065,0.056l-0.398,0.343c0.004-0.091,0.004-0.181-0.005-0.272
			c-0.051-0.643-0.407-1.235-0.948-1.585l-4.726-3.058c-0.334-0.215-0.738-0.333-1.137-0.333c-0.529,0-1.041,0.193-1.441,0.542
			l-9.603,8.275c-0.523,0.452-0.805,1.12-0.753,1.792C29.475,52.112,29.691,52.579,30.039,52.929L30.039,52.929z"/>
		<g>
			<linearGradient id="SVGID_14_" gradientUnits="userSpaceOnUse" x1="38.3696" y1="36.9458" x2="44.9728" y2="34.5805">
				<stop  offset="0" style="stop-color:#E52400"/>
				<stop  offset="1" style="stop-color:#B42400"/>
			</linearGradient>
			<path fill="url(#SVGID_14_)" d="M44.229,40.535c-0.911-0.586-2.178-1.784-2.814-2.663l-6.208-8.579
				c-0.635-0.877-0.41-1.117,0.502-0.53l3.445,2.214c0.911,0.586,2.177,1.785,2.813,2.663l6.208,8.579
				c0.635,0.88,0.41,1.118-0.503,0.532L44.229,40.535z"/>
		</g>
		<linearGradient id="SVGID_15_" gradientUnits="userSpaceOnUse" x1="34.9121" y1="37.2197" x2="39.446" y2="50.6242">
			<stop  offset="0" style="stop-color:#E52400"/>
			<stop  offset="1" style="stop-color:#B42400"/>
		</linearGradient>
		<path fill="url(#SVGID_15_)" d="M36.312,56.015c-0.297,0-0.608-0.089-0.858-0.252l-4.725-3.058
			c-0.412-0.263-0.683-0.721-0.719-1.206c-0.039-0.51,0.178-1.018,0.577-1.362l9.606-8.279c0.305-0.266,0.7-0.416,1.102-0.416
			c0.299,0,0.609,0.089,0.86,0.25l4.725,3.059c0.407,0.262,0.677,0.713,0.717,1.195c0.042,0.521-0.177,1.037-0.588,1.383
			l-4.792,4.128l-4.804,4.141C37.111,55.865,36.717,56.015,36.312,56.015L36.312,56.015z"/>
		<g>
			<linearGradient id="SVGID_16_" gradientUnits="userSpaceOnUse" x1="29.8008" y1="29.0137" x2="29.9979" y2="47.8387">
				<stop  offset="0" style="stop-color:#E52400"/>
				<stop  offset="1" style="stop-color:#B42400"/>
			</linearGradient>
			<path fill="url(#SVGID_16_)" d="M30.155,48.566c-1.15,0.99-2.819,0.795-3.709-0.434l-5.284-7.301
				c-0.889-1.231-0.679-3.046,0.472-4.037l8.025-6.917c1.151-0.992,2.819-0.797,3.71,0.432l5.284,7.302
				c0.89,1.23,0.677,3.046-0.472,4.038L30.155,48.566z"/>
		</g>
		<radialGradient id="SVGID_17_" cx="46.1372" cy="40.3442" r="1.4008" gradientUnits="userSpaceOnUse">
			<stop  offset="0.9066" style="stop-color:#950000"/>
			<stop  offset="0.9251" style="stop-color:#8D0000"/>
			<stop  offset="0.9539" style="stop-color:#770000"/>
			<stop  offset="0.9892" style="stop-color:#530000"/>
			<stop  offset="1" style="stop-color:#470000"/>
		</radialGradient>
		<path fill="url(#SVGID_17_)" d="M46.942,40.865c-0.563-0.774-1.38-1.637-1.822-1.925c-0.445-0.286-0.349,0.11,0.214,0.884
			c0.563,0.775,1.377,1.635,1.823,1.923C47.599,42.035,47.503,41.64,46.942,40.865z"/>
		<path fill="#FFEAEC" d="M47.357,41.761c-0.025-0.005-0.071-0.022-0.158-0.077c-0.437-0.286-1.247-1.139-1.803-1.904
			c-0.427-0.591-0.489-0.828-0.477-0.87c-0.005,0.016,0.041,0.021,0.158,0.098c0.436,0.283,1.245,1.136,1.799,1.904
			C47.263,41.443,47.351,41.687,47.357,41.761L47.357,41.761z"/>
		<radialGradient id="SVGID_18_" cx="36.7832" cy="30.6675" r="1.4008" gradientUnits="userSpaceOnUse">
			<stop  offset="0.9066" style="stop-color:#950000"/>
			<stop  offset="0.9251" style="stop-color:#8D0000"/>
			<stop  offset="0.9539" style="stop-color:#770000"/>
			<stop  offset="0.9892" style="stop-color:#530000"/>
			<stop  offset="1" style="stop-color:#470000"/>
		</radialGradient>
		<path fill="url(#SVGID_18_)" d="M37.801,32.071c0.446,0.287,0.347-0.11-0.213-0.885c-0.563-0.774-1.378-1.634-1.822-1.922
			s-0.348,0.108,0.213,0.883C36.54,30.922,37.357,31.784,37.801,32.071z"/>
		<path fill="#FFEAEC" d="M38.003,32.084c-0.024-0.005-0.072-0.023-0.161-0.08c-0.437-0.283-1.244-1.138-1.8-1.903
			c-0.428-0.59-0.49-0.825-0.478-0.868c-0.005,0.016,0.041,0.022,0.157,0.096c0.435,0.282,1.243,1.136,1.802,1.904
			C37.911,31.768,37.998,32.01,38.003,32.084L38.003,32.084z"/>
		<radialGradient id="SVGID_19_" cx="41.4609" cy="35.5059" r="1.4003" gradientUnits="userSpaceOnUse">
			<stop  offset="0.9066" style="stop-color:#950000"/>
			<stop  offset="0.9251" style="stop-color:#8D0000"/>
			<stop  offset="0.9539" style="stop-color:#770000"/>
			<stop  offset="0.9892" style="stop-color:#530000"/>
			<stop  offset="1" style="stop-color:#470000"/>
		</radialGradient>
		<path fill="url(#SVGID_19_)" d="M40.443,34.103c-0.445-0.286-0.348,0.109,0.213,0.883c0.562,0.774,1.377,1.636,1.821,1.923
			c0.447,0.286,0.35-0.108-0.213-0.883C41.702,35.252,40.887,34.392,40.443,34.103z"/>
		<path fill="#FFEAEC" d="M42.679,36.921c-0.022-0.005-0.071-0.022-0.158-0.078c-0.435-0.282-1.243-1.136-1.8-1.903
			c-0.416-0.571-0.486-0.812-0.479-0.863c0.001,0.014,0.05,0.023,0.158,0.092c0.435,0.282,1.244,1.136,1.8,1.903
			C42.586,36.604,42.675,36.848,42.679,36.921L42.679,36.921z"/>
		<radialGradient id="SVGID_20_" cx="26.752" cy="36.4165" r="2.7725" gradientUnits="userSpaceOnUse">
			<stop  offset="0.9066" style="stop-color:#950000"/>
			<stop  offset="0.9251" style="stop-color:#8D0000"/>
			<stop  offset="0.9539" style="stop-color:#770000"/>
			<stop  offset="0.9892" style="stop-color:#530000"/>
			<stop  offset="1" style="stop-color:#470000"/>
		</radialGradient>
		<path fill="url(#SVGID_20_)" d="M28.276,36.908c0.784-0.68,0.982-1.827,0.445-2.557c-0.536-0.731-1.604-0.773-2.387-0.092
			c-0.785,0.68-0.984,1.825-0.448,2.557C26.422,37.546,27.492,37.589,28.276,36.908z"/>
		<radialGradient id="SVGID_21_" cx="26.7778" cy="36.3794" r="2.6458" gradientUnits="userSpaceOnUse">
			<stop  offset="0.9066" style="stop-color:#FFEAEC"/>
			<stop  offset="0.915" style="stop-color:#FBE2E4"/>
			<stop  offset="0.9282" style="stop-color:#F0CCCE"/>
			<stop  offset="0.9444" style="stop-color:#DEA9AA"/>
			<stop  offset="0.963" style="stop-color:#C57778"/>
			<stop  offset="0.9834" style="stop-color:#A53839"/>
			<stop  offset="1" style="stop-color:#890000"/>
		</radialGradient>
		<path fill="url(#SVGID_21_)" d="M27.054,37.313c-0.002,0-0.003,0-0.003,0c-0.453,0-0.842-0.193-1.103-0.545
			c-0.511-0.698-0.313-1.796,0.438-2.452c0.345-0.299,0.761-0.463,1.17-0.463c0.452,0,0.843,0.193,1.1,0.545
			c0.513,0.699,0.319,1.796-0.433,2.45C27.88,37.147,27.466,37.313,27.054,37.313L27.054,37.313z"/>
		<radialGradient id="SVGID_22_" cx="31.3843" cy="42.9863" r="3.0075" gradientUnits="userSpaceOnUse">
			<stop  offset="0.9066" style="stop-color:#950000"/>
			<stop  offset="0.9251" style="stop-color:#8D0000"/>
			<stop  offset="0.9539" style="stop-color:#770000"/>
			<stop  offset="0.9892" style="stop-color:#530000"/>
			<stop  offset="1" style="stop-color:#470000"/>
		</radialGradient>
		<path fill="url(#SVGID_22_)" d="M33.008,43.36c0.783-0.68,0.981-1.825,0.445-2.556c-0.537-0.733-1.608-0.774-2.389-0.094
			c-0.784,0.683-0.983,1.827-0.445,2.561C31.155,44,32.223,44.041,33.008,43.36z"/>
		<radialGradient id="SVGID_23_" cx="31.4146" cy="42.9443" r="2.8693" gradientUnits="userSpaceOnUse">
			<stop  offset="0.9066" style="stop-color:#FFEAEC"/>
			<stop  offset="0.915" style="stop-color:#FBE2E4"/>
			<stop  offset="0.9282" style="stop-color:#F0CCCE"/>
			<stop  offset="0.9444" style="stop-color:#DEA9AA"/>
			<stop  offset="0.963" style="stop-color:#C57778"/>
			<stop  offset="0.9834" style="stop-color:#A53839"/>
			<stop  offset="1" style="stop-color:#890000"/>
		</radialGradient>
		<path fill="url(#SVGID_23_)" d="M31.78,43.766c-0.45,0-0.84-0.192-1.098-0.543c-0.513-0.699-0.318-1.799,0.435-2.453
			c0.345-0.299,0.759-0.464,1.172-0.464c0.453,0,0.843,0.194,1.101,0.546c0.511,0.697,0.316,1.795-0.434,2.449
			C32.61,43.6,32.192,43.766,31.78,43.766L31.78,43.766z"/>
		<radialGradient id="SVGID_24_" cx="30.4639" cy="33.6235" r="3.4768" gradientUnits="userSpaceOnUse">
			<stop  offset="0.9066" style="stop-color:#950000"/>
			<stop  offset="0.9251" style="stop-color:#8D0000"/>
			<stop  offset="0.9539" style="stop-color:#770000"/>
			<stop  offset="0.9892" style="stop-color:#530000"/>
			<stop  offset="1" style="stop-color:#470000"/>
		</radialGradient>
		<path fill="url(#SVGID_24_)" d="M32.151,33.54c0.783-0.68,0.981-1.827,0.444-2.557c-0.535-0.731-1.605-0.773-2.388-0.094
			c-0.784,0.682-0.983,1.826-0.446,2.559C30.295,34.178,31.368,34.222,32.151,33.54z"/>
		<radialGradient id="SVGID_25_" cx="30.4961" cy="33.561" r="3.3194" gradientUnits="userSpaceOnUse">
			<stop  offset="0.9066" style="stop-color:#FFEAEC"/>
			<stop  offset="0.915" style="stop-color:#FBE2E4"/>
			<stop  offset="0.9282" style="stop-color:#F0CCCE"/>
			<stop  offset="0.9444" style="stop-color:#DEA9AA"/>
			<stop  offset="0.963" style="stop-color:#C57778"/>
			<stop  offset="0.9834" style="stop-color:#A53839"/>
			<stop  offset="1" style="stop-color:#890000"/>
		</radialGradient>
		<path fill="url(#SVGID_25_)" d="M30.926,33.945c-0.454,0-0.845-0.192-1.102-0.544c-0.513-0.698-0.316-1.799,0.435-2.451
			c0.345-0.3,0.761-0.466,1.175-0.466c0.45,0,0.841,0.194,1.098,0.545c0.513,0.698,0.319,1.799-0.433,2.451
			C31.755,33.781,31.338,33.945,30.926,33.945L30.926,33.945z"/>
		<radialGradient id="SVGID_26_" cx="22.3491" cy="39.833" r="3.1127" gradientUnits="userSpaceOnUse">
			<stop  offset="0.9066" style="stop-color:#950000"/>
			<stop  offset="0.9251" style="stop-color:#8D0000"/>
			<stop  offset="0.9539" style="stop-color:#770000"/>
			<stop  offset="0.9892" style="stop-color:#530000"/>
			<stop  offset="1" style="stop-color:#470000"/>
		</radialGradient>
		<path fill="url(#SVGID_26_)" d="M22.459,37.626c-0.784,0.68-0.983,1.825-0.447,2.556c0.537,0.732,1.606,0.774,2.389,0.095
			c0.784-0.682,0.982-1.828,0.446-2.56C24.311,36.987,23.244,36.945,22.459,37.626z"/>
		<radialGradient id="SVGID_27_" cx="22.3979" cy="39.7939" r="2.9718" gradientUnits="userSpaceOnUse">
			<stop  offset="0.9066" style="stop-color:#FFEAEC"/>
			<stop  offset="0.915" style="stop-color:#FBE2E4"/>
			<stop  offset="0.9282" style="stop-color:#F0CCCE"/>
			<stop  offset="0.9444" style="stop-color:#DEA9AA"/>
			<stop  offset="0.963" style="stop-color:#C57778"/>
			<stop  offset="0.9834" style="stop-color:#A53839"/>
			<stop  offset="1" style="stop-color:#890000"/>
		</radialGradient>
		<path fill="url(#SVGID_27_)" d="M23.178,40.682c-0.452,0-0.844-0.193-1.101-0.545c-0.514-0.698-0.317-1.799,0.433-2.451
			c0.346-0.3,0.765-0.464,1.174-0.464c0.453,0,0.844,0.193,1.101,0.543c0.511,0.7,0.317,1.799-0.436,2.453
			C24.006,40.518,23.589,40.682,23.178,40.682L23.178,40.682z"/>
		<radialGradient id="SVGID_28_" cx="27.3096" cy="46.1074" r="2.8825" gradientUnits="userSpaceOnUse">
			<stop  offset="0.9066" style="stop-color:#950000"/>
			<stop  offset="0.9251" style="stop-color:#8D0000"/>
			<stop  offset="0.9539" style="stop-color:#770000"/>
			<stop  offset="0.9892" style="stop-color:#530000"/>
			<stop  offset="1" style="stop-color:#470000"/>
		</radialGradient>
		<path fill="url(#SVGID_28_)" d="M27.189,44.08c-0.783,0.679-0.981,1.826-0.446,2.556c0.537,0.731,1.604,0.773,2.388,0.094
			c0.784-0.681,0.984-1.826,0.448-2.558C29.042,43.442,27.972,43.397,27.189,44.08z"/>
		<radialGradient id="SVGID_29_" cx="27.3491" cy="46.0767" r="2.7505" gradientUnits="userSpaceOnUse">
			<stop  offset="0.9066" style="stop-color:#FFEAEC"/>
			<stop  offset="0.915" style="stop-color:#FBE2E4"/>
			<stop  offset="0.9282" style="stop-color:#F0CCCE"/>
			<stop  offset="0.9444" style="stop-color:#DEA9AA"/>
			<stop  offset="0.963" style="stop-color:#C57778"/>
			<stop  offset="0.9834" style="stop-color:#A53839"/>
			<stop  offset="1" style="stop-color:#890000"/>
		</radialGradient>
		<path fill="url(#SVGID_29_)" d="M27.91,47.135c-0.001,0-0.002,0-0.002,0c-0.452,0-0.844-0.193-1.1-0.546
			c-0.513-0.698-0.318-1.798,0.433-2.45c0.345-0.301,0.762-0.466,1.174-0.466c0.452,0,0.844,0.195,1.101,0.546
			c0.511,0.696,0.316,1.797-0.437,2.452C28.735,46.968,28.32,47.135,27.91,47.135L27.91,47.135z"/>
		<radialGradient id="SVGID_30_" cx="35.3584" cy="39.1104" r="2.3968" gradientUnits="userSpaceOnUse">
			<stop  offset="0.9066" style="stop-color:#950000"/>
			<stop  offset="0.9251" style="stop-color:#8D0000"/>
			<stop  offset="0.9539" style="stop-color:#770000"/>
			<stop  offset="0.9892" style="stop-color:#530000"/>
			<stop  offset="1" style="stop-color:#470000"/>
		</radialGradient>
		<path fill="url(#SVGID_30_)" d="M36.882,39.992c0.782-0.68,0.981-1.825,0.445-2.555c-0.535-0.731-1.606-0.774-2.388-0.094
			c-0.785,0.682-0.983,1.828-0.448,2.56C35.03,40.633,36.097,40.674,36.882,39.992z"/>
		<radialGradient id="SVGID_31_" cx="35.3843" cy="39.0903" r="2.2881" gradientUnits="userSpaceOnUse">
			<stop  offset="0.9066" style="stop-color:#FFEAEC"/>
			<stop  offset="0.915" style="stop-color:#FBE2E4"/>
			<stop  offset="0.9282" style="stop-color:#F0CCCE"/>
			<stop  offset="0.9444" style="stop-color:#DEA9AA"/>
			<stop  offset="0.963" style="stop-color:#C57778"/>
			<stop  offset="0.9834" style="stop-color:#A53839"/>
			<stop  offset="1" style="stop-color:#890000"/>
		</radialGradient>
		<path fill="url(#SVGID_31_)" d="M35.654,40.399c-0.451,0-0.842-0.194-1.099-0.544c-0.513-0.699-0.317-1.801,0.436-2.454
			c0.344-0.298,0.761-0.464,1.172-0.464c0.452,0,0.842,0.194,1.101,0.547c0.51,0.698,0.316,1.795-0.435,2.448
			C36.484,40.232,36.065,40.399,35.654,40.399L35.654,40.399z"/>
		<radialGradient id="SVGID_32_" cx="45.7739" cy="49.1953" r="3.8101" gradientUnits="userSpaceOnUse">
			<stop  offset="0.9066" style="stop-color:#950000"/>
			<stop  offset="0.9251" style="stop-color:#8D0000"/>
			<stop  offset="0.9539" style="stop-color:#770000"/>
			<stop  offset="0.9892" style="stop-color:#530000"/>
			<stop  offset="1" style="stop-color:#470000"/>
		</radialGradient>
		<path fill="url(#SVGID_32_)" d="M46.26,45.304c-0.453-0.291-1.49,0.052-2.313,0.767c-0.822,0.716-1.119,1.532-0.665,1.824
			c0.454,0.291,1.489-0.054,2.315-0.771C46.419,46.41,46.717,45.594,46.26,45.304z"/>
		<radialGradient id="SVGID_33_" cx="45.7271" cy="49.0498" r="3.6076" gradientUnits="userSpaceOnUse">
			<stop  offset="0.9066" style="stop-color:#FFEAEC"/>
			<stop  offset="0.915" style="stop-color:#FBE2E4"/>
			<stop  offset="0.9282" style="stop-color:#F0CCCE"/>
			<stop  offset="0.9444" style="stop-color:#DEA9AA"/>
			<stop  offset="0.963" style="stop-color:#C57778"/>
			<stop  offset="0.9834" style="stop-color:#A53839"/>
			<stop  offset="1" style="stop-color:#890000"/>
		</radialGradient>
		<path fill="url(#SVGID_33_)" d="M43.702,47.919c-0.156,0-0.283-0.031-0.376-0.092c-0.107-0.068-0.167-0.171-0.177-0.307
			c-0.027-0.37,0.307-0.917,0.852-1.39c0.585-0.509,1.324-0.852,1.841-0.852c0.155,0,0.283,0.032,0.377,0.093
			c0.107,0.066,0.166,0.169,0.176,0.306c0.028,0.371-0.307,0.916-0.851,1.389C44.948,47.583,44.224,47.919,43.702,47.919
			L43.702,47.919z"/>
		<radialGradient id="SVGID_34_" cx="37.1978" cy="56.1943" r="3.7468" gradientUnits="userSpaceOnUse">
			<stop  offset="0.9066" style="stop-color:#950000"/>
			<stop  offset="0.9251" style="stop-color:#8D0000"/>
			<stop  offset="0.9539" style="stop-color:#770000"/>
			<stop  offset="0.9892" style="stop-color:#530000"/>
			<stop  offset="1" style="stop-color:#470000"/>
		</radialGradient>
		<path fill="url(#SVGID_34_)" d="M38.118,52.384c-0.453-0.292-1.491,0.051-2.313,0.769c-0.823,0.715-1.12,1.529-0.664,1.822
			c0.453,0.289,1.489-0.056,2.312-0.77C38.275,53.487,38.572,52.673,38.118,52.384z"/>
		<radialGradient id="SVGID_35_" cx="37.1733" cy="56.0527" r="3.5559" gradientUnits="userSpaceOnUse">
			<stop  offset="0.9066" style="stop-color:#FFEAEC"/>
			<stop  offset="0.915" style="stop-color:#FBE2E4"/>
			<stop  offset="0.9282" style="stop-color:#F0CCCE"/>
			<stop  offset="0.9444" style="stop-color:#DEA9AA"/>
			<stop  offset="0.963" style="stop-color:#C57778"/>
			<stop  offset="0.9834" style="stop-color:#A53839"/>
			<stop  offset="1" style="stop-color:#890000"/>
		</radialGradient>
		<path fill="url(#SVGID_35_)" d="M35.559,54.998c0,0,0,0-0.002,0c-0.154,0-0.282-0.03-0.375-0.092
			c-0.107-0.066-0.165-0.172-0.175-0.307c-0.028-0.373,0.304-0.917,0.848-1.389c0.586-0.511,1.328-0.854,1.844-0.854
			c0.156,0,0.283,0.031,0.377,0.091c0.106,0.069,0.165,0.171,0.176,0.307c0.025,0.37-0.308,0.917-0.852,1.391
			C36.813,54.653,36.074,54.998,35.559,54.998L35.559,54.998z"/>
		<radialGradient id="SVGID_36_" cx="41.3379" cy="46.8633" r="4.1186" gradientUnits="userSpaceOnUse">
			<stop  offset="0.9066" style="stop-color:#950000"/>
			<stop  offset="0.9251" style="stop-color:#8D0000"/>
			<stop  offset="0.9539" style="stop-color:#770000"/>
			<stop  offset="0.9892" style="stop-color:#530000"/>
			<stop  offset="1" style="stop-color:#470000"/>
		</radialGradient>
		<path fill="url(#SVGID_36_)" d="M42.249,42.736c-0.455-0.291-1.492,0.054-2.314,0.768c-0.823,0.716-1.12,1.533-0.667,1.822
			c0.456,0.292,1.491-0.051,2.317-0.768C42.407,43.844,42.703,43.026,42.249,42.736z"/>
		<radialGradient id="SVGID_37_" cx="41.3115" cy="46.7026" r="3.8993" gradientUnits="userSpaceOnUse">
			<stop  offset="0.9066" style="stop-color:#FFEAEC"/>
			<stop  offset="0.915" style="stop-color:#FBE2E4"/>
			<stop  offset="0.9282" style="stop-color:#F0CCCE"/>
			<stop  offset="0.9444" style="stop-color:#DEA9AA"/>
			<stop  offset="0.963" style="stop-color:#C57778"/>
			<stop  offset="0.9834" style="stop-color:#A53839"/>
			<stop  offset="1" style="stop-color:#890000"/>
		</radialGradient>
		<path fill="url(#SVGID_37_)" d="M39.689,45.351c-0.155,0-0.283-0.03-0.378-0.091c-0.106-0.067-0.164-0.171-0.174-0.306
			c-0.028-0.371,0.307-0.917,0.851-1.389c0.585-0.51,1.325-0.853,1.839-0.853c0.157,0,0.285,0.031,0.379,0.091
			c0.107,0.069,0.165,0.17,0.175,0.306c0.028,0.372-0.305,0.917-0.85,1.39C40.946,45.009,40.205,45.351,39.689,45.351L39.689,45.351
			z"/>
		<radialGradient id="SVGID_38_" cx="33.6182" cy="53.8955" r="4.0468" gradientUnits="userSpaceOnUse">
			<stop  offset="0.9066" style="stop-color:#950000"/>
			<stop  offset="0.9251" style="stop-color:#8D0000"/>
			<stop  offset="0.9539" style="stop-color:#770000"/>
			<stop  offset="0.9892" style="stop-color:#530000"/>
			<stop  offset="1" style="stop-color:#470000"/>
		</radialGradient>
		<path fill="url(#SVGID_38_)" d="M34.105,49.815c-0.455-0.291-1.49,0.052-2.313,0.769c-0.824,0.715-1.121,1.531-0.667,1.822
			c0.454,0.29,1.491-0.053,2.315-0.768C34.263,50.923,34.561,50.105,34.105,49.815z"/>
		<radialGradient id="SVGID_39_" cx="33.5718" cy="53.7373" r="3.8244" gradientUnits="userSpaceOnUse">
			<stop  offset="0.9066" style="stop-color:#FFEAEC"/>
			<stop  offset="0.915" style="stop-color:#FBE2E4"/>
			<stop  offset="0.9282" style="stop-color:#F0CCCE"/>
			<stop  offset="0.9444" style="stop-color:#DEA9AA"/>
			<stop  offset="0.963" style="stop-color:#C57778"/>
			<stop  offset="0.9834" style="stop-color:#A53839"/>
			<stop  offset="1" style="stop-color:#890000"/>
		</radialGradient>
		<path fill="url(#SVGID_39_)" d="M31.546,52.431c-0.155,0-0.283-0.031-0.378-0.091c-0.106-0.069-0.165-0.171-0.175-0.308
			c-0.028-0.371,0.307-0.916,0.85-1.389c0.596-0.517,1.32-0.853,1.842-0.853c0.156,0,0.283,0.03,0.377,0.091
			c0.107,0.067,0.165,0.172,0.176,0.307c0.028,0.371-0.308,0.917-0.852,1.392C32.802,52.088,32.062,52.431,31.546,52.431
			L31.546,52.431z"/>
	</g>
	<g>
		<radialGradient id="SVGID_40_" cx="59.8721" cy="59.7637" r="22.4569" gradientUnits="userSpaceOnUse">
			<stop  offset="0" style="stop-color:#E52400"/>
			<stop  offset="0.2648" style="stop-color:#DF2400"/>
			<stop  offset="0.6224" style="stop-color:#CE2400"/>
			<stop  offset="1" style="stop-color:#B42400"/>
		</radialGradient>
		<path fill="url(#SVGID_40_)" d="M56.86,42.725C56.647,42.658,56.662,42.663,56.86,42.725L56.86,42.725z M78.276,62.457
			c-1.92-4.689-3.881-9.385-5.822-14.075c-0.334-0.803-1.001-1.056-1.141-1.105c-1.855-0.671-3.93-1.256-5.822-1.849
			c-1.436-0.449-2.869-0.899-4.304-1.348c-0.584-0.182-1.168-0.365-1.75-0.548c-0.713-0.223-1.424-0.445-2.135-0.668
			c-0.145-0.045-0.263-0.081-0.356-0.112c-0.032-0.009-0.061-0.018-0.086-0.027c0.025,0.009,0.053,0.016,0.083,0.027
			c-1.329-0.393-2.107,0.622-2.921,1.487c-1.053,1.121-2.106,2.243-3.159,3.366c-2.107,2.243-4.214,4.487-6.321,6.731
			c-0.836,0.891-2.196,1.865-1.89,3.255c0.117,0.535,0.396,1.045,0.602,1.546c0.308,0.743,0.615,1.485,0.923,2.23
			c1.183,2.86,2.365,5.721,3.55,8.581c0.165,0.401,0.331,0.801,0.497,1.202c0.112,0.274,0.206,0.615,0.366,0.883
			c0.328,0.754,0.985,1.057,1.718,1.287c0.917,0.286,1.835,0.573,2.75,0.861c1.778,0.557,3.558,1.113,5.336,1.67
			c0.957,0.3,1.916,0.601,2.873,0.899c0.484,0.153,0.971,0.304,1.456,0.458c0.577,0.18,1.199,0.462,1.808,0.51
			c0.608,0.049,1.167-0.206,1.593-0.628c0.674-0.718,1.349-1.436,2.022-2.153c1.349-1.438,2.697-2.872,4.046-4.31
			c1.306-1.391,2.613-2.782,3.918-4.174c0.642-0.683,1.416-1.346,1.955-2.111C78.458,63.783,78.518,63.087,78.276,62.457z"/>
		<path fill="#FFFFFF" d="M64.68,76.791c-0.026,0-0.05,0-0.074-0.002c-0.283-0.021-0.62-0.132-0.953-0.251
			c0.348-0.589,0.324-1.259-0.063-1.988l-0.372-0.886l-1.524-3.687l-1.523-3.687l-0.612-1.482l-0.18-0.436l-0.184-0.442
			l-0.183-0.439c-0.135-0.435-0.438-1.386-1.458-1.702l-5.04-1.579l-5.043-1.576l-0.561-0.177L46.094,58.2l-0.463-0.146
			l-0.143-0.045l-0.05-0.017c-0.132-0.041-0.328-0.105-0.58-0.105c-0.05,0-0.1,0.005-0.152,0.009
			c-0.145,0.015-0.506,0.072-0.854,0.281c-0.123-0.277-0.233-0.541-0.287-0.787c-0.084-0.381,0.09-0.745,0.433-1.155
			c0.233,0.35,0.603,0.615,1.068,0.762l11.554,3.62c0.266,0.083,0.553,0.124,0.855,0.124c0.913,0,1.831-0.375,2.397-0.978
			l9.842-10.483c0.386-0.411,0.58-0.898,0.559-1.38c0.244,0.083,0.487,0.167,0.727,0.252c0.125,0.046,0.431,0.19,0.595,0.587
			l0.225,0.541c-0.501,0.001-0.992,0.232-1.382,0.648l-9.84,10.482c-0.781,0.831-1.04,2.254-0.605,3.307l4.751,11.486
			c0.197,0.476,0.517,0.833,0.908,1.028l-0.205,0.219C65.302,76.595,65.029,76.791,64.68,76.791L64.68,76.791z"/>
		<linearGradient id="SVGID_41_" gradientUnits="userSpaceOnUse" x1="54.4678" y1="59.9043" x2="52.6411" y2="74.0503">
			<stop  offset="0" style="stop-color:#E52400"/>
			<stop  offset="1" style="stop-color:#B42400"/>
		</linearGradient>
		<path fill="url(#SVGID_41_)" d="M62.723,74.908l-0.366-0.888l-1.525-3.687l-1.523-3.687l-0.613-1.482l-0.18-0.435l-0.184-0.442
			l-0.183-0.44c-0.011-0.028-0.021-0.063-0.033-0.101c-0.106-0.334-0.283-0.895-0.839-1.065l-5.043-1.579l-5.043-1.58l-0.559-0.176
			l-0.816-0.256l-0.463-0.145l-0.148-0.047c-0.127-0.041-0.253-0.091-0.399-0.077c-0.196,0.023-0.546,0.122-0.699,0.369
			c-0.239,0.391-0.098,0.758-0.025,0.939l0.978,2.36l2.013,4.865l1.524,3.688l0.424,1.024c0.219,0.549,0.796,0.675,1.14,0.75
			c0.039,0.009,0.073,0.017,0.101,0.023l1.832,0.574l7.641,2.393l1.179,0.368l0.81,0.255c0.132,0.041,0.251,0.061,0.365,0.061
			c0.316,0,0.599-0.154,0.755-0.417c0.266-0.442,0.036-0.877-0.074-1.087C62.75,74.959,62.734,74.932,62.723,74.908z"/>
		<linearGradient id="SVGID_42_" gradientUnits="userSpaceOnUse" x1="63.5674" y1="54.0869" x2="72.661" y2="68.4657">
			<stop  offset="0" style="stop-color:#E52400"/>
			<stop  offset="1" style="stop-color:#B42400"/>
		</linearGradient>
		<path fill="url(#SVGID_42_)" d="M77.361,62.329l-4.753-11.488c-0.293-0.712-0.964-0.833-1.492-0.272L61.275,61.05
			c-0.526,0.562-0.717,1.603-0.423,2.313l4.752,11.486c0.293,0.712,0.964,0.834,1.492,0.272l9.843-10.482
			C77.465,64.08,77.654,63.04,77.361,62.329z"/>
		<linearGradient id="SVGID_43_" gradientUnits="userSpaceOnUse" x1="53.0547" y1="46.0137" x2="60.8272" y2="57.1281">
			<stop  offset="0" style="stop-color:#E52400"/>
			<stop  offset="0.2648" style="stop-color:#DF2400"/>
			<stop  offset="0.6224" style="stop-color:#CE2400"/>
			<stop  offset="1" style="stop-color:#B42400"/>
		</linearGradient>
		<path fill="url(#SVGID_43_)" d="M45.342,56.106l11.556,3.62c0.734,0.229,1.767-0.04,2.295-0.603l9.84-10.481
			c0.528-0.562,0.357-1.209-0.377-1.438l-11.556-3.619c-0.736-0.231-1.767,0.041-2.294,0.602l-9.841,10.482
			C44.438,55.229,44.609,55.876,45.342,56.106z"/>
		<path fill="#B42400" d="M56.884,42.732c-0.262-0.082-0.224-0.07,0.06,0.02C56.921,42.745,56.903,42.738,56.884,42.732z"/>
		<path fill="#B42400" d="M48.591,72.033c-0.161-0.268-0.254-0.608-0.366-0.883C48.337,71.426,48.431,71.766,48.591,72.033z"/>
		<radialGradient id="SVGID_44_" cx="45.1279" cy="64.7451" r="4.5882" gradientUnits="userSpaceOnUse">
			<stop  offset="0.9066" style="stop-color:#950000"/>
			<stop  offset="0.9251" style="stop-color:#8D0000"/>
			<stop  offset="0.9539" style="stop-color:#770000"/>
			<stop  offset="0.9892" style="stop-color:#530000"/>
			<stop  offset="1" style="stop-color:#470000"/>
		</radialGradient>
		<path fill="url(#SVGID_44_)" d="M48.753,62.434c-0.352-0.856-1.362-1.774-2.26-2.048c-0.898-0.274-1.342,0.196-0.992,1.054
			c0.349,0.854,1.361,1.771,2.259,2.047C48.659,63.76,49.102,63.288,48.753,62.434z"/>
		<radialGradient id="SVGID_45_" cx="45.2349" cy="64.585" r="4.3414" gradientUnits="userSpaceOnUse">
			<stop  offset="0.9066" style="stop-color:#FFEAEC"/>
			<stop  offset="0.915" style="stop-color:#FBE2E4"/>
			<stop  offset="0.9282" style="stop-color:#F0CCCE"/>
			<stop  offset="0.9444" style="stop-color:#DEA9AA"/>
			<stop  offset="0.963" style="stop-color:#C57778"/>
			<stop  offset="0.9834" style="stop-color:#A53839"/>
			<stop  offset="1" style="stop-color:#890000"/>
		</radialGradient>
		<path fill="url(#SVGID_45_)" d="M48.225,63.471c-0.13,0-0.278-0.024-0.437-0.074c-0.873-0.267-1.862-1.162-2.2-1.992
			c-0.139-0.342-0.15-0.624-0.032-0.803c0.089-0.131,0.25-0.201,0.469-0.201c0.13,0,0.277,0.026,0.439,0.073
			c0.875,0.268,1.862,1.161,2.203,1.996c0.137,0.339,0.149,0.621,0.03,0.797C48.608,63.4,48.444,63.471,48.225,63.471L48.225,63.471
			z"/>
		<radialGradient id="SVGID_46_" cx="54.3955" cy="68.0098" r="5.0231" gradientUnits="userSpaceOnUse">
			<stop  offset="0.9066" style="stop-color:#950000"/>
			<stop  offset="0.9251" style="stop-color:#8D0000"/>
			<stop  offset="0.9539" style="stop-color:#770000"/>
			<stop  offset="0.9892" style="stop-color:#530000"/>
			<stop  offset="1" style="stop-color:#470000"/>
		</radialGradient>
		<path fill="url(#SVGID_46_)" d="M57.633,65.147c-0.351-0.856-1.36-1.773-2.26-2.048c-0.896-0.274-1.339,0.199-0.988,1.057
			c0.351,0.854,1.361,1.771,2.258,2.043C57.54,66.475,57.982,66.005,57.633,65.147z"/>
		<radialGradient id="SVGID_47_" cx="54.4824" cy="67.8174" r="4.7506" gradientUnits="userSpaceOnUse">
			<stop  offset="0.9066" style="stop-color:#FFEAEC"/>
			<stop  offset="0.915" style="stop-color:#FBE2E4"/>
			<stop  offset="0.9282" style="stop-color:#F0CCCE"/>
			<stop  offset="0.9444" style="stop-color:#DEA9AA"/>
			<stop  offset="0.963" style="stop-color:#C57778"/>
			<stop  offset="0.9834" style="stop-color:#A53839"/>
			<stop  offset="1" style="stop-color:#890000"/>
		</radialGradient>
		<path fill="url(#SVGID_47_)" d="M57.108,66.185c-0.132,0-0.278-0.023-0.438-0.073c-0.874-0.267-1.858-1.158-2.198-1.992
			c-0.141-0.338-0.152-0.624-0.032-0.801c0.089-0.133,0.251-0.203,0.468-0.203c0.13,0,0.277,0.025,0.437,0.074
			c0.873,0.267,1.861,1.161,2.203,1.995c0.138,0.339,0.148,0.621,0.031,0.799C57.49,66.116,57.328,66.185,57.108,66.185
			L57.108,66.185z"/>
		<radialGradient id="SVGID_48_" cx="48.5913" cy="72.0332" r="4.0628" gradientUnits="userSpaceOnUse">
			<stop  offset="0.9066" style="stop-color:#950000"/>
			<stop  offset="0.9251" style="stop-color:#8D0000"/>
			<stop  offset="0.9539" style="stop-color:#770000"/>
			<stop  offset="0.9892" style="stop-color:#530000"/>
			<stop  offset="1" style="stop-color:#470000"/>
		</radialGradient>
		<path fill="url(#SVGID_48_)" d="M49.582,67.938c-0.897-0.273-1.342,0.197-0.991,1.055c0.351,0.856,1.362,1.774,2.26,2.048
			c0.898,0.274,1.341-0.197,0.99-1.054C51.492,69.13,50.48,68.213,49.582,67.938z"/>
		<radialGradient id="SVGID_49_" cx="48.6787" cy="71.8877" r="3.8444" gradientUnits="userSpaceOnUse">
			<stop  offset="0.9066" style="stop-color:#FFEAEC"/>
			<stop  offset="0.915" style="stop-color:#FBE2E4"/>
			<stop  offset="0.9282" style="stop-color:#F0CCCE"/>
			<stop  offset="0.9444" style="stop-color:#DEA9AA"/>
			<stop  offset="0.963" style="stop-color:#C57778"/>
			<stop  offset="0.9834" style="stop-color:#A53839"/>
			<stop  offset="1" style="stop-color:#890000"/>
		</radialGradient>
		<path fill="url(#SVGID_49_)" d="M51.318,71.026c-0.131,0-0.279-0.025-0.44-0.074c-0.872-0.266-1.858-1.162-2.201-1.998
			c-0.137-0.337-0.15-0.623-0.03-0.799c0.086-0.133,0.25-0.202,0.467-0.202c0.132,0,0.28,0.024,0.44,0.074
			c0.874,0.268,1.862,1.161,2.202,1.994c0.139,0.341,0.151,0.623,0.031,0.803C51.698,70.955,51.537,71.026,51.318,71.026
			L51.318,71.026z"/>
		<radialGradient id="SVGID_50_" cx="57.4268" cy="74.8896" r="4.1509" gradientUnits="userSpaceOnUse">
			<stop  offset="0.9066" style="stop-color:#950000"/>
			<stop  offset="0.9251" style="stop-color:#8D0000"/>
			<stop  offset="0.9539" style="stop-color:#770000"/>
			<stop  offset="0.9892" style="stop-color:#530000"/>
			<stop  offset="1" style="stop-color:#470000"/>
		</radialGradient>
		<path fill="url(#SVGID_50_)" d="M60.724,72.701c-0.352-0.856-1.361-1.773-2.261-2.048c-0.894-0.274-1.338,0.199-0.987,1.056
			c0.351,0.857,1.362,1.774,2.257,2.049C60.631,74.031,61.075,73.561,60.724,72.701z"/>
		<radialGradient id="SVGID_51_" cx="57.5166" cy="74.7344" r="3.9276" gradientUnits="userSpaceOnUse">
			<stop  offset="0.9066" style="stop-color:#FFEAEC"/>
			<stop  offset="0.915" style="stop-color:#FBE2E4"/>
			<stop  offset="0.9282" style="stop-color:#F0CCCE"/>
			<stop  offset="0.9444" style="stop-color:#DEA9AA"/>
			<stop  offset="0.963" style="stop-color:#C57778"/>
			<stop  offset="0.9834" style="stop-color:#A53839"/>
			<stop  offset="1" style="stop-color:#890000"/>
		</radialGradient>
		<path fill="url(#SVGID_51_)" d="M60.2,73.741c-0.13,0-0.277-0.024-0.439-0.072c-0.871-0.268-1.858-1.16-2.199-1.995
			c-0.137-0.342-0.15-0.624-0.031-0.802c0.089-0.133,0.25-0.203,0.469-0.203c0.131,0,0.278,0.026,0.437,0.075
			c0.873,0.267,1.86,1.16,2.202,1.993c0.14,0.341,0.15,0.626,0.031,0.802C60.581,73.672,60.418,73.741,60.2,73.741L60.2,73.741z"/>
		<radialGradient id="SVGID_52_" cx="76.7217" cy="63.1709" r="3.6606" gradientUnits="userSpaceOnUse">
			<stop  offset="0.9066" style="stop-color:#950000"/>
			<stop  offset="0.9251" style="stop-color:#8D0000"/>
			<stop  offset="0.9539" style="stop-color:#770000"/>
			<stop  offset="0.9892" style="stop-color:#530000"/>
			<stop  offset="1" style="stop-color:#470000"/>
		</radialGradient>
		<path fill="url(#SVGID_52_)" d="M75.89,61.125c-0.362-0.887-1.246-0.956-1.972-0.146c-0.727,0.81-1.019,2.188-0.657,3.076
			c0.364,0.888,1.246,0.951,1.974,0.14C75.96,63.387,76.253,62.012,75.89,61.125z"/>
		<radialGradient id="SVGID_53_" cx="76.5879" cy="63.1475" r="3.4911" gradientUnits="userSpaceOnUse">
			<stop  offset="0.9066" style="stop-color:#FFEAEC"/>
			<stop  offset="0.915" style="stop-color:#FBE2E4"/>
			<stop  offset="0.9282" style="stop-color:#F0CCCE"/>
			<stop  offset="0.9444" style="stop-color:#DEA9AA"/>
			<stop  offset="0.963" style="stop-color:#C57778"/>
			<stop  offset="0.9834" style="stop-color:#A53839"/>
			<stop  offset="1" style="stop-color:#890000"/>
		</radialGradient>
		<path fill="url(#SVGID_53_)" d="M74.175,64.672c-0.362,0-0.655-0.231-0.827-0.653c-0.351-0.856-0.064-2.192,0.64-2.978
			c0.311-0.345,0.66-0.534,0.986-0.534c0.363,0,0.658,0.232,0.83,0.653c0.352,0.855,0.063,2.19-0.64,2.975
			C74.853,64.479,74.503,64.672,74.175,64.672L74.175,64.672z"/>
		<radialGradient id="SVGID_54_" cx="70.3379" cy="71.5947" r="4.4238" gradientUnits="userSpaceOnUse">
			<stop  offset="0.9066" style="stop-color:#950000"/>
			<stop  offset="0.9251" style="stop-color:#8D0000"/>
			<stop  offset="0.9539" style="stop-color:#770000"/>
			<stop  offset="0.9892" style="stop-color:#530000"/>
			<stop  offset="1" style="stop-color:#470000"/>
		</radialGradient>
		<path fill="url(#SVGID_54_)" d="M66.732,68.991c-0.726,0.81-1.019,2.187-0.655,3.074s1.247,0.952,1.972,0.142
			c0.727-0.81,1.02-2.186,0.657-3.072C68.344,68.245,67.461,68.182,66.732,68.991z"/>
		<radialGradient id="SVGID_55_" cx="70.1533" cy="71.5527" r="4.1789" gradientUnits="userSpaceOnUse">
			<stop  offset="0.9066" style="stop-color:#FFEAEC"/>
			<stop  offset="0.915" style="stop-color:#FBE2E4"/>
			<stop  offset="0.9282" style="stop-color:#F0CCCE"/>
			<stop  offset="0.9444" style="stop-color:#DEA9AA"/>
			<stop  offset="0.963" style="stop-color:#C57778"/>
			<stop  offset="0.9834" style="stop-color:#A53839"/>
			<stop  offset="1" style="stop-color:#890000"/>
		</radialGradient>
		<path fill="url(#SVGID_55_)" d="M66.994,72.682c-0.363,0-0.658-0.231-0.83-0.653c-0.352-0.856-0.064-2.191,0.637-2.976
			c0.313-0.346,0.663-0.536,0.989-0.536c0.364,0,0.658,0.231,0.831,0.652c0.349,0.857,0.061,2.191-0.642,2.978
			C67.67,72.491,67.319,72.682,66.994,72.682L66.994,72.682z"/>
		<radialGradient id="SVGID_56_" cx="73.3711" cy="67.6309" r="3.891" gradientUnits="userSpaceOnUse">
			<stop  offset="0.9066" style="stop-color:#950000"/>
			<stop  offset="0.9251" style="stop-color:#8D0000"/>
			<stop  offset="0.9539" style="stop-color:#770000"/>
			<stop  offset="0.9892" style="stop-color:#530000"/>
			<stop  offset="1" style="stop-color:#470000"/>
		</radialGradient>
		<path fill="url(#SVGID_56_)" d="M70.325,64.986c-0.726,0.808-1.019,2.186-0.655,3.073c0.363,0.889,1.245,0.953,1.97,0.143
			c0.729-0.81,1.021-2.185,0.658-3.073C71.937,64.241,71.052,64.175,70.325,64.986z"/>
		<radialGradient id="SVGID_57_" cx="73.2207" cy="67.5859" r="3.6919" gradientUnits="userSpaceOnUse">
			<stop  offset="0.9066" style="stop-color:#FFEAEC"/>
			<stop  offset="0.915" style="stop-color:#FBE2E4"/>
			<stop  offset="0.9282" style="stop-color:#F0CCCE"/>
			<stop  offset="0.9444" style="stop-color:#DEA9AA"/>
			<stop  offset="0.963" style="stop-color:#C57778"/>
			<stop  offset="0.9834" style="stop-color:#A53839"/>
			<stop  offset="1" style="stop-color:#890000"/>
		</radialGradient>
		<path fill="url(#SVGID_57_)" d="M70.584,68.676c-0.361,0-0.655-0.231-0.827-0.652c-0.352-0.855-0.065-2.191,0.638-2.976
			c0.311-0.346,0.661-0.536,0.989-0.536c0.361,0,0.656,0.231,0.827,0.653c0.352,0.854,0.064,2.189-0.639,2.976
			C71.26,68.486,70.911,68.676,70.584,68.676L70.584,68.676z"/>
		<radialGradient id="SVGID_58_" cx="72.8457" cy="55.5068" r="3.1843" gradientUnits="userSpaceOnUse">
			<stop  offset="0.9066" style="stop-color:#950000"/>
			<stop  offset="0.9251" style="stop-color:#8D0000"/>
			<stop  offset="0.9539" style="stop-color:#770000"/>
			<stop  offset="0.9892" style="stop-color:#530000"/>
			<stop  offset="1" style="stop-color:#470000"/>
		</radialGradient>
		<path fill="url(#SVGID_58_)" d="M70.715,53.148c-0.728,0.811-1.021,2.185-0.658,3.074c0.362,0.888,1.246,0.954,1.975,0.142
			c0.725-0.81,1.019-2.187,0.654-3.075C72.322,52.402,71.44,52.34,70.715,53.148z"/>
		<radialGradient id="SVGID_59_" cx="72.7529" cy="55.4727" r="3.0492" gradientUnits="userSpaceOnUse">
			<stop  offset="0.9066" style="stop-color:#FFEAEC"/>
			<stop  offset="0.915" style="stop-color:#FBE2E4"/>
			<stop  offset="0.9282" style="stop-color:#F0CCCE"/>
			<stop  offset="0.9444" style="stop-color:#DEA9AA"/>
			<stop  offset="0.963" style="stop-color:#C57778"/>
			<stop  offset="0.9834" style="stop-color:#A53839"/>
			<stop  offset="1" style="stop-color:#890000"/>
		</radialGradient>
		<path fill="url(#SVGID_59_)" d="M70.975,56.839c-0.365,0-0.659-0.232-0.832-0.652c-0.351-0.856-0.063-2.192,0.642-2.977
			c0.309-0.346,0.66-0.536,0.986-0.536c0.362,0,0.656,0.231,0.828,0.652c0.352,0.857,0.064,2.192-0.639,2.977
			C71.65,56.647,71.3,56.839,70.975,56.839L70.975,56.839z"/>
		<radialGradient id="SVGID_60_" cx="66.6963" cy="63.8418" r="4.085" gradientUnits="userSpaceOnUse">
			<stop  offset="0.9066" style="stop-color:#950000"/>
			<stop  offset="0.9251" style="stop-color:#8D0000"/>
			<stop  offset="0.9539" style="stop-color:#770000"/>
			<stop  offset="0.9892" style="stop-color:#530000"/>
			<stop  offset="1" style="stop-color:#470000"/>
		</radialGradient>
		<path fill="url(#SVGID_60_)" d="M63.53,61.16c-0.727,0.808-1.021,2.184-0.658,3.072c0.364,0.888,1.248,0.952,1.974,0.144
			c0.727-0.812,1.02-2.187,0.655-3.075C65.14,60.413,64.257,60.35,63.53,61.16z"/>
		<radialGradient id="SVGID_61_" cx="66.5381" cy="63.7959" r="3.8702" gradientUnits="userSpaceOnUse">
			<stop  offset="0.9066" style="stop-color:#FFEAEC"/>
			<stop  offset="0.915" style="stop-color:#FBE2E4"/>
			<stop  offset="0.9282" style="stop-color:#F0CCCE"/>
			<stop  offset="0.9444" style="stop-color:#DEA9AA"/>
			<stop  offset="0.963" style="stop-color:#C57778"/>
			<stop  offset="0.9834" style="stop-color:#A53839"/>
			<stop  offset="1" style="stop-color:#890000"/>
		</radialGradient>
		<path fill="url(#SVGID_61_)" d="M63.789,64.85c-0.363,0-0.656-0.233-0.829-0.654c-0.352-0.854-0.065-2.19,0.639-2.975
			c0.312-0.345,0.663-0.536,0.988-0.536c0.362,0,0.657,0.23,0.828,0.652c0.352,0.859,0.064,2.192-0.639,2.977
			C64.466,64.659,64.116,64.85,63.789,64.85L63.789,64.85z"/>
		<radialGradient id="SVGID_62_" cx="69.5537" cy="59.3535" r="3.2845" gradientUnits="userSpaceOnUse">
			<stop  offset="0.9066" style="stop-color:#950000"/>
			<stop  offset="0.9251" style="stop-color:#8D0000"/>
			<stop  offset="0.9539" style="stop-color:#770000"/>
			<stop  offset="0.9892" style="stop-color:#530000"/>
			<stop  offset="1" style="stop-color:#470000"/>
		</radialGradient>
		<path fill="url(#SVGID_62_)" d="M67.121,57.155c-0.727,0.81-1.02,2.185-0.655,3.072c0.363,0.89,1.246,0.952,1.972,0.146
			c0.728-0.813,1.021-2.187,0.657-3.076C68.73,56.407,67.849,56.346,67.121,57.155z"/>
		<radialGradient id="SVGID_63_" cx="69.4404" cy="59.3281" r="3.1447" gradientUnits="userSpaceOnUse">
			<stop  offset="0.9066" style="stop-color:#FFEAEC"/>
			<stop  offset="0.915" style="stop-color:#FBE2E4"/>
			<stop  offset="0.9282" style="stop-color:#F0CCCE"/>
			<stop  offset="0.9444" style="stop-color:#DEA9AA"/>
			<stop  offset="0.963" style="stop-color:#C57778"/>
			<stop  offset="0.9834" style="stop-color:#A53839"/>
			<stop  offset="1" style="stop-color:#890000"/>
		</radialGradient>
		<path fill="url(#SVGID_63_)" d="M67.382,60.847c-0.365,0-0.659-0.234-0.831-0.656c-0.351-0.854-0.063-2.191,0.64-2.973
			c0.311-0.348,0.664-0.539,0.989-0.539c0.363,0,0.655,0.232,0.828,0.654c0.349,0.856,0.061,2.191-0.64,2.978
			C68.058,60.654,67.707,60.847,67.382,60.847L67.382,60.847z"/>
		<g>
			<radialGradient id="SVGID_64_" cx="57.9131" cy="55.2822" r="6.6135" gradientUnits="userSpaceOnUse">
				<stop  offset="0.9066" style="stop-color:#950000"/>
				<stop  offset="0.9251" style="stop-color:#8D0000"/>
				<stop  offset="0.9539" style="stop-color:#770000"/>
				<stop  offset="0.9892" style="stop-color:#530000"/>
				<stop  offset="1" style="stop-color:#470000"/>
			</radialGradient>
			<path fill="url(#SVGID_64_)" d="M57.87,49.08c-0.567-0.173-1.259-0.13-1.921,0.08c-0.661,0.21-1.291,0.586-1.734,1.08
				c-0.441,0.493-0.612,1.009-0.531,1.446c0.082,0.437,0.416,0.794,0.983,0.967c0.567,0.175,1.261,0.132,1.923-0.077
				c0.662-0.21,1.292-0.586,1.734-1.079s0.613-1.01,0.531-1.447S58.439,49.254,57.87,49.08z"/>
			<radialGradient id="SVGID_65_" cx="57.8047" cy="55.1016" r="6.3214" gradientUnits="userSpaceOnUse">
				<stop  offset="0.9066" style="stop-color:#CA7576"/>
				<stop  offset="0.9204" style="stop-color:#C36D6E"/>
				<stop  offset="0.9419" style="stop-color:#B15758"/>
				<stop  offset="0.9683" style="stop-color:#933434"/>
				<stop  offset="0.9985" style="stop-color:#6A0303"/>
				<stop  offset="1" style="stop-color:#680000"/>
			</radialGradient>
			<path fill="url(#SVGID_65_)" d="M55.754,49.283c0.537-0.201,1.11-0.28,1.61-0.206c0.101,0.015,0.194,0.036,0.284,0.062
				c0.32,0.094,0.53,0.283,0.701,0.469c0.235,0.257,0.385,0.541,0.348,0.905c-0.018,0.176-0.071,0.363-0.172,0.551
				c-0.121,0.226-0.297,0.447-0.519,0.65c-0.34,0.311-0.765,0.566-1.221,0.736c-0.538,0.201-1.111,0.277-1.614,0.204
				c-0.098-0.015-0.189-0.035-0.277-0.06l0,0c-0.322-0.098-0.534-0.285-0.705-0.473c-0.235-0.258-0.384-0.54-0.347-0.902
				c0.018-0.176,0.07-0.363,0.171-0.551c0.121-0.226,0.298-0.448,0.52-0.651C54.873,49.707,55.299,49.454,55.754,49.283z"/>
			<radialGradient id="SVGID_66_" cx="57.8535" cy="55.0664" r="6.3007" gradientUnits="userSpaceOnUse">
				<stop  offset="0.9066" style="stop-color:#FFEAEC"/>
				<stop  offset="0.915" style="stop-color:#FBE2E4"/>
				<stop  offset="0.9282" style="stop-color:#F0CCCE"/>
				<stop  offset="0.9444" style="stop-color:#DEA9AA"/>
				<stop  offset="0.963" style="stop-color:#C57778"/>
				<stop  offset="0.9834" style="stop-color:#A53839"/>
				<stop  offset="1" style="stop-color:#890000"/>
			</radialGradient>
			<path fill="url(#SVGID_66_)" d="M55.442,52.668c-0.271,0-0.523-0.037-0.748-0.105c-0.477-0.145-0.794-0.434-0.898-0.809
				c-0.123-0.44,0.055-0.971,0.488-1.454c0.332-0.369,0.78-0.677,1.273-0.894s1.03-0.34,1.54-0.34c0.27,0,0.52,0.034,0.745,0.103
				c0.477,0.145,0.796,0.432,0.901,0.811c0.123,0.439-0.057,0.968-0.488,1.452c-0.332,0.368-0.78,0.678-1.273,0.895
				C56.49,52.543,55.952,52.668,55.442,52.668L55.442,52.668z"/>
		</g>
	</g>
</g>
</svg>
