<?xml version="1.0" encoding="utf-8"?>
<!-- Generator: Adobe Illustrator 16.0.0, SVG Export Plug-In . SVG Version: 6.00 Build 0)  -->
<!DOCTYPE svg PUBLIC "-//W3C//DTD SVG 1.1//EN" "http://www.w3.org/Graphics/SVG/1.1/DTD/svg11.dtd">
<svg version="1.1" id="圖層_1" xmlns="http://www.w3.org/2000/svg" xmlns:xlink="http://www.w3.org/1999/xlink" x="0px" y="0px"
	 width="100px" height="100px" viewBox="0 0 100 100" enable-background="new 0 0 100 100" xml:space="preserve">
<linearGradient id="SVGID_1_" gradientUnits="userSpaceOnUse" x1="470.5537" y1="-1537.5562" x2="470.5537" y2="-1415.6421" gradientTransform="matrix(0.7745 0 0 -0.7745 -314.4449 -1093.6261)">
	<stop  offset="0" style="stop-color:#FADB7A"/>
	<stop  offset="1" style="stop-color:#F8F6D5"/>
</linearGradient>
<path fill="url(#SVGID_1_)" d="M49.996,2.793c1.512,0,3.002,0.073,4.479,0.202l43.076,35.917c0.891,3.561,1.373,7.274,1.373,11.09
	c0,26-21.979,47.209-48.925,47.209c-26.942,0-48.924-21.205-48.924-47.209C1.075,24,23.057,2.789,49.999,2.789L49.996,2.793z"/>
<linearGradient id="SVGID_2_" gradientUnits="userSpaceOnUse" x1="470.5537" y1="-1537.5571" x2="470.5537" y2="-1415.6421" gradientTransform="matrix(0.7745 0 0 -0.7745 -314.4449 -1093.6261)">
	<stop  offset="0" style="stop-color:#EDAF6D"/>
	<stop  offset="1" style="stop-color:#F7E1C6"/>
</linearGradient>
<path fill="url(#SVGID_2_)" d="M49.996,2.793c1.506,0,3.002,0.073,4.479,0.202C67.012,15.667,81.372,27.64,97.547,38.913
	c0.895,3.561,1.377,7.274,1.377,11.09c0,26-21.979,47.209-48.925,47.209c-26.949,0-48.924-21.205-48.924-47.209
	C1.075,24,23.05,2.789,49.999,2.789L49.996,2.793z"/>
<linearGradient id="SVGID_3_" gradientUnits="userSpaceOnUse" x1="252.2422" y1="-1186.3843" x2="252.2422" y2="-1092.9492" gradientTransform="matrix(1 0 0 -1 -202.2441 -1089.6621)">
	<stop  offset="0" style="stop-color:#F1B97F"/>
	<stop  offset="1" style="stop-color:#F7E4CC"/>
</linearGradient>
<path fill="url(#SVGID_3_)" d="M49.996,3.287c1.643,0,3.26,0.09,4.855,0.255c12.412,12.319,26.438,24.019,42.08,35.095
	c0.963,3.637,1.479,7.449,1.479,11.37c0,25.733-21.751,46.716-48.414,46.716c-26.669,0-48.413-20.988-48.413-46.716
	c0-25.727,21.75-46.716,48.413-46.716V3.287z"/>
<linearGradient id="SVGID_4_" gradientUnits="userSpaceOnUse" x1="252.2363" y1="-1185.8862" x2="252.2363" y2="-1093.4443" gradientTransform="matrix(1 0 0 -1 -202.2441 -1089.6621)">
	<stop  offset="0" style="stop-color:#F3C18B"/>
	<stop  offset="1" style="stop-color:#F8E7CF"/>
</linearGradient>
<path fill="url(#SVGID_4_)" d="M49.996,3.782c1.771,0,3.516,0.102,5.234,0.305c12.283,11.966,25.976,23.388,41.082,34.266
	c1.022,3.717,1.582,7.626,1.582,11.65c0,25.454-21.521,46.222-47.906,46.222c-26.383,0-47.901-20.768-47.901-46.222
	c0-25.455,21.519-46.221,47.901-46.221H49.996L49.996,3.782z"/>
<linearGradient id="SVGID_5_" gradientUnits="userSpaceOnUse" x1="252.2441" y1="-1185.3921" x2="252.2441" y2="-1093.936" gradientTransform="matrix(1 0 0 -1 -202.2441 -1089.6621)">
	<stop  offset="0" style="stop-color:#F3C795"/>
	<stop  offset="1" style="stop-color:#F9E8D2"/>
</linearGradient>
<path fill="url(#SVGID_5_)" d="M49.996,4.274c1.904,0,3.775,0.121,5.619,0.357c12.146,11.613,25.511,22.763,40.09,33.441
	c1.092,3.799,1.682,7.801,1.682,11.931c0,25.188-21.287,45.728-47.388,45.728c-26.101,0-47.388-20.541-47.388-45.728
	c0-25.187,21.291-45.729,47.388-45.729H49.996z"/>
<linearGradient id="SVGID_6_" gradientUnits="userSpaceOnUse" x1="252.2383" y1="-1184.9058" x2="252.2383" y2="-1094.4351" gradientTransform="matrix(1 0 0 -1 -202.2441 -1089.6621)">
	<stop  offset="0" style="stop-color:#F3CD9F"/>
	<stop  offset="1" style="stop-color:#F9EAD4"/>
</linearGradient>
<path fill="url(#SVGID_6_)" d="M49.996,4.773c2.033,0,4.036,0.139,5.999,0.413C68.016,16.444,81.042,27.312,95.083,37.8
	c1.162,3.873,1.788,7.976,1.788,12.207c0,24.915-21.059,45.237-46.875,45.237c-25.82,0-46.88-20.319-46.88-45.237
	C3.116,25.088,24.176,4.773,49.996,4.773z"/>
<linearGradient id="SVGID_7_" gradientUnits="userSpaceOnUse" x1="252.2393" y1="-1184.4146" x2="252.2393" y2="-1094.9229" gradientTransform="matrix(1 0 0 -1 -202.2441 -1089.6621)">
	<stop  offset="0" style="stop-color:#F4D0A6"/>
	<stop  offset="1" style="stop-color:#F9EBD7"/>
</linearGradient>
<path fill="url(#SVGID_7_)" d="M49.996,5.261c2.166,0,4.296,0.162,6.377,0.469c11.891,10.903,24.589,21.502,38.095,31.784
	c1.226,3.961,1.897,8.154,1.897,12.494c0,24.643-20.834,44.745-46.369,44.745c-25.538,0-46.373-20.103-46.373-44.745
	C3.624,25.365,24.453,5.261,49.996,5.261z"/>
<linearGradient id="SVGID_8_" gradientUnits="userSpaceOnUse" x1="252.2461" y1="-1183.9097" x2="252.2461" y2="-1095.415" gradientTransform="matrix(1 0 0 -1 -202.2441 -1089.6621)">
	<stop  offset="0" style="stop-color:#F5D4AC"/>
	<stop  offset="1" style="stop-color:#F9ECD8"/>
</linearGradient>
<path fill="url(#SVGID_8_)" d="M49.996,5.754c2.3,0,4.557,0.18,6.759,0.524c11.759,10.549,24.129,20.867,37.101,30.954
	c1.299,4.037,2,8.328,2,12.77c0,24.369-20.601,44.246-45.854,44.246S4.146,74.371,4.146,50.002c0-24.371,20.6-44.249,45.854-44.249
	L49.996,5.754L49.996,5.754z"/>
<linearGradient id="SVGID_9_" gradientUnits="userSpaceOnUse" x1="252.2402" y1="-1183.4194" x2="252.2402" y2="-1095.9111" gradientTransform="matrix(1 0 0 -1 -202.2441 -1089.6621)">
	<stop  offset="0" style="stop-color:#F5D8B2"/>
	<stop  offset="1" style="stop-color:#F9EDDA"/>
</linearGradient>
<path fill="url(#SVGID_9_)" d="M49.996,6.249c2.432,0,4.814,0.196,7.141,0.574c11.629,10.2,23.663,20.243,36.102,30.129
	c1.357,4.123,2.103,8.508,2.103,13.051c0,24.103-20.37,43.755-45.343,43.755c-24.979,0-45.349-19.652-45.349-43.755
	C4.647,25.9,25.017,6.249,49.996,6.249z"/>
<linearGradient id="SVGID_10_" gradientUnits="userSpaceOnUse" x1="252.2393" y1="-1182.9253" x2="252.2393" y2="-1096.4033" gradientTransform="matrix(1 0 0 -1 -202.2441 -1089.6621)">
	<stop  offset="0" style="stop-color:#F5DBB7"/>
	<stop  offset="1" style="stop-color:#F9EEDB"/>
</linearGradient>
<path fill="url(#SVGID_10_)" d="M49.996,6.741c2.563,0,5.07,0.214,7.523,0.626c11.496,9.843,23.198,19.609,35.103,29.305
	c1.431,4.197,2.203,8.682,2.203,13.331c0,23.83-20.136,43.261-44.829,43.261c-24.696,0-44.833-19.431-44.833-43.261
	C5.164,26.173,25.304,6.741,49.996,6.741z"/>
<linearGradient id="SVGID_11_" gradientUnits="userSpaceOnUse" x1="512.1094" y1="-1594.5952" x2="512.1094" y2="-1479.4624" gradientTransform="matrix(0.743 0 0 -0.743 -330.5048 -1092.0092)">
	<stop  offset="0" style="stop-color:#F6DDBB"/>
	<stop  offset="1" style="stop-color:#F9EFDC"/>
</linearGradient>
<path fill="url(#SVGID_11_)" d="M49.996,7.236c2.693,0,5.332,0.237,7.9,0.683L92.01,36.395c1.494,4.276,2.305,8.857,2.305,13.608
	c0,23.56-19.91,42.772-44.316,42.772c-24.415,0-44.328-19.215-44.328-42.772c0-23.552,19.913-42.771,44.328-42.771L49.996,7.236
	L49.996,7.236z"/>
<path fill="#D4AA80" d="M54.471,2.995c-0.767,41.508,36.307,33.114,43.072,35.917C82.094,27.646,67.732,15.667,54.471,2.995z"/>
<linearGradient id="SVGID_12_" gradientUnits="userSpaceOnUse" x1="503.1572" y1="-1439.5298" x2="494.8117" y2="-1449.3806" gradientTransform="matrix(0.7745 0 0 -0.7745 -313.4922 -1094.1935)">
	<stop  offset="0" style="stop-color:#E7E9EC"/>
	<stop  offset="0.34" style="stop-color:#FBFBFC"/>
	<stop  offset="1" style="stop-color:#FFFFFF"/>
</linearGradient>
<path fill="url(#SVGID_12_)" d="M54.471,2.995c0.094,26.148,26.291,21.412,43.072,35.917L54.471,2.995z"/>
<g>
	<g>
		<g>
			
				<linearGradient id="SVGID_13_" gradientUnits="userSpaceOnUse" x1="13.7261" y1="26.8052" x2="47.9004" y2="26.8052" gradientTransform="matrix(0.9933 -0.1152 0.1152 0.9933 2.9785 14.772)">
				<stop  offset="0" style="stop-color:#C8611D"/>
				<stop  offset="1" style="stop-color:#E6781C"/>
			</linearGradient>
			<path fill="url(#SVGID_13_)" d="M52.691,31.931c-0.103-0.33-0.402-0.768-0.91-1.296c-1.727-1.795-5.225-3.988-7.776-4.87
				l-12.035-4.17c-0.751-0.262-1.533-0.328-2.292-0.232c-1.27,0.166-2.469,0.789-3.322,1.759c-0.344,0.364-0.642,0.835-0.874,1.407
				l-5.2,12.732c-0.038,0.091-0.071,0.184-0.102,0.28c-0.688,1.947-0.462,4.419,0.471,6.223c0.108,0.335,0.404,0.77,0.916,1.299
				c1.723,1.794,5.221,3.989,7.773,4.868l12.031,4.172c0.756,0.262,1.534,0.33,2.293,0.232c1.274-0.158,2.472-0.785,3.324-1.757
				c0.339-0.37,0.643-0.837,0.876-1.409l5.197-12.732c0.038-0.093,0.072-0.187,0.104-0.28C53.85,36.208,53.63,33.739,52.691,31.931z
				"/>
			<g>
				<g>
					<linearGradient id="SVGID_14_" gradientUnits="userSpaceOnUse" x1="26.3853" y1="44.0488" x2="26.7368" y2="44.0488">
						<stop  offset="0" style="stop-color:#F6DDBB"/>
						<stop  offset="1" style="stop-color:#F9EFDC"/>
					</linearGradient>
					<path fill="url(#SVGID_14_)" d="M26.385,44.378l0.116,0.041c0.06-0.246,0.134-0.497,0.235-0.741
						C26.631,43.931,26.513,44.167,26.385,44.378z"/>
					<linearGradient id="SVGID_15_" gradientUnits="userSpaceOnUse" x1="20.9351" y1="44.2959" x2="21.8345" y2="44.2959">
						<stop  offset="0" style="stop-color:#F6DDBB"/>
						<stop  offset="1" style="stop-color:#F9EFDC"/>
					</linearGradient>
					<path fill="url(#SVGID_15_)" d="M20.935,43.658c0.106,0.33,0.396,0.756,0.899,1.276C21.488,44.576,21.187,44.141,20.935,43.658
						z"/>
					<linearGradient id="SVGID_16_" gradientUnits="userSpaceOnUse" x1="25.6802" y1="24.0723" x2="26.5396" y2="24.0723">
						<stop  offset="0" style="stop-color:#F6DDBB"/>
						<stop  offset="1" style="stop-color:#F9EFDC"/>
					</linearGradient>
					<path fill="url(#SVGID_16_)" d="M25.68,24.763c0.21-0.514,0.504-0.979,0.859-1.382C26.202,23.738,25.91,24.201,25.68,24.763z"
						/>
					<linearGradient id="SVGID_17_" gradientUnits="userSpaceOnUse" x1="20.0791" y1="34.2197" x2="32.3369" y2="34.2197">
						<stop  offset="0" style="stop-color:#C8611D"/>
						<stop  offset="1" style="stop-color:#E6781C"/>
					</linearGradient>
					<path fill="url(#SVGID_17_)" d="M30.581,23.503c-1.305-1.355-2.915-1.33-4.041-0.122c-0.355,0.403-0.649,0.869-0.859,1.382
						L20.573,37.27c-0.038,0.089-0.07,0.181-0.1,0.276c-0.676,1.912-0.454,4.34,0.462,6.112c0.251,0.483,0.553,0.918,0.899,1.276
						c1.515,1.579,3.445,1.288,4.551-0.555c0.127-0.212,0.246-0.448,0.352-0.7l5.105-12.505
						C32.843,28.717,32.276,25.267,30.581,23.503z"/>
					<linearGradient id="SVGID_18_" gradientUnits="userSpaceOnUse" x1="51.5137" y1="31.3984" x2="52.4082" y2="31.3984">
						<stop  offset="0" style="stop-color:#F6DDBB"/>
						<stop  offset="1" style="stop-color:#F9EFDC"/>
					</linearGradient>
					<path fill="url(#SVGID_18_)" d="M52.408,32.035c-0.101-0.324-0.396-0.754-0.895-1.273
						C51.862,31.121,52.16,31.555,52.408,32.035z"/>
					<linearGradient id="SVGID_19_" gradientUnits="userSpaceOnUse" x1="46.8071" y1="51.624" x2="47.6675" y2="51.624">
						<stop  offset="0" style="stop-color:#F6DDBB"/>
						<stop  offset="1" style="stop-color:#F9EFDC"/>
					</linearGradient>
					<path fill="url(#SVGID_19_)" d="M47.667,50.932c-0.21,0.516-0.506,0.98-0.86,1.385C47.14,51.954,47.438,51.494,47.667,50.932z"
						/>
					<linearGradient id="SVGID_20_" gradientUnits="userSpaceOnUse" x1="26.3877" y1="41.0518" x2="53.1221" y2="41.0518">
						<stop  offset="0" style="stop-color:#C8611D"/>
						<stop  offset="1" style="stop-color:#E6781C"/>
					</linearGradient>
					<path fill="url(#SVGID_20_)" d="M50.04,32.384l-3.084-1.07l-0.113-0.037l-8.625-2.99c-2.502-0.865-5.375,0.43-6.375,2.886
						l-5.105,12.505c-0.102,0.245-0.175,0.496-0.235,0.741c-0.506,2.239,0.714,4.516,2.969,5.297l11.818,4.096
						c0.743,0.259,1.507,0.326,2.253,0.23c1.252-0.156,2.429-0.773,3.266-1.727c0.354-0.404,0.65-0.869,0.86-1.385l5.106-12.506
						C53.773,35.972,52.546,33.254,50.04,32.384z"/>
					<linearGradient id="SVGID_21_" gradientUnits="userSpaceOnUse" x1="29.6416" y1="27.1816" x2="52.4502" y2="27.1816">
						<stop  offset="0" style="stop-color:#C8611D"/>
						<stop  offset="1" style="stop-color:#E6781C"/>
					</linearGradient>
					<path fill="url(#SVGID_21_)" d="M52.408,32.035c-0.248-0.48-0.546-0.915-0.895-1.273c-1.695-1.763-5.132-3.917-7.638-4.784
						l-11.822-4.096c-0.737-0.257-1.506-0.322-2.252-0.228c-0.358,0.266-0.125,0.913,0.778,1.85
						c1.696,1.764,5.135,3.919,7.637,4.784l8.625,2.99l0.113,0.037l3.084,1.07C51.805,32.998,52.654,32.815,52.408,32.035z"/>
				</g>
				
					<linearGradient id="SVGID_22_" gradientUnits="userSpaceOnUse" x1="1257.498" y1="884.6162" x2="1261.2979" y2="884.6162" gradientTransform="matrix(-0.2542 0.4336 -0.8627 -0.5058 1117.8197 -74.3409)">
					<stop  offset="0" style="stop-color:#C8611D"/>
					<stop  offset="1" style="stop-color:#E6781C"/>
				</linearGradient>
				<path fill="url(#SVGID_22_)" d="M34.881,25.47c-1.143-0.373-2.235-1.199-2.433-1.847c-0.199-0.651,0.567-0.876,1.714-0.503
					c1.146,0.372,2.237,1.2,2.434,1.851C36.796,25.619,36.026,25.838,34.881,25.47z"/>
				
					<linearGradient id="SVGID_23_" gradientUnits="userSpaceOnUse" x1="1255.6719" y1="877.6504" x2="1259.4727" y2="877.6504" gradientTransform="matrix(-0.2542 0.4336 -0.8627 -0.5058 1117.8197 -74.3409)">
					<stop  offset="0" style="stop-color:#F6DDBB"/>
					<stop  offset="1" style="stop-color:#F9EFDC"/>
				</linearGradient>
				<path fill="url(#SVGID_23_)" d="M41.354,28.201c-1.141-0.369-2.235-1.198-2.434-1.848c-0.199-0.648,0.573-0.874,1.717-0.501
					c1.145,0.37,2.236,1.2,2.435,1.847C43.271,28.349,42.501,28.573,41.354,28.201z"/>
				
					<linearGradient id="SVGID_24_" gradientUnits="userSpaceOnUse" x1="1253.8018" y1="870.335" x2="1257.5986" y2="870.335" gradientTransform="matrix(-0.2542 0.4336 -0.8627 -0.5058 1117.8197 -74.3409)">
					<stop  offset="0" style="stop-color:#C8611D"/>
					<stop  offset="1" style="stop-color:#E6781C"/>
				</linearGradient>
				<path fill="url(#SVGID_24_)" d="M48.144,31.09c-1.147-0.374-2.234-1.198-2.435-1.849c-0.201-0.649,0.57-0.875,1.715-0.5
					c1.146,0.372,2.237,1.198,2.435,1.846C50.058,31.235,49.291,31.464,48.144,31.09z"/>
				
					<linearGradient id="SVGID_25_" gradientUnits="userSpaceOnUse" x1="-1353.7964" y1="525.8643" x2="-1348.7793" y2="525.8643" gradientTransform="matrix(0.6176 0.301 -0.4302 0.8963 1087.9114 -35.4991)">
					<stop  offset="0" style="stop-color:#F6DDBB"/>
					<stop  offset="1" style="stop-color:#F9EFDC"/>
				</linearGradient>
				<path fill="url(#SVGID_25_)" d="M28.99,28.678c-0.246,1.601-1.277,3.081-2.312,3.309c-1.024,0.224-1.656-0.884-1.409-2.478
					c0.246-1.601,1.279-3.082,2.311-3.303C28.607,25.977,29.24,27.085,28.99,28.678z"/>
				
					<linearGradient id="SVGID_26_" gradientUnits="userSpaceOnUse" x1="-1350.1826" y1="536.2793" x2="-1345.1631" y2="536.2793" gradientTransform="matrix(0.6176 0.301 -0.4302 0.8963 1087.9114 -35.4991)">
					<stop  offset="0" style="stop-color:#F6DDBB"/>
					<stop  offset="1" style="stop-color:#F9EFDC"/>
				</linearGradient>
				<path fill="url(#SVGID_26_)" d="M26.746,39.105c-0.25,1.597-1.283,3.077-2.314,3.306c-1.029,0.225-1.662-0.884-1.41-2.479
					c0.241-1.601,1.282-3.077,2.31-3.301C26.356,36.399,26.992,37.507,26.746,39.105z"/>
				
					<linearGradient id="SVGID_27_" gradientUnits="userSpaceOnUse" x1="-632.8306" y1="841.5313" x2="-628.3853" y2="841.5313" gradientTransform="matrix(0.6676 0.7445 -0.7445 0.6676 1090.1139 -55.3215)">
					<stop  offset="0" style="stop-color:#F6DDBB"/>
					<stop  offset="1" style="stop-color:#F9EFDC"/>
				</linearGradient>
				<path fill="url(#SVGID_27_)" d="M44.679,37.733c-0.625,1.368-2.062,2.147-3.208,1.739c-1.147-0.403-1.577-1.843-0.953-3.21
					c0.623-1.366,2.06-2.148,3.207-1.742C44.877,34.926,45.303,36.362,44.679,37.733z"/>
				
					<linearGradient id="SVGID_28_" gradientUnits="userSpaceOnUse" x1="-637.9229" y1="844.7461" x2="-633.4775" y2="844.7461" gradientTransform="matrix(0.6676 0.7445 -0.7445 0.6676 1090.1139 -55.3215)">
					<stop  offset="0" style="stop-color:#F6DDBB"/>
					<stop  offset="1" style="stop-color:#F9EFDC"/>
				</linearGradient>
				<path fill="url(#SVGID_28_)" d="M38.886,36.087c-0.624,1.368-2.058,2.147-3.208,1.741c-1.146-0.406-1.573-1.842-0.951-3.212
					c0.622-1.368,2.06-2.146,3.208-1.744C39.08,33.281,39.511,34.719,38.886,36.087z"/>
				
					<linearGradient id="SVGID_29_" gradientUnits="userSpaceOnUse" x1="-627.9575" y1="838.8672" x2="-623.5083" y2="838.8672" gradientTransform="matrix(0.6676 0.7445 -0.7445 0.6676 1090.1139 -55.3215)">
					<stop  offset="0" style="stop-color:#F6DDBB"/>
					<stop  offset="1" style="stop-color:#F9EFDC"/>
				</linearGradient>
				<path fill="url(#SVGID_29_)" d="M49.919,39.585c-0.625,1.366-2.058,2.147-3.208,1.74c-1.148-0.405-1.573-1.842-0.954-3.216
					c0.623-1.367,2.059-2.145,3.21-1.739C50.116,36.779,50.541,38.216,49.919,39.585z"/>
				
					<linearGradient id="SVGID_30_" gradientUnits="userSpaceOnUse" x1="-633.7847" y1="852.9004" x2="-629.3369" y2="852.9004" gradientTransform="matrix(0.6676 0.7445 -0.7445 0.6676 1090.1139 -55.3215)">
					<stop  offset="0" style="stop-color:#F6DDBB"/>
					<stop  offset="1" style="stop-color:#F9EFDC"/>
				</linearGradient>
				<path fill="url(#SVGID_30_)" d="M35.581,44.613c-0.623,1.367-2.062,2.148-3.211,1.74c-1.147-0.404-1.573-1.841-0.953-3.211
					c0.622-1.369,2.063-2.144,3.212-1.743C35.778,41.807,36.202,43.246,35.581,44.613z"/>
				
					<linearGradient id="SVGID_31_" gradientUnits="userSpaceOnUse" x1="-628.8623" y1="850.2119" x2="-624.4136" y2="850.2119" gradientTransform="matrix(0.6676 0.7445 -0.7445 0.6676 1090.1139 -55.3215)">
					<stop  offset="0" style="stop-color:#F6DDBB"/>
					<stop  offset="1" style="stop-color:#F9EFDC"/>
				</linearGradient>
				<path fill="url(#SVGID_31_)" d="M40.87,46.482c-0.625,1.369-2.061,2.149-3.208,1.744c-1.152-0.408-1.577-1.85-0.957-3.217
					c0.625-1.368,2.062-2.146,3.213-1.737C41.065,43.679,41.491,45.115,40.87,46.482z"/>
				
					<linearGradient id="SVGID_32_" gradientUnits="userSpaceOnUse" x1="-623.9849" y1="847.5479" x2="-619.5386" y2="847.5479" gradientTransform="matrix(0.6676 0.7445 -0.7445 0.6676 1090.1139 -55.3215)">
					<stop  offset="0" style="stop-color:#F6DDBB"/>
					<stop  offset="1" style="stop-color:#F9EFDC"/>
				</linearGradient>
				<path fill="url(#SVGID_32_)" d="M46.108,48.336c-0.625,1.365-2.06,2.146-3.21,1.738c-1.147-0.404-1.574-1.84-0.952-3.21
					c0.623-1.369,2.061-2.149,3.207-1.745C46.3,45.527,46.732,46.967,46.108,48.336z"/>
			</g>
		</g>
		<g>
			
				<linearGradient id="SVGID_33_" gradientUnits="userSpaceOnUse" x1="45.0835" y1="24.4072" x2="87.6299" y2="24.4072" gradientTransform="matrix(0.9828 -0.1844 0.1844 0.9828 -12.4328 47.2339)">
				<stop  offset="0" style="stop-color:#C8611D"/>
				<stop  offset="1" style="stop-color:#E6781C"/>
			</linearGradient>
			<path fill="url(#SVGID_33_)" d="M78.514,57.107c-0.174-0.572-0.481-1.158-0.931-1.736L67.581,42.498
				c-0.074-0.096-0.152-0.188-0.232-0.277c-1.592-1.848-4.257-3.079-6.665-3.188c-0.4-0.088-1.025-0.039-1.873,0.171
				c-2.859,0.711-7.178,3.006-9.6,5.099l-11.4,9.895c-0.709,0.618-1.242,1.384-1.592,2.212c-0.586,1.408-0.655,3.011-0.162,4.455
				c0.171,0.568,0.477,1.156,0.93,1.732l10,12.875c0.071,0.089,0.146,0.178,0.225,0.268c1.594,1.854,4.265,3.093,6.673,3.199
				c0.401,0.084,1.026,0.038,1.872-0.173c2.863-0.707,7.18-3.008,9.599-5.102l11.402-9.893c0.713-0.62,1.244-1.382,1.595-2.216
				C78.938,60.153,79,58.549,78.514,57.107z"/>
			<g>
				<g>
					<linearGradient id="SVGID_34_" gradientUnits="userSpaceOnUse" x1="36.7505" y1="68.0352" x2="58.1699" y2="68.0352">
						<stop  offset="0" style="stop-color:#C8611D"/>
						<stop  offset="1" style="stop-color:#E6781C"/>
					</linearGradient>
					<path fill="url(#SVGID_34_)" d="M39.364,57.545c-2.102,0.531-3.003,2.158-2.458,3.976c0.197,0.589,0.484,1.146,0.875,1.649
						l9.449,12.25c0.067,0.086,0.138,0.169,0.212,0.254c1.507,1.763,4.042,2.934,6.331,3.024c0.619,0.02,1.222-0.033,1.78-0.173
						c2.442-0.62,3.269-2.719,2.079-4.879c-0.139-0.249-0.305-0.502-0.494-0.749l-9.447-12.245
						C45.84,58.252,42.09,56.85,39.364,57.545z"/>
					<linearGradient id="SVGID_35_" gradientUnits="userSpaceOnUse" x1="58.793" y1="39.3203" x2="60.6465" y2="39.3203">
						<stop  offset="0" style="stop-color:#F6DDBB"/>
						<stop  offset="1" style="stop-color:#F9EFDC"/>
					</linearGradient>
					<path fill="url(#SVGID_35_)" d="M60.646,39.256c-0.396-0.087-1.016-0.039-1.854,0.169
						C59.375,39.28,60.005,39.228,60.646,39.256z"/>
					<linearGradient id="SVGID_36_" gradientUnits="userSpaceOnUse" x1="77.3545" y1="56.2705" x2="78.2754" y2="56.2705">
						<stop  offset="0" style="stop-color:#F6DDBB"/>
						<stop  offset="1" style="stop-color:#F9EFDC"/>
					</linearGradient>
					<path fill="url(#SVGID_36_)" d="M77.354,55.412c0.408,0.525,0.709,1.104,0.921,1.717
						C78.104,56.563,77.801,55.983,77.354,55.412z"/>
					<linearGradient id="SVGID_37_" gradientUnits="userSpaceOnUse" x1="46.874" y1="57.707" x2="77.9863" y2="57.707">
						<stop  offset="0" style="stop-color:#C8611D"/>
						<stop  offset="1" style="stop-color:#E6781C"/>
					</linearGradient>
					<path fill="url(#SVGID_37_)" d="M59.704,42.509l-2.829,2.456l-0.105,0.091l-7.914,6.868c-2.298,1.992-2.649,5.592-0.785,7.99
						l9.511,12.243c0.186,0.241,0.393,0.459,0.607,0.662c1.934,1.788,4.898,1.873,6.967,0.083l10.849-9.412
						c0.678-0.588,1.183-1.314,1.516-2.107c0.56-1.334,0.619-2.862,0.155-4.232c-0.204-0.59-0.494-1.146-0.887-1.652l-9.515-12.247
						C65.414,40.854,62.006,40.521,59.704,42.509z"/>
					<linearGradient id="SVGID_38_" gradientUnits="userSpaceOnUse" x1="36.4502" y1="47.9404" x2="60.6934" y2="47.9404">
						<stop  offset="0" style="stop-color:#C8611D"/>
						<stop  offset="1" style="stop-color:#E6781C"/>
					</linearGradient>
					<path fill="url(#SVGID_38_)" d="M60.193,38.962c-0.617-0.013-1.228,0.053-1.791,0.209c-2.748,0.756-6.92,3.087-9.279,5.181
						l-11.104,9.895c-0.69,0.617-1.216,1.375-1.569,2.191c0.049,0.523,0.825,0.646,2.286,0.244c2.751-0.76,6.926-3.09,9.279-5.185
						l8.101-7.219l0.111-0.096l2.894-2.581C60.778,40.125,61.107,39.149,60.193,38.962z"/>
				</g>
				
					<linearGradient id="SVGID_39_" gradientUnits="userSpaceOnUse" x1="-2750.2603" y1="1497.6748" x2="-2745.7251" y2="1497.6748" gradientTransform="matrix(0.2487 0.4367 -0.8689 0.495 2033.4257 506.7695)">
					<stop  offset="0" style="stop-color:#F6DDBB"/>
					<stop  offset="1" style="stop-color:#F9EFDC"/>
				</linearGradient>
				<path fill="url(#SVGID_39_)" d="M50.098,48.4c-1.063,0.961-2.566,1.597-3.36,1.413c-0.789-0.181-0.561-1.109,0.505-2.071
					c1.065-0.963,2.573-1.596,3.36-1.414C51.393,46.506,51.163,47.438,50.098,48.4z"/>
				
					<linearGradient id="SVGID_40_" gradientUnits="userSpaceOnUse" x1="-1776.7441" y1="-1517.6123" x2="-1771.4355" y2="-1517.6123" gradientTransform="matrix(0.5756 -0.3875 0.5584 0.8296 1916.8997 644.4386)">
					<stop  offset="0" style="stop-color:#F6DDBB"/>
					<stop  offset="1" style="stop-color:#F9EFDC"/>
				</linearGradient>
				<path fill="url(#SVGID_40_)" d="M48.925,70.944c1.333,1.083,2.129,2.831,1.786,3.906c-0.346,1.069-1.708,1.062-3.037-0.021
					c-1.334-1.085-2.131-2.835-1.783-3.903C46.233,69.854,47.594,69.857,48.925,70.944z"/>
				
					<linearGradient id="SVGID_41_" gradientUnits="userSpaceOnUse" x1="-1777.3643" y1="-1527.7104" x2="-1772.0571" y2="-1527.7104" gradientTransform="matrix(0.5756 -0.3875 0.5584 0.8296 1916.8997 644.4386)">
					<stop  offset="0" style="stop-color:#F6DDBB"/>
					<stop  offset="1" style="stop-color:#F9EFDC"/>
				</linearGradient>
				<path fill="url(#SVGID_41_)" d="M42.93,62.811c1.331,1.079,2.128,2.83,1.783,3.9c-0.344,1.081-1.702,1.069-3.035-0.014
					c-1.333-1.09-2.129-2.834-1.784-3.91C40.236,61.713,41.595,61.723,42.93,62.811z"/>
				
					<linearGradient id="SVGID_42_" gradientUnits="userSpaceOnUse" x1="-1770.0254" y1="-1516.2139" x2="-1764.7241" y2="-1516.2139" gradientTransform="matrix(0.5756 -0.3875 0.5584 0.8296 1916.8997 644.4386)">
					<stop  offset="0" style="stop-color:#F6DDBB"/>
					<stop  offset="1" style="stop-color:#F9EFDC"/>
				</linearGradient>
				<path fill="url(#SVGID_42_)" d="M53.568,69.502c1.33,1.084,2.135,2.833,1.787,3.908c-0.344,1.071-1.703,1.061-3.035-0.025
					c-1.33-1.083-2.129-2.828-1.786-3.902C50.882,68.409,52.24,68.419,53.568,69.502z"/>
				
					<linearGradient id="SVGID_43_" gradientUnits="userSpaceOnUse" x1="-1771.271" y1="-1527.0591" x2="-1765.9648" y2="-1527.0591" gradientTransform="matrix(0.5756 -0.3875 0.5584 0.8296 1916.8997 644.4386)">
					<stop  offset="0" style="stop-color:#F6DDBB"/>
					<stop  offset="1" style="stop-color:#F9EFDC"/>
				</linearGradient>
				<path fill="url(#SVGID_43_)" d="M46.801,60.987c1.331,1.085,2.125,2.831,1.784,3.905c-0.348,1.072-1.703,1.065-3.039-0.02
					c-1.33-1.086-2.13-2.836-1.782-3.904C44.109,59.895,45.466,59.896,46.801,60.987z"/>
				
					<linearGradient id="SVGID_44_" gradientUnits="userSpaceOnUse" x1="-1841.8354" y1="-883.769" x2="-1836.5288" y2="-883.769" gradientTransform="matrix(0.9784 -0.2068 0.2068 0.9784 2037.0028 541.697)">
					<stop  offset="0" style="stop-color:#F6DDBB"/>
					<stop  offset="1" style="stop-color:#F9EFDC"/>
				</linearGradient>
				<path fill="url(#SVGID_44_)" d="M56.784,55.647c1.044,1.457,0.991,3.409-0.104,4.354c-1.111,0.945-2.852,0.531-3.896-0.928
					c-1.045-1.463-0.995-3.41,0.111-4.355C53.998,53.772,55.738,54.188,56.784,55.647z"/>
				
					<linearGradient id="SVGID_45_" gradientUnits="userSpaceOnUse" x1="-1833.3301" y1="-882.4878" x2="-1828.0229" y2="-882.4878" gradientTransform="matrix(0.9784 -0.2068 0.2068 0.9784 2037.0028 541.697)">
					<stop  offset="0" style="stop-color:#F6DDBB"/>
					<stop  offset="1" style="stop-color:#F9EFDC"/>
				</linearGradient>
				<path fill="url(#SVGID_45_)" d="M65.371,55.141c1.043,1.461,0.997,3.406-0.106,4.357c-1.11,0.941-2.851,0.528-3.895-0.932
					c-1.044-1.461-0.994-3.41,0.11-4.354C62.59,53.27,64.33,53.685,65.371,55.141z"/>
				
					<linearGradient id="SVGID_46_" gradientUnits="userSpaceOnUse" x1="-1829.9424" y1="-890.7842" x2="-1824.6396" y2="-890.7842" gradientTransform="matrix(0.9784 -0.2068 0.2068 0.9784 2037.0028 541.697)">
					<stop  offset="0" style="stop-color:#F6DDBB"/>
					<stop  offset="1" style="stop-color:#F9EFDC"/>
				</linearGradient>
				<path fill="url(#SVGID_46_)" d="M66.964,46.325c1.047,1.461,0.999,3.411-0.107,4.354c-1.108,0.943-2.847,0.53-3.888-0.928
					c-1.044-1.461-0.989-3.405,0.109-4.355C64.182,44.451,65.926,44.865,66.964,46.325z"/>
				
					<linearGradient id="SVGID_47_" gradientUnits="userSpaceOnUse" x1="-1836.8965" y1="-874.043" x2="-1831.5898" y2="-874.043" gradientTransform="matrix(0.9784 -0.2068 0.2068 0.9784 2037.0028 541.697)">
					<stop  offset="0" style="stop-color:#F6DDBB"/>
					<stop  offset="1" style="stop-color:#F9EFDC"/>
				</linearGradient>
				<path fill="url(#SVGID_47_)" d="M63.628,64.141c1.045,1.464,0.994,3.411-0.111,4.353c-1.104,0.947-2.849,0.533-3.887-0.923
					c-1.048-1.46-0.995-3.411,0.108-4.356C60.842,62.272,62.584,62.686,63.628,64.141z"/>
				
					<linearGradient id="SVGID_48_" gradientUnits="userSpaceOnUse" x1="-1825.2041" y1="-880.4297" x2="-1819.9028" y2="-880.4297" gradientTransform="matrix(0.9784 -0.2068 0.2068 0.9784 2037.0028 541.697)">
					<stop  offset="0" style="stop-color:#F6DDBB"/>
					<stop  offset="1" style="stop-color:#F9EFDC"/>
				</linearGradient>
				<path fill="url(#SVGID_48_)" d="M73.741,55.473c1.042,1.46,0.997,3.412-0.109,4.355c-1.104,0.948-2.846,0.531-3.886-0.925
					c-1.04-1.453-0.993-3.407,0.108-4.354C70.96,53.604,72.701,54.018,73.741,55.473z"/>
			</g>
		</g>
	</g>
</g>
</svg>
