<?xml version="1.0" encoding="utf-8"?>
<!-- Generator: Adobe Illustrator 16.0.0, SVG Export Plug-In . SVG Version: 6.00 Build 0)  -->
<!DOCTYPE svg PUBLIC "-//W3C//DTD SVG 1.1//EN" "http://www.w3.org/Graphics/SVG/1.1/DTD/svg11.dtd">
<svg version="1.1" id="圖層_1" xmlns="http://www.w3.org/2000/svg" xmlns:xlink="http://www.w3.org/1999/xlink" x="0px" y="0px"
	 width="100px" height="100px" viewBox="0 0 100 100" enable-background="new 0 0 100 100" xml:space="preserve">
<linearGradient id="SVGID_1_" gradientUnits="userSpaceOnUse" x1="722.4697" y1="2145.1768" x2="722.4697" y2="2029.6309" gradientTransform="matrix(0.7745 0 0 0.7745 -509.5537 -1566.6957)">
	<stop  offset="0" style="stop-color:#E7945C"/>
	<stop  offset="1" style="stop-color:#F6D0B2"/>
</linearGradient>
<path fill="url(#SVGID_1_)" d="M50.004,5.259c1.43,0,2.84,0.064,4.245,0.188c12.733,12.184,26.397,23.481,40.825,34.045
	c0.85,3.37,1.297,6.894,1.297,10.506c0,24.645-20.828,44.746-46.367,44.746c-25.542,0-46.375-20.098-46.375-44.746
	c0-24.643,20.833-44.744,46.375-44.744V5.259z"/>
<linearGradient id="SVGID_2_" gradientUnits="userSpaceOnUse" x1="447.5859" y1="1679.5703" x2="447.5859" y2="1591.0059" gradientTransform="matrix(1 0 0 1 -397.5781 -1585.2842)">
	<stop  offset="0" style="stop-color:#E18A4E"/>
	<stop  offset="1" style="stop-color:#F3BF95"/>
</linearGradient>
<path fill="url(#SVGID_2_)" d="M50.004,5.721c1.561,0,3.094,0.087,4.604,0.245C67.133,17.797,80.475,28.84,94.498,39.227
	c0.916,3.445,1.396,7.064,1.396,10.78c0,24.386-20.617,44.279-45.882,44.279C24.74,94.285,4.12,74.389,4.12,50.006
	c0-24.393,20.62-44.279,45.893-44.279L50.004,5.721z"/>
<linearGradient id="SVGID_3_" gradientUnits="userSpaceOnUse" x1="447.5801" y1="1679.1006" x2="447.5801" y2="1591.4707" gradientTransform="matrix(1 0 0 1 -397.5781 -1585.2842)">
	<stop  offset="0" style="stop-color:#DC8141"/>
	<stop  offset="1" style="stop-color:#F0B07C"/>
</linearGradient>
<path fill="url(#SVGID_3_)" d="M50.004,6.186c1.682,0,3.337,0.096,4.971,0.292C67.271,17.955,80.296,28.74,93.914,38.959
	c0.968,3.524,1.499,7.229,1.499,11.045c0,24.133-20.401,43.813-45.41,43.813c-25.011,0-45.412-19.68-45.412-43.813
	C4.592,25.868,24.994,6.186,50.004,6.186z"/>
<linearGradient id="SVGID_4_" gradientUnits="userSpaceOnUse" x1="447.584" y1="1678.6396" x2="447.584" y2="1591.9307" gradientTransform="matrix(1 0 0 1 -397.5781 -1585.2842)">
	<stop  offset="0" style="stop-color:#D87C37"/>
	<stop  offset="1" style="stop-color:#F0A568"/>
</linearGradient>
<path fill="url(#SVGID_4_)" d="M50.004,6.646c1.805,0,3.583,0.116,5.33,0.343c12.085,11.126,24.791,21.659,38.003,31.7
	c1.034,3.604,1.599,7.398,1.599,11.314c0,23.879-20.188,43.353-44.931,43.353c-24.75,0-44.93-19.474-44.93-43.353
	S25.255,6.646,50.004,6.646z"/>
<linearGradient id="SVGID_5_" gradientUnits="userSpaceOnUse" x1="447.5791" y1="1678.1787" x2="447.5791" y2="1592.3936" gradientTransform="matrix(1 0 0 1 -397.5781 -1585.2842)">
	<stop  offset="0" style="stop-color:#D4762D"/>
	<stop  offset="1" style="stop-color:#ED9B54"/>
</linearGradient>
<path fill="url(#SVGID_5_)" d="M50.004,7.109c1.936,0,3.827,0.133,5.688,0.396c11.873,10.772,24.254,21.052,37.064,30.919
	c1.102,3.677,1.697,7.567,1.697,11.58c0,23.62-19.969,42.891-44.45,42.891c-24.489,0-44.454-19.268-44.454-42.891
	C5.551,26.376,25.524,7.109,50.004,7.109z"/>
<linearGradient id="SVGID_6_" gradientUnits="userSpaceOnUse" x1="447.5898" y1="1677.7109" x2="447.5898" y2="1592.8633" gradientTransform="matrix(1 0 0 1 -397.5781 -1585.2842)">
	<stop  offset="0" style="stop-color:#D17126"/>
	<stop  offset="1" style="stop-color:#EA9244"/>
</linearGradient>
<path fill="url(#SVGID_6_)" d="M50.004,7.578c2.057,0,4.081,0.147,6.057,0.438c11.65,10.422,23.713,20.44,36.117,30.141
	c1.165,3.758,1.799,7.732,1.799,11.846c0,23.366-19.752,42.424-43.962,42.424c-24.22,0-43.966-19.063-43.966-42.424
	C6.046,26.64,25.785,7.578,50.004,7.578z"/>
<linearGradient id="SVGID_7_" gradientUnits="userSpaceOnUse" x1="447.582" y1="1677.251" x2="447.582" y2="1593.3223" gradientTransform="matrix(1 0 0 1 -397.5781 -1585.2842)">
	<stop  offset="0" style="stop-color:#CF6C20"/>
	<stop  offset="1" style="stop-color:#E98B33"/>
</linearGradient>
<path fill="url(#SVGID_7_)" d="M50.004,8.037c2.188,0,4.326,0.169,6.415,0.496c11.433,10.064,23.185,19.836,35.179,29.359
	c1.232,3.826,1.896,7.898,1.896,12.112c0,23.107-19.536,41.963-43.487,41.963c-23.95,0-43.494-18.855-43.494-41.963
	C6.51,26.888,26.055,8.037,50.004,8.037L50.004,8.037z"/>
<linearGradient id="SVGID_8_" gradientUnits="userSpaceOnUse" x1="447.5762" y1="1676.7861" x2="447.5762" y2="1593.7852" gradientTransform="matrix(1 0 0 1 -397.5781 -1585.2842)">
	<stop  offset="0" style="stop-color:#CC671D"/>
	<stop  offset="1" style="stop-color:#E88326"/>
</linearGradient>
<path fill="url(#SVGID_8_)" d="M50.004,8.501c2.311,0,4.57,0.185,6.773,0.543c11.222,9.712,22.646,19.23,34.24,28.579
	c1.299,3.908,1.989,8.068,1.989,12.379c0,22.854-19.313,41.5-43.005,41.5c-23.688,0-43.013-18.646-43.013-41.5
	C6.992,27.144,26.316,8.501,50.004,8.501z"/>
<linearGradient id="SVGID_9_" gradientUnits="userSpaceOnUse" x1="447.585" y1="1676.3232" x2="447.585" y2="1594.2441" gradientTransform="matrix(1 0 0 1 -397.5781 -1585.2842)">
	<stop  offset="0" style="stop-color:#CA641C"/>
	<stop  offset="1" style="stop-color:#E67E1F"/>
</linearGradient>
<path fill="url(#SVGID_9_)" d="M50.004,8.959c2.432,0,4.816,0.207,7.141,0.597c11,9.359,22.106,18.619,33.295,27.798
	c1.36,3.979,2.1,8.237,2.1,12.649c0,22.601-19.107,41.036-42.533,41.036c-23.427,0-42.531-18.43-42.531-41.036
	C7.473,27.397,26.577,8.959,50.004,8.959z"/>
<linearGradient id="SVGID_10_" gradientUnits="userSpaceOnUse" x1="773.9346" y1="2222.6436" x2="773.9346" y2="2113.5254" gradientTransform="matrix(0.7437 0 0 0.7437 -525.5701 -1562.3961)">
	<stop  offset="0" style="stop-color:#C8611D"/>
	<stop  offset="1" style="stop-color:#E6781C"/>
</linearGradient>
<path fill="url(#SVGID_10_)" d="M50.004,9.433c2.555,0,5.061,0.22,7.5,0.644l32.354,27.017c1.42,4.06,2.195,8.402,2.195,12.914
	c0,22.348-18.891,40.576-42.05,40.576c-23.158,0-42.045-18.229-42.045-40.576C7.959,27.655,26.847,9.433,50.004,9.433z"/>
<path fill="#9F653A" d="M54.249,5.448C53.521,44.79,88.652,36.831,95.074,39.493C80.305,28.699,66.766,17.323,54.249,5.448z"/>
<linearGradient id="SVGID_11_" gradientUnits="userSpaceOnUse" x1="753.3184" y1="2052.3057" x2="745.4082" y2="2061.6426" gradientTransform="matrix(0.7745 0 0 0.7745 -508.6006 -1567.2631)">
	<stop  offset="0" style="stop-color:#DCDDE1"/>
	<stop  offset="0.29" style="stop-color:#F2F3F5"/>
	<stop  offset="1" style="stop-color:#FFFFFF"/>
</linearGradient>
<path fill="url(#SVGID_11_)" d="M54.249,5.444c0.085,24.782,24.916,20.295,40.825,34.042L54.249,5.444z"/>
<g>
	<path fill-rule="evenodd" clip-rule="evenodd" fill="#D8B22D" d="M50.337,42.239c-0.283-0.428-0.706-9.949-4.846-10.807
		c-4.14-0.857-6.68,4.545-6.021,8.32c0.659,3.773,7.433,3.517,8.515,3.43C49.067,43.097,50.337,42.239,50.337,42.239L50.337,42.239z
		 M49.584,42.074c0,0-0.67,0.725-1.241,0.798c-0.571,0.072-4.144,0.29-4.492-2.901c-0.347-3.191,0.993-7.76,3.176-7.035
		C49.212,33.661,49.436,41.711,49.584,42.074z"/>
	<path fill-rule="evenodd" clip-rule="evenodd" fill="#D8B22D" d="M50.337,42.239c0.324-0.428,0.808-9.949,5.556-10.807
		c4.746-0.857,7.66,4.545,6.904,8.32c-0.755,3.773-8.522,3.517-9.764,3.43C51.793,43.097,50.337,42.239,50.337,42.239L50.337,42.239
		z M51.2,42.074c0,0,0.768,0.725,1.423,0.798c0.655,0.072,4.752,0.29,5.15-2.901c0.399-3.191-1.139-7.76-3.642-7.035
		C51.628,33.661,51.372,41.711,51.2,42.074z"/>
	<linearGradient id="SVGID_12_" gradientUnits="userSpaceOnUse" x1="49.9985" y1="103.2852" x2="49.9985" y2="52.5408">
		<stop  offset="0" style="stop-color:#AFC206"/>
		<stop  offset="1" style="stop-color:#FFFFFF"/>
	</linearGradient>
	<rect x="29.394" y="54.177" fill-rule="evenodd" clip-rule="evenodd" fill="url(#SVGID_12_)" width="41.208" height="27.064"/>
	<g>
		<linearGradient id="SVGID_13_" gradientUnits="userSpaceOnUse" x1="52.4785" y1="69.5117" x2="35.003" y2="56.815">
			<stop  offset="0" style="stop-color:#8BA526"/>
			<stop  offset="1" style="stop-color:#AFC206"/>
		</linearGradient>
		<rect x="30.122" y="54.177" fill-rule="evenodd" clip-rule="evenodd" fill="url(#SVGID_13_)" width="39.752" height="27.064"/>
		<linearGradient id="SVGID_14_" gradientUnits="userSpaceOnUse" x1="68.3555" y1="81.0469" x2="52.7532" y2="69.7112">
			<stop  offset="0" style="stop-color:#8BA526"/>
			<stop  offset="1" style="stop-color:#AFC206"/>
		</linearGradient>
		<path fill-rule="evenodd" clip-rule="evenodd" fill="url(#SVGID_14_)" d="M69.874,54.177h-9.82l0.076,0.029
			c0,0,2.005,7.807-8.946,16.232c-4.956,3.813-13.352,7.548-21.062,10.496v0.307h39.752V54.177z"/>
	</g>
	<linearGradient id="SVGID_15_" gradientUnits="userSpaceOnUse" x1="47.8066" y1="45.8359" x2="55.6983" y2="58.4653">
		<stop  offset="0" style="stop-color:#8BA526"/>
		<stop  offset="1" style="stop-color:#AFC206"/>
	</linearGradient>
	<rect x="28.225" y="44.507" fill-rule="evenodd" clip-rule="evenodd" fill="url(#SVGID_15_)" width="43.547" height="9.67"/>
	<linearGradient id="SVGID_16_" gradientUnits="userSpaceOnUse" x1="41.2651" y1="42.4951" x2="47.371" y2="55.5891">
		<stop  offset="0" style="stop-color:#AFC206"/>
		<stop  offset="1" style="stop-color:#FFFFFF"/>
	</linearGradient>
	<path fill-rule="evenodd" clip-rule="evenodd" fill="url(#SVGID_16_)" d="M28.224,54.177H39.45
		c1.083-0.499,12.77-5.882,21.242-9.669H28.224V54.177z"/>
	<rect x="30.122" y="54.177" fill-rule="evenodd" clip-rule="evenodd" fill="#8AA02A" width="39.752" height="1.145"/>
	<linearGradient id="SVGID_17_" gradientUnits="userSpaceOnUse" x1="49.9985" y1="46.041" x2="49.9985" y2="43.534">
		<stop  offset="0" style="stop-color:#AFC206"/>
		<stop  offset="1" style="stop-color:#FFFFFF"/>
	</linearGradient>
	<rect x="28.225" y="43.615" fill-rule="evenodd" clip-rule="evenodd" fill="url(#SVGID_17_)" width="43.547" height="1.337"/>
	<linearGradient id="SVGID_18_" gradientUnits="userSpaceOnUse" x1="49.999" y1="71.3955" x2="49.999" y2="40.5949">
		<stop  offset="0" style="stop-color:#FAD115"/>
		<stop  offset="0.2038" style="stop-color:#FAD218"/>
		<stop  offset="0.3422" style="stop-color:#FAD321"/>
		<stop  offset="0.4611" style="stop-color:#FBD630"/>
		<stop  offset="0.5691" style="stop-color:#FBDB46"/>
		<stop  offset="0.6697" style="stop-color:#FCE061"/>
		<stop  offset="0.7649" style="stop-color:#FCE784"/>
		<stop  offset="0.8558" style="stop-color:#FDEFAD"/>
		<stop  offset="0.9409" style="stop-color:#FEF8DA"/>
		<stop  offset="1" style="stop-color:#FFFFFF"/>
	</linearGradient>
	<rect x="45.305" y="43.614" fill-rule="evenodd" clip-rule="evenodd" fill="url(#SVGID_18_)" width="9.387" height="38.031"/>
	<linearGradient id="SVGID_19_" gradientUnits="userSpaceOnUse" x1="50.7461" y1="81.9561" x2="49.4879" y2="67.5748">
		<stop  offset="0" style="stop-color:#FAD115"/>
		<stop  offset="1" style="stop-color:#FFFFFF"/>
	</linearGradient>
	<path fill-rule="evenodd" clip-rule="evenodd" fill="url(#SVGID_19_)" d="M54.69,65.145v16.501h-9.386v-8.938
		c1.359-0.881,2.625-1.767,3.781-2.656C51.239,68.396,53.091,66.753,54.69,65.145z"/>
	<linearGradient id="SVGID_20_" gradientUnits="userSpaceOnUse" x1="40.3408" y1="40.0542" x2="40.1737" y2="30.482">
		<stop  offset="0" style="stop-color:#FAD115"/>
		<stop  offset="0.2038" style="stop-color:#FAD218"/>
		<stop  offset="0.3422" style="stop-color:#FAD321"/>
		<stop  offset="0.4611" style="stop-color:#FBD630"/>
		<stop  offset="0.5691" style="stop-color:#FBDB46"/>
		<stop  offset="0.6697" style="stop-color:#FCE061"/>
		<stop  offset="0.7649" style="stop-color:#FCE784"/>
		<stop  offset="0.8558" style="stop-color:#FDEFAD"/>
		<stop  offset="0.9409" style="stop-color:#FEF8DA"/>
		<stop  offset="1" style="stop-color:#FFFFFF"/>
	</linearGradient>
	<path fill-rule="evenodd" clip-rule="evenodd" fill="url(#SVGID_20_)" d="M50.337,42.239c-0.515-0.428-1.285-9.949-8.826-10.807
		c-7.54-0.857-12.167,4.545-10.967,8.32c1.2,3.773,13.538,3.517,15.509,3.43C48.024,43.097,50.337,42.239,50.337,42.239
		L50.337,42.239z M48.966,42.074c0,0-1.22,0.725-2.26,0.798c-1.04,0.072-7.548,0.29-8.181-2.901
		c-0.633-3.191,1.809-7.76,5.786-7.035C48.288,33.661,48.695,41.711,48.966,42.074z"/>
	<linearGradient id="SVGID_21_" gradientUnits="userSpaceOnUse" x1="47.1313" y1="30.9365" x2="36.7939" y2="39.9228">
		<stop  offset="0" style="stop-color:#FAD115"/>
		<stop  offset="0.2038" style="stop-color:#FAD218"/>
		<stop  offset="0.3422" style="stop-color:#FAD321"/>
		<stop  offset="0.4611" style="stop-color:#FBD630"/>
		<stop  offset="0.5691" style="stop-color:#FBDB46"/>
		<stop  offset="0.6697" style="stop-color:#FCE061"/>
		<stop  offset="0.7649" style="stop-color:#FCE784"/>
		<stop  offset="0.8558" style="stop-color:#FDEFAD"/>
		<stop  offset="0.9409" style="stop-color:#FEF8DA"/>
		<stop  offset="1" style="stop-color:#FFFFFF"/>
	</linearGradient>
	<path fill-rule="evenodd" clip-rule="evenodd" fill="url(#SVGID_21_)" d="M49.245,38.677c-1.036-2.945-3.115-6.72-7.733-7.245
		c-4.777-0.543-8.385,1.428-10.082,3.905c2.136,0.695,4.56,1.375,7.209,1.941c0.649-2.542,2.744-4.876,5.672-4.342
		c2.295,0.418,3.401,3.276,3.979,5.688C48.606,38.644,48.925,38.662,49.245,38.677z"/>
	<linearGradient id="SVGID_22_" gradientUnits="userSpaceOnUse" x1="60.3379" y1="40.1152" x2="60.672" y2="30.5466">
		<stop  offset="0" style="stop-color:#FAD115"/>
		<stop  offset="0.2038" style="stop-color:#FAD218"/>
		<stop  offset="0.3422" style="stop-color:#FAD321"/>
		<stop  offset="0.4611" style="stop-color:#FBD630"/>
		<stop  offset="0.5691" style="stop-color:#FBDB46"/>
		<stop  offset="0.6697" style="stop-color:#FCE061"/>
		<stop  offset="0.7649" style="stop-color:#FCE784"/>
		<stop  offset="0.8558" style="stop-color:#FDEFAD"/>
		<stop  offset="0.9409" style="stop-color:#FEF8DA"/>
		<stop  offset="1" style="stop-color:#FFFFFF"/>
	</linearGradient>
	<path fill-rule="evenodd" clip-rule="evenodd" fill="url(#SVGID_22_)" d="M50.337,42.239c0.513-0.428,1.286-9.949,8.826-10.807
		c7.539-0.857,12.166,4.545,10.967,8.32c-1.2,3.773-13.537,3.517-15.508,3.43C52.651,43.097,50.337,42.239,50.337,42.239
		L50.337,42.239z M51.708,42.074c0,0,1.221,0.725,2.26,0.798c1.039,0.072,7.549,0.29,8.181-2.901
		c0.633-3.191-1.808-7.76-5.785-7.035C52.386,33.661,51.979,41.711,51.708,42.074z"/>
	<linearGradient id="SVGID_23_" gradientUnits="userSpaceOnUse" x1="53.7637" y1="32.7891" x2="64.949" y2="39.2469">
		<stop  offset="0" style="stop-color:#FAD115"/>
		<stop  offset="0.2038" style="stop-color:#FAD218"/>
		<stop  offset="0.3422" style="stop-color:#FAD321"/>
		<stop  offset="0.4611" style="stop-color:#FBD630"/>
		<stop  offset="0.5691" style="stop-color:#FBDB46"/>
		<stop  offset="0.6697" style="stop-color:#FCE061"/>
		<stop  offset="0.7649" style="stop-color:#FCE784"/>
		<stop  offset="0.8558" style="stop-color:#FDEFAD"/>
		<stop  offset="0.9409" style="stop-color:#FEF8DA"/>
		<stop  offset="1" style="stop-color:#FFFFFF"/>
	</linearGradient>
	<path fill-rule="evenodd" clip-rule="evenodd" fill="url(#SVGID_23_)" d="M51.407,38.743c1.028-2.955,3.104-6.782,7.756-7.311
		c5.151-0.586,8.942,1.752,10.444,4.495c-2.505,0.852-4.996,1.485-7.449,1.932c-0.459-2.752-2.646-5.498-5.795-4.923
		c-2.334,0.425-3.438,3.374-4.007,5.81C52.038,38.748,51.723,38.746,51.407,38.743z"/>
	<linearGradient id="SVGID_24_" gradientUnits="userSpaceOnUse" x1="49.8901" y1="41.9531" x2="49.9544" y2="38.2739">
		<stop  offset="0" style="stop-color:#FAD115"/>
		<stop  offset="0.2038" style="stop-color:#FAD218"/>
		<stop  offset="0.3422" style="stop-color:#FAD321"/>
		<stop  offset="0.4611" style="stop-color:#FBD630"/>
		<stop  offset="0.5691" style="stop-color:#FBDB46"/>
		<stop  offset="0.6697" style="stop-color:#FCE061"/>
		<stop  offset="0.7649" style="stop-color:#FCE784"/>
		<stop  offset="0.8558" style="stop-color:#FDEFAD"/>
		<stop  offset="0.9409" style="stop-color:#FEF8DA"/>
		<stop  offset="1" style="stop-color:#FFFFFF"/>
	</linearGradient>
	<path fill-rule="evenodd" clip-rule="evenodd" fill="url(#SVGID_24_)" d="M49.91,43.134c1.238,0,2.247-1.01,2.247-2.25
		c0-1.239-1.009-2.249-2.247-2.249c-1.24,0-2.25,1.01-2.25,2.249C47.66,42.124,48.67,43.134,49.91,43.134z"/>
</g>
</svg>
