<?xml version="1.0" encoding="utf-8"?>
<!-- Generator: Adobe Illustrator 16.0.0, SVG Export Plug-In . SVG Version: 6.00 Build 0)  -->
<!DOCTYPE svg PUBLIC "-//W3C//DTD SVG 1.1//EN" "http://www.w3.org/Graphics/SVG/1.1/DTD/svg11.dtd">
<svg version="1.1" id="圖層_1" xmlns="http://www.w3.org/2000/svg" xmlns:xlink="http://www.w3.org/1999/xlink" x="0px" y="0px"
	 width="100px" height="100px" viewBox="0 0 100 100" enable-background="new 0 0 100 100" xml:space="preserve">
<linearGradient id="SVGID_1_" gradientUnits="userSpaceOnUse" x1="722.4697" y1="2145.1768" x2="722.4697" y2="2029.6309" gradientTransform="matrix(0.7745 0 0 0.7745 -509.5537 -1566.6957)">
	<stop  offset="0" style="stop-color:#E7945C"/>
	<stop  offset="1" style="stop-color:#F6D0B2"/>
</linearGradient>
<path fill="url(#SVGID_1_)" d="M50.004,5.259c1.43,0,2.84,0.064,4.245,0.188c12.733,12.184,26.397,23.481,40.825,34.045
	c0.85,3.37,1.297,6.894,1.297,10.506c0,24.645-20.828,44.746-46.367,44.746c-25.542,0-46.375-20.098-46.375-44.746
	c0-24.643,20.833-44.744,46.375-44.744V5.259z"/>
<linearGradient id="SVGID_2_" gradientUnits="userSpaceOnUse" x1="447.5859" y1="1679.5703" x2="447.5859" y2="1591.0059" gradientTransform="matrix(1 0 0 1 -397.5781 -1585.2842)">
	<stop  offset="0" style="stop-color:#E18A4E"/>
	<stop  offset="1" style="stop-color:#F3BF95"/>
</linearGradient>
<path fill="url(#SVGID_2_)" d="M50.004,5.721c1.561,0,3.094,0.087,4.604,0.245C67.133,17.797,80.475,28.84,94.498,39.227
	c0.916,3.445,1.396,7.064,1.396,10.78c0,24.386-20.617,44.279-45.882,44.279C24.74,94.285,4.12,74.389,4.12,50.006
	c0-24.393,20.62-44.279,45.893-44.279L50.004,5.721z"/>
<linearGradient id="SVGID_3_" gradientUnits="userSpaceOnUse" x1="447.5801" y1="1679.1006" x2="447.5801" y2="1591.4707" gradientTransform="matrix(1 0 0 1 -397.5781 -1585.2842)">
	<stop  offset="0" style="stop-color:#DC8141"/>
	<stop  offset="1" style="stop-color:#F0B07C"/>
</linearGradient>
<path fill="url(#SVGID_3_)" d="M50.004,6.186c1.682,0,3.337,0.096,4.971,0.292C67.271,17.955,80.296,28.74,93.914,38.959
	c0.968,3.524,1.499,7.229,1.499,11.045c0,24.133-20.401,43.813-45.41,43.813c-25.011,0-45.412-19.68-45.412-43.813
	C4.592,25.868,24.994,6.186,50.004,6.186z"/>
<linearGradient id="SVGID_4_" gradientUnits="userSpaceOnUse" x1="447.584" y1="1678.6396" x2="447.584" y2="1591.9307" gradientTransform="matrix(1 0 0 1 -397.5781 -1585.2842)">
	<stop  offset="0" style="stop-color:#D87C37"/>
	<stop  offset="1" style="stop-color:#F0A568"/>
</linearGradient>
<path fill="url(#SVGID_4_)" d="M50.004,6.646c1.805,0,3.583,0.116,5.33,0.343c12.085,11.126,24.791,21.659,38.003,31.7
	c1.034,3.604,1.599,7.398,1.599,11.314c0,23.879-20.188,43.353-44.931,43.353c-24.75,0-44.93-19.474-44.93-43.353
	S25.255,6.646,50.004,6.646z"/>
<linearGradient id="SVGID_5_" gradientUnits="userSpaceOnUse" x1="447.5791" y1="1678.1787" x2="447.5791" y2="1592.3936" gradientTransform="matrix(1 0 0 1 -397.5781 -1585.2842)">
	<stop  offset="0" style="stop-color:#D4762D"/>
	<stop  offset="1" style="stop-color:#ED9B54"/>
</linearGradient>
<path fill="url(#SVGID_5_)" d="M50.004,7.109c1.936,0,3.827,0.133,5.688,0.396c11.873,10.772,24.254,21.052,37.064,30.919
	c1.102,3.677,1.697,7.567,1.697,11.58c0,23.62-19.969,42.891-44.45,42.891c-24.489,0-44.454-19.268-44.454-42.891
	C5.551,26.376,25.524,7.109,50.004,7.109z"/>
<linearGradient id="SVGID_6_" gradientUnits="userSpaceOnUse" x1="447.5898" y1="1677.7109" x2="447.5898" y2="1592.8633" gradientTransform="matrix(1 0 0 1 -397.5781 -1585.2842)">
	<stop  offset="0" style="stop-color:#D17126"/>
	<stop  offset="1" style="stop-color:#EA9244"/>
</linearGradient>
<path fill="url(#SVGID_6_)" d="M50.004,7.578c2.057,0,4.081,0.147,6.057,0.438c11.65,10.422,23.713,20.44,36.117,30.141
	c1.165,3.758,1.799,7.732,1.799,11.846c0,23.366-19.752,42.424-43.962,42.424c-24.22,0-43.966-19.063-43.966-42.424
	C6.046,26.64,25.785,7.578,50.004,7.578z"/>
<linearGradient id="SVGID_7_" gradientUnits="userSpaceOnUse" x1="447.582" y1="1677.251" x2="447.582" y2="1593.3223" gradientTransform="matrix(1 0 0 1 -397.5781 -1585.2842)">
	<stop  offset="0" style="stop-color:#CF6C20"/>
	<stop  offset="1" style="stop-color:#E98B33"/>
</linearGradient>
<path fill="url(#SVGID_7_)" d="M50.004,8.037c2.188,0,4.326,0.169,6.415,0.496c11.433,10.064,23.185,19.836,35.179,29.359
	c1.232,3.826,1.896,7.898,1.896,12.112c0,23.107-19.536,41.963-43.487,41.963c-23.95,0-43.494-18.855-43.494-41.963
	C6.51,26.888,26.055,8.037,50.004,8.037L50.004,8.037z"/>
<linearGradient id="SVGID_8_" gradientUnits="userSpaceOnUse" x1="447.5762" y1="1676.7861" x2="447.5762" y2="1593.7852" gradientTransform="matrix(1 0 0 1 -397.5781 -1585.2842)">
	<stop  offset="0" style="stop-color:#CC671D"/>
	<stop  offset="1" style="stop-color:#E88326"/>
</linearGradient>
<path fill="url(#SVGID_8_)" d="M50.004,8.501c2.311,0,4.57,0.185,6.773,0.543c11.222,9.712,22.646,19.23,34.24,28.579
	c1.299,3.908,1.989,8.068,1.989,12.379c0,22.854-19.313,41.5-43.005,41.5c-23.688,0-43.013-18.646-43.013-41.5
	C6.992,27.144,26.316,8.501,50.004,8.501z"/>
<linearGradient id="SVGID_9_" gradientUnits="userSpaceOnUse" x1="447.585" y1="1676.3232" x2="447.585" y2="1594.2441" gradientTransform="matrix(1 0 0 1 -397.5781 -1585.2842)">
	<stop  offset="0" style="stop-color:#CA641C"/>
	<stop  offset="1" style="stop-color:#E67E1F"/>
</linearGradient>
<path fill="url(#SVGID_9_)" d="M50.004,8.959c2.432,0,4.816,0.207,7.141,0.597c11,9.359,22.106,18.619,33.295,27.798
	c1.36,3.979,2.1,8.237,2.1,12.649c0,22.601-19.107,41.036-42.533,41.036c-23.427,0-42.531-18.43-42.531-41.036
	C7.473,27.397,26.577,8.959,50.004,8.959z"/>
<linearGradient id="SVGID_10_" gradientUnits="userSpaceOnUse" x1="773.9346" y1="2222.6436" x2="773.9346" y2="2113.5254" gradientTransform="matrix(0.7437 0 0 0.7437 -525.5701 -1562.3961)">
	<stop  offset="0" style="stop-color:#C8611D"/>
	<stop  offset="1" style="stop-color:#E6781C"/>
</linearGradient>
<path fill="url(#SVGID_10_)" d="M50.004,9.433c2.555,0,5.061,0.22,7.5,0.644l32.354,27.017c1.42,4.06,2.195,8.402,2.195,12.914
	c0,22.348-18.891,40.576-42.05,40.576c-23.158,0-42.045-18.229-42.045-40.576C7.959,27.655,26.847,9.433,50.004,9.433z"/>
<path fill="#9F653A" d="M54.249,5.448C53.521,44.79,88.652,36.831,95.074,39.493C80.305,28.699,66.766,17.323,54.249,5.448z"/>
<linearGradient id="SVGID_11_" gradientUnits="userSpaceOnUse" x1="753.3184" y1="2052.3057" x2="745.4082" y2="2061.6426" gradientTransform="matrix(0.7745 0 0 0.7745 -508.6006 -1567.2631)">
	<stop  offset="0" style="stop-color:#DCDDE1"/>
	<stop  offset="0.29" style="stop-color:#F2F3F5"/>
	<stop  offset="1" style="stop-color:#FFFFFF"/>
</linearGradient>
<path fill="url(#SVGID_11_)" d="M54.249,5.444c0.085,24.782,24.916,20.295,40.825,34.042L54.249,5.444z"/>
<g>
	<path fill="none" stroke="#58595B" stroke-width="0.8436" stroke-miterlimit="10" d="M49.862,42.109l-0.158-0.045l-0.082,0.023
		l0.022-0.04c-0.288-0.083-0.854-0.251-1.599-0.487v5.662H27.885v-5.969H47.09c-5.317-1.746-16.013-5.822-11.185-9.016
		c0.687-0.454,1.389-0.691,2.094-0.757c0.117-0.745,0.717-1.381,1.996-1.832c6.585-2.321,8.717,8.121,9.212,11.34
		c0.114,0.187,0.214,0.355,0.301,0.501c0.228-0.198,0.547-0.473,0.941-0.8c2.141-3.444,8.06-11.829,13.13-8.475
		c0.881,0.583,1.242,1.195,1.216,1.816c0.661,0.203,1.245,0.574,1.723,1.154c2.857,3.468-5.563,5.253-11.669,6.069H72.11v5.969
		H52.185V41.57c-0.449,0.047-0.863,0.088-1.232,0.121c-0.521,0.161-0.916,0.277-1.133,0.34L49.862,42.109L49.862,42.109z"/>
	<polygon fill-rule="evenodd" clip-rule="evenodd" fill="#58595B" points="48.046,63.118 48.046,65.952 48.046,66.833 
		48.046,81.047 31.668,81.047 31.668,66.833 31.668,65.952 31.668,63.118 31.668,59.479 31.668,48.024 48.046,48.024 48.046,59.479 
		48.046,63.118 	"/>
	<polygon fill-rule="evenodd" clip-rule="evenodd" fill="#58595B" points="68.563,63.118 68.563,65.952 68.563,66.833 
		68.563,81.047 52.185,81.047 52.185,66.833 52.185,65.952 52.185,63.118 52.185,59.479 52.185,48.024 68.563,48.024 68.563,59.479 
		68.563,63.118 	"/>
	<polygon fill-rule="evenodd" clip-rule="evenodd" fill="#58595B" points="49.688,41.799 49.737,41.884 49.79,41.791 49.688,41.799 
			"/>
	<path fill-rule="evenodd" clip-rule="evenodd" fill="#58595B" d="M64.21,35.35c-1.739,2.134-6.975,4.225-10.672,5.497
		c4.529-0.472,13.814-1.841,11.226-4.982C64.596,35.659,64.41,35.491,64.21,35.35L64.21,35.35z"/>
	<path fill-rule="evenodd" clip-rule="evenodd" fill="#58595B" d="M62.882,33.865c-0.155-0.22-0.386-0.437-0.707-0.649
		c-3.664-2.423-7.896,3.015-9.824,5.961C55.247,36.973,59.54,34.156,62.882,33.865L62.882,33.865z"/>
	<path fill-rule="evenodd" clip-rule="evenodd" fill="#58595B" d="M63.087,34.883c-3.86-0.742-10.533,4.965-11.714,6.008
		C52.359,40.608,62.395,37.663,63.087,34.883L63.087,34.883z"/>
	<path fill-rule="evenodd" clip-rule="evenodd" fill="#58595B" d="M39.697,31.639c3.261,0.861,6.412,4.729,8.319,7.513
		c-0.53-2.984-2.299-9.947-7.086-8.262C40.35,31.094,39.949,31.348,39.697,31.639L39.697,31.639z"/>
	<path fill-rule="evenodd" clip-rule="evenodd" fill="#58595B" d="M47.202,40.643c-2.896-1.8-7.849-5.175-8.988-7.843
		c-0.304,0.098-0.607,0.243-0.906,0.44C33.138,35.997,43.819,39.601,47.202,40.643L47.202,40.643z"/>
	<path fill-rule="evenodd" clip-rule="evenodd" fill="#58595B" d="M47.757,40.191c-1.218-2.019-4.826-7.453-8.396-7.554
		C39.526,35.213,45.976,39.15,47.757,40.191z"/>
</g>
</svg>
