<?xml version="1.0" encoding="utf-8"?>
<!-- Generator: Adobe Illustrator 16.0.0, SVG Export Plug-In . SVG Version: 6.00 Build 0)  -->
<!DOCTYPE svg PUBLIC "-//W3C//DTD SVG 1.1//EN" "http://www.w3.org/Graphics/SVG/1.1/DTD/svg11.dtd">
<svg version="1.1" id="圖層_1" xmlns="http://www.w3.org/2000/svg" xmlns:xlink="http://www.w3.org/1999/xlink" x="0px" y="0px"
	 width="100px" height="100px" viewBox="0 0 100 100" enable-background="new 0 0 100 100" xml:space="preserve">
<linearGradient id="SVGID_1_" gradientUnits="userSpaceOnUse" x1="1042.0156" y1="-2522.8433" x2="1042.0156" y2="-2407.2974" gradientTransform="matrix(0.7745 0 0 -0.7745 -757.0411 -1859.1984)">
	<stop  offset="0" style="stop-color:#E7945C"/>
	<stop  offset="1" style="stop-color:#F6D0B2"/>
</linearGradient>
<path fill="url(#SVGID_1_)" d="M50.004,5.259c1.43,0,2.84,0.064,4.245,0.188c12.733,12.184,26.397,23.481,40.825,34.045
	c0.85,3.37,1.297,6.894,1.297,10.506c0,24.645-20.828,44.746-46.367,44.746c-25.542,0-46.375-20.098-46.375-44.746
	c0-24.643,20.833-44.744,46.375-44.744V5.259z"/>
<linearGradient id="SVGID_2_" gradientUnits="userSpaceOnUse" x1="695.1855" y1="-1949.4097" x2="695.1855" y2="-1860.8452" gradientTransform="matrix(1 0 0 -1 -645.1777 -1855.124)">
	<stop  offset="0" style="stop-color:#E18A4E"/>
	<stop  offset="1" style="stop-color:#F3BF95"/>
</linearGradient>
<path fill="url(#SVGID_2_)" d="M50.004,5.721c1.561,0,3.094,0.087,4.604,0.245C67.133,17.797,80.475,28.84,94.498,39.227
	c0.916,3.445,1.396,7.064,1.396,10.78c0,24.386-20.617,44.279-45.882,44.279C24.74,94.285,4.12,74.389,4.12,50.006
	c0-24.393,20.62-44.279,45.893-44.279L50.004,5.721z"/>
<linearGradient id="SVGID_3_" gradientUnits="userSpaceOnUse" x1="695.1807" y1="-1948.9399" x2="695.1807" y2="-1861.3101" gradientTransform="matrix(1 0 0 -1 -645.1777 -1855.124)">
	<stop  offset="0" style="stop-color:#DC8141"/>
	<stop  offset="1" style="stop-color:#F0B07C"/>
</linearGradient>
<path fill="url(#SVGID_3_)" d="M50.004,6.186c1.682,0,3.337,0.096,4.971,0.292C67.271,17.955,80.296,28.74,93.914,38.959
	c0.968,3.524,1.499,7.229,1.499,11.045c0,24.133-20.401,43.813-45.41,43.813c-25.011,0-45.412-19.68-45.412-43.813
	C4.592,25.868,24.994,6.186,50.004,6.186z"/>
<linearGradient id="SVGID_4_" gradientUnits="userSpaceOnUse" x1="695.1836" y1="-1948.479" x2="695.1836" y2="-1861.77" gradientTransform="matrix(1 0 0 -1 -645.1777 -1855.124)">
	<stop  offset="0" style="stop-color:#D87C37"/>
	<stop  offset="1" style="stop-color:#F0A568"/>
</linearGradient>
<path fill="url(#SVGID_4_)" d="M50.004,6.646c1.805,0,3.583,0.116,5.33,0.343c12.085,11.126,24.791,21.659,38.003,31.7
	c1.034,3.604,1.599,7.398,1.599,11.314c0,23.879-20.188,43.353-44.931,43.353c-24.75,0-44.93-19.474-44.93-43.353
	S25.255,6.646,50.004,6.646z"/>
<linearGradient id="SVGID_5_" gradientUnits="userSpaceOnUse" x1="695.1797" y1="-1948.0181" x2="695.1797" y2="-1862.2329" gradientTransform="matrix(1 0 0 -1 -645.1777 -1855.124)">
	<stop  offset="0" style="stop-color:#D4762D"/>
	<stop  offset="1" style="stop-color:#ED9B54"/>
</linearGradient>
<path fill="url(#SVGID_5_)" d="M50.004,7.109c1.936,0,3.827,0.133,5.688,0.396c11.873,10.772,24.254,21.052,37.064,30.919
	c1.102,3.677,1.697,7.567,1.697,11.58c0,23.62-19.969,42.891-44.45,42.891c-24.489,0-44.454-19.268-44.454-42.891
	C5.551,26.376,25.524,7.109,50.004,7.109z"/>
<linearGradient id="SVGID_6_" gradientUnits="userSpaceOnUse" x1="695.1914" y1="-1947.5503" x2="695.1914" y2="-1862.7021" gradientTransform="matrix(1 0 0 -1 -645.1777 -1855.124)">
	<stop  offset="0" style="stop-color:#D17126"/>
	<stop  offset="1" style="stop-color:#EA9244"/>
</linearGradient>
<path fill="url(#SVGID_6_)" d="M50.004,7.578c2.057,0,4.081,0.147,6.057,0.438c11.65,10.422,23.713,20.44,36.117,30.141
	c1.165,3.758,1.799,7.732,1.799,11.846c0,23.366-19.752,42.424-43.961,42.424c-24.22,0-43.966-19.063-43.966-42.424
	C6.046,26.64,25.785,7.578,50.004,7.578z"/>
<linearGradient id="SVGID_7_" gradientUnits="userSpaceOnUse" x1="695.1816" y1="-1947.0903" x2="695.1816" y2="-1863.1611" gradientTransform="matrix(1 0 0 -1 -645.1777 -1855.124)">
	<stop  offset="0" style="stop-color:#CF6C20"/>
	<stop  offset="1" style="stop-color:#E98B33"/>
</linearGradient>
<path fill="url(#SVGID_7_)" d="M50.004,8.037c2.188,0,4.326,0.169,6.415,0.496c11.433,10.064,23.185,19.836,35.179,29.359
	c1.232,3.826,1.896,7.898,1.896,12.112c0,23.107-19.536,41.963-43.487,41.963c-23.95,0-43.494-18.855-43.494-41.963
	C6.51,26.888,26.055,8.037,50.004,8.037L50.004,8.037z"/>
<linearGradient id="SVGID_8_" gradientUnits="userSpaceOnUse" x1="695.1758" y1="-1946.6255" x2="695.1758" y2="-1863.625" gradientTransform="matrix(1 0 0 -1 -645.1777 -1855.124)">
	<stop  offset="0" style="stop-color:#CC671D"/>
	<stop  offset="1" style="stop-color:#E88326"/>
</linearGradient>
<path fill="url(#SVGID_8_)" d="M50.004,8.501c2.311,0,4.57,0.185,6.773,0.543c11.222,9.712,22.646,19.23,34.24,28.579
	c1.299,3.908,1.988,8.068,1.988,12.379c0,22.854-19.313,41.5-43.005,41.5c-23.688,0-43.013-18.646-43.013-41.5
	C6.992,27.144,26.316,8.501,50.004,8.501z"/>
<linearGradient id="SVGID_9_" gradientUnits="userSpaceOnUse" x1="695.1865" y1="-1946.1626" x2="695.1865" y2="-1864.083" gradientTransform="matrix(1 0 0 -1 -645.1777 -1855.124)">
	<stop  offset="0" style="stop-color:#CA641C"/>
	<stop  offset="1" style="stop-color:#E67E1F"/>
</linearGradient>
<path fill="url(#SVGID_9_)" d="M50.004,8.959c2.432,0,4.816,0.207,7.141,0.597c11,9.359,22.106,18.619,33.295,27.798
	c1.36,3.979,2.101,8.237,2.101,12.649c0,22.601-19.106,41.036-42.533,41.036S7.476,72.609,7.476,50.003
	C7.473,27.397,26.577,8.959,50.004,8.959z"/>
<linearGradient id="SVGID_10_" gradientUnits="userSpaceOnUse" x1="1106.6934" y1="-2620.1128" x2="1106.6934" y2="-2510.9946" gradientTransform="matrix(0.7437 0 0 -0.7437 -773.0422 -1857.994)">
	<stop  offset="0" style="stop-color:#C8611D"/>
	<stop  offset="1" style="stop-color:#E6781C"/>
</linearGradient>
<path fill="url(#SVGID_10_)" d="M50.004,9.433c2.555,0,5.061,0.22,7.5,0.644l32.354,27.017c1.42,4.06,2.195,8.402,2.195,12.914
	c0,22.348-18.891,40.576-42.05,40.576c-23.158,0-42.045-18.229-42.045-40.576C7.959,27.655,26.847,9.433,50.004,9.433z"/>
<path fill="#9F653A" d="M54.249,5.448C53.521,44.79,88.652,36.831,95.074,39.493C80.305,28.699,66.766,17.323,54.249,5.448z"/>
<linearGradient id="SVGID_11_" gradientUnits="userSpaceOnUse" x1="1072.8633" y1="-2429.9736" x2="1064.953" y2="-2439.3105" gradientTransform="matrix(0.7745 0 0 -0.7745 -756.088 -1859.7657)">
	<stop  offset="0" style="stop-color:#DCDDE1"/>
	<stop  offset="0.29" style="stop-color:#F2F3F5"/>
	<stop  offset="1" style="stop-color:#FFFFFF"/>
</linearGradient>
<path fill="url(#SVGID_11_)" d="M54.249,5.444c0.085,24.782,24.916,20.295,40.825,34.042L54.249,5.444z"/>
<g>
	<linearGradient id="SVGID_12_" gradientUnits="userSpaceOnUse" x1="27.3848" y1="38.2686" x2="72.6094" y2="38.2686">
		<stop  offset="0" style="stop-color:#F6DDBB"/>
		<stop  offset="1" style="stop-color:#F9EFDC"/>
	</linearGradient>
	<path fill="none" stroke="url(#SVGID_12_)" stroke-miterlimit="10" d="M49.862,42.109l-0.158-0.045l-0.082,0.023l0.022-0.04
		c-0.288-0.083-0.854-0.251-1.599-0.487v5.662h-20.16v-5.969H47.09c-5.317-1.746-16.013-5.822-11.185-9.016
		c0.687-0.454,1.389-0.691,2.094-0.757c0.117-0.745,0.717-1.381,1.996-1.832c6.585-2.321,8.717,8.121,9.212,11.34
		c0.114,0.187,0.214,0.355,0.301,0.501c0.228-0.198,0.547-0.473,0.941-0.8c2.141-3.444,8.06-11.829,13.13-8.475
		c0.881,0.583,1.241,1.195,1.216,1.816c0.661,0.203,1.245,0.574,1.723,1.154c2.857,3.468-5.563,5.253-11.668,6.069h17.26v5.969
		H52.186V41.57c-0.449,0.047-0.863,0.088-1.232,0.121c-0.521,0.161-0.916,0.277-1.133,0.34L49.862,42.109L49.862,42.109z"/>
	<linearGradient id="SVGID_13_" gradientUnits="userSpaceOnUse" x1="31.668" y1="64.5352" x2="48.0459" y2="64.5352">
		<stop  offset="0" style="stop-color:#F6DDBB"/>
		<stop  offset="1" style="stop-color:#F9EFDC"/>
	</linearGradient>
	<polygon fill="url(#SVGID_13_)" points="48.046,63.118 48.046,65.952 48.046,66.833 48.046,81.047 31.668,81.047 31.668,66.833 
		31.668,65.952 31.668,63.118 31.668,59.479 31.668,48.024 48.046,48.024 48.046,59.479 	"/>
	<linearGradient id="SVGID_14_" gradientUnits="userSpaceOnUse" x1="52.1855" y1="64.5352" x2="68.5625" y2="64.5352">
		<stop  offset="0" style="stop-color:#F6DDBB"/>
		<stop  offset="1" style="stop-color:#F9EFDC"/>
	</linearGradient>
	<polygon fill="url(#SVGID_14_)" points="68.563,63.118 68.563,65.952 68.563,66.833 68.563,81.047 52.186,81.047 52.186,66.833 
		52.186,65.952 52.186,63.118 52.186,59.479 52.186,48.024 68.563,48.024 68.563,59.479 	"/>
	<polygon fill="#58595B" points="49.688,41.799 49.737,41.884 49.79,41.791 	"/>
	<linearGradient id="SVGID_15_" gradientUnits="userSpaceOnUse" x1="53.5381" y1="38.0986" x2="65.2109" y2="38.0986">
		<stop  offset="0" style="stop-color:#F6DDBB"/>
		<stop  offset="1" style="stop-color:#F9EFDC"/>
	</linearGradient>
	<path fill="url(#SVGID_15_)" d="M64.21,35.35c-1.739,2.134-6.976,4.225-10.672,5.497c4.528-0.472,13.813-1.841,11.226-4.982
		C64.596,35.659,64.41,35.491,64.21,35.35L64.21,35.35z"/>
	<linearGradient id="SVGID_16_" gradientUnits="userSpaceOnUse" x1="52.3516" y1="35.8936" x2="62.8818" y2="35.8936">
		<stop  offset="0" style="stop-color:#F6DDBB"/>
		<stop  offset="1" style="stop-color:#F9EFDC"/>
	</linearGradient>
	<path fill="url(#SVGID_16_)" d="M62.882,33.865c-0.155-0.22-0.386-0.437-0.707-0.649c-3.663-2.423-7.896,3.015-9.823,5.961
		C55.247,36.973,59.54,34.156,62.882,33.865L62.882,33.865z"/>
	<linearGradient id="SVGID_17_" gradientUnits="userSpaceOnUse" x1="51.373" y1="37.8535" x2="63.0869" y2="37.8535">
		<stop  offset="0" style="stop-color:#F6DDBB"/>
		<stop  offset="1" style="stop-color:#F9EFDC"/>
	</linearGradient>
	<path fill="url(#SVGID_17_)" d="M63.087,34.883c-3.86-0.742-10.532,4.965-11.714,6.008C52.359,40.608,62.395,37.663,63.087,34.883
		L63.087,34.883z"/>
	<linearGradient id="SVGID_18_" gradientUnits="userSpaceOnUse" x1="39.6968" y1="34.8916" x2="48.0161" y2="34.8916">
		<stop  offset="0" style="stop-color:#F6DDBB"/>
		<stop  offset="1" style="stop-color:#F9EFDC"/>
	</linearGradient>
	<path fill="url(#SVGID_18_)" d="M39.697,31.639c3.261,0.861,6.412,4.729,8.319,7.513c-0.53-2.984-2.299-9.947-7.086-8.262
		C40.35,31.094,39.949,31.348,39.697,31.639L39.697,31.639z"/>
	<linearGradient id="SVGID_19_" gradientUnits="userSpaceOnUse" x1="36.3564" y1="36.7217" x2="47.2021" y2="36.7217">
		<stop  offset="0" style="stop-color:#F6DDBB"/>
		<stop  offset="1" style="stop-color:#F9EFDC"/>
	</linearGradient>
	<path fill="url(#SVGID_19_)" d="M47.202,40.643c-2.896-1.8-7.849-5.175-8.988-7.843c-0.304,0.098-0.607,0.243-0.906,0.44
		C33.138,35.997,43.819,39.601,47.202,40.643L47.202,40.643z"/>
	<linearGradient id="SVGID_20_" gradientUnits="userSpaceOnUse" x1="39.3608" y1="36.4141" x2="47.7568" y2="36.4141">
		<stop  offset="0" style="stop-color:#F6DDBB"/>
		<stop  offset="1" style="stop-color:#F9EFDC"/>
	</linearGradient>
	<path fill="url(#SVGID_20_)" d="M47.757,40.191c-1.218-2.019-4.826-7.453-8.396-7.554C39.526,35.213,45.976,39.15,47.757,40.191z"
		/>
</g>
</svg>
