<?xml version="1.0" encoding="utf-8"?>
<!-- Generator: Adobe Illustrator 16.0.0, SVG Export Plug-In . SVG Version: 6.00 Build 0)  -->
<!DOCTYPE svg PUBLIC "-//W3C//DTD SVG 1.1//EN" "http://www.w3.org/Graphics/SVG/1.1/DTD/svg11.dtd">
<svg version="1.1" id="圖層_1" xmlns="http://www.w3.org/2000/svg" xmlns:xlink="http://www.w3.org/1999/xlink" x="0px" y="0px"
	 width="100px" height="100px" viewBox="0 0 100 100" enable-background="new 0 0 100 100" xml:space="preserve">
<linearGradient id="SVGID_1_" gradientUnits="userSpaceOnUse" x1="790.0977" y1="2116.2217" x2="790.0977" y2="1994.3076" gradientTransform="matrix(0.7745 0 0 0.7745 -561.9322 -1541.8031)">
	<stop  offset="0" style="stop-color:#FADB7A"/>
	<stop  offset="1" style="stop-color:#F8F6D5"/>
</linearGradient>
<path fill="url(#SVGID_1_)" d="M49.996,2.793c1.512,0,3.002,0.073,4.479,0.202l43.076,35.917c0.891,3.561,1.373,7.274,1.373,11.09
	c0,26-21.979,47.209-48.925,47.209c-26.942,0-48.924-21.205-48.924-47.209C1.075,24,23.057,2.789,49.999,2.789L49.996,2.793z"/>
<linearGradient id="SVGID_2_" gradientUnits="userSpaceOnUse" x1="790.0977" y1="2116.2227" x2="790.0977" y2="1994.3076" gradientTransform="matrix(0.7745 0 0 0.7745 -561.9322 -1541.8031)">
	<stop  offset="0" style="stop-color:#EDAF6D"/>
	<stop  offset="1" style="stop-color:#F7E1C6"/>
</linearGradient>
<path fill="url(#SVGID_2_)" d="M49.996,2.793c1.506,0,3.002,0.073,4.479,0.202C67.012,15.667,81.372,27.64,97.547,38.913
	c0.895,3.561,1.377,7.274,1.377,11.09c0,26-21.979,47.209-48.925,47.209c-26.949,0-48.924-21.205-48.924-47.209
	C1.075,24,23.05,2.789,49.999,2.789L49.996,2.793z"/>
<linearGradient id="SVGID_3_" gradientUnits="userSpaceOnUse" x1="499.8398" y1="1657.2246" x2="499.8398" y2="1563.7891" gradientTransform="matrix(1 0 0 1 -449.8438 -1560.502)">
	<stop  offset="0" style="stop-color:#F1B97F"/>
	<stop  offset="1" style="stop-color:#F7E4CC"/>
</linearGradient>
<path fill="url(#SVGID_3_)" d="M49.996,3.287c1.643,0,3.26,0.09,4.855,0.255c12.412,12.319,26.438,24.019,42.08,35.095
	c0.963,3.637,1.479,7.449,1.479,11.37c0,25.733-21.751,46.716-48.414,46.716c-26.669,0-48.413-20.988-48.413-46.716
	c0-25.727,21.75-46.716,48.413-46.716V3.287z"/>
<linearGradient id="SVGID_4_" gradientUnits="userSpaceOnUse" x1="499.834" y1="1656.7266" x2="499.834" y2="1564.2852" gradientTransform="matrix(1 0 0 1 -449.8438 -1560.502)">
	<stop  offset="0" style="stop-color:#F3C18B"/>
	<stop  offset="1" style="stop-color:#F8E7CF"/>
</linearGradient>
<path fill="url(#SVGID_4_)" d="M49.996,3.782c1.771,0,3.516,0.102,5.234,0.305c12.283,11.966,25.976,23.388,41.082,34.266
	c1.021,3.717,1.582,7.626,1.582,11.65c0,25.454-21.521,46.222-47.907,46.222c-26.383,0-47.901-20.768-47.901-46.222
	c0-25.455,21.519-46.221,47.901-46.221H49.996L49.996,3.782z"/>
<linearGradient id="SVGID_5_" gradientUnits="userSpaceOnUse" x1="499.8418" y1="1656.2324" x2="499.8418" y2="1564.7764" gradientTransform="matrix(1 0 0 1 -449.8438 -1560.502)">
	<stop  offset="0" style="stop-color:#F3C795"/>
	<stop  offset="1" style="stop-color:#F9E8D2"/>
</linearGradient>
<path fill="url(#SVGID_5_)" d="M49.996,4.274c1.904,0,3.775,0.121,5.619,0.357c12.146,11.613,25.511,22.763,40.09,33.441
	c1.092,3.799,1.682,7.801,1.682,11.931c0,25.188-21.287,45.728-47.388,45.728c-26.101,0-47.388-20.541-47.388-45.728
	c0-25.187,21.291-45.729,47.388-45.729H49.996z"/>
<linearGradient id="SVGID_6_" gradientUnits="userSpaceOnUse" x1="499.8379" y1="1655.7461" x2="499.8379" y2="1565.2754" gradientTransform="matrix(1 0 0 1 -449.8438 -1560.502)">
	<stop  offset="0" style="stop-color:#F3CD9F"/>
	<stop  offset="1" style="stop-color:#F9EAD4"/>
</linearGradient>
<path fill="url(#SVGID_6_)" d="M49.996,4.773c2.033,0,4.036,0.139,5.999,0.413C68.016,16.444,81.042,27.312,95.083,37.8
	c1.162,3.873,1.788,7.976,1.788,12.207c0,24.915-21.059,45.237-46.875,45.237c-25.82,0-46.88-20.319-46.88-45.237
	C3.116,25.088,24.176,4.773,49.996,4.773z"/>
<linearGradient id="SVGID_7_" gradientUnits="userSpaceOnUse" x1="499.8379" y1="1655.2549" x2="499.8379" y2="1565.7637" gradientTransform="matrix(1 0 0 1 -449.8438 -1560.502)">
	<stop  offset="0" style="stop-color:#F4D0A6"/>
	<stop  offset="1" style="stop-color:#F9EBD7"/>
</linearGradient>
<path fill="url(#SVGID_7_)" d="M49.996,5.261c2.166,0,4.296,0.162,6.377,0.469c11.891,10.903,24.589,21.502,38.095,31.784
	c1.226,3.961,1.897,8.154,1.897,12.494c0,24.643-20.834,44.745-46.369,44.745c-25.538,0-46.373-20.103-46.373-44.745
	C3.624,25.365,24.453,5.261,49.996,5.261z"/>
<linearGradient id="SVGID_8_" gradientUnits="userSpaceOnUse" x1="499.8438" y1="1654.75" x2="499.8438" y2="1566.2559" gradientTransform="matrix(1 0 0 1 -449.8438 -1560.502)">
	<stop  offset="0" style="stop-color:#F5D4AC"/>
	<stop  offset="1" style="stop-color:#F9ECD8"/>
</linearGradient>
<path fill="url(#SVGID_8_)" d="M49.996,5.754c2.3,0,4.557,0.18,6.759,0.524c11.759,10.549,24.129,20.867,37.101,30.954
	c1.299,4.037,2,8.328,2,12.77c0,24.369-20.601,44.246-45.854,44.246S4.146,74.371,4.146,50.002c0-24.371,20.6-44.249,45.854-44.249
	L49.996,5.754L49.996,5.754z"/>
<linearGradient id="SVGID_9_" gradientUnits="userSpaceOnUse" x1="499.8398" y1="1654.2598" x2="499.8398" y2="1566.752" gradientTransform="matrix(1 0 0 1 -449.8438 -1560.502)">
	<stop  offset="0" style="stop-color:#F5D8B2"/>
	<stop  offset="1" style="stop-color:#F9EDDA"/>
</linearGradient>
<path fill="url(#SVGID_9_)" d="M49.996,6.249c2.432,0,4.814,0.196,7.141,0.574c11.629,10.2,23.663,20.243,36.102,30.129
	c1.357,4.123,2.104,8.508,2.104,13.051c0,24.103-20.369,43.755-45.343,43.755C25.02,93.758,4.65,74.105,4.65,50.003
	C4.647,25.9,25.017,6.249,49.996,6.249z"/>
<linearGradient id="SVGID_10_" gradientUnits="userSpaceOnUse" x1="499.8379" y1="1653.7656" x2="499.8379" y2="1567.2441" gradientTransform="matrix(1 0 0 1 -449.8438 -1560.502)">
	<stop  offset="0" style="stop-color:#F5DBB7"/>
	<stop  offset="1" style="stop-color:#F9EEDB"/>
</linearGradient>
<path fill="url(#SVGID_10_)" d="M49.996,6.741c2.563,0,5.07,0.214,7.523,0.626c11.496,9.843,23.197,19.609,35.103,29.305
	c1.431,4.197,2.203,8.682,2.203,13.331c0,23.83-20.136,43.261-44.829,43.261c-24.696,0-44.833-19.431-44.833-43.261
	C5.164,26.173,25.304,6.741,49.996,6.741z"/>
<linearGradient id="SVGID_11_" gradientUnits="userSpaceOnUse" x1="845.1807" y1="2193.5342" x2="845.1807" y2="2078.4014" gradientTransform="matrix(0.743 0 0 0.743 -577.9765 -1537.0206)">
	<stop  offset="0" style="stop-color:#F6DDBB"/>
	<stop  offset="1" style="stop-color:#F9EFDC"/>
</linearGradient>
<path fill="url(#SVGID_11_)" d="M49.996,7.236c2.693,0,5.332,0.237,7.9,0.683L92.01,36.395c1.494,4.276,2.305,8.857,2.305,13.608
	c0,23.56-19.91,42.772-44.315,42.772c-24.415,0-44.328-19.215-44.328-42.772c0-23.552,19.913-42.771,44.328-42.771L49.996,7.236
	L49.996,7.236z"/>
<path fill="#D4AA80" d="M54.471,2.995c-0.767,41.508,36.307,33.114,43.072,35.917C82.094,27.646,67.732,15.667,54.471,2.995z"/>
<linearGradient id="SVGID_12_" gradientUnits="userSpaceOnUse" x1="822.7021" y1="2018.1953" x2="814.3561" y2="2028.0469" gradientTransform="matrix(0.7745 0 0 0.7745 -560.9796 -1542.3705)">
	<stop  offset="0" style="stop-color:#E7E9EC"/>
	<stop  offset="0.34" style="stop-color:#FBFBFC"/>
	<stop  offset="1" style="stop-color:#FFFFFF"/>
</linearGradient>
<path fill="url(#SVGID_12_)" d="M54.471,2.995c0.094,26.148,26.291,21.412,43.072,35.917L54.471,2.995z"/>
<g>
	<linearGradient id="SVGID_13_" gradientUnits="userSpaceOnUse" x1="27.3848" y1="34.2686" x2="72.6094" y2="34.2686">
		<stop  offset="0" style="stop-color:#C8611D"/>
		<stop  offset="1" style="stop-color:#E6781C"/>
	</linearGradient>
	<path fill="none" stroke="url(#SVGID_13_)" stroke-miterlimit="10" d="M49.862,38.109l-0.158-0.045l-0.082,0.023l0.022-0.04
		c-0.288-0.083-0.854-0.251-1.599-0.487v5.662h-20.16v-5.969H47.09c-5.317-1.746-16.013-5.822-11.185-9.016
		c0.687-0.454,1.389-0.691,2.094-0.757c0.117-0.745,0.717-1.381,1.996-1.832c6.585-2.321,8.717,8.121,9.212,11.34
		c0.114,0.187,0.214,0.355,0.301,0.501c0.228-0.198,0.547-0.473,0.941-0.8c2.141-3.444,8.06-11.829,13.13-8.475
		c0.881,0.583,1.241,1.195,1.216,1.816c0.661,0.203,1.245,0.574,1.723,1.154c2.857,3.468-5.563,5.253-11.668,6.069h17.26v5.969
		H52.186V37.57c-0.449,0.047-0.863,0.088-1.232,0.121c-0.521,0.161-0.916,0.277-1.133,0.34L49.862,38.109L49.862,38.109z"/>
	<linearGradient id="SVGID_14_" gradientUnits="userSpaceOnUse" x1="31.668" y1="60.5352" x2="48.0459" y2="60.5352">
		<stop  offset="0" style="stop-color:#C8611D"/>
		<stop  offset="1" style="stop-color:#E6781C"/>
	</linearGradient>
	<polygon fill="url(#SVGID_14_)" points="48.046,59.118 48.046,61.952 48.046,62.833 48.046,77.047 31.668,77.047 31.668,62.833 
		31.668,61.952 31.668,59.118 31.668,55.479 31.668,44.024 48.046,44.024 48.046,55.479 	"/>
	<linearGradient id="SVGID_15_" gradientUnits="userSpaceOnUse" x1="52.1855" y1="60.5352" x2="68.5625" y2="60.5352">
		<stop  offset="0" style="stop-color:#C8611D"/>
		<stop  offset="1" style="stop-color:#E6781C"/>
	</linearGradient>
	<polygon fill="url(#SVGID_15_)" points="68.563,59.118 68.563,61.952 68.563,62.833 68.563,77.047 52.186,77.047 52.186,62.833 
		52.186,61.952 52.186,59.118 52.186,55.479 52.186,44.024 68.563,44.024 68.563,55.479 	"/>
	<polygon fill="#58595B" points="49.688,37.799 49.737,37.884 49.79,37.791 	"/>
	<linearGradient id="SVGID_16_" gradientUnits="userSpaceOnUse" x1="53.5381" y1="34.0986" x2="65.2109" y2="34.0986">
		<stop  offset="0" style="stop-color:#C8611D"/>
		<stop  offset="1" style="stop-color:#E6781C"/>
	</linearGradient>
	<path fill="url(#SVGID_16_)" d="M64.21,31.35c-1.739,2.134-6.976,4.225-10.672,5.497c4.528-0.472,13.813-1.841,11.226-4.982
		C64.596,31.659,64.41,31.491,64.21,31.35L64.21,31.35z"/>
	<linearGradient id="SVGID_17_" gradientUnits="userSpaceOnUse" x1="52.3516" y1="31.8936" x2="62.8818" y2="31.8936">
		<stop  offset="0" style="stop-color:#C8611D"/>
		<stop  offset="1" style="stop-color:#E6781C"/>
	</linearGradient>
	<path fill="url(#SVGID_17_)" d="M62.882,29.865c-0.155-0.22-0.386-0.437-0.707-0.649c-3.663-2.423-7.896,3.015-9.823,5.961
		C55.247,32.973,59.54,30.156,62.882,29.865L62.882,29.865z"/>
	<linearGradient id="SVGID_18_" gradientUnits="userSpaceOnUse" x1="51.373" y1="33.8535" x2="63.0869" y2="33.8535">
		<stop  offset="0" style="stop-color:#C8611D"/>
		<stop  offset="1" style="stop-color:#E6781C"/>
	</linearGradient>
	<path fill="url(#SVGID_18_)" d="M63.087,30.883c-3.86-0.742-10.532,4.965-11.714,6.008C52.359,36.608,62.395,33.663,63.087,30.883
		L63.087,30.883z"/>
	<linearGradient id="SVGID_19_" gradientUnits="userSpaceOnUse" x1="39.6968" y1="30.8916" x2="48.0161" y2="30.8916">
		<stop  offset="0" style="stop-color:#C8611D"/>
		<stop  offset="1" style="stop-color:#E6781C"/>
	</linearGradient>
	<path fill="url(#SVGID_19_)" d="M39.697,27.639c3.261,0.861,6.412,4.729,8.319,7.513c-0.53-2.984-2.299-9.947-7.086-8.262
		C40.35,27.094,39.949,27.348,39.697,27.639L39.697,27.639z"/>
	<linearGradient id="SVGID_20_" gradientUnits="userSpaceOnUse" x1="36.3564" y1="32.7217" x2="47.2021" y2="32.7217">
		<stop  offset="0" style="stop-color:#C8611D"/>
		<stop  offset="1" style="stop-color:#E6781C"/>
	</linearGradient>
	<path fill="url(#SVGID_20_)" d="M47.202,36.643c-2.896-1.8-7.849-5.175-8.988-7.843c-0.304,0.098-0.607,0.243-0.906,0.44
		C33.138,31.997,43.819,35.601,47.202,36.643L47.202,36.643z"/>
	<linearGradient id="SVGID_21_" gradientUnits="userSpaceOnUse" x1="39.3608" y1="32.4141" x2="47.7568" y2="32.4141">
		<stop  offset="0" style="stop-color:#C8611D"/>
		<stop  offset="1" style="stop-color:#E6781C"/>
	</linearGradient>
	<path fill="url(#SVGID_21_)" d="M47.757,36.191c-1.218-2.019-4.826-7.453-8.396-7.554C39.526,31.213,45.976,35.15,47.757,36.191z"
		/>
</g>
</svg>
