<?xml version="1.0" encoding="utf-8"?>
<!-- Generator: Adobe Illustrator 16.0.0, SVG Export Plug-In . SVG Version: 6.00 Build 0)  -->
<!DOCTYPE svg PUBLIC "-//W3C//DTD SVG 1.1//EN" "http://www.w3.org/Graphics/SVG/1.1/DTD/svg11.dtd">
<svg version="1.1" id="圖層_1" xmlns="http://www.w3.org/2000/svg" xmlns:xlink="http://www.w3.org/1999/xlink" x="0px" y="0px"
	 width="100px" height="100px" viewBox="0 0 100 100" enable-background="new 0 0 100 100" xml:space="preserve">
<linearGradient id="SVGID_1_" gradientUnits="userSpaceOnUse" x1="470.5537" y1="-1537.5562" x2="470.5537" y2="-1415.6421" gradientTransform="matrix(0.7745 0 0 -0.7745 -314.4449 -1093.6261)">
	<stop  offset="0" style="stop-color:#FADB7A"/>
	<stop  offset="1" style="stop-color:#F8F6D5"/>
</linearGradient>
<path fill="url(#SVGID_1_)" d="M49.996,2.793c1.512,0,3.002,0.073,4.479,0.202l43.076,35.917c0.891,3.561,1.373,7.274,1.373,11.09
	c0,26-21.979,47.209-48.925,47.209c-26.942,0-48.924-21.205-48.924-47.209C1.075,24,23.057,2.789,49.999,2.789L49.996,2.793z"/>
<linearGradient id="SVGID_2_" gradientUnits="userSpaceOnUse" x1="470.5537" y1="-1537.5571" x2="470.5537" y2="-1415.6421" gradientTransform="matrix(0.7745 0 0 -0.7745 -314.4449 -1093.6261)">
	<stop  offset="0" style="stop-color:#EDAF6D"/>
	<stop  offset="1" style="stop-color:#F7E1C6"/>
</linearGradient>
<path fill="url(#SVGID_2_)" d="M49.996,2.793c1.506,0,3.002,0.073,4.479,0.202C67.012,15.667,81.372,27.64,97.547,38.913
	c0.895,3.561,1.377,7.274,1.377,11.09c0,26-21.979,47.209-48.925,47.209c-26.949,0-48.924-21.205-48.924-47.209
	C1.075,24,23.05,2.789,49.999,2.789L49.996,2.793z"/>
<linearGradient id="SVGID_3_" gradientUnits="userSpaceOnUse" x1="252.2422" y1="-1186.3843" x2="252.2422" y2="-1092.9492" gradientTransform="matrix(1 0 0 -1 -202.2441 -1089.6621)">
	<stop  offset="0" style="stop-color:#F1B97F"/>
	<stop  offset="1" style="stop-color:#F7E4CC"/>
</linearGradient>
<path fill="url(#SVGID_3_)" d="M49.996,3.287c1.643,0,3.26,0.09,4.855,0.255c12.412,12.319,26.438,24.019,42.08,35.095
	c0.963,3.637,1.479,7.449,1.479,11.37c0,25.733-21.751,46.716-48.414,46.716c-26.669,0-48.413-20.988-48.413-46.716
	c0-25.727,21.75-46.716,48.413-46.716V3.287z"/>
<linearGradient id="SVGID_4_" gradientUnits="userSpaceOnUse" x1="252.2363" y1="-1185.8862" x2="252.2363" y2="-1093.4443" gradientTransform="matrix(1 0 0 -1 -202.2441 -1089.6621)">
	<stop  offset="0" style="stop-color:#F3C18B"/>
	<stop  offset="1" style="stop-color:#F8E7CF"/>
</linearGradient>
<path fill="url(#SVGID_4_)" d="M49.996,3.782c1.771,0,3.516,0.102,5.234,0.305c12.283,11.966,25.976,23.388,41.082,34.266
	c1.022,3.717,1.582,7.626,1.582,11.65c0,25.454-21.521,46.222-47.906,46.222c-26.383,0-47.901-20.768-47.901-46.222
	c0-25.455,21.519-46.221,47.901-46.221H49.996L49.996,3.782z"/>
<linearGradient id="SVGID_5_" gradientUnits="userSpaceOnUse" x1="252.2441" y1="-1185.3921" x2="252.2441" y2="-1093.936" gradientTransform="matrix(1 0 0 -1 -202.2441 -1089.6621)">
	<stop  offset="0" style="stop-color:#F3C795"/>
	<stop  offset="1" style="stop-color:#F9E8D2"/>
</linearGradient>
<path fill="url(#SVGID_5_)" d="M49.996,4.274c1.904,0,3.775,0.121,5.619,0.357c12.146,11.613,25.511,22.763,40.09,33.441
	c1.092,3.799,1.682,7.801,1.682,11.931c0,25.188-21.287,45.728-47.388,45.728c-26.101,0-47.388-20.541-47.388-45.728
	c0-25.187,21.291-45.729,47.388-45.729H49.996z"/>
<linearGradient id="SVGID_6_" gradientUnits="userSpaceOnUse" x1="252.2383" y1="-1184.9058" x2="252.2383" y2="-1094.4351" gradientTransform="matrix(1 0 0 -1 -202.2441 -1089.6621)">
	<stop  offset="0" style="stop-color:#F3CD9F"/>
	<stop  offset="1" style="stop-color:#F9EAD4"/>
</linearGradient>
<path fill="url(#SVGID_6_)" d="M49.996,4.773c2.033,0,4.036,0.139,5.999,0.413C68.016,16.444,81.042,27.312,95.083,37.8
	c1.162,3.873,1.788,7.976,1.788,12.207c0,24.915-21.059,45.237-46.875,45.237c-25.82,0-46.88-20.319-46.88-45.237
	C3.116,25.088,24.176,4.773,49.996,4.773z"/>
<linearGradient id="SVGID_7_" gradientUnits="userSpaceOnUse" x1="252.2393" y1="-1184.4146" x2="252.2393" y2="-1094.9229" gradientTransform="matrix(1 0 0 -1 -202.2441 -1089.6621)">
	<stop  offset="0" style="stop-color:#F4D0A6"/>
	<stop  offset="1" style="stop-color:#F9EBD7"/>
</linearGradient>
<path fill="url(#SVGID_7_)" d="M49.996,5.261c2.166,0,4.296,0.162,6.377,0.469c11.891,10.903,24.589,21.502,38.095,31.784
	c1.226,3.961,1.897,8.154,1.897,12.494c0,24.643-20.834,44.745-46.369,44.745c-25.538,0-46.373-20.103-46.373-44.745
	C3.624,25.365,24.453,5.261,49.996,5.261z"/>
<linearGradient id="SVGID_8_" gradientUnits="userSpaceOnUse" x1="252.2461" y1="-1183.9097" x2="252.2461" y2="-1095.415" gradientTransform="matrix(1 0 0 -1 -202.2441 -1089.6621)">
	<stop  offset="0" style="stop-color:#F5D4AC"/>
	<stop  offset="1" style="stop-color:#F9ECD8"/>
</linearGradient>
<path fill="url(#SVGID_8_)" d="M49.996,5.754c2.3,0,4.557,0.18,6.759,0.524c11.759,10.549,24.129,20.867,37.101,30.954
	c1.299,4.037,2,8.328,2,12.77c0,24.369-20.601,44.246-45.854,44.246S4.146,74.371,4.146,50.002c0-24.371,20.6-44.249,45.854-44.249
	L49.996,5.754L49.996,5.754z"/>
<linearGradient id="SVGID_9_" gradientUnits="userSpaceOnUse" x1="252.2402" y1="-1183.4194" x2="252.2402" y2="-1095.9111" gradientTransform="matrix(1 0 0 -1 -202.2441 -1089.6621)">
	<stop  offset="0" style="stop-color:#F5D8B2"/>
	<stop  offset="1" style="stop-color:#F9EDDA"/>
</linearGradient>
<path fill="url(#SVGID_9_)" d="M49.996,6.249c2.432,0,4.814,0.196,7.141,0.574c11.629,10.2,23.663,20.243,36.102,30.129
	c1.357,4.123,2.103,8.508,2.103,13.051c0,24.103-20.37,43.755-45.343,43.755c-24.979,0-45.349-19.652-45.349-43.755
	C4.647,25.9,25.017,6.249,49.996,6.249z"/>
<linearGradient id="SVGID_10_" gradientUnits="userSpaceOnUse" x1="252.2393" y1="-1182.9253" x2="252.2393" y2="-1096.4033" gradientTransform="matrix(1 0 0 -1 -202.2441 -1089.6621)">
	<stop  offset="0" style="stop-color:#F5DBB7"/>
	<stop  offset="1" style="stop-color:#F9EEDB"/>
</linearGradient>
<path fill="url(#SVGID_10_)" d="M49.996,6.741c2.563,0,5.07,0.214,7.523,0.626c11.496,9.843,23.198,19.609,35.103,29.305
	c1.431,4.197,2.203,8.682,2.203,13.331c0,23.83-20.136,43.261-44.829,43.261c-24.696,0-44.833-19.431-44.833-43.261
	C5.164,26.173,25.304,6.741,49.996,6.741z"/>
<linearGradient id="SVGID_11_" gradientUnits="userSpaceOnUse" x1="512.1094" y1="-1594.5952" x2="512.1094" y2="-1479.4624" gradientTransform="matrix(0.743 0 0 -0.743 -330.5048 -1092.0092)">
	<stop  offset="0" style="stop-color:#F6DDBB"/>
	<stop  offset="1" style="stop-color:#F9EFDC"/>
</linearGradient>
<path fill="url(#SVGID_11_)" d="M49.996,7.236c2.693,0,5.332,0.237,7.9,0.683L92.01,36.395c1.494,4.276,2.305,8.857,2.305,13.608
	c0,23.56-19.91,42.772-44.316,42.772c-24.415,0-44.328-19.215-44.328-42.772c0-23.552,19.913-42.771,44.328-42.771L49.996,7.236
	L49.996,7.236z"/>
<path fill="#D4AA80" d="M54.471,2.995c-0.767,41.508,36.307,33.114,43.072,35.917C82.094,27.646,67.732,15.667,54.471,2.995z"/>
<linearGradient id="SVGID_12_" gradientUnits="userSpaceOnUse" x1="503.1572" y1="-1439.5298" x2="494.8117" y2="-1449.3806" gradientTransform="matrix(0.7745 0 0 -0.7745 -313.4922 -1094.1935)">
	<stop  offset="0" style="stop-color:#E7E9EC"/>
	<stop  offset="0.34" style="stop-color:#FBFBFC"/>
	<stop  offset="1" style="stop-color:#FFFFFF"/>
</linearGradient>
<path fill="url(#SVGID_12_)" d="M54.471,2.995c0.094,26.148,26.291,21.412,43.072,35.917L54.471,2.995z"/>
<g>
	<path fill-rule="evenodd" clip-rule="evenodd" fill="#D8B22D" d="M50.331,41.102c-0.283-0.428-0.706-9.949-4.846-10.807
		c-4.14-0.857-6.68,4.545-6.021,8.32c0.659,3.773,7.433,3.517,8.515,3.43C49.061,41.96,50.331,41.102,50.331,41.102L50.331,41.102z
		 M49.578,40.937c0,0-0.67,0.725-1.241,0.798c-0.571,0.072-4.144,0.29-4.492-2.901c-0.347-3.191,0.993-7.76,3.176-7.035
		C49.206,32.524,49.429,40.574,49.578,40.937z"/>
	<path fill-rule="evenodd" clip-rule="evenodd" fill="#D8B22D" d="M50.331,41.102c0.324-0.428,0.808-9.949,5.556-10.807
		c4.746-0.857,7.66,4.545,6.904,8.32c-0.755,3.773-8.522,3.517-9.764,3.43C51.786,41.96,50.331,41.102,50.331,41.102L50.331,41.102z
		 M51.193,40.937c0,0,0.768,0.725,1.423,0.798c0.655,0.072,4.752,0.29,5.15-2.901c0.399-3.191-1.139-7.76-3.642-7.035
		C51.621,32.524,51.365,40.574,51.193,40.937z"/>
	<linearGradient id="SVGID_13_" gradientUnits="userSpaceOnUse" x1="49.9917" y1="102.1484" x2="49.9917" y2="51.4041">
		<stop  offset="0" style="stop-color:#AFC206"/>
		<stop  offset="1" style="stop-color:#FFFFFF"/>
	</linearGradient>
	<rect x="29.387" y="53.04" fill-rule="evenodd" clip-rule="evenodd" fill="url(#SVGID_13_)" width="41.208" height="27.064"/>
	<g>
		<linearGradient id="SVGID_14_" gradientUnits="userSpaceOnUse" x1="52.4717" y1="68.374" x2="34.9961" y2="55.6773">
			<stop  offset="0" style="stop-color:#8BA526"/>
			<stop  offset="1" style="stop-color:#AFC206"/>
		</linearGradient>
		<rect x="30.115" y="53.04" fill-rule="evenodd" clip-rule="evenodd" fill="url(#SVGID_14_)" width="39.752" height="27.064"/>
		<linearGradient id="SVGID_15_" gradientUnits="userSpaceOnUse" x1="68.3486" y1="79.9102" x2="52.7464" y2="68.5745">
			<stop  offset="0" style="stop-color:#8BA526"/>
			<stop  offset="1" style="stop-color:#AFC206"/>
		</linearGradient>
		<path fill-rule="evenodd" clip-rule="evenodd" fill="url(#SVGID_15_)" d="M69.867,53.04h-9.82l0.076,0.029
			c0,0,2.005,7.807-8.946,16.232c-4.956,3.813-13.352,7.548-21.062,10.496v0.307h39.752V53.04z"/>
	</g>
	<linearGradient id="SVGID_16_" gradientUnits="userSpaceOnUse" x1="47.7998" y1="44.6982" x2="55.6913" y2="57.3272">
		<stop  offset="0" style="stop-color:#8BA526"/>
		<stop  offset="1" style="stop-color:#AFC206"/>
	</linearGradient>
	<rect x="28.218" y="43.37" fill-rule="evenodd" clip-rule="evenodd" fill="url(#SVGID_16_)" width="43.547" height="9.67"/>
	<linearGradient id="SVGID_17_" gradientUnits="userSpaceOnUse" x1="41.2593" y1="41.3589" x2="47.3647" y2="54.4519">
		<stop  offset="0" style="stop-color:#AFC206"/>
		<stop  offset="1" style="stop-color:#FFFFFF"/>
	</linearGradient>
	<path fill-rule="evenodd" clip-rule="evenodd" fill="url(#SVGID_17_)" d="M28.217,53.04h11.226
		c1.083-0.499,12.77-5.882,21.242-9.669H28.217V53.04z"/>
	<rect x="30.115" y="53.04" fill-rule="evenodd" clip-rule="evenodd" fill="#8AA02A" width="39.752" height="1.145"/>
	<linearGradient id="SVGID_18_" gradientUnits="userSpaceOnUse" x1="49.9917" y1="44.9043" x2="49.9917" y2="42.3973">
		<stop  offset="0" style="stop-color:#AFC206"/>
		<stop  offset="1" style="stop-color:#FFFFFF"/>
	</linearGradient>
	<rect x="28.218" y="42.479" fill-rule="evenodd" clip-rule="evenodd" fill="url(#SVGID_18_)" width="43.547" height="1.337"/>
	<linearGradient id="SVGID_19_" gradientUnits="userSpaceOnUse" x1="49.9922" y1="70.2588" x2="49.9922" y2="39.4582">
		<stop  offset="0" style="stop-color:#FAD115"/>
		<stop  offset="0.2038" style="stop-color:#FAD218"/>
		<stop  offset="0.3422" style="stop-color:#FAD321"/>
		<stop  offset="0.4611" style="stop-color:#FBD630"/>
		<stop  offset="0.5691" style="stop-color:#FBDB46"/>
		<stop  offset="0.6697" style="stop-color:#FCE061"/>
		<stop  offset="0.7649" style="stop-color:#FCE784"/>
		<stop  offset="0.8558" style="stop-color:#FDEFAD"/>
		<stop  offset="0.9409" style="stop-color:#FEF8DA"/>
		<stop  offset="1" style="stop-color:#FFFFFF"/>
	</linearGradient>
	<rect x="45.298" y="42.478" fill-rule="evenodd" clip-rule="evenodd" fill="url(#SVGID_19_)" width="9.387" height="38.031"/>
	<linearGradient id="SVGID_20_" gradientUnits="userSpaceOnUse" x1="50.7402" y1="80.8193" x2="49.482" y2="66.4372">
		<stop  offset="0" style="stop-color:#FAD115"/>
		<stop  offset="1" style="stop-color:#FFFFFF"/>
	</linearGradient>
	<path fill-rule="evenodd" clip-rule="evenodd" fill="url(#SVGID_20_)" d="M54.684,64.008v16.501h-9.386V71.57
		c1.359-0.881,2.625-1.767,3.781-2.656C51.232,67.259,53.084,65.616,54.684,64.008z"/>
	<linearGradient id="SVGID_21_" gradientUnits="userSpaceOnUse" x1="40.334" y1="38.9185" x2="40.1669" y2="29.3455">
		<stop  offset="0" style="stop-color:#FAD115"/>
		<stop  offset="0.2038" style="stop-color:#FAD218"/>
		<stop  offset="0.3422" style="stop-color:#FAD321"/>
		<stop  offset="0.4611" style="stop-color:#FBD630"/>
		<stop  offset="0.5691" style="stop-color:#FBDB46"/>
		<stop  offset="0.6697" style="stop-color:#FCE061"/>
		<stop  offset="0.7649" style="stop-color:#FCE784"/>
		<stop  offset="0.8558" style="stop-color:#FDEFAD"/>
		<stop  offset="0.9409" style="stop-color:#FEF8DA"/>
		<stop  offset="1" style="stop-color:#FFFFFF"/>
	</linearGradient>
	<path fill-rule="evenodd" clip-rule="evenodd" fill="url(#SVGID_21_)" d="M50.331,41.102c-0.515-0.428-1.285-9.949-8.826-10.807
		c-7.54-0.857-12.167,4.545-10.967,8.32c1.2,3.773,13.538,3.517,15.509,3.43C48.017,41.96,50.331,41.102,50.331,41.102
		L50.331,41.102z M48.959,40.937c0,0-1.22,0.725-2.26,0.798c-1.04,0.072-7.548,0.29-8.181-2.901
		c-0.633-3.191,1.809-7.76,5.786-7.035C48.281,32.524,48.688,40.574,48.959,40.937z"/>
	<linearGradient id="SVGID_22_" gradientUnits="userSpaceOnUse" x1="47.124" y1="29.7983" x2="36.7866" y2="38.7845">
		<stop  offset="0" style="stop-color:#FAD115"/>
		<stop  offset="0.2038" style="stop-color:#FAD218"/>
		<stop  offset="0.3422" style="stop-color:#FAD321"/>
		<stop  offset="0.4611" style="stop-color:#FBD630"/>
		<stop  offset="0.5691" style="stop-color:#FBDB46"/>
		<stop  offset="0.6697" style="stop-color:#FCE061"/>
		<stop  offset="0.7649" style="stop-color:#FCE784"/>
		<stop  offset="0.8558" style="stop-color:#FDEFAD"/>
		<stop  offset="0.9409" style="stop-color:#FEF8DA"/>
		<stop  offset="1" style="stop-color:#FFFFFF"/>
	</linearGradient>
	<path fill-rule="evenodd" clip-rule="evenodd" fill="url(#SVGID_22_)" d="M49.238,37.541c-1.036-2.945-3.115-6.72-7.733-7.245
		c-4.777-0.543-8.385,1.428-10.082,3.905c2.136,0.695,4.56,1.375,7.209,1.941c0.649-2.542,2.744-4.876,5.672-4.342
		c2.295,0.418,3.401,3.276,3.979,5.688C48.6,37.507,48.918,37.525,49.238,37.541z"/>
	<linearGradient id="SVGID_23_" gradientUnits="userSpaceOnUse" x1="60.3311" y1="38.979" x2="60.6652" y2="29.41">
		<stop  offset="0" style="stop-color:#FAD115"/>
		<stop  offset="0.2038" style="stop-color:#FAD218"/>
		<stop  offset="0.3422" style="stop-color:#FAD321"/>
		<stop  offset="0.4611" style="stop-color:#FBD630"/>
		<stop  offset="0.5691" style="stop-color:#FBDB46"/>
		<stop  offset="0.6697" style="stop-color:#FCE061"/>
		<stop  offset="0.7649" style="stop-color:#FCE784"/>
		<stop  offset="0.8558" style="stop-color:#FDEFAD"/>
		<stop  offset="0.9409" style="stop-color:#FEF8DA"/>
		<stop  offset="1" style="stop-color:#FFFFFF"/>
	</linearGradient>
	<path fill-rule="evenodd" clip-rule="evenodd" fill="url(#SVGID_23_)" d="M50.331,41.102c0.513-0.428,1.286-9.949,8.826-10.807
		c7.539-0.857,12.166,4.545,10.967,8.32c-1.2,3.773-13.537,3.517-15.508,3.43C52.645,41.96,50.331,41.102,50.331,41.102
		L50.331,41.102z M51.701,40.937c0,0,1.221,0.725,2.26,0.798c1.039,0.072,7.549,0.29,8.181-2.901
		c0.633-3.191-1.808-7.76-5.785-7.035C52.379,32.524,51.973,40.574,51.701,40.937z"/>
	<linearGradient id="SVGID_24_" gradientUnits="userSpaceOnUse" x1="53.7568" y1="31.6523" x2="64.9422" y2="38.1102">
		<stop  offset="0" style="stop-color:#FAD115"/>
		<stop  offset="0.2038" style="stop-color:#FAD218"/>
		<stop  offset="0.3422" style="stop-color:#FAD321"/>
		<stop  offset="0.4611" style="stop-color:#FBD630"/>
		<stop  offset="0.5691" style="stop-color:#FBDB46"/>
		<stop  offset="0.6697" style="stop-color:#FCE061"/>
		<stop  offset="0.7649" style="stop-color:#FCE784"/>
		<stop  offset="0.8558" style="stop-color:#FDEFAD"/>
		<stop  offset="0.9409" style="stop-color:#FEF8DA"/>
		<stop  offset="1" style="stop-color:#FFFFFF"/>
	</linearGradient>
	<path fill-rule="evenodd" clip-rule="evenodd" fill="url(#SVGID_24_)" d="M51.4,37.606c1.028-2.955,3.104-6.782,7.756-7.311
		c5.151-0.586,8.942,1.752,10.444,4.495c-2.505,0.852-4.996,1.485-7.449,1.932c-0.459-2.752-2.646-5.498-5.795-4.923
		c-2.334,0.425-3.438,3.374-4.007,5.81C52.031,37.611,51.716,37.609,51.4,37.606z"/>
	<linearGradient id="SVGID_25_" gradientUnits="userSpaceOnUse" x1="49.8838" y1="40.8159" x2="49.948" y2="37.1363">
		<stop  offset="0" style="stop-color:#FAD115"/>
		<stop  offset="0.2038" style="stop-color:#FAD218"/>
		<stop  offset="0.3422" style="stop-color:#FAD321"/>
		<stop  offset="0.4611" style="stop-color:#FBD630"/>
		<stop  offset="0.5691" style="stop-color:#FBDB46"/>
		<stop  offset="0.6697" style="stop-color:#FCE061"/>
		<stop  offset="0.7649" style="stop-color:#FCE784"/>
		<stop  offset="0.8558" style="stop-color:#FDEFAD"/>
		<stop  offset="0.9409" style="stop-color:#FEF8DA"/>
		<stop  offset="1" style="stop-color:#FFFFFF"/>
	</linearGradient>
	<path fill-rule="evenodd" clip-rule="evenodd" fill="url(#SVGID_25_)" d="M49.903,41.997c1.238,0,2.247-1.01,2.247-2.25
		c0-1.239-1.009-2.249-2.247-2.249c-1.24,0-2.25,1.01-2.25,2.249C47.653,40.987,48.664,41.997,49.903,41.997z"/>
</g>
</svg>
