<?xml version="1.0" encoding="utf-8"?>
<!-- Generator: Adobe Illustrator 16.0.0, SVG Export Plug-In . SVG Version: 6.00 Build 0)  -->
<!DOCTYPE svg PUBLIC "-//W3C//DTD SVG 1.1//EN" "http://www.w3.org/Graphics/SVG/1.1/DTD/svg11.dtd">
<svg version="1.1" id="圖層_1" xmlns="http://www.w3.org/2000/svg" xmlns:xlink="http://www.w3.org/1999/xlink" x="0px" y="0px"
	 width="100px" height="100px" viewBox="0 0 100 100" enable-background="new 0 0 100 100" xml:space="preserve">
<linearGradient id="SVGID_1_" gradientUnits="userSpaceOnUse" x1="470.5537" y1="-1537.5562" x2="470.5537" y2="-1415.6421" gradientTransform="matrix(0.7745 0 0 -0.7745 -314.4449 -1093.6261)">
	<stop  offset="0" style="stop-color:#FADB7A"/>
	<stop  offset="1" style="stop-color:#F8F6D5"/>
</linearGradient>
<path fill="url(#SVGID_1_)" d="M49.996,2.793c1.512,0,3.002,0.073,4.479,0.202l43.076,35.917c0.891,3.561,1.373,7.274,1.373,11.09
	c0,26-21.979,47.209-48.925,47.209c-26.942,0-48.924-21.205-48.924-47.209C1.075,24,23.057,2.789,49.999,2.789L49.996,2.793z"/>
<linearGradient id="SVGID_2_" gradientUnits="userSpaceOnUse" x1="470.5537" y1="-1537.5571" x2="470.5537" y2="-1415.6421" gradientTransform="matrix(0.7745 0 0 -0.7745 -314.4449 -1093.6261)">
	<stop  offset="0" style="stop-color:#EDAF6D"/>
	<stop  offset="1" style="stop-color:#F7E1C6"/>
</linearGradient>
<path fill="url(#SVGID_2_)" d="M49.996,2.793c1.506,0,3.002,0.073,4.479,0.202C67.012,15.667,81.372,27.64,97.547,38.913
	c0.895,3.561,1.377,7.274,1.377,11.09c0,26-21.979,47.209-48.925,47.209c-26.949,0-48.924-21.205-48.924-47.209
	C1.075,24,23.05,2.789,49.999,2.789L49.996,2.793z"/>
<linearGradient id="SVGID_3_" gradientUnits="userSpaceOnUse" x1="252.2422" y1="-1186.3843" x2="252.2422" y2="-1092.9492" gradientTransform="matrix(1 0 0 -1 -202.2441 -1089.6621)">
	<stop  offset="0" style="stop-color:#F1B97F"/>
	<stop  offset="1" style="stop-color:#F7E4CC"/>
</linearGradient>
<path fill="url(#SVGID_3_)" d="M49.996,3.287c1.643,0,3.26,0.09,4.855,0.255c12.412,12.319,26.438,24.019,42.08,35.095
	c0.963,3.637,1.479,7.449,1.479,11.37c0,25.733-21.751,46.716-48.414,46.716c-26.669,0-48.413-20.988-48.413-46.716
	c0-25.727,21.75-46.716,48.413-46.716V3.287z"/>
<linearGradient id="SVGID_4_" gradientUnits="userSpaceOnUse" x1="252.2363" y1="-1185.8862" x2="252.2363" y2="-1093.4443" gradientTransform="matrix(1 0 0 -1 -202.2441 -1089.6621)">
	<stop  offset="0" style="stop-color:#F3C18B"/>
	<stop  offset="1" style="stop-color:#F8E7CF"/>
</linearGradient>
<path fill="url(#SVGID_4_)" d="M49.996,3.782c1.771,0,3.516,0.102,5.234,0.305c12.283,11.966,25.976,23.388,41.082,34.266
	c1.022,3.717,1.582,7.626,1.582,11.65c0,25.454-21.521,46.222-47.906,46.222c-26.383,0-47.901-20.768-47.901-46.222
	c0-25.455,21.519-46.221,47.901-46.221H49.996L49.996,3.782z"/>
<linearGradient id="SVGID_5_" gradientUnits="userSpaceOnUse" x1="252.2441" y1="-1185.3921" x2="252.2441" y2="-1093.936" gradientTransform="matrix(1 0 0 -1 -202.2441 -1089.6621)">
	<stop  offset="0" style="stop-color:#F3C795"/>
	<stop  offset="1" style="stop-color:#F9E8D2"/>
</linearGradient>
<path fill="url(#SVGID_5_)" d="M49.996,4.274c1.904,0,3.775,0.121,5.619,0.357c12.146,11.613,25.511,22.763,40.09,33.441
	c1.092,3.799,1.682,7.801,1.682,11.931c0,25.188-21.287,45.728-47.388,45.728c-26.101,0-47.388-20.541-47.388-45.728
	c0-25.187,21.291-45.729,47.388-45.729H49.996z"/>
<linearGradient id="SVGID_6_" gradientUnits="userSpaceOnUse" x1="252.2383" y1="-1184.9058" x2="252.2383" y2="-1094.4351" gradientTransform="matrix(1 0 0 -1 -202.2441 -1089.6621)">
	<stop  offset="0" style="stop-color:#F3CD9F"/>
	<stop  offset="1" style="stop-color:#F9EAD4"/>
</linearGradient>
<path fill="url(#SVGID_6_)" d="M49.996,4.773c2.033,0,4.036,0.139,5.999,0.413C68.016,16.444,81.042,27.312,95.083,37.8
	c1.162,3.873,1.788,7.976,1.788,12.207c0,24.915-21.059,45.237-46.875,45.237c-25.82,0-46.88-20.319-46.88-45.237
	C3.116,25.088,24.176,4.773,49.996,4.773z"/>
<linearGradient id="SVGID_7_" gradientUnits="userSpaceOnUse" x1="252.2393" y1="-1184.4146" x2="252.2393" y2="-1094.9229" gradientTransform="matrix(1 0 0 -1 -202.2441 -1089.6621)">
	<stop  offset="0" style="stop-color:#F4D0A6"/>
	<stop  offset="1" style="stop-color:#F9EBD7"/>
</linearGradient>
<path fill="url(#SVGID_7_)" d="M49.996,5.261c2.166,0,4.296,0.162,6.377,0.469c11.891,10.903,24.589,21.502,38.095,31.784
	c1.226,3.961,1.897,8.154,1.897,12.494c0,24.643-20.834,44.745-46.369,44.745c-25.538,0-46.373-20.103-46.373-44.745
	C3.624,25.365,24.453,5.261,49.996,5.261z"/>
<linearGradient id="SVGID_8_" gradientUnits="userSpaceOnUse" x1="252.2461" y1="-1183.9097" x2="252.2461" y2="-1095.415" gradientTransform="matrix(1 0 0 -1 -202.2441 -1089.6621)">
	<stop  offset="0" style="stop-color:#F5D4AC"/>
	<stop  offset="1" style="stop-color:#F9ECD8"/>
</linearGradient>
<path fill="url(#SVGID_8_)" d="M49.996,5.754c2.3,0,4.557,0.18,6.759,0.524c11.759,10.549,24.129,20.867,37.101,30.954
	c1.299,4.037,2,8.328,2,12.77c0,24.369-20.601,44.246-45.854,44.246S4.146,74.371,4.146,50.002c0-24.371,20.6-44.249,45.854-44.249
	L49.996,5.754L49.996,5.754z"/>
<linearGradient id="SVGID_9_" gradientUnits="userSpaceOnUse" x1="252.2402" y1="-1183.4194" x2="252.2402" y2="-1095.9111" gradientTransform="matrix(1 0 0 -1 -202.2441 -1089.6621)">
	<stop  offset="0" style="stop-color:#F5D8B2"/>
	<stop  offset="1" style="stop-color:#F9EDDA"/>
</linearGradient>
<path fill="url(#SVGID_9_)" d="M49.996,6.249c2.432,0,4.814,0.196,7.141,0.574c11.629,10.2,23.663,20.243,36.102,30.129
	c1.357,4.123,2.103,8.508,2.103,13.051c0,24.103-20.37,43.755-45.343,43.755c-24.979,0-45.349-19.652-45.349-43.755
	C4.647,25.9,25.017,6.249,49.996,6.249z"/>
<linearGradient id="SVGID_10_" gradientUnits="userSpaceOnUse" x1="252.2393" y1="-1182.9253" x2="252.2393" y2="-1096.4033" gradientTransform="matrix(1 0 0 -1 -202.2441 -1089.6621)">
	<stop  offset="0" style="stop-color:#F5DBB7"/>
	<stop  offset="1" style="stop-color:#F9EEDB"/>
</linearGradient>
<path fill="url(#SVGID_10_)" d="M49.996,6.741c2.563,0,5.07,0.214,7.523,0.626c11.496,9.843,23.198,19.609,35.103,29.305
	c1.431,4.197,2.203,8.682,2.203,13.331c0,23.83-20.136,43.261-44.829,43.261c-24.696,0-44.833-19.431-44.833-43.261
	C5.164,26.173,25.304,6.741,49.996,6.741z"/>
<linearGradient id="SVGID_11_" gradientUnits="userSpaceOnUse" x1="512.1094" y1="-1594.5952" x2="512.1094" y2="-1479.4624" gradientTransform="matrix(0.743 0 0 -0.743 -330.5048 -1092.0092)">
	<stop  offset="0" style="stop-color:#F6DDBB"/>
	<stop  offset="1" style="stop-color:#F9EFDC"/>
</linearGradient>
<path fill="url(#SVGID_11_)" d="M49.996,7.236c2.693,0,5.332,0.237,7.9,0.683L92.01,36.395c1.494,4.276,2.305,8.857,2.305,13.608
	c0,23.56-19.91,42.772-44.316,42.772c-24.415,0-44.328-19.215-44.328-42.772c0-23.552,19.913-42.771,44.328-42.771L49.996,7.236
	L49.996,7.236z"/>
<path fill="#D4AA80" d="M54.471,2.995c-0.767,41.508,36.307,33.114,43.072,35.917C82.094,27.646,67.732,15.667,54.471,2.995z"/>
<linearGradient id="SVGID_12_" gradientUnits="userSpaceOnUse" x1="503.1572" y1="-1439.5298" x2="494.8117" y2="-1449.3806" gradientTransform="matrix(0.7745 0 0 -0.7745 -313.4922 -1094.1935)">
	<stop  offset="0" style="stop-color:#E7E9EC"/>
	<stop  offset="0.34" style="stop-color:#FBFBFC"/>
	<stop  offset="1" style="stop-color:#FFFFFF"/>
</linearGradient>
<path fill="url(#SVGID_12_)" d="M54.471,2.995c0.094,26.148,26.291,21.412,43.072,35.917L54.471,2.995z"/>
<linearGradient id="SVGID_13_" gradientUnits="userSpaceOnUse" x1="48.1929" y1="34.1089" x2="48.1929" y2="66.2262">
	<stop  offset="0" style="stop-color:#FFFFC3"/>
	<stop  offset="0.3879" style="stop-color:#FFDA00"/>
	<stop  offset="0.5195" style="stop-color:#FAD300"/>
	<stop  offset="0.712" style="stop-color:#EDBF00"/>
	<stop  offset="0.9408" style="stop-color:#D89F00"/>
	<stop  offset="1" style="stop-color:#D29600"/>
</linearGradient>
<path fill="url(#SVGID_13_)" d="M48.193,33.262c7.329,0,13.27,5.942,13.27,13.271c0,7.892-5.893,12.279-13.27,19.609
	c-7.549-7.273-13.271-11.584-13.271-19.609C34.923,39.204,40.865,33.262,48.193,33.262"/>
<linearGradient id="SVGID_14_" gradientUnits="userSpaceOnUse" x1="39.7324" y1="59.9678" x2="51.5938" y2="59.9678">
	<stop  offset="0" style="stop-color:#FFFFFF"/>
	<stop  offset="0.1654" style="stop-color:#FFFEEF"/>
	<stop  offset="0.4886" style="stop-color:#FFFCC5"/>
	<stop  offset="0.9343" style="stop-color:#FFF882"/>
	<stop  offset="1" style="stop-color:#FFF778"/>
</linearGradient>
<path fill="url(#SVGID_14_)" d="M48.293,62.65c-0.725-0.046-5.879-4.28-8.561-6.95c1.689,2.144,3.94,4.27,6.588,6.768
	c0.606,0.572,1.227,1.158,1.863,1.768c0.233-0.23,3.181-3.084,3.411-3.307C50.349,61.765,49.019,62.694,48.293,62.65z"/>
<radialGradient id="SVGID_15_" cx="44.0391" cy="37.0967" r="10.4519" gradientUnits="userSpaceOnUse">
	<stop  offset="0" style="stop-color:#FFFFFF"/>
	<stop  offset="0.1654" style="stop-color:#FFFEEF"/>
	<stop  offset="0.4886" style="stop-color:#FFFCC5"/>
	<stop  offset="0.9343" style="stop-color:#FFF882"/>
	<stop  offset="1" style="stop-color:#FFF778"/>
</radialGradient>
<path fill="url(#SVGID_15_)" d="M40.582,38.565c1.986-1.875,4.664-3.024,7.611-3.024c0.066,0,0.133,0.003,0.199,0.004l-0.005,0.831
	c-2.908,0.145-5.455,1.177-7.548,3.091L40.582,38.565z M50.025,35.694l-0.043,0.702c1.896,0.157,3.711,0.805,5.271,1.68
	C53.781,36.861,51.989,36.021,50.025,35.694z M38.308,41.607c-0.644,1.262-1.057,2.661-1.174,4.145
	c0.323-1.223,0.798-2.438,1.435-3.521L38.308,41.607z M39.833,39.351c-0.348,0.399-0.67,0.821-0.958,1.266l0.275,0.729
	c0.071-0.097,0.139-0.196,0.213-0.289c0.239-0.302,0.489-0.585,0.744-0.857L39.833,39.351z"/>
<g>
	<radialGradient id="SVGID_16_" cx="48.1118" cy="39.853" r="15.6018" gradientUnits="userSpaceOnUse">
		<stop  offset="0" style="stop-color:#F5F5F5"/>
		<stop  offset="0.3042" style="stop-color:#F2F2F2"/>
		<stop  offset="0.5387" style="stop-color:#E8E8E8"/>
		<stop  offset="0.7498" style="stop-color:#D8D8D8"/>
		<stop  offset="0.9461" style="stop-color:#C1C1C1"/>
		<stop  offset="1" style="stop-color:#B9B9B9"/>
	</radialGradient>
	<circle fill="url(#SVGID_16_)" cx="48.193" cy="46.901" r="8.985"/>
	<radialGradient id="SVGID_17_" cx="48.1245" cy="50.4424" r="7.4835" gradientUnits="userSpaceOnUse">
		<stop  offset="0" style="stop-color:#FFFFFF"/>
		<stop  offset="0.2834" style="stop-color:#F7F7F8"/>
		<stop  offset="0.7207" style="stop-color:#E1E3E3"/>
		<stop  offset="1" style="stop-color:#D0D2D3"/>
	</radialGradient>
	<path fill="url(#SVGID_17_)" d="M48.193,52.831c-2.914,0-5.57-1.107-7.569-2.925c1.265,2.928,4.177,4.977,7.569,4.977
		c3.392,0,6.305-2.049,7.57-4.977C53.764,51.724,51.107,52.831,48.193,52.831z"/>
	<g>
		<path fill="#FFFFFF" d="M40.663,45.351c0.25-0.325,0.52-0.634,0.805-0.928l-0.539-1.673c-0.269,0.5-0.488,1.031-0.649,1.588
			L40.663,45.351z"/>
		<path fill="#FFFFFF" d="M42.084,43.84c1.693-1.471,3.875-2.387,6.27-2.479l0.02-2.96c-0.06-0.001-0.12-0.004-0.181-0.004
			c-2.752,0-5.188,1.351-6.684,3.425L42.084,43.84z"/>
		<path fill="#FFFFFF" d="M49.847,38.564l-0.175,2.825c2.554,0.229,4.835,1.397,6.496,3.159
			C55.379,41.532,52.924,39.191,49.847,38.564z"/>
		<path fill="#FFFFFF" d="M40.01,45.685c-0.056,0.511-0.083,0.828-0.04,1.526c0.007-0.35,0.091-0.911,0.199-1.146L40.01,45.685z"/>
	</g>
</g>
<g>
	<g>
		<linearGradient id="SVGID_18_" gradientUnits="userSpaceOnUse" x1="31.7695" y1="33.9219" x2="31.7695" y2="66.0397">
			<stop  offset="0" style="stop-color:#D3FFC3"/>
			<stop  offset="0.3879" style="stop-color:#54F500"/>
			<stop  offset="0.5011" style="stop-color:#51EE00"/>
			<stop  offset="0.6666" style="stop-color:#4ADA00"/>
			<stop  offset="0.8632" style="stop-color:#3FBA00"/>
			<stop  offset="1" style="stop-color:#35A000"/>
		</linearGradient>
		<path fill="url(#SVGID_18_)" d="M45.04,46.345c0,7.893-5.892,12.28-13.27,19.61C24.221,58.681,18.5,54.37,18.5,46.345
			c0-7.329,5.942-13.27,13.27-13.27C39.099,33.075,45.04,39.016,45.04,46.345z"/>
		<linearGradient id="SVGID_19_" gradientUnits="userSpaceOnUse" x1="19.9204" y1="49.3271" x2="43.6191" y2="49.3271">
			<stop  offset="0" style="stop-color:#43C800"/>
			<stop  offset="0.2305" style="stop-color:#4AD600"/>
			<stop  offset="0.4303" style="stop-color:#4DDD00"/>
			<stop  offset="0.6799" style="stop-color:#4BD900"/>
			<stop  offset="0.9224" style="stop-color:#46CD00"/>
			<stop  offset="1" style="stop-color:#43C800"/>
		</linearGradient>
		<path fill="url(#SVGID_19_)" d="M31.76,64.047c-0.637-0.608-1.257-1.193-1.863-1.766c-6.008-5.672-9.976-9.417-9.976-15.824
			c0-6.533,5.315-11.849,11.849-11.849c6.534,0,11.85,5.316,11.85,11.849c0,6.137-4.028,10.021-9.602,15.399
			C33.285,62.563,32.533,63.287,31.76,64.047L31.76,64.047z"/>
		<linearGradient id="SVGID_20_" gradientUnits="userSpaceOnUse" x1="19.9204" y1="49.3271" x2="43.6191" y2="49.3271">
			<stop  offset="0" style="stop-color:#43C800"/>
			<stop  offset="0.4364" style="stop-color:#6BEB0F"/>
			<stop  offset="0.6166" style="stop-color:#67E80E"/>
			<stop  offset="0.792" style="stop-color:#5BDD09"/>
			<stop  offset="0.9649" style="stop-color:#48CC02"/>
			<stop  offset="1" style="stop-color:#43C800"/>
		</linearGradient>
		<path fill="url(#SVGID_20_)" d="M31.76,64.047c-0.637-0.608-1.257-1.193-1.863-1.766c-6.008-5.672-9.976-9.417-9.976-15.824
			c0-6.533,5.315-11.849,11.849-11.849c6.534,0,11.85,5.316,11.85,11.849c0,6.137-4.028,10.021-9.602,15.399
			C33.285,62.563,32.533,63.287,31.76,64.047L31.76,64.047z"/>
		<linearGradient id="SVGID_21_" gradientUnits="userSpaceOnUse" x1="23.3091" y1="59.7793" x2="35.1704" y2="59.7793">
			<stop  offset="0" style="stop-color:#FFFFFF"/>
			<stop  offset="0.1654" style="stop-color:#F3FDEF"/>
			<stop  offset="0.4886" style="stop-color:#D3F9C5"/>
			<stop  offset="0.9343" style="stop-color:#A0F182"/>
			<stop  offset="1" style="stop-color:#98F078"/>
		</linearGradient>
		<path fill="url(#SVGID_21_)" d="M31.87,62.462c-0.725-0.045-5.879-4.28-8.561-6.95c1.689,2.145,3.94,4.271,6.587,6.77
			c0.606,0.572,1.227,1.157,1.863,1.766c0.233-0.229,3.181-3.083,3.411-3.306C33.925,61.577,32.595,62.508,31.87,62.462z"/>
		<g>
			<defs>
				<filter id="Adobe_OpacityMaskFilter" filterUnits="userSpaceOnUse" x="21.406" y="36.352" width="20.727" height="20.727">
					<feFlood  style="flood-color:white;flood-opacity:1" result="back"/>
					<feBlend  in="SourceGraphic" in2="back" mode="normal"/>
				</filter>
			</defs>
			<mask maskUnits="userSpaceOnUse" x="21.406" y="36.352" width="20.727" height="20.727" id="SVGID_22_">
				<g filter="url(#Adobe_OpacityMaskFilter)">
					<image overflow="visible" width="26" height="26" xlink:href="7EB69459.jpg"  transform="matrix(1 0 0 1 18.5 33.5)">
					</image>
				</g>
			</mask>
			<g mask="url(#SVGID_22_)">
				<circle fill="#2E8C00" cx="31.77" cy="46.715" r="10.364"/>
			</g>
		</g>
		<radialGradient id="SVGID_23_" cx="27.6162" cy="36.9097" r="10.4521" gradientUnits="userSpaceOnUse">
			<stop  offset="0" style="stop-color:#FFFFFF"/>
			<stop  offset="0.1654" style="stop-color:#F3FDEF"/>
			<stop  offset="0.4886" style="stop-color:#D3F9C5"/>
			<stop  offset="0.9343" style="stop-color:#A0F182"/>
			<stop  offset="1" style="stop-color:#98F078"/>
		</radialGradient>
		<path fill="url(#SVGID_23_)" d="M24.159,38.378c1.986-1.874,4.664-3.023,7.611-3.023c0.066,0,0.133,0.003,0.2,0.004l-0.005,0.831
			c-2.908,0.144-5.455,1.177-7.548,3.091L24.159,38.378z M33.601,35.507l-0.043,0.702c1.896,0.156,3.711,0.805,5.271,1.679
			C37.357,36.674,35.566,35.833,33.601,35.507z M21.884,41.42c-0.644,1.263-1.057,2.662-1.174,4.146
			c0.324-1.224,0.798-2.438,1.435-3.521L21.884,41.42z M23.41,39.164c-0.348,0.399-0.669,0.821-0.958,1.267l0.275,0.729
			c0.07-0.097,0.139-0.195,0.213-0.289c0.239-0.302,0.488-0.585,0.743-0.857L23.41,39.164z"/>
	</g>
	<g>
		<radialGradient id="SVGID_24_" cx="31.688" cy="39.666" r="15.6022" gradientUnits="userSpaceOnUse">
			<stop  offset="0" style="stop-color:#F5F5F5"/>
			<stop  offset="0.3042" style="stop-color:#F2F2F2"/>
			<stop  offset="0.5387" style="stop-color:#E8E8E8"/>
			<stop  offset="0.7498" style="stop-color:#D8D8D8"/>
			<stop  offset="0.9461" style="stop-color:#C1C1C1"/>
			<stop  offset="1" style="stop-color:#B9B9B9"/>
		</radialGradient>
		<circle fill="url(#SVGID_24_)" cx="31.77" cy="46.715" r="8.985"/>
		<radialGradient id="SVGID_25_" cx="31.7007" cy="50.2554" r="7.4845" gradientUnits="userSpaceOnUse">
			<stop  offset="0" style="stop-color:#FFFFFF"/>
			<stop  offset="0.2834" style="stop-color:#F7F7F8"/>
			<stop  offset="0.7207" style="stop-color:#E1E3E3"/>
			<stop  offset="1" style="stop-color:#D0D2D3"/>
		</radialGradient>
		<path fill="url(#SVGID_25_)" d="M31.77,52.645c-2.915,0-5.57-1.107-7.569-2.925c1.265,2.928,4.177,4.978,7.569,4.978
			s6.305-2.05,7.57-4.979C37.34,51.537,34.684,52.645,31.77,52.645z"/>
		<g>
			<path fill="#FFFFFF" d="M24.239,45.164c0.249-0.325,0.519-0.635,0.805-0.929l-0.539-1.673c-0.269,0.501-0.488,1.031-0.649,1.587
				L24.239,45.164z"/>
			<path fill="#FFFFFF" d="M25.661,43.653c1.692-1.471,3.875-2.387,6.27-2.48l0.02-2.959c-0.061-0.001-0.12-0.003-0.181-0.003
				c-2.753,0-5.188,1.351-6.684,3.424L25.661,43.653z"/>
			<path fill="#FFFFFF" d="M33.423,38.377l-0.175,2.826c2.553,0.229,4.835,1.396,6.496,3.158
				C38.956,41.346,36.501,39.004,33.423,38.377z"/>
			<path fill="#FFFFFF" d="M23.586,45.497c-0.056,0.512-0.083,0.829-0.041,1.528c0.008-0.351,0.092-0.912,0.199-1.147L23.586,45.497
				z"/>
		</g>
	</g>
	<g>
		<path fill="#323232" d="M27.559,42.014l0,2.381c0,0.384-0.129,0.67-0.488,0.877l-0.299,0.163v0.731h-0.583V45.44l-0.311-0.173
			c-0.375-0.248-0.477-0.481-0.477-0.873l0-2.381h0.322v2.337c0,0.081,0.064,0.146,0.146,0.146c0.08,0,0.146-0.064,0.146-0.146
			v-2.337h0.322v2.57c0,0.081,0.066,0.146,0.145,0.146c0.082,0,0.146-0.064,0.146-0.146v-2.57h0.322v2.337
			c0,0.081,0.065,0.146,0.146,0.146c0.081,0,0.146-0.064,0.146-0.146v-2.337H27.559z M26.19,46.415
			c-0.08,0.076-0.131,0.185-0.131,0.304v4.188c0,0.233,0.188,0.422,0.422,0.422c0.233,0,0.422-0.188,0.422-0.422v-4.188
			c0-0.119-0.051-0.228-0.131-0.304H26.19z M38.02,46.55h-0.61c-0.072,0.076-0.117,0.178-0.117,0.291v4.188
			c0,0.232,0.188,0.421,0.422,0.421c0.233,0,0.421-0.188,0.421-0.421v-4.188C38.137,46.728,38.092,46.626,38.02,46.55z
			 M37.414,46.301h0.583l-0.001-4.713c-0.612,0-1.178,0-1.178,0.979v2.968h0.596V46.301z M35.046,46.309
			c0,1.68-1.368,3.048-3.049,3.048s-3.049-1.368-3.049-3.048c0-1.683,1.368-3.049,3.049-3.049S35.046,44.626,35.046,46.309z
			 M34.573,46.309c0-1.424-1.153-2.575-2.575-2.575s-2.574,1.151-2.574,2.575c0,1.421,1.152,2.574,2.574,2.574
			S34.573,47.729,34.573,46.309z M36.193,46.309c0,2.316-1.878,4.195-4.196,4.195s-4.196-1.879-4.196-4.195
			c0-2.317,1.879-4.196,4.196-4.196S36.193,43.991,36.193,46.309z M35.396,46.309c0-1.874-1.524-3.398-3.398-3.398
			c-1.874,0-3.398,1.524-3.398,3.398c0,1.873,1.524,3.397,3.398,3.397C33.872,49.706,35.396,48.182,35.396,46.309z"/>
	</g>
</g>
<g>
	<g>
		<linearGradient id="SVGID_26_" gradientUnits="userSpaceOnUse" x1="67.5957" y1="33.9116" x2="67.5957" y2="67.5524">
			<stop  offset="0" style="stop-color:#FFC8E6"/>
			<stop  offset="0.3879" style="stop-color:#FF0076"/>
			<stop  offset="0.538" style="stop-color:#F80073"/>
			<stop  offset="0.7576" style="stop-color:#E4006B"/>
			<stop  offset="1" style="stop-color:#C7005E"/>
		</linearGradient>
		<path fill="url(#SVGID_26_)" d="M81.495,46.925c0,8.267-6.172,12.862-13.899,20.539c-7.906-7.619-13.898-12.133-13.898-20.539
			c0-7.677,6.223-13.9,13.898-13.9C75.272,33.024,81.495,39.248,81.495,46.925z"/>
		<linearGradient id="SVGID_27_" gradientUnits="userSpaceOnUse" x1="55.1846" y1="50.0488" x2="80.0068" y2="50.0488">
			<stop  offset="0" style="stop-color:#EF0069"/>
			<stop  offset="0.1915" style="stop-color:#F80071"/>
			<stop  offset="0.4303" style="stop-color:#FF0077"/>
			<stop  offset="0.7153" style="stop-color:#FB0074"/>
			<stop  offset="0.9922" style="stop-color:#EF0069"/>
			<stop  offset="1" style="stop-color:#EF0069"/>
		</linearGradient>
		<path fill="url(#SVGID_27_)" d="M67.585,65.467c-0.667-0.638-1.316-1.251-1.951-1.85c-6.292-5.94-10.449-9.863-10.449-16.575
			c0-6.843,5.567-12.411,12.411-12.411s12.411,5.568,12.411,12.411c0,6.427-4.219,10.496-10.057,16.13
			C69.183,63.911,68.395,64.672,67.585,65.467L67.585,65.467z"/>
		<linearGradient id="SVGID_28_" gradientUnits="userSpaceOnUse" x1="55.1846" y1="50.0488" x2="80.0068" y2="50.0488">
			<stop  offset="0" style="stop-color:#EF0069"/>
			<stop  offset="0.4364" style="stop-color:#FF0F8D"/>
			<stop  offset="0.6261" style="stop-color:#FD0D89"/>
			<stop  offset="0.8108" style="stop-color:#F8097D"/>
			<stop  offset="0.9928" style="stop-color:#EF006A"/>
			<stop  offset="1" style="stop-color:#EF0069"/>
		</linearGradient>
		<path fill="url(#SVGID_28_)" d="M67.585,65.467c-0.667-0.638-1.316-1.251-1.951-1.85c-6.292-5.94-10.449-9.863-10.449-16.575
			c0-6.843,5.567-12.411,12.411-12.411s12.411,5.568,12.411,12.411c0,6.427-4.219,10.496-10.057,16.13
			C69.183,63.911,68.395,64.672,67.585,65.467L67.585,65.467z"/>
		<linearGradient id="SVGID_29_" gradientUnits="userSpaceOnUse" x1="58.7344" y1="60.9971" x2="71.1572" y2="60.9971">
			<stop  offset="0" style="stop-color:#FFFFFF"/>
			<stop  offset="0.1654" style="stop-color:#FFEFF8"/>
			<stop  offset="0.4886" style="stop-color:#FFC5E7"/>
			<stop  offset="0.9343" style="stop-color:#FF82CB"/>
			<stop  offset="1" style="stop-color:#FF78C7"/>
		</linearGradient>
		<path fill="url(#SVGID_29_)" d="M67.701,63.807c-0.76-0.048-6.159-4.483-8.967-7.279c1.77,2.245,4.127,4.473,6.899,7.09
			c0.635,0.599,1.284,1.212,1.951,1.85c0.244-0.24,3.332-3.229,3.572-3.463C69.854,62.88,68.46,63.854,67.701,63.807z"/>
		<g>
			<defs>
				<filter id="Adobe_OpacityMaskFilter_1_" filterUnits="userSpaceOnUse" x="56.741" y="36.457" width="21.71" height="21.71">
					<feFlood  style="flood-color:white;flood-opacity:1" result="back"/>
					<feBlend  in="SourceGraphic" in2="back" mode="normal"/>
				</filter>
			</defs>
			<mask maskUnits="userSpaceOnUse" x="56.741" y="36.457" width="21.71" height="21.71" id="SVGID_30_">
				<g filter="url(#Adobe_OpacityMaskFilter_1_)">
					<image overflow="visible" width="26" height="27" xlink:href="7EB6945B.jpg"  transform="matrix(1 0 0 1 54.5 33.5)">
					</image>
				</g>
			</mask>
			<g mask="url(#SVGID_30_)">
				<circle fill="#B3005A" cx="67.596" cy="47.312" r="10.855"/>
			</g>
		</g>
		<radialGradient id="SVGID_31_" cx="63.2451" cy="37.0415" r="10.9479" gradientUnits="userSpaceOnUse">
			<stop  offset="0" style="stop-color:#FFFFFF"/>
			<stop  offset="0.1654" style="stop-color:#FFEFF8"/>
			<stop  offset="0.4886" style="stop-color:#FFC5E7"/>
			<stop  offset="0.9343" style="stop-color:#FF82CB"/>
			<stop  offset="1" style="stop-color:#FF78C7"/>
		</radialGradient>
		<path fill="url(#SVGID_31_)" d="M59.623,38.58c2.082-1.963,4.886-3.167,7.973-3.167c0.069,0,0.14,0.004,0.209,0.005l-0.006,0.87
			c-3.045,0.152-5.713,1.233-7.906,3.238L59.623,38.58z M69.515,35.572l-0.046,0.736c1.985,0.164,3.887,0.843,5.521,1.759
			C73.448,36.795,71.572,35.915,69.515,35.572z M57.24,41.766c-0.673,1.322-1.105,2.788-1.229,4.342
			c0.338-1.281,0.836-2.554,1.503-3.688L57.24,41.766z M58.84,39.403c-0.365,0.417-0.702,0.86-1.004,1.327l0.288,0.764
			c0.074-0.102,0.146-0.205,0.224-0.303c0.25-0.316,0.512-0.612,0.779-0.898L58.84,39.403z"/>
	</g>
	<g>
		<radialGradient id="SVGID_32_" cx="67.5098" cy="39.9287" r="16.3417" gradientUnits="userSpaceOnUse">
			<stop  offset="0" style="stop-color:#F5F5F5"/>
			<stop  offset="0.3042" style="stop-color:#F2F2F2"/>
			<stop  offset="0.5387" style="stop-color:#E8E8E8"/>
			<stop  offset="0.7498" style="stop-color:#D8D8D8"/>
			<stop  offset="0.9461" style="stop-color:#C1C1C1"/>
			<stop  offset="1" style="stop-color:#B9B9B9"/>
		</radialGradient>
		<circle fill="url(#SVGID_32_)" cx="67.596" cy="47.312" r="9.411"/>
		<radialGradient id="SVGID_33_" cx="67.5234" cy="51.0215" r="7.8389" gradientUnits="userSpaceOnUse">
			<stop  offset="0" style="stop-color:#FFFFFF"/>
			<stop  offset="0.2834" style="stop-color:#F7F7F8"/>
			<stop  offset="0.7207" style="stop-color:#E1E3E3"/>
			<stop  offset="1" style="stop-color:#D0D2D3"/>
		</radialGradient>
		<path fill="url(#SVGID_33_)" d="M67.596,53.523c-3.053,0-5.834-1.161-7.929-3.064c1.325,3.066,4.376,5.214,7.929,5.214
			s6.604-2.147,7.929-5.214C73.431,52.362,70.648,53.523,67.596,53.523z"/>
		<g>
			<path fill="#FFFFFF" d="M59.709,45.688c0.26-0.341,0.543-0.664,0.842-0.972l-0.564-1.753c-0.281,0.524-0.51,1.081-0.68,1.663
				L59.709,45.688z"/>
			<path fill="#FFFFFF" d="M61.197,44.105c1.772-1.54,4.058-2.5,6.566-2.598l0.021-3.1c-0.063-0.002-0.126-0.004-0.189-0.004
				c-2.883,0-5.434,1.415-7.002,3.586L61.197,44.105z"/>
			<path fill="#FFFFFF" d="M69.328,38.579l-0.184,2.96c2.675,0.239,5.064,1.463,6.805,3.309
				C75.123,41.688,72.552,39.236,69.328,38.579z"/>
			<path fill="#FFFFFF" d="M59.023,46.037c-0.059,0.535-0.086,0.867-0.041,1.6c0.008-0.366,0.096-0.954,0.207-1.201L59.023,46.037z"
				/>
		</g>
	</g>
	<g>
		<path fill="#323232" d="M64.98,49.9c0,0,3.646,0,4.943,0c0-0.993-0.203-2.813,1.729-6.952v-0.402h-8.402v0.402
			C65.183,47.087,64.98,48.907,64.98,49.9z M68.735,44.578c0.015,0.013,0.03,0.023,0.043,0.037c0.591,0.584,0.45,1.68-0.312,2.45
			c-0.529,0.532-1.219,0.767-1.787,0.666c0.707-0.462,0.894-1.111,1.062-1.705C67.912,45.428,68.063,44.895,68.735,44.578z
			 M66.333,44.949c0.519-0.522,1.189-0.759,1.752-0.673c-0.552,0.396-0.712,0.959-0.868,1.508c-0.18,0.639-0.354,1.25-1.174,1.635
			c-0.008-0.008-0.016-0.013-0.021-0.02C65.432,46.814,65.572,45.717,66.333,44.949z M71.78,50.665c0,0.21-0.17,0.381-0.381,0.381
			h-7.845c-0.21,0-0.381-0.171-0.381-0.381s0.171-0.381,0.381-0.381h7.845C71.61,50.284,71.78,50.455,71.78,50.665z M73.249,46.224
			c0,0.966-0.785,1.752-1.751,1.752c-0.4,0-0.77-0.137-1.064-0.364c0.05-0.274,0.115-0.575,0.199-0.903
			c0.171,0.303,0.494,0.509,0.865,0.509c0.547,0,0.992-0.445,0.992-0.993c0-0.547-0.445-0.992-0.992-0.992
			c-0.159,0-0.309,0.038-0.442,0.104c0.096-0.271,0.203-0.557,0.324-0.857c0.039-0.003,0.078-0.006,0.118-0.006
			C72.464,44.473,73.249,45.257,73.249,46.224z M65.684,51.44h3.587v0.508h-3.587V51.44z"/>
	</g>
</g>
<path fill="#323232" d="M52.281,42.829c-0.186-0.124-0.438-0.073-0.561,0.111l-0.311,0.466h-5.022l-0.31-0.466
	c-0.124-0.185-0.375-0.235-0.56-0.111c-0.186,0.124-0.236,0.375-0.112,0.56l3.09,4.639v2.909l-1.558,0.286v0.73h3.924v-0.73
	l-1.558-0.291v-2.904l1.994-2.994l0.588-0.887l0.549-0.84C52.5,43.135,52.441,42.936,52.281,42.829z M46.771,43.979h0.846
	l0.43,1.915L46.771,43.979z M48.899,47.177l-0.02-0.03l-0.709-3.167h2.858L48.899,47.177z M47.366,42.86l-0.853-3.855l0.526-0.119
	l0.879,3.975H47.366z M50.675,42.729c-0.097-0.039-0.144-0.149-0.105-0.246c0.039-0.097,0.148-0.143,0.246-0.104l0.272,0.11
	c0.097,0.038,0.144,0.148,0.105,0.244c-0.03,0.074-0.101,0.119-0.176,0.119c-0.023,0-0.047-0.005-0.07-0.014L50.675,42.729z
	 M52.949,41.759l-0.11,0.272c-0.03,0.073-0.101,0.118-0.175,0.118c-0.024,0-0.047-0.004-0.07-0.014
	c-0.097-0.039-0.144-0.149-0.105-0.246l0.11-0.272c0.04-0.097,0.149-0.144,0.245-0.104C52.941,41.552,52.987,41.662,52.949,41.759z
	 M51.522,42.045l-0.116-0.269c-0.041-0.097,0.003-0.208,0.1-0.249c0.096-0.041,0.206,0.004,0.247,0.099l0.116,0.271
	c0.04,0.096-0.004,0.207-0.1,0.248c-0.024,0.01-0.05,0.016-0.074,0.016C51.621,42.16,51.552,42.117,51.522,42.045z M53.8,42.448
	c0.042,0.096-0.003,0.207-0.099,0.248l-0.271,0.115c-0.023,0.01-0.049,0.015-0.074,0.015c-0.072,0-0.143-0.043-0.173-0.114
	c-0.041-0.096,0.004-0.206,0.1-0.247l0.271-0.116C53.648,42.309,53.76,42.353,53.8,42.448z M53.709,43.542
	c0.098,0.039,0.144,0.147,0.105,0.245c-0.029,0.073-0.102,0.118-0.176,0.118c-0.023,0-0.047-0.005-0.07-0.015l-0.272-0.108
	c-0.097-0.039-0.144-0.149-0.104-0.246s0.148-0.144,0.246-0.104L53.709,43.542z M52.516,44.373c-0.04-0.096,0.004-0.207,0.1-0.247
	s0.207,0.004,0.248,0.1l0.115,0.271c0.04,0.097-0.004,0.207-0.102,0.248c-0.023,0.011-0.048,0.016-0.072,0.016
	c-0.074,0-0.144-0.043-0.174-0.116L52.516,44.373z M54.617,43.135c0,1.339-1.088,2.428-2.424,2.428
	c-0.192,0-0.379-0.023-0.557-0.064l0.324-0.49c0.076,0.009,0.153,0.016,0.232,0.016c1.039,0,1.885-0.847,1.885-1.889
	c0-1.039-0.846-1.885-1.885-1.885c-0.947,0-1.73,0.701-1.864,1.61h-0.541c0.137-1.207,1.161-2.15,2.405-2.15
	C53.529,40.71,54.617,41.798,54.617,43.135z"/>
</svg>
