<?xml version="1.0" encoding="utf-8"?>
<!-- Generator: Adobe Illustrator 16.0.0, SVG Export Plug-In . SVG Version: 6.00 Build 0)  -->
<!DOCTYPE svg PUBLIC "-//W3C//DTD SVG 1.1//EN" "http://www.w3.org/Graphics/SVG/1.1/DTD/svg11.dtd">
<svg version="1.1" id="圖層_1" xmlns="http://www.w3.org/2000/svg" xmlns:xlink="http://www.w3.org/1999/xlink" x="0px" y="0px"
	 width="100px" height="100px" viewBox="0 0 100 100" enable-background="new 0 0 100 100" xml:space="preserve">
<linearGradient id="SVGID_1_" gradientUnits="userSpaceOnUse" x1="790.0977" y1="2116.2217" x2="790.0977" y2="1994.3076" gradientTransform="matrix(0.7745 0 0 0.7745 -561.9322 -1541.8031)">
	<stop  offset="0" style="stop-color:#FADB7A"/>
	<stop  offset="1" style="stop-color:#F8F6D5"/>
</linearGradient>
<path fill="url(#SVGID_1_)" d="M49.996,2.793c1.512,0,3.002,0.073,4.479,0.202l43.076,35.917c0.891,3.561,1.373,7.274,1.373,11.09
	c0,26-21.979,47.209-48.925,47.209c-26.942,0-48.924-21.205-48.924-47.209C1.075,24,23.057,2.789,49.999,2.789L49.996,2.793z"/>
<linearGradient id="SVGID_2_" gradientUnits="userSpaceOnUse" x1="790.0977" y1="2116.2227" x2="790.0977" y2="1994.3076" gradientTransform="matrix(0.7745 0 0 0.7745 -561.9322 -1541.8031)">
	<stop  offset="0" style="stop-color:#EDAF6D"/>
	<stop  offset="1" style="stop-color:#F7E1C6"/>
</linearGradient>
<path fill="url(#SVGID_2_)" d="M49.996,2.793c1.506,0,3.002,0.073,4.479,0.202C67.012,15.667,81.372,27.64,97.547,38.913
	c0.895,3.561,1.377,7.274,1.377,11.09c0,26-21.979,47.209-48.925,47.209c-26.949,0-48.924-21.205-48.924-47.209
	C1.075,24,23.05,2.789,49.999,2.789L49.996,2.793z"/>
<linearGradient id="SVGID_3_" gradientUnits="userSpaceOnUse" x1="499.8398" y1="1657.2246" x2="499.8398" y2="1563.7891" gradientTransform="matrix(1 0 0 1 -449.8438 -1560.502)">
	<stop  offset="0" style="stop-color:#F1B97F"/>
	<stop  offset="1" style="stop-color:#F7E4CC"/>
</linearGradient>
<path fill="url(#SVGID_3_)" d="M49.996,3.287c1.643,0,3.26,0.09,4.855,0.255c12.412,12.319,26.438,24.019,42.08,35.095
	c0.963,3.637,1.479,7.449,1.479,11.37c0,25.733-21.751,46.716-48.414,46.716c-26.669,0-48.413-20.988-48.413-46.716
	c0-25.727,21.75-46.716,48.413-46.716V3.287z"/>
<linearGradient id="SVGID_4_" gradientUnits="userSpaceOnUse" x1="499.834" y1="1656.7266" x2="499.834" y2="1564.2852" gradientTransform="matrix(1 0 0 1 -449.8438 -1560.502)">
	<stop  offset="0" style="stop-color:#F3C18B"/>
	<stop  offset="1" style="stop-color:#F8E7CF"/>
</linearGradient>
<path fill="url(#SVGID_4_)" d="M49.996,3.782c1.771,0,3.516,0.102,5.234,0.305c12.283,11.966,25.976,23.388,41.082,34.266
	c1.021,3.717,1.582,7.626,1.582,11.65c0,25.454-21.521,46.222-47.907,46.222c-26.383,0-47.901-20.768-47.901-46.222
	c0-25.455,21.519-46.221,47.901-46.221H49.996L49.996,3.782z"/>
<linearGradient id="SVGID_5_" gradientUnits="userSpaceOnUse" x1="499.8418" y1="1656.2324" x2="499.8418" y2="1564.7764" gradientTransform="matrix(1 0 0 1 -449.8438 -1560.502)">
	<stop  offset="0" style="stop-color:#F3C795"/>
	<stop  offset="1" style="stop-color:#F9E8D2"/>
</linearGradient>
<path fill="url(#SVGID_5_)" d="M49.996,4.274c1.904,0,3.775,0.121,5.619,0.357c12.146,11.613,25.511,22.763,40.09,33.441
	c1.092,3.799,1.682,7.801,1.682,11.931c0,25.188-21.287,45.728-47.388,45.728c-26.101,0-47.388-20.541-47.388-45.728
	c0-25.187,21.291-45.729,47.388-45.729H49.996z"/>
<linearGradient id="SVGID_6_" gradientUnits="userSpaceOnUse" x1="499.8379" y1="1655.7461" x2="499.8379" y2="1565.2754" gradientTransform="matrix(1 0 0 1 -449.8438 -1560.502)">
	<stop  offset="0" style="stop-color:#F3CD9F"/>
	<stop  offset="1" style="stop-color:#F9EAD4"/>
</linearGradient>
<path fill="url(#SVGID_6_)" d="M49.996,4.773c2.033,0,4.036,0.139,5.999,0.413C68.016,16.444,81.042,27.312,95.083,37.8
	c1.162,3.873,1.788,7.976,1.788,12.207c0,24.915-21.059,45.237-46.875,45.237c-25.82,0-46.88-20.319-46.88-45.237
	C3.116,25.088,24.176,4.773,49.996,4.773z"/>
<linearGradient id="SVGID_7_" gradientUnits="userSpaceOnUse" x1="499.8379" y1="1655.2549" x2="499.8379" y2="1565.7637" gradientTransform="matrix(1 0 0 1 -449.8438 -1560.502)">
	<stop  offset="0" style="stop-color:#F4D0A6"/>
	<stop  offset="1" style="stop-color:#F9EBD7"/>
</linearGradient>
<path fill="url(#SVGID_7_)" d="M49.996,5.261c2.166,0,4.296,0.162,6.377,0.469c11.891,10.903,24.589,21.502,38.095,31.784
	c1.226,3.961,1.897,8.154,1.897,12.494c0,24.643-20.834,44.745-46.369,44.745c-25.538,0-46.373-20.103-46.373-44.745
	C3.624,25.365,24.453,5.261,49.996,5.261z"/>
<linearGradient id="SVGID_8_" gradientUnits="userSpaceOnUse" x1="499.8438" y1="1654.75" x2="499.8438" y2="1566.2559" gradientTransform="matrix(1 0 0 1 -449.8438 -1560.502)">
	<stop  offset="0" style="stop-color:#F5D4AC"/>
	<stop  offset="1" style="stop-color:#F9ECD8"/>
</linearGradient>
<path fill="url(#SVGID_8_)" d="M49.996,5.754c2.3,0,4.557,0.18,6.759,0.524c11.759,10.549,24.129,20.867,37.101,30.954
	c1.299,4.037,2,8.328,2,12.77c0,24.369-20.601,44.246-45.854,44.246S4.146,74.371,4.146,50.002c0-24.371,20.6-44.249,45.854-44.249
	L49.996,5.754L49.996,5.754z"/>
<linearGradient id="SVGID_9_" gradientUnits="userSpaceOnUse" x1="499.8398" y1="1654.2598" x2="499.8398" y2="1566.752" gradientTransform="matrix(1 0 0 1 -449.8438 -1560.502)">
	<stop  offset="0" style="stop-color:#F5D8B2"/>
	<stop  offset="1" style="stop-color:#F9EDDA"/>
</linearGradient>
<path fill="url(#SVGID_9_)" d="M49.996,6.249c2.432,0,4.814,0.196,7.141,0.574c11.629,10.2,23.663,20.243,36.102,30.129
	c1.357,4.123,2.104,8.508,2.104,13.051c0,24.103-20.369,43.755-45.343,43.755C25.02,93.758,4.65,74.105,4.65,50.003
	C4.647,25.9,25.017,6.249,49.996,6.249z"/>
<linearGradient id="SVGID_10_" gradientUnits="userSpaceOnUse" x1="499.8379" y1="1653.7656" x2="499.8379" y2="1567.2441" gradientTransform="matrix(1 0 0 1 -449.8438 -1560.502)">
	<stop  offset="0" style="stop-color:#F5DBB7"/>
	<stop  offset="1" style="stop-color:#F9EEDB"/>
</linearGradient>
<path fill="url(#SVGID_10_)" d="M49.996,6.741c2.563,0,5.07,0.214,7.523,0.626c11.496,9.843,23.197,19.609,35.103,29.305
	c1.431,4.197,2.203,8.682,2.203,13.331c0,23.83-20.136,43.261-44.829,43.261c-24.696,0-44.833-19.431-44.833-43.261
	C5.164,26.173,25.304,6.741,49.996,6.741z"/>
<linearGradient id="SVGID_11_" gradientUnits="userSpaceOnUse" x1="845.1807" y1="2193.5342" x2="845.1807" y2="2078.4014" gradientTransform="matrix(0.743 0 0 0.743 -577.9765 -1537.0206)">
	<stop  offset="0" style="stop-color:#F6DDBB"/>
	<stop  offset="1" style="stop-color:#F9EFDC"/>
</linearGradient>
<path fill="url(#SVGID_11_)" d="M49.996,7.236c2.693,0,5.332,0.237,7.9,0.683L92.01,36.395c1.494,4.276,2.305,8.857,2.305,13.608
	c0,23.56-19.91,42.772-44.315,42.772c-24.415,0-44.328-19.215-44.328-42.772c0-23.552,19.913-42.771,44.328-42.771L49.996,7.236
	L49.996,7.236z"/>
<path fill="#D4AA80" d="M54.471,2.995c-0.767,41.508,36.307,33.114,43.072,35.917C82.094,27.646,67.732,15.667,54.471,2.995z"/>
<linearGradient id="SVGID_12_" gradientUnits="userSpaceOnUse" x1="822.7021" y1="2018.1953" x2="814.3561" y2="2028.0469" gradientTransform="matrix(0.7745 0 0 0.7745 -560.9796 -1542.3705)">
	<stop  offset="0" style="stop-color:#E7E9EC"/>
	<stop  offset="0.34" style="stop-color:#FBFBFC"/>
	<stop  offset="1" style="stop-color:#FFFFFF"/>
</linearGradient>
<path fill="url(#SVGID_12_)" d="M54.471,2.995c0.094,26.148,26.291,21.412,43.072,35.917L54.471,2.995z"/>
<g>
	<g>
		<g>
			<g>
				<g>
					<path fill="#ED8843" d="M68.033,57.44c-0.013-0.014-0.294-0.331-0.807-0.871l-1.396,1.325c0.486,0.513,0.759,0.819,0.762,0.822
						L68.033,57.44z"/>
					<path fill="#ED8843" d="M31.969,53.81c0.16,0.844,0.505,1.671,1.023,2.458l1.607-1.06c-0.379-0.574-0.628-1.165-0.74-1.758
						L31.969,53.81z"/>
					<path fill="#ED8843" d="M34.687,49.677l-1.676-0.947c-0.458,0.81-0.782,1.614-0.966,2.392l1.873,0.441
						C34.06,50.963,34.318,50.328,34.687,49.677z"/>
					<path fill="#ED8843" d="M53.709,67.316l0.726-1.782c-0.111-0.045-0.226-0.092-0.34-0.138c-0.297,0.603-0.568,1.186-0.816,1.746
						C53.425,67.201,53.569,67.26,53.709,67.316z"/>
					<path fill="#ED8843" d="M39.062,43.29v-0.011c0,0.077-0.478,0.158-0.65,0.246l0.664,1.195
						C38.962,43.806,39.062,43.3,39.062,43.29z"/>
					<path fill="#ED8843" d="M41.605,60.284c-0.729-0.351-1.407-0.698-2.016-1.034l-0.931,1.685c0.649,0.358,1.34,0.713,2.111,1.084
						L41.605,60.284z"/>
					<path fill="#ED8843" d="M43.864,90.415c0.784,0.099,1.594,0.159,2.408,0.178l0.045-1.924c-0.749-0.018-1.493-0.072-2.211-0.164
						L43.864,90.415z"/>
					<path fill="#ED8843" d="M47.943,62.983l-0.704,1.791c0.718,0.282,1.44,0.563,2.164,0.845l0.164-0.425
						c-0.306-0.645-0.636-1.301-0.988-1.963C48.367,63.148,48.154,63.066,47.943,62.983z"/>
					<path fill="#ED8843" d="M39.152,89.239c0.743,0.289,1.525,0.536,2.326,0.733l0.461-1.868c-0.721-0.179-1.423-0.399-2.09-0.659
						L39.152,89.239z"/>
					<path fill="#ED8843" d="M45.801,62.126c-0.776-0.317-1.469-0.609-2.117-0.893l-0.77,1.764c0.662,0.289,1.368,0.587,2.159,0.91
						L45.801,62.126z"/>
					<path fill="#ED8843" d="M48.542,88.613l0.137,1.92c0.786-0.056,1.589-0.148,2.385-0.275l-0.303-1.9
						C50.02,88.476,49.273,88.562,48.542,88.613z"/>
					<path fill="#ED8843" d="M62.572,54.688c0.56,0.516,1.117,1.047,1.658,1.579l1.349-1.373c-0.555-0.546-1.127-1.091-1.7-1.62
						L62.572,54.688z"/>
					<path fill="#ED8843" d="M37.407,46.396l-1.23-1.48c-0.616,0.513-1.206,1.109-1.753,1.774l1.486,1.223
						C36.38,47.342,36.884,46.831,37.407,46.396z"/>
					<path fill="#ED8843" d="M58.739,67.409c-0.663-0.315-1.365-0.633-2.145-0.971l-0.766,1.767c0.76,0.329,1.441,0.637,2.084,0.942
						L58.739,67.409z"/>
					<path fill="#ED8843" d="M61.094,84.374l1.085,1.59c0.693-0.473,1.341-0.975,1.926-1.491L62.83,83.03
						C62.306,83.494,61.722,83.946,61.094,84.374z"/>
					<path fill="#ED8843" d="M64.332,81.482l1.492,1.215c0.563-0.692,1.027-1.407,1.376-2.125l-1.731-0.842
						C65.186,80.314,64.802,80.904,64.332,81.482z"/>
					<path fill="#ED8843" d="M65.904,75.921c0.122,0.429,0.184,0.869,0.184,1.311c0,0.199-0.013,0.401-0.037,0.601l1.911,0.234
						c0.033-0.277,0.051-0.558,0.051-0.835c0-0.62-0.087-1.238-0.258-1.838L65.904,75.921z"/>
					<path fill="#ED8843" d="M57.191,86.497l0.761,1.768c0.744-0.32,1.472-0.672,2.163-1.046l-0.916-1.693
						C58.559,85.872,57.883,86.199,57.191,86.497z"/>
					<path fill="#ED8843" d="M37.681,58.092c-0.655-0.441-1.233-0.89-1.72-1.332l-1.295,1.424c0.555,0.505,1.207,1.011,1.939,1.504
						L37.681,58.092z"/>
					<path fill="#ED8843" d="M59.937,70.172c0.704,0.383,1.352,0.768,1.923,1.144l1.058-1.608c-0.617-0.405-1.311-0.817-2.063-1.227
						L59.937,70.172z"/>
					<path fill="#ED8843" d="M63.607,72.625c0.577,0.504,1.056,1.018,1.42,1.526l1.564-1.121c-0.451-0.63-1.03-1.254-1.719-1.855
						L63.607,72.625z"/>
					<path fill="#ED8843" d="M52.952,87.914l0.46,1.869c0.771-0.19,1.546-0.414,2.299-0.665l-0.609-1.826
						C54.397,87.527,53.675,87.736,52.952,87.914z"/>
					<path fill="#ED8843" d="M35.888,87.552c0.338,0.225,0.689,0.44,1.047,0.642l0.944-1.678c-0.315-0.177-0.626-0.367-0.924-0.565
						L35.888,87.552z"/>
				</g>
				<path fill="#ED8843" d="M67.685,43.16c-0.017-8.491-6.932-15.395-15.43-15.395c-4.113,0-7.987,1.606-10.906,4.522
					c-2.906,2.904-4.513,6.755-4.526,10.848c-0.028,0.367-0.094,1.932,0.583,4.417c0.676,2.487,2.237,6.446,5.835,11.185
					c2.269,2.986,3.94,5.883,5.139,8.423c1.287,2.882,2.086,5.469,2.501,7.29c0.015,0.083,0.027,0.163,0.038,0.241l0.016-0.002
					c0.091,0.42,0.16,0.795,0.209,1.119l1.054,6.944l1.156-6.794l0.019-0.095c0.312-1.563,1.336-5.906,3.853-10.873
					c1.046-1.947,2.366-4.067,4.026-6.254c3.634-4.786,5.188-8.725,5.853-11.187C67.752,45.143,67.713,43.592,67.685,43.16z
					 M52.192,53.938c-5.378,0-9.737-4.359-9.737-9.737s4.359-9.738,9.737-9.738c5.379,0,9.738,4.36,9.738,9.738
					S57.571,53.938,52.192,53.938z"/>
			</g>
		</g>
	</g>
</g>
<linearGradient id="SVGID_13_" gradientUnits="userSpaceOnUse" x1="43.5088" y1="45.9941" x2="55.165" y2="45.9941">
	<stop  offset="0" style="stop-color:#C8611D"/>
	<stop  offset="1" style="stop-color:#E6781C"/>
</linearGradient>
<path fill="url(#SVGID_13_)" d="M43.794,46.508c0.37,0.208,0.836,0.27,1.515,0c0.506-0.201,1.172,0.135,1.715,0
	c1.482-0.368,3.165-0.575,4.449,0c0.292,0.13,0.588,0.134,0.881,0c0.416-0.189,1.057,0.206,1.461,0c0.354-0.181,0.706-0.181,1.06,0
	c0.351,0.178,0.423-0.956,0-0.956c-1.183,0-2.449,0.327-3.548,0c-1.184-0.356-2.368-0.315-3.55,0c-1.252,0.329-2.655,0-3.981,0
	C43.372,45.552,43.457,46.317,43.794,46.508L43.794,46.508z"/>
<linearGradient id="SVGID_14_" gradientUnits="userSpaceOnUse" x1="43.9966" y1="47.9541" x2="54.6738" y2="47.9541">
	<stop  offset="0" style="stop-color:#C8611D"/>
	<stop  offset="1" style="stop-color:#E6781C"/>
</linearGradient>
<path fill="url(#SVGID_14_)" d="M54.674,47.308V48.2c0,0.409-0.541,0.743-1.201,0.743h-8.277c-0.66,0-1.199-0.335-1.199-0.743
	v-0.748c0.131,0.028,0.268,0.047,0.415,0.051h0.003c0.355,0.01,0.756-0.06,1.217-0.243c0.051-0.02,0.253,0.009,0.456,0.038
	c0.363,0.052,0.729,0.103,1.146,0c0.69-0.171,1.421-0.305,2.117-0.328c0.649-0.021,1.263,0.05,1.771,0.278
	c0.26,0.116,0.525,0.175,0.796,0.175c0.268,0,0.535-0.059,0.798-0.18c0.045-0.02,0.08,0.046,0.205,0.069
	c0.41,0.077,0.819,0.153,1.289-0.085c0.051-0.026,0.098-0.038,0.137-0.038c0.04,0,0.086,0.012,0.137,0.038
	C54.547,47.261,54.611,47.287,54.674,47.308L54.674,47.308L54.674,47.308z"/>
<linearGradient id="SVGID_15_" gradientUnits="userSpaceOnUse" x1="43.688" y1="42.5869" x2="54.9941" y2="42.5869">
	<stop  offset="0" style="stop-color:#C8611D"/>
	<stop  offset="1" style="stop-color:#E6781C"/>
</linearGradient>
<path fill="url(#SVGID_15_)" d="M43.837,44.735c-1.771-5.927,12.826-5.927,10.998,0c-0.388,0.002-0.813,0.04-1.237,0.078
	c-0.724,0.067-1.448,0.132-2.025-0.042c-0.681-0.204-1.357-0.292-2.028-0.289c-0.667,0.006-1.331,0.105-1.989,0.279
	c-0.684,0.183-1.516,0.114-2.349,0.047C44.77,44.772,44.332,44.737,43.837,44.735z"/>
<path fill="#F9E8D2" d="M44.494,43.991c-0.05-1.836,1.448-2.723,3.798-3.143C46.545,41.838,45.12,42.951,44.494,43.991z"/>
<path fill="#D4AA80" d="M51.756,40.586"/>
<path fill="#D4AA80" d="M54.307,41.983"/>
<linearGradient id="SVGID_16_" gradientUnits="userSpaceOnUse" x1="55.2959" y1="44.5313" x2="61.0488" y2="44.5313">
	<stop  offset="0" style="stop-color:#C8611D"/>
	<stop  offset="1" style="stop-color:#E6781C"/>
</linearGradient>
<path fill="url(#SVGID_16_)" d="M60.085,48.698c0.024,0.217-0.044,0.245-0.21,0.245h-3.404c-0.166,0-0.232-0.028-0.211-0.245
	c0.104-2.897-0.51-5.736-0.964-8.579h5.753C60.58,42.946,60.026,45.832,60.085,48.698z"/>
<linearGradient id="SVGID_17_" gradientUnits="userSpaceOnUse" x1="52.208" y1="38.6797" x2="56.0732" y2="38.6797">
	<stop  offset="0" style="stop-color:#C8611D"/>
	<stop  offset="1" style="stop-color:#E6781C"/>
</linearGradient>
<path fill="url(#SVGID_17_)" d="M52.208,37.789l2.409-0.161c0.392-0.027,0.582-0.048,0.779,0.442l0.677,1.673h-0.515l-0.48-1.185
	c-0.143-0.348-0.328-0.516-0.717-0.488l-2.105,0.153c-0.018-0.208-0.032-0.227-0.047-0.433L52.208,37.789z"/>
<path fill="#F9E8D2" d="M60.055,43.697c-0.154,1.556-0.38,3.112-0.396,4.703c0.003,0.084-0.04,0.091-0.098,0.084
	c-0.896-0.141-1.888-0.139-2.778,0c-0.056,0.008-0.101,0.001-0.098-0.084c0.008-1.589-0.261-3.146-0.396-4.703H60.055z"/>
<linearGradient id="SVGID_18_" gradientUnits="userSpaceOnUse" x1="56.209" y1="44.5171" x2="57.4033" y2="44.5171">
	<stop  offset="0" style="stop-color:#C8611D"/>
	<stop  offset="1" style="stop-color:#E6781C"/>
</linearGradient>
<path fill="url(#SVGID_18_)" d="M56.209,40.848c1.117,2.285,1.498,4.747,0.941,7.339C57.063,45.74,56.598,43.293,56.209,40.848z"/>
</svg>
