<?xml version="1.0" encoding="utf-8"?>
<!-- Generator: Adobe Illustrator 16.0.0, SVG Export Plug-In . SVG Version: 6.00 Build 0)  -->
<!DOCTYPE svg PUBLIC "-//W3C//DTD SVG 1.1//EN" "http://www.w3.org/Graphics/SVG/1.1/DTD/svg11.dtd">
<svg version="1.1" id="圖層_1" xmlns="http://www.w3.org/2000/svg" xmlns:xlink="http://www.w3.org/1999/xlink" x="0px" y="0px"
	 width="100px" height="100px" viewBox="0 0 100 100" enable-background="new 0 0 100 100" xml:space="preserve">
<linearGradient id="SVGID_1_" gradientUnits="userSpaceOnUse" x1="470.5537" y1="-1537.5562" x2="470.5537" y2="-1415.6421" gradientTransform="matrix(0.7745 0 0 -0.7745 -314.4449 -1093.6261)">
	<stop  offset="0" style="stop-color:#FADB7A"/>
	<stop  offset="1" style="stop-color:#F8F6D5"/>
</linearGradient>
<path fill="url(#SVGID_1_)" d="M49.996,2.793c1.512,0,3.002,0.073,4.479,0.202l43.076,35.917c0.891,3.561,1.373,7.274,1.373,11.09
	c0,26-21.979,47.209-48.925,47.209c-26.942,0-48.924-21.205-48.924-47.209C1.075,24,23.057,2.789,49.999,2.789L49.996,2.793z"/>
<linearGradient id="SVGID_2_" gradientUnits="userSpaceOnUse" x1="470.5537" y1="-1537.5571" x2="470.5537" y2="-1415.6421" gradientTransform="matrix(0.7745 0 0 -0.7745 -314.4449 -1093.6261)">
	<stop  offset="0" style="stop-color:#EDAF6D"/>
	<stop  offset="1" style="stop-color:#F7E1C6"/>
</linearGradient>
<path fill="url(#SVGID_2_)" d="M49.996,2.793c1.506,0,3.002,0.073,4.479,0.202C67.012,15.667,81.372,27.64,97.547,38.913
	c0.895,3.561,1.377,7.274,1.377,11.09c0,26-21.979,47.209-48.925,47.209c-26.949,0-48.924-21.205-48.924-47.209
	C1.075,24,23.05,2.789,49.999,2.789L49.996,2.793z"/>
<linearGradient id="SVGID_3_" gradientUnits="userSpaceOnUse" x1="252.2422" y1="-1186.3843" x2="252.2422" y2="-1092.9492" gradientTransform="matrix(1 0 0 -1 -202.2441 -1089.6621)">
	<stop  offset="0" style="stop-color:#F1B97F"/>
	<stop  offset="1" style="stop-color:#F7E4CC"/>
</linearGradient>
<path fill="url(#SVGID_3_)" d="M49.996,3.287c1.643,0,3.26,0.09,4.855,0.255c12.412,12.319,26.438,24.019,42.08,35.095
	c0.963,3.637,1.479,7.449,1.479,11.37c0,25.733-21.751,46.716-48.414,46.716c-26.669,0-48.413-20.988-48.413-46.716
	c0-25.727,21.75-46.716,48.413-46.716V3.287z"/>
<linearGradient id="SVGID_4_" gradientUnits="userSpaceOnUse" x1="252.2363" y1="-1185.8862" x2="252.2363" y2="-1093.4443" gradientTransform="matrix(1 0 0 -1 -202.2441 -1089.6621)">
	<stop  offset="0" style="stop-color:#F3C18B"/>
	<stop  offset="1" style="stop-color:#F8E7CF"/>
</linearGradient>
<path fill="url(#SVGID_4_)" d="M49.996,3.782c1.771,0,3.516,0.102,5.234,0.305c12.283,11.966,25.976,23.388,41.082,34.266
	c1.022,3.717,1.582,7.626,1.582,11.65c0,25.454-21.521,46.222-47.906,46.222c-26.383,0-47.901-20.768-47.901-46.222
	c0-25.455,21.519-46.221,47.901-46.221H49.996L49.996,3.782z"/>
<linearGradient id="SVGID_5_" gradientUnits="userSpaceOnUse" x1="252.2441" y1="-1185.3921" x2="252.2441" y2="-1093.936" gradientTransform="matrix(1 0 0 -1 -202.2441 -1089.6621)">
	<stop  offset="0" style="stop-color:#F3C795"/>
	<stop  offset="1" style="stop-color:#F9E8D2"/>
</linearGradient>
<path fill="url(#SVGID_5_)" d="M49.996,4.274c1.904,0,3.775,0.121,5.619,0.357c12.146,11.613,25.511,22.763,40.09,33.441
	c1.092,3.799,1.682,7.801,1.682,11.931c0,25.188-21.287,45.728-47.388,45.728c-26.101,0-47.388-20.541-47.388-45.728
	c0-25.187,21.291-45.729,47.388-45.729H49.996z"/>
<linearGradient id="SVGID_6_" gradientUnits="userSpaceOnUse" x1="252.2383" y1="-1184.9058" x2="252.2383" y2="-1094.4351" gradientTransform="matrix(1 0 0 -1 -202.2441 -1089.6621)">
	<stop  offset="0" style="stop-color:#F3CD9F"/>
	<stop  offset="1" style="stop-color:#F9EAD4"/>
</linearGradient>
<path fill="url(#SVGID_6_)" d="M49.996,4.773c2.033,0,4.036,0.139,5.999,0.413C68.016,16.444,81.042,27.312,95.083,37.8
	c1.162,3.873,1.788,7.976,1.788,12.207c0,24.915-21.059,45.237-46.875,45.237c-25.82,0-46.88-20.319-46.88-45.237
	C3.116,25.088,24.176,4.773,49.996,4.773z"/>
<linearGradient id="SVGID_7_" gradientUnits="userSpaceOnUse" x1="252.2393" y1="-1184.4146" x2="252.2393" y2="-1094.9229" gradientTransform="matrix(1 0 0 -1 -202.2441 -1089.6621)">
	<stop  offset="0" style="stop-color:#F4D0A6"/>
	<stop  offset="1" style="stop-color:#F9EBD7"/>
</linearGradient>
<path fill="url(#SVGID_7_)" d="M49.996,5.261c2.166,0,4.296,0.162,6.377,0.469c11.891,10.903,24.589,21.502,38.095,31.784
	c1.226,3.961,1.897,8.154,1.897,12.494c0,24.643-20.834,44.745-46.369,44.745c-25.538,0-46.373-20.103-46.373-44.745
	C3.624,25.365,24.453,5.261,49.996,5.261z"/>
<linearGradient id="SVGID_8_" gradientUnits="userSpaceOnUse" x1="252.2461" y1="-1183.9097" x2="252.2461" y2="-1095.415" gradientTransform="matrix(1 0 0 -1 -202.2441 -1089.6621)">
	<stop  offset="0" style="stop-color:#F5D4AC"/>
	<stop  offset="1" style="stop-color:#F9ECD8"/>
</linearGradient>
<path fill="url(#SVGID_8_)" d="M49.996,5.754c2.3,0,4.557,0.18,6.759,0.524c11.759,10.549,24.129,20.867,37.101,30.954
	c1.299,4.037,2,8.328,2,12.77c0,24.369-20.601,44.246-45.854,44.246S4.146,74.371,4.146,50.002c0-24.371,20.6-44.249,45.854-44.249
	L49.996,5.754L49.996,5.754z"/>
<linearGradient id="SVGID_9_" gradientUnits="userSpaceOnUse" x1="252.2402" y1="-1183.4194" x2="252.2402" y2="-1095.9111" gradientTransform="matrix(1 0 0 -1 -202.2441 -1089.6621)">
	<stop  offset="0" style="stop-color:#F5D8B2"/>
	<stop  offset="1" style="stop-color:#F9EDDA"/>
</linearGradient>
<path fill="url(#SVGID_9_)" d="M49.996,6.249c2.432,0,4.814,0.196,7.141,0.574c11.629,10.2,23.663,20.243,36.102,30.129
	c1.357,4.123,2.103,8.508,2.103,13.051c0,24.103-20.37,43.755-45.343,43.755c-24.979,0-45.349-19.652-45.349-43.755
	C4.647,25.9,25.017,6.249,49.996,6.249z"/>
<linearGradient id="SVGID_10_" gradientUnits="userSpaceOnUse" x1="252.2393" y1="-1182.9253" x2="252.2393" y2="-1096.4033" gradientTransform="matrix(1 0 0 -1 -202.2441 -1089.6621)">
	<stop  offset="0" style="stop-color:#F5DBB7"/>
	<stop  offset="1" style="stop-color:#F9EEDB"/>
</linearGradient>
<path fill="url(#SVGID_10_)" d="M49.996,6.741c2.563,0,5.07,0.214,7.523,0.626c11.496,9.843,23.198,19.609,35.103,29.305
	c1.431,4.197,2.203,8.682,2.203,13.331c0,23.83-20.136,43.261-44.829,43.261c-24.696,0-44.833-19.431-44.833-43.261
	C5.164,26.173,25.304,6.741,49.996,6.741z"/>
<linearGradient id="SVGID_11_" gradientUnits="userSpaceOnUse" x1="512.1094" y1="-1594.5952" x2="512.1094" y2="-1479.4624" gradientTransform="matrix(0.743 0 0 -0.743 -330.5048 -1092.0092)">
	<stop  offset="0" style="stop-color:#F6DDBB"/>
	<stop  offset="1" style="stop-color:#F9EFDC"/>
</linearGradient>
<path fill="url(#SVGID_11_)" d="M49.996,7.236c2.693,0,5.332,0.237,7.9,0.683L92.01,36.395c1.494,4.276,2.305,8.857,2.305,13.608
	c0,23.56-19.91,42.772-44.316,42.772c-24.415,0-44.328-19.215-44.328-42.772c0-23.552,19.913-42.771,44.328-42.771L49.996,7.236
	L49.996,7.236z"/>
<path fill="#D4AA80" d="M54.471,2.995c-0.767,41.508,36.307,33.114,43.072,35.917C82.094,27.646,67.732,15.667,54.471,2.995z"/>
<linearGradient id="SVGID_12_" gradientUnits="userSpaceOnUse" x1="503.1572" y1="-1439.5298" x2="494.8117" y2="-1449.3806" gradientTransform="matrix(0.7745 0 0 -0.7745 -313.4922 -1094.1935)">
	<stop  offset="0" style="stop-color:#E7E9EC"/>
	<stop  offset="0.34" style="stop-color:#FBFBFC"/>
	<stop  offset="1" style="stop-color:#FFFFFF"/>
</linearGradient>
<path fill="url(#SVGID_12_)" d="M54.471,2.995c0.094,26.148,26.291,21.412,43.072,35.917L54.471,2.995z"/>
<g>
	<path fill="#58595B" stroke="#FFFFFF" stroke-width="0.8436" d="M39.27,72.527c-0.926,1.465-2.855,1.899-4.316,0.981l-17.04-10.733
		c-1.46-0.924-1.897-2.852-0.978-4.313l24.639-39.106c0.921-1.46,2.854-1.902,4.315-0.979l17.034,10.734
		c1.464,0.921,1.899,2.851,0.98,4.313L39.27,72.527z"/>
	<path fill="#58595B" stroke="#FFFFFF" stroke-width="0.8436" d="M38.435,75.935c-1.318,1.124-3.287,0.963-4.411-0.349
		L20.952,60.268c-1.12-1.314-0.964-3.287,0.35-4.41l35.162-29.998c1.313-1.122,3.286-0.966,4.409,0.349l13.066,15.319
		c1.122,1.313,0.968,3.285-0.348,4.407L38.435,75.935z"/>
	<path fill="#58595B" stroke="#FFFFFF" stroke-width="0.8436" d="M36.345,80.75c-1.601,0.661-3.427-0.1-4.086-1.696l-7.671-18.619
		c-0.659-1.595,0.099-3.424,1.697-4.081l42.732-17.613c1.598-0.657,3.427,0.102,4.084,1.7l7.673,18.618
		c0.659,1.597-0.104,3.426-1.699,4.082L36.345,80.75z"/>
	<path fill="#58595B" stroke="#FFFFFF" stroke-width="0.8436" d="M33.246,82.88c-1.725,0.134-3.228-1.156-3.359-2.881l-1.539-20.076
		c-0.131-1.722,1.155-3.224,2.88-3.355l46.084-3.534c1.723-0.132,3.226,1.154,3.356,2.879l1.539,20.078
		c0.132,1.724-1.155,3.225-2.877,3.358L33.246,82.88z"/>
	
		<rect x="57.066" y="58.271" fill-rule="evenodd" clip-rule="evenodd" fill="#58595B" stroke="#FFFFFF" stroke-width="0.8436" width="1.271" height="19.37"/>
	<g>
		<g>
			<path fill-rule="evenodd" clip-rule="evenodd" fill="#F5F5F5" d="M55.832,74.61c-1.334-0.445-2.253-1.47-2.75-3.099l-1.692,0.42
				c0.808,2.505,2.287,4.002,4.442,4.501V74.61z"/>
			<path fill-rule="evenodd" clip-rule="evenodd" fill="#F5F5F5" d="M52.197,64.565c0.318,1.687,1.73,3.084,3.635,3.683V66.32
				c-1.276-0.396-2.185-1.373-2.185-2.529c0-1.125,0.874-2.092,2.106-2.502c0.025-0.011,0.055-0.026,0.078-0.04V59.48
				c-0.175,0.033-0.352,0.082-0.522,0.14c-1.586,0.647-2.749,1.872-3.093,3.341c-0.043,0.285-0.072,0.574-0.072,0.884
				C52.145,64.091,52.164,64.329,52.197,64.565z"/>
		</g>
		<g>
			<path fill-rule="evenodd" clip-rule="evenodd" fill="#F5F5F5" d="M59.462,61.796c0.734,0.493,1.205,1.229,1.396,2.185
				l1.702-0.557c-0.72-2.281-2.117-3.59-4.172-3.943v1.782C58.752,61.389,59.113,61.563,59.462,61.796z"/>
			<path fill-rule="evenodd" clip-rule="evenodd" fill="#F5F5F5" d="M61.406,71.768c0,0.87-0.498,1.658-1.278,2.204
				c-0.356,0.295-0.8,0.497-1.348,0.614c-0.116,0.033-0.235,0.068-0.362,0.091v1.756c0.071-0.01,0.137-0.021,0.208-0.034
				c2.576-0.859,4.354-2.659,4.354-4.751c0-2.157-1.874-3.84-4.567-4.669l0.005,1.865C60.133,69.172,61.406,70.352,61.406,71.768z"
				/>
		</g>
	</g>
</g>
</svg>
