<?xml version="1.0" encoding="utf-8"?>
<!-- Generator: Adobe Illustrator 16.0.0, SVG Export Plug-In . SVG Version: 6.00 Build 0)  -->
<!DOCTYPE svg PUBLIC "-//W3C//DTD SVG 1.1//EN" "http://www.w3.org/Graphics/SVG/1.1/DTD/svg11.dtd">
<svg version="1.1" id="圖層_1" xmlns="http://www.w3.org/2000/svg" xmlns:xlink="http://www.w3.org/1999/xlink" x="0px" y="0px"
	 width="100px" height="100px" viewBox="0 0 100 100" enable-background="new 0 0 100 100" xml:space="preserve">
<linearGradient id="SVGID_1_" gradientUnits="userSpaceOnUse" x1="1042.0156" y1="-2522.8433" x2="1042.0156" y2="-2407.2974" gradientTransform="matrix(0.7745 0 0 -0.7745 -757.0411 -1859.1984)">
	<stop  offset="0" style="stop-color:#E7945C"/>
	<stop  offset="1" style="stop-color:#F6D0B2"/>
</linearGradient>
<path fill="url(#SVGID_1_)" d="M50.004,5.259c1.43,0,2.84,0.064,4.245,0.188c12.733,12.184,26.397,23.481,40.825,34.045
	c0.85,3.37,1.297,6.894,1.297,10.506c0,24.645-20.828,44.746-46.367,44.746c-25.542,0-46.375-20.098-46.375-44.746
	c0-24.643,20.833-44.744,46.375-44.744V5.259z"/>
<linearGradient id="SVGID_2_" gradientUnits="userSpaceOnUse" x1="695.1855" y1="-1949.4097" x2="695.1855" y2="-1860.8452" gradientTransform="matrix(1 0 0 -1 -645.1777 -1855.124)">
	<stop  offset="0" style="stop-color:#E18A4E"/>
	<stop  offset="1" style="stop-color:#F3BF95"/>
</linearGradient>
<path fill="url(#SVGID_2_)" d="M50.004,5.721c1.561,0,3.094,0.087,4.604,0.245C67.133,17.797,80.475,28.84,94.498,39.227
	c0.916,3.445,1.396,7.064,1.396,10.78c0,24.386-20.617,44.279-45.882,44.279C24.74,94.285,4.12,74.389,4.12,50.006
	c0-24.393,20.62-44.279,45.893-44.279L50.004,5.721z"/>
<linearGradient id="SVGID_3_" gradientUnits="userSpaceOnUse" x1="695.1807" y1="-1948.9399" x2="695.1807" y2="-1861.3101" gradientTransform="matrix(1 0 0 -1 -645.1777 -1855.124)">
	<stop  offset="0" style="stop-color:#DC8141"/>
	<stop  offset="1" style="stop-color:#F0B07C"/>
</linearGradient>
<path fill="url(#SVGID_3_)" d="M50.004,6.186c1.682,0,3.337,0.096,4.971,0.292C67.271,17.955,80.296,28.74,93.914,38.959
	c0.968,3.524,1.499,7.229,1.499,11.045c0,24.133-20.401,43.813-45.41,43.813c-25.011,0-45.412-19.68-45.412-43.813
	C4.592,25.868,24.994,6.186,50.004,6.186z"/>
<linearGradient id="SVGID_4_" gradientUnits="userSpaceOnUse" x1="695.1836" y1="-1948.479" x2="695.1836" y2="-1861.77" gradientTransform="matrix(1 0 0 -1 -645.1777 -1855.124)">
	<stop  offset="0" style="stop-color:#D87C37"/>
	<stop  offset="1" style="stop-color:#F0A568"/>
</linearGradient>
<path fill="url(#SVGID_4_)" d="M50.004,6.646c1.805,0,3.583,0.116,5.33,0.343c12.085,11.126,24.791,21.659,38.003,31.7
	c1.034,3.604,1.599,7.398,1.599,11.314c0,23.879-20.188,43.353-44.931,43.353c-24.75,0-44.93-19.474-44.93-43.353
	S25.255,6.646,50.004,6.646z"/>
<linearGradient id="SVGID_5_" gradientUnits="userSpaceOnUse" x1="695.1797" y1="-1948.0181" x2="695.1797" y2="-1862.2329" gradientTransform="matrix(1 0 0 -1 -645.1777 -1855.124)">
	<stop  offset="0" style="stop-color:#D4762D"/>
	<stop  offset="1" style="stop-color:#ED9B54"/>
</linearGradient>
<path fill="url(#SVGID_5_)" d="M50.004,7.109c1.936,0,3.827,0.133,5.688,0.396c11.873,10.772,24.254,21.052,37.064,30.919
	c1.102,3.677,1.697,7.567,1.697,11.58c0,23.62-19.969,42.891-44.45,42.891c-24.489,0-44.454-19.268-44.454-42.891
	C5.551,26.376,25.524,7.109,50.004,7.109z"/>
<linearGradient id="SVGID_6_" gradientUnits="userSpaceOnUse" x1="695.1914" y1="-1947.5503" x2="695.1914" y2="-1862.7021" gradientTransform="matrix(1 0 0 -1 -645.1777 -1855.124)">
	<stop  offset="0" style="stop-color:#D17126"/>
	<stop  offset="1" style="stop-color:#EA9244"/>
</linearGradient>
<path fill="url(#SVGID_6_)" d="M50.004,7.578c2.057,0,4.081,0.147,6.057,0.438c11.65,10.422,23.713,20.44,36.117,30.141
	c1.165,3.758,1.799,7.732,1.799,11.846c0,23.366-19.752,42.424-43.961,42.424c-24.22,0-43.966-19.063-43.966-42.424
	C6.046,26.64,25.785,7.578,50.004,7.578z"/>
<linearGradient id="SVGID_7_" gradientUnits="userSpaceOnUse" x1="695.1816" y1="-1947.0903" x2="695.1816" y2="-1863.1611" gradientTransform="matrix(1 0 0 -1 -645.1777 -1855.124)">
	<stop  offset="0" style="stop-color:#CF6C20"/>
	<stop  offset="1" style="stop-color:#E98B33"/>
</linearGradient>
<path fill="url(#SVGID_7_)" d="M50.004,8.037c2.188,0,4.326,0.169,6.415,0.496c11.433,10.064,23.185,19.836,35.179,29.359
	c1.232,3.826,1.896,7.898,1.896,12.112c0,23.107-19.536,41.963-43.487,41.963c-23.95,0-43.494-18.855-43.494-41.963
	C6.51,26.888,26.055,8.037,50.004,8.037L50.004,8.037z"/>
<linearGradient id="SVGID_8_" gradientUnits="userSpaceOnUse" x1="695.1758" y1="-1946.6255" x2="695.1758" y2="-1863.625" gradientTransform="matrix(1 0 0 -1 -645.1777 -1855.124)">
	<stop  offset="0" style="stop-color:#CC671D"/>
	<stop  offset="1" style="stop-color:#E88326"/>
</linearGradient>
<path fill="url(#SVGID_8_)" d="M50.004,8.501c2.311,0,4.57,0.185,6.773,0.543c11.222,9.712,22.646,19.23,34.24,28.579
	c1.299,3.908,1.988,8.068,1.988,12.379c0,22.854-19.313,41.5-43.005,41.5c-23.688,0-43.013-18.646-43.013-41.5
	C6.992,27.144,26.316,8.501,50.004,8.501z"/>
<linearGradient id="SVGID_9_" gradientUnits="userSpaceOnUse" x1="695.1865" y1="-1946.1626" x2="695.1865" y2="-1864.083" gradientTransform="matrix(1 0 0 -1 -645.1777 -1855.124)">
	<stop  offset="0" style="stop-color:#CA641C"/>
	<stop  offset="1" style="stop-color:#E67E1F"/>
</linearGradient>
<path fill="url(#SVGID_9_)" d="M50.004,8.959c2.432,0,4.816,0.207,7.141,0.597c11,9.359,22.106,18.619,33.295,27.798
	c1.36,3.979,2.101,8.237,2.101,12.649c0,22.601-19.106,41.036-42.533,41.036S7.476,72.609,7.476,50.003
	C7.473,27.397,26.577,8.959,50.004,8.959z"/>
<linearGradient id="SVGID_10_" gradientUnits="userSpaceOnUse" x1="1106.6934" y1="-2620.1128" x2="1106.6934" y2="-2510.9946" gradientTransform="matrix(0.7437 0 0 -0.7437 -773.0422 -1857.994)">
	<stop  offset="0" style="stop-color:#C8611D"/>
	<stop  offset="1" style="stop-color:#E6781C"/>
</linearGradient>
<path fill="url(#SVGID_10_)" d="M50.004,9.433c2.555,0,5.061,0.22,7.5,0.644l32.354,27.017c1.42,4.06,2.195,8.402,2.195,12.914
	c0,22.348-18.891,40.576-42.05,40.576c-23.158,0-42.045-18.229-42.045-40.576C7.959,27.655,26.847,9.433,50.004,9.433z"/>
<path fill="#9F653A" d="M54.249,5.448C53.521,44.79,88.652,36.831,95.074,39.493C80.305,28.699,66.766,17.323,54.249,5.448z"/>
<linearGradient id="SVGID_11_" gradientUnits="userSpaceOnUse" x1="1072.8633" y1="-2429.9736" x2="1064.953" y2="-2439.3105" gradientTransform="matrix(0.7745 0 0 -0.7745 -756.088 -1859.7657)">
	<stop  offset="0" style="stop-color:#DCDDE1"/>
	<stop  offset="0.29" style="stop-color:#F2F3F5"/>
	<stop  offset="1" style="stop-color:#FFFFFF"/>
</linearGradient>
<path fill="url(#SVGID_11_)" d="M54.249,5.444c0.085,24.782,24.916,20.295,40.825,34.042L54.249,5.444z"/>
<linearGradient id="SVGID_12_" gradientUnits="userSpaceOnUse" x1="34.3521" y1="48.3296" x2="61.5236" y2="43.5385">
	<stop  offset="0" style="stop-color:#EAEAE3"/>
	<stop  offset="1" style="stop-color:#FFFFFF"/>
</linearGradient>
<path fill-rule="evenodd" clip-rule="evenodd" fill="url(#SVGID_12_)" d="M68.296,45.964c10.937-1.762,4.434-13.273-3.018-9.741
	c-2.863,1.357-4.655,4.867-3.877,8.823l-25.689,6.301c0.215,1.76,4.144,2.176,7.922,2.086c5.652-0.135,8.375-3.209,13.185-5.123
	C60.388,46.891,64.718,46.541,68.296,45.964L68.296,45.964z M63.02,42.596c-0.675-1.669,0.829-3.852,3.356-4.873
	c2.527-1.021,5.124-0.497,5.799,1.173c0.675,1.669-0.828,3.852-3.356,4.873C66.29,44.791,63.693,44.266,63.02,42.596z"/>
<linearGradient id="SVGID_13_" gradientUnits="userSpaceOnUse" x1="64.7314" y1="47.6094" x2="70.7995" y2="35.1681">
	<stop  offset="0" style="stop-color:#F6DDBB"/>
	<stop  offset="1" style="stop-color:#F9EFDC"/>
</linearGradient>
<path fill-rule="evenodd" clip-rule="evenodd" fill="url(#SVGID_13_)" d="M68.296,45.964c10.937-1.762,4.434-13.273-3.018-9.741
	c-2.863,1.357-4.655,4.867-3.877,8.823l-1.357,0.333l-0.107,0.535c0,0,0.649,0.54,1.586,1.094
	C63.835,46.563,66.196,46.303,68.296,45.964L68.296,45.964z M63.02,42.596c-0.675-1.669,0.829-3.852,3.356-4.873
	c2.527-1.021,5.124-0.497,5.799,1.173c0.675,1.669-0.828,3.852-3.356,4.873C66.29,44.791,63.693,44.266,63.02,42.596z"/>
<linearGradient id="SVGID_14_" gradientUnits="userSpaceOnUse" x1="76.8379" y1="51.5244" x2="34.0842" y2="39.265">
	<stop  offset="0" style="stop-color:#EAEAE3"/>
	<stop  offset="1" style="stop-color:#C3C3A0"/>
</linearGradient>
<path fill-rule="evenodd" clip-rule="evenodd" fill="url(#SVGID_14_)" d="M68.296,46.512c10.937-1.763,4.434-13.274-3.018-9.742
	c-2.863,1.358-4.655,4.867-3.877,8.823l-25.689,6.302c0.215,1.76,4.144,2.176,7.922,2.086c5.652-0.137,8.375-3.209,13.185-5.123
	C60.388,47.438,64.718,47.088,68.296,46.512L68.296,46.512z M63.02,43.143c-0.675-1.669,0.829-3.852,3.356-4.873
	s5.124-0.496,5.799,1.174c0.675,1.669-0.828,3.851-3.356,4.873C66.29,45.337,63.693,44.812,63.02,43.143z"/>
<linearGradient id="SVGID_15_" gradientUnits="userSpaceOnUse" x1="60.291" y1="44.4243" x2="67.9942" y2="41.312">
	<stop  offset="0" style="stop-color:#F6DDBB"/>
	<stop  offset="1" style="stop-color:#F9EFDC"/>
</linearGradient>
<path fill-rule="evenodd" clip-rule="evenodd" fill="url(#SVGID_15_)" d="M68.296,46.512c10.937-1.763,4.434-13.274-3.018-9.742
	c-2.863,1.358-4.655,4.867-3.877,8.823l-1.517,0.373l0.711,1.779C63.197,47.179,65.914,46.895,68.296,46.512L68.296,46.512z
	 M63.02,43.143c-0.675-1.669,0.829-3.852,3.356-4.873s5.124-0.496,5.799,1.174c0.675,1.669-0.828,3.851-3.356,4.873
	C66.29,45.337,63.693,44.812,63.02,43.143z"/>
<path fill-rule="evenodd" clip-rule="evenodd" fill="#FFFFFF" d="M20.462,44.325h29.343c0.649,0,1.18,0.521,1.18,1.158v29.314
	c0,0.637-0.53,1.158-1.18,1.158H20.462c-0.649,0-1.18-0.521-1.18-1.158V45.482C19.283,44.846,19.813,44.325,20.462,44.325z"/>
<linearGradient id="SVGID_16_" gradientUnits="userSpaceOnUse" x1="34.1357" y1="59.2813" x2="49.2456" y2="79.3328">
	<stop  offset="0" style="stop-color:#F6DDBB"/>
	<stop  offset="1" style="stop-color:#F9EFDC"/>
</linearGradient>
<path fill-rule="evenodd" clip-rule="evenodd" fill="url(#SVGID_16_)" d="M20.462,44.791h29.343c0.649,0,1.18,0.521,1.18,1.159
	v29.314c0,0.637-0.53,1.158-1.18,1.158H20.462c-0.649,0-1.18-0.521-1.18-1.158V45.95C19.283,45.313,19.813,44.791,20.462,44.791z"/>
<linearGradient id="SVGID_17_" gradientUnits="userSpaceOnUse" x1="31.5371" y1="44.5342" x2="37.1428" y2="64.0837">
	<stop  offset="0" style="stop-color:#F1B97F"/>
	<stop  offset="1" style="stop-color:#F7E4CC"/>
</linearGradient>
<path fill-rule="evenodd" clip-rule="evenodd" fill="url(#SVGID_17_)" d="M20.462,44.791h29.343c0.25,0,0.483,0.078,0.674,0.209
	C49.661,63.865,34.776,67.6,19.283,67.395V45.95C19.283,45.313,19.813,44.791,20.462,44.791z"/>
<path fill="#231815" d="M23.707,46.115c-0.431,0-0.437,0.662,0,0.662h0.663c0.431,0,0.437-0.662,0-0.662H23.707L23.707,46.115z
	 M22.554,47.11c0.341-0.223,0.052-0.849-0.431-0.508l-0.498,0.427c-0.266,0.292,0.146,0.802,0.518,0.414L22.554,47.11L22.554,47.11z
	 M21.532,49.07c0-0.431-0.663-0.437-0.663,0v0.662c0,0.43,0.663,0.438,0.663,0V49.07L21.532,49.07z M21.532,51.721
	c0-0.432-0.663-0.438-0.663,0v0.662c0,0.43,0.663,0.436,0.663,0V51.721L21.532,51.721z M21.532,54.369c0-0.43-0.663-0.436-0.663,0
	v0.662c0,0.432,0.663,0.438,0.663,0V54.369L21.532,54.369z M21.532,57.02c0-0.43-0.663-0.438-0.663,0v0.662
	c0,0.432,0.663,0.438,0.663,0V57.02L21.532,57.02z M21.532,59.67c0-0.432-0.663-0.438-0.663,0v0.662c0,0.432,0.663,0.438,0.663,0
	V59.67L21.532,59.67z M21.532,62.32c0-0.432-0.663-0.438-0.663,0v0.662c0,0.432,0.663,0.438,0.663,0V62.32L21.532,62.32z
	 M21.532,64.971c0-0.432-0.663-0.438-0.663,0v0.662c0,0.43,0.663,0.438,0.663,0V64.971L21.532,64.971z M21.532,67.619
	c0-0.43-0.663-0.436-0.663,0v0.664c0,0.43,0.663,0.436,0.663,0V67.619L21.532,67.619z M21.532,70.271c0-0.432-0.663-0.438-0.663,0
	v0.662c0,0.432,0.663,0.436,0.663,0V70.271L21.532,70.271z M21.606,72.826C21.498,72.41,20.857,72.58,20.967,73
	c0.046,0.184,0.176,0.545,0.292,0.689c0.211,0.369,0.782,0.041,0.567-0.336l0.001-0.002L21.606,72.826L21.606,72.826z
	 M23.167,74.369c-0.417-0.105-0.579,0.531-0.16,0.643l0.736,0.086c0.447,0,0.438-0.68-0.051-0.66L23.167,74.369L23.167,74.369z
	 M25.731,74.436c-0.431,0-0.437,0.662,0,0.662h0.663c0.431,0,0.437-0.662,0-0.662H25.731L25.731,74.436z M28.381,74.436
	c-0.431,0-0.437,0.662,0,0.662h0.662c0.431,0,0.437-0.662,0-0.662H28.381L28.381,74.436z M31.031,74.436
	c-0.431,0-0.437,0.662,0,0.662h0.663c0.431,0,0.437-0.662,0-0.662H31.031L31.031,74.436z M33.681,74.436
	c-0.431,0-0.437,0.662,0,0.662h0.663c0.431,0,0.437-0.662,0-0.662H33.681L33.681,74.436z M36.332,74.436
	c-0.431,0-0.437,0.662,0,0.662h0.662c0.431,0,0.437-0.662,0-0.662H36.332L36.332,74.436z M38.981,74.436
	c-0.431,0-0.437,0.662,0,0.662h0.663c0.431,0,0.437-0.662,0-0.662H38.981L38.981,74.436z M41.631,74.436
	c-0.431,0-0.437,0.662,0,0.662h0.663c0.431,0,0.437-0.662,0-0.662H41.631L41.631,74.436z M44.282,74.436
	c-0.431,0-0.437,0.662,0,0.662h0.662c0.431,0,0.437-0.662,0-0.662H44.282L44.282,74.436z M46.881,74.414
	c-0.413,0.066-0.37,0.74,0.163,0.643c0.215-0.039,0.462-0.092,0.654-0.197c0.395-0.18,0.123-0.781-0.268-0.604l-0.001-0.002
	L46.881,74.414L46.881,74.414z M48.592,73.039c-0.133,0.385,0.466,0.717,0.657,0.129l0.135-0.623
	c0.035-0.402-0.608-0.547-0.664-0.008L48.592,73.039L48.592,73.039z M48.737,70.527c0,0.43,0.662,0.436,0.662,0v-0.662
	c0-0.432-0.662-0.439-0.662,0V70.527L48.737,70.527z M48.737,67.877c0,0.43,0.662,0.436,0.662,0v-0.664c0-0.43-0.662-0.436-0.662,0
	V67.877L48.737,67.877z M48.737,65.225c0,0.432,0.662,0.438,0.662,0v-0.662c0-0.43-0.662-0.436-0.662,0V65.225L48.737,65.225z
	 M48.737,62.576c0,0.43,0.662,0.438,0.662,0v-0.662c0-0.432-0.662-0.438-0.662,0V62.576L48.737,62.576z M48.737,59.926
	c0,0.432,0.662,0.438,0.662,0v-0.662c0-0.43-0.662-0.438-0.662,0V59.926L48.737,59.926z M48.737,57.275c0,0.432,0.662,0.438,0.662,0
	v-0.662c0-0.432-0.662-0.438-0.662,0V57.275L48.737,57.275z M48.737,54.625c0,0.432,0.662,0.438,0.662,0v-0.662
	c0-0.43-0.662-0.436-0.662,0V54.625L48.737,54.625z M48.737,51.977c0,0.43,0.662,0.436,0.662,0v-0.664c0-0.43-0.662-0.436-0.662,0
	V51.977L48.737,51.977z M48.737,49.326c0,0.43,0.662,0.436,0.662,0l-0.02-0.702c-0.043-0.402-0.706-0.398-0.652,0.119L48.737,49.326
	L48.737,49.326z M47.897,47.239c0.317,0.251,0.814-0.23,0.332-0.578l-0.572-0.324c-0.388-0.169-0.674,0.438-0.215,0.627
	L47.897,47.239L47.897,47.239z M45.57,46.777c0.431,0,0.437-0.662,0-0.662h-0.662c-0.431,0-0.438,0.662,0,0.662H45.57L45.57,46.777z
	 M42.92,46.777c0.431,0,0.437-0.662,0-0.662h-0.662c-0.431,0-0.437,0.662,0,0.662H42.92L42.92,46.777z M40.27,46.777
	c0.431,0,0.437-0.662,0-0.662h-0.663c-0.431,0-0.437,0.662,0,0.662H40.27L40.27,46.777z M37.62,46.777c0.431,0,0.437-0.662,0-0.662
	h-0.663c-0.431,0-0.437,0.662,0,0.662H37.62L37.62,46.777z M34.97,46.777c0.431,0,0.437-0.662,0-0.662h-0.663
	c-0.431,0-0.437,0.662,0,0.662H34.97L34.97,46.777z M32.32,46.777c0.431,0,0.437-0.662,0-0.662h-0.663c-0.431,0-0.437,0.662,0,0.662
	H32.32L32.32,46.777z M29.67,46.777c0.431,0,0.437-0.662,0-0.662h-0.663c-0.43,0-0.436,0.662,0,0.662H29.67L29.67,46.777z
	 M27.02,46.777c0.431,0,0.437-0.662,0-0.662h-0.663c-0.43,0-0.437,0.662,0,0.662H27.02z"/>
<g>
	<linearGradient id="SVGID_18_" gradientUnits="userSpaceOnUse" x1="38.6445" y1="46.9756" x2="59.8455" y2="51.0966">
		<stop  offset="0" style="stop-color:#EAEAE3"/>
		<stop  offset="1" style="stop-color:#FFFFFF"/>
	</linearGradient>
	<path fill-rule="evenodd" clip-rule="evenodd" fill="url(#SVGID_18_)" d="M68.844,49.012c10.937,1.76,4.433,13.273-3.018,9.74
		c-2.863-1.357-4.655-4.867-3.877-8.824l-25.689-6.3c0.214-1.759,4.144-2.176,7.921-2.086c5.651,0.136,8.375,3.209,13.186,5.123
		C60.934,48.084,65.266,48.435,68.844,49.012L68.844,49.012z M63.567,52.381c-0.675,1.668,0.827,3.852,3.355,4.871
		c2.528,1.021,5.125,0.498,5.8-1.172c0.674-1.67-0.829-3.852-3.356-4.873C66.838,50.186,64.241,50.711,63.567,52.381z"/>
	<linearGradient id="SVGID_19_" gradientUnits="userSpaceOnUse" x1="69.6318" y1="51.7119" x2="73.8649" y2="49.9151">
		<stop  offset="0" style="stop-color:#F1B97F"/>
		<stop  offset="1" style="stop-color:#F7E4CC"/>
	</linearGradient>
	<path fill-rule="evenodd" clip-rule="evenodd" fill="url(#SVGID_19_)" d="M68.844,49.012c10.937,1.76,4.433,13.273-3.018,9.74
		c-2.863-1.357-4.655-4.867-3.877-8.824l-2.144-0.525c0.474-0.527,0.836-0.892,0.813-0.882l0.072-0.843
		C63.43,48.311,66.323,48.604,68.844,49.012L68.844,49.012z M63.567,52.381c-0.675,1.668,0.827,3.852,3.355,4.871
		c2.528,1.021,5.125,0.498,5.8-1.172c0.674-1.67-0.829-3.852-3.356-4.873C66.838,50.186,64.241,50.711,63.567,52.381z"/>
	<linearGradient id="SVGID_20_" gradientUnits="userSpaceOnUse" x1="54.6758" y1="50.6387" x2="56.2302" y2="44.4042">
		<stop  offset="0" style="stop-color:#D6D6C4"/>
		<stop  offset="1" style="stop-color:#FFFFFF"/>
	</linearGradient>
	<path fill-rule="evenodd" clip-rule="evenodd" fill="url(#SVGID_20_)" d="M68.296,49.666c10.937,1.764,4.434,13.273-3.018,9.742
		c-2.863-1.357-4.655-4.867-3.877-8.822l-25.689-6.302c0.215-1.759,4.144-2.176,7.922-2.085c5.652,0.135,8.375,3.208,13.185,5.122
		C60.388,48.741,64.718,49.09,68.296,49.666L68.296,49.666z M63.02,53.035c-0.675,1.67,0.829,3.852,3.356,4.873
		s5.124,0.496,5.799-1.172c0.675-1.67-0.828-3.852-3.356-4.873S63.693,51.367,63.02,53.035z"/>
	<linearGradient id="SVGID_21_" gradientUnits="userSpaceOnUse" x1="60.21" y1="51.8828" x2="67.9665" y2="54.8603">
		<stop  offset="0" style="stop-color:#F6DDBB"/>
		<stop  offset="1" style="stop-color:#F9EFDC"/>
	</linearGradient>
	<path fill-rule="evenodd" clip-rule="evenodd" fill="url(#SVGID_21_)" d="M68.296,49.666c10.937,1.764,4.434,13.273-3.018,9.742
		c-2.863-1.357-4.655-4.867-3.877-8.822l-1.517-0.373l0.711-1.779C63.197,49,65.914,49.283,68.296,49.666L68.296,49.666z
		 M63.02,53.035c-0.675,1.67,0.829,3.852,3.356,4.873s5.124,0.496,5.799-1.172c0.675-1.67-0.828-3.852-3.356-4.873
		S63.693,51.367,63.02,53.035z"/>
	<linearGradient id="SVGID_22_" gradientUnits="userSpaceOnUse" x1="54.4883" y1="47.7666" x2="56.4605" y2="48.3321">
		<stop  offset="0" style="stop-color:#0079B5"/>
		<stop  offset="1" style="stop-color:#FFFFFF"/>
	</linearGradient>
	<circle fill-rule="evenodd" clip-rule="evenodd" fill="url(#SVGID_22_)" cx="55.27" cy="47.992" r="0.949"/>
</g>
<linearGradient id="SVGID_23_" gradientUnits="userSpaceOnUse" x1="40.9287" y1="63.7148" x2="43.0371" y2="66.5128">
	<stop  offset="0" style="stop-color:#C8611D"/>
	<stop  offset="1" style="stop-color:#E6781C"/>
</linearGradient>
<path fill="url(#SVGID_23_)" d="M37.027,65.105c0-0.4,0.041-0.842,0.135-1.32c0.09-0.477,0.243-0.959,0.464-1.436
	c0.22-0.477,0.518-0.914,0.896-1.314c0.378-0.396,0.851-0.721,1.422-0.959c0.572-0.242,1.256-0.369,2.053-0.373
	c0.797,0.004,1.481,0.131,2.053,0.373c0.572,0.238,1.045,0.563,1.423,0.959c0.378,0.4,0.679,0.838,0.896,1.314
	c0.221,0.477,0.374,0.959,0.469,1.436c0.09,0.479,0.135,0.92,0.129,1.32c-0.004,0.918-0.129,1.697-0.368,2.336
	c-0.244,0.635-0.559,1.156-0.946,1.563c-0.388,0.4-0.806,0.711-1.252,0.932c-0.45,0.221-0.882,0.369-1.305,0.455
	c-0.423,0.08-0.788,0.121-1.099,0.117c-0.311,0.004-0.675-0.037-1.098-0.117c-0.419-0.086-0.855-0.234-1.306-0.455
	c-0.446-0.221-0.865-0.531-1.251-0.932c-0.387-0.406-0.702-0.928-0.941-1.563C37.158,66.803,37.037,66.023,37.027,65.105z"/>
<linearGradient id="SVGID_24_" gradientUnits="userSpaceOnUse" x1="33.7666" y1="58.4004" x2="37.2358" y2="63.0041">
	<stop  offset="0" style="stop-color:#C8611D"/>
	<stop  offset="1" style="stop-color:#E6781C"/>
</linearGradient>
<polygon fill="url(#SVGID_24_)" points="28.087,70.156 40.134,51.248 42.916,51.248 30.869,70.156 "/>
<linearGradient id="SVGID_25_" gradientUnits="userSpaceOnUse" x1="33.1572" y1="53.4395" x2="40.0616" y2="64.4887">
	<stop  offset="0" style="stop-color:#C8611D"/>
	<stop  offset="1" style="stop-color:#E6781C"/>
</linearGradient>
<path fill="url(#SVGID_25_)" d="M33.505,66.02c-1.042,0.26-2.111,0.48-3.204,0.66l9.833-15.432h2.782L33.505,66.02z"/>
<linearGradient id="SVGID_26_" gradientUnits="userSpaceOnUse" x1="39.1709" y1="60.0605" x2="42.0829" y2="64.7208">
	<stop  offset="0" style="stop-color:#C8611D"/>
	<stop  offset="1" style="stop-color:#E6781C"/>
</linearGradient>
<path fill="url(#SVGID_26_)" d="M44.483,60.283c-0.138-0.076-0.281-0.145-0.433-0.207c-0.572-0.242-1.256-0.369-2.053-0.373
	c-0.797,0.004-1.481,0.131-2.053,0.373c-0.571,0.238-1.044,0.563-1.422,0.959c-0.378,0.4-0.675,0.838-0.896,1.314
	c-0.221,0.477-0.374,0.959-0.464,1.436c-0.08,0.404-0.121,0.781-0.132,1.131c1.076-0.41,2.108-0.883,3.089-1.422
	c0.122-0.373,0.278-0.678,0.469-0.914c0.212-0.262,0.437-0.447,0.68-0.568c0.248-0.117,0.491-0.176,0.729-0.176
	c0.209,0.004,0.4,0.031,0.572,0.086C43.243,61.42,43.881,60.873,44.483,60.283z"/>
<linearGradient id="SVGID_27_" gradientUnits="userSpaceOnUse" x1="26.499" y1="52.2783" x2="31.5288" y2="60.3276">
	<stop  offset="0" style="stop-color:#C8611D"/>
	<stop  offset="1" style="stop-color:#E6781C"/>
</linearGradient>
<path fill="url(#SVGID_27_)" d="M24.062,56.299c0.009-0.918,0.131-1.697,0.365-2.336c0.234-0.635,0.544-1.156,0.923-1.563
	c0.383-0.4,0.797-0.715,1.238-0.932c0.445-0.221,0.877-0.369,1.301-0.455c0.423-0.08,0.797-0.121,1.117-0.117
	c0.315-0.004,0.684,0.037,1.107,0.121c0.423,0.086,0.86,0.24,1.306,0.461c0.45,0.219,0.865,0.531,1.251,0.936
	c0.387,0.404,0.698,0.924,0.937,1.557c0.239,0.641,0.36,1.414,0.369,2.328c-0.004,0.848-0.112,1.576-0.329,2.188
	c-0.212,0.617-0.495,1.131-0.851,1.545c-0.36,0.414-0.752,0.742-1.188,0.99c-0.437,0.244-0.878,0.418-1.328,0.527
	c-0.45,0.104-0.873,0.152-1.274,0.152c-0.329,0.004-0.711-0.035-1.135-0.125c-0.428-0.086-0.864-0.24-1.305-0.459
	c-0.441-0.227-0.851-0.541-1.229-0.947c-0.378-0.404-0.684-0.922-0.914-1.557C24.188,57.979,24.071,57.209,24.062,56.299z"/>
<linearGradient id="SVGID_28_" gradientUnits="userSpaceOnUse" x1="28.5225" y1="52.8555" x2="29.3146" y2="58.4917">
	<stop  offset="0" style="stop-color:#F6DDBB"/>
	<stop  offset="1" style="stop-color:#F9EFDC"/>
</linearGradient>
<path fill="url(#SVGID_28_)" d="M26.898,56.299c0.004,0.594,0.067,1.1,0.198,1.514c0.126,0.418,0.292,0.756,0.5,1.012
	c0.207,0.258,0.437,0.445,0.68,0.568c0.248,0.115,0.491,0.176,0.729,0.176c0.238,0,0.481-0.061,0.729-0.176
	c0.243-0.123,0.473-0.311,0.68-0.568c0.207-0.256,0.373-0.594,0.504-1.012c0.126-0.414,0.189-0.92,0.194-1.514
	c-0.005-0.639-0.077-1.17-0.212-1.594c-0.135-0.422-0.311-0.756-0.527-1.004c-0.216-0.242-0.445-0.418-0.684-0.521
	c-0.243-0.104-0.468-0.154-0.684-0.148c-0.212-0.006-0.441,0.045-0.684,0.148c-0.239,0.104-0.469,0.279-0.685,0.521
	c-0.216,0.248-0.392,0.582-0.527,1.004C26.975,55.129,26.903,55.66,26.898,56.299z"/>
<linearGradient id="SVGID_29_" gradientUnits="userSpaceOnUse" x1="41.8486" y1="64.7891" x2="43.8981" y2="68.9911">
	<stop  offset="0" style="stop-color:#F6DDBB"/>
	<stop  offset="1" style="stop-color:#F9EFDC"/>
</linearGradient>
<path fill="url(#SVGID_29_)" d="M39.891,65.105c0.004,0.729,0.108,1.336,0.302,1.818c0.194,0.486,0.45,0.846,0.765,1.088
	c0.32,0.24,0.667,0.361,1.04,0.361c0.216,0.004,0.441-0.045,0.684-0.146c0.239-0.105,0.468-0.281,0.685-0.525
	c0.216-0.246,0.392-0.58,0.526-1.002c0.14-0.424,0.208-0.955,0.212-1.594c0.004-0.135-0.009-0.334-0.031-0.592
	c-0.023-0.256-0.072-0.535-0.149-0.84c-0.077-0.303-0.189-0.596-0.342-0.873c-0.157-0.281-0.36-0.51-0.616-0.686
	c-0.257-0.18-0.581-0.273-0.968-0.279c-0.238,0-0.481,0.059-0.729,0.176c-0.243,0.121-0.468,0.307-0.68,0.568
	c-0.207,0.256-0.374,0.594-0.5,1.012C39.958,64.006,39.895,64.51,39.891,65.105z"/>
</svg>
