<?xml version="1.0" encoding="utf-8"?>
<!-- Generator: Adobe Illustrator 16.0.0, SVG Export Plug-In . SVG Version: 6.00 Build 0)  -->
<!DOCTYPE svg PUBLIC "-//W3C//DTD SVG 1.1//EN" "http://www.w3.org/Graphics/SVG/1.1/DTD/svg11.dtd">
<svg version="1.1" id="圖層_1" xmlns="http://www.w3.org/2000/svg" xmlns:xlink="http://www.w3.org/1999/xlink" x="0px" y="0px"
	 width="100px" height="100px" viewBox="0 0 100 100" enable-background="new 0 0 100 100" xml:space="preserve">
<linearGradient id="SVGID_1_" gradientUnits="userSpaceOnUse" x1="722.4697" y1="2145.1768" x2="722.4697" y2="2029.6309" gradientTransform="matrix(0.7745 0 0 0.7745 -509.5537 -1566.6957)">
	<stop  offset="0" style="stop-color:#E7945C"/>
	<stop  offset="1" style="stop-color:#F6D0B2"/>
</linearGradient>
<path fill="url(#SVGID_1_)" d="M50.004,5.259c1.43,0,2.84,0.064,4.245,0.188c12.733,12.184,26.397,23.481,40.825,34.045
	c0.85,3.37,1.297,6.894,1.297,10.506c0,24.645-20.828,44.746-46.367,44.746c-25.542,0-46.375-20.098-46.375-44.746
	c0-24.643,20.833-44.744,46.375-44.744V5.259z"/>
<linearGradient id="SVGID_2_" gradientUnits="userSpaceOnUse" x1="447.5859" y1="1679.5703" x2="447.5859" y2="1591.0059" gradientTransform="matrix(1 0 0 1 -397.5781 -1585.2842)">
	<stop  offset="0" style="stop-color:#E18A4E"/>
	<stop  offset="1" style="stop-color:#F3BF95"/>
</linearGradient>
<path fill="url(#SVGID_2_)" d="M50.004,5.721c1.561,0,3.094,0.087,4.604,0.245C67.133,17.797,80.475,28.84,94.498,39.227
	c0.916,3.445,1.396,7.064,1.396,10.78c0,24.386-20.617,44.279-45.882,44.279C24.74,94.285,4.12,74.389,4.12,50.006
	c0-24.393,20.62-44.279,45.893-44.279L50.004,5.721z"/>
<linearGradient id="SVGID_3_" gradientUnits="userSpaceOnUse" x1="447.5801" y1="1679.1006" x2="447.5801" y2="1591.4707" gradientTransform="matrix(1 0 0 1 -397.5781 -1585.2842)">
	<stop  offset="0" style="stop-color:#DC8141"/>
	<stop  offset="1" style="stop-color:#F0B07C"/>
</linearGradient>
<path fill="url(#SVGID_3_)" d="M50.004,6.186c1.682,0,3.337,0.096,4.971,0.292C67.271,17.955,80.296,28.74,93.914,38.959
	c0.968,3.524,1.499,7.229,1.499,11.045c0,24.133-20.401,43.813-45.41,43.813c-25.011,0-45.412-19.68-45.412-43.813
	C4.592,25.868,24.994,6.186,50.004,6.186z"/>
<linearGradient id="SVGID_4_" gradientUnits="userSpaceOnUse" x1="447.584" y1="1678.6396" x2="447.584" y2="1591.9307" gradientTransform="matrix(1 0 0 1 -397.5781 -1585.2842)">
	<stop  offset="0" style="stop-color:#D87C37"/>
	<stop  offset="1" style="stop-color:#F0A568"/>
</linearGradient>
<path fill="url(#SVGID_4_)" d="M50.004,6.646c1.805,0,3.583,0.116,5.33,0.343c12.085,11.126,24.791,21.659,38.003,31.7
	c1.034,3.604,1.599,7.398,1.599,11.314c0,23.879-20.188,43.353-44.931,43.353c-24.75,0-44.93-19.474-44.93-43.353
	S25.255,6.646,50.004,6.646z"/>
<linearGradient id="SVGID_5_" gradientUnits="userSpaceOnUse" x1="447.5791" y1="1678.1787" x2="447.5791" y2="1592.3936" gradientTransform="matrix(1 0 0 1 -397.5781 -1585.2842)">
	<stop  offset="0" style="stop-color:#D4762D"/>
	<stop  offset="1" style="stop-color:#ED9B54"/>
</linearGradient>
<path fill="url(#SVGID_5_)" d="M50.004,7.109c1.936,0,3.827,0.133,5.688,0.396c11.873,10.772,24.254,21.052,37.064,30.919
	c1.102,3.677,1.697,7.567,1.697,11.58c0,23.62-19.969,42.891-44.45,42.891c-24.489,0-44.454-19.268-44.454-42.891
	C5.551,26.376,25.524,7.109,50.004,7.109z"/>
<linearGradient id="SVGID_6_" gradientUnits="userSpaceOnUse" x1="447.5898" y1="1677.7109" x2="447.5898" y2="1592.8633" gradientTransform="matrix(1 0 0 1 -397.5781 -1585.2842)">
	<stop  offset="0" style="stop-color:#D17126"/>
	<stop  offset="1" style="stop-color:#EA9244"/>
</linearGradient>
<path fill="url(#SVGID_6_)" d="M50.004,7.578c2.057,0,4.081,0.147,6.057,0.438c11.65,10.422,23.713,20.44,36.117,30.141
	c1.165,3.758,1.799,7.732,1.799,11.846c0,23.366-19.752,42.424-43.962,42.424c-24.22,0-43.966-19.063-43.966-42.424
	C6.046,26.64,25.785,7.578,50.004,7.578z"/>
<linearGradient id="SVGID_7_" gradientUnits="userSpaceOnUse" x1="447.582" y1="1677.251" x2="447.582" y2="1593.3223" gradientTransform="matrix(1 0 0 1 -397.5781 -1585.2842)">
	<stop  offset="0" style="stop-color:#CF6C20"/>
	<stop  offset="1" style="stop-color:#E98B33"/>
</linearGradient>
<path fill="url(#SVGID_7_)" d="M50.004,8.037c2.188,0,4.326,0.169,6.415,0.496c11.433,10.064,23.185,19.836,35.179,29.359
	c1.232,3.826,1.896,7.898,1.896,12.112c0,23.107-19.536,41.963-43.487,41.963c-23.95,0-43.494-18.855-43.494-41.963
	C6.51,26.888,26.055,8.037,50.004,8.037L50.004,8.037z"/>
<linearGradient id="SVGID_8_" gradientUnits="userSpaceOnUse" x1="447.5762" y1="1676.7861" x2="447.5762" y2="1593.7852" gradientTransform="matrix(1 0 0 1 -397.5781 -1585.2842)">
	<stop  offset="0" style="stop-color:#CC671D"/>
	<stop  offset="1" style="stop-color:#E88326"/>
</linearGradient>
<path fill="url(#SVGID_8_)" d="M50.004,8.501c2.311,0,4.57,0.185,6.773,0.543c11.222,9.712,22.646,19.23,34.24,28.579
	c1.299,3.908,1.989,8.068,1.989,12.379c0,22.854-19.313,41.5-43.005,41.5c-23.688,0-43.013-18.646-43.013-41.5
	C6.992,27.144,26.316,8.501,50.004,8.501z"/>
<linearGradient id="SVGID_9_" gradientUnits="userSpaceOnUse" x1="447.585" y1="1676.3232" x2="447.585" y2="1594.2441" gradientTransform="matrix(1 0 0 1 -397.5781 -1585.2842)">
	<stop  offset="0" style="stop-color:#CA641C"/>
	<stop  offset="1" style="stop-color:#E67E1F"/>
</linearGradient>
<path fill="url(#SVGID_9_)" d="M50.004,8.959c2.432,0,4.816,0.207,7.141,0.597c11,9.359,22.106,18.619,33.295,27.798
	c1.36,3.979,2.1,8.237,2.1,12.649c0,22.601-19.107,41.036-42.533,41.036c-23.427,0-42.531-18.43-42.531-41.036
	C7.473,27.397,26.577,8.959,50.004,8.959z"/>
<linearGradient id="SVGID_10_" gradientUnits="userSpaceOnUse" x1="773.9346" y1="2222.6436" x2="773.9346" y2="2113.5254" gradientTransform="matrix(0.7437 0 0 0.7437 -525.5701 -1562.3961)">
	<stop  offset="0" style="stop-color:#C8611D"/>
	<stop  offset="1" style="stop-color:#E6781C"/>
</linearGradient>
<path fill="url(#SVGID_10_)" d="M50.004,9.433c2.555,0,5.061,0.22,7.5,0.644l32.354,27.017c1.42,4.06,2.195,8.402,2.195,12.914
	c0,22.348-18.891,40.576-42.05,40.576c-23.158,0-42.045-18.229-42.045-40.576C7.959,27.655,26.847,9.433,50.004,9.433z"/>
<path fill="#9F653A" d="M54.249,5.448C53.521,44.79,88.652,36.831,95.074,39.493C80.305,28.699,66.766,17.323,54.249,5.448z"/>
<linearGradient id="SVGID_11_" gradientUnits="userSpaceOnUse" x1="753.3184" y1="2052.3057" x2="745.4082" y2="2061.6426" gradientTransform="matrix(0.7745 0 0 0.7745 -508.6006 -1567.2631)">
	<stop  offset="0" style="stop-color:#DCDDE1"/>
	<stop  offset="0.29" style="stop-color:#F2F3F5"/>
	<stop  offset="1" style="stop-color:#FFFFFF"/>
</linearGradient>
<path fill="url(#SVGID_11_)" d="M54.249,5.444c0.085,24.782,24.916,20.295,40.825,34.042L54.249,5.444z"/>
<g>
	<linearGradient id="SVGID_12_" gradientUnits="userSpaceOnUse" x1="19.3022" y1="51.9199" x2="34.7808" y2="51.9199">
		<stop  offset="0" style="stop-color:#F6DDBB"/>
		<stop  offset="1" style="stop-color:#F9EFDC"/>
	</linearGradient>
	<path fill="url(#SVGID_12_)" d="M19.302,46.63l10.212-4.138l1.388,3.425l-6.914,2.809l0.572,2.47
		c0.386-0.415,0.787-0.775,1.211-1.075c0.421-0.311,0.869-0.543,1.314-0.737c1.553-0.625,3-0.66,4.353-0.118
		c1.344,0.533,2.293,1.527,2.874,2.947c0.41,1.008,0.548,2.063,0.424,3.184c-0.112,1.125-0.537,2.125-1.256,2.971
		c-0.722,0.859-1.783,1.57-3.2,2.154c-1.026,0.408-1.939,0.662-2.756,0.768c-0.796,0.102-1.539,0.074-2.199-0.105
		c-0.669-0.17-1.255-0.441-1.768-0.805c-0.513-0.361-1.026-0.859-1.524-1.494l4.144-2.239c0.395,0.646,0.854,1.085,1.382,1.291
		c0.542,0.196,1.07,0.188,1.612-0.024c0.61-0.241,1.002-0.666,1.203-1.278c0.209-0.613,0.135-1.37-0.23-2.281
		c-0.377-0.917-0.846-1.509-1.412-1.78c-0.578-0.271-1.188-0.271-1.842,0c-0.421,0.165-0.772,0.425-1.076,0.79
		c-0.229,0.265-0.439,0.666-0.625,1.185l-3.884,0.961L19.302,46.63z"/>
	<linearGradient id="SVGID_13_" gradientUnits="userSpaceOnUse" x1="33.896" y1="46.6523" x2="48.9785" y2="46.6523">
		<stop  offset="0" style="stop-color:#F6DDBB"/>
		<stop  offset="1" style="stop-color:#F9EFDC"/>
	</linearGradient>
	<path fill="url(#SVGID_13_)" d="M35.099,49.165c-1.196-2.941-1.5-5.217-0.914-6.832c0.581-1.604,1.954-2.844,4.129-3.719
		c1.041-0.418,1.948-0.64,2.72-0.657c0.772-0.021,1.447,0.103,2.034,0.351c0.601,0.236,1.108,0.537,1.539,0.881
		c0.424,0.354,0.831,0.813,1.226,1.353c0.749,1.044,1.388,2.185,1.901,3.437c1.144,2.812,1.491,5.057,1.076,6.758
		c-0.421,1.674-1.798,3-4.12,3.943c-1.309,0.521-2.443,0.742-3.419,0.651c-0.973-0.083-1.877-0.431-2.717-1.025
		c-0.595-0.425-1.203-1.079-1.818-1.983C36.14,51.41,35.588,50.361,35.099,49.165z M39.37,47.449
		c0.796,1.969,1.515,3.248,2.163,3.825c0.646,0.584,1.291,0.734,1.951,0.463c0.439-0.183,0.751-0.486,0.943-0.916
		c0.209-0.442,0.239-1.023,0.127-1.739c-0.118-0.726-0.46-1.792-1.022-3.187c-0.84-2.054-1.568-3.368-2.208-3.937
		c-0.64-0.569-1.309-0.702-1.999-0.422c-0.719,0.292-1.076,0.854-1.105,1.706C38.197,44.099,38.568,45.492,39.37,47.449z"/>
	<linearGradient id="SVGID_14_" gradientUnits="userSpaceOnUse" x1="47.7427" y1="39.6045" x2="71.4482" y2="39.6045">
		<stop  offset="0" style="stop-color:#F6DDBB"/>
		<stop  offset="1" style="stop-color:#F9EFDC"/>
	</linearGradient>
	<path fill="url(#SVGID_14_)" d="M48.111,39.368c-0.294-0.71-0.407-1.456-0.356-2.234c0.047-0.766,0.327-1.468,0.819-2.075
		c0.513-0.607,1.202-1.091,2.078-1.45c1.3-0.524,2.481-0.566,3.521-0.13c1.041,0.431,1.813,1.265,2.317,2.497
		c0.507,1.238,0.527,2.378,0.082,3.421s-1.314,1.834-2.614,2.352c-0.878,0.354-1.709,0.492-2.496,0.401
		c-0.796-0.089-1.471-0.392-2.042-0.905C48.839,40.729,48.403,40.093,48.111,39.368z M51.082,38.195
		c0.356,0.866,0.76,1.438,1.211,1.727c0.283,0.18,0.596,0.209,0.943,0.065c0.365-0.145,0.571-0.375,0.64-0.708
		c0.126-0.507,0.009-1.206-0.348-2.075c-0.352-0.867-0.752-1.45-1.191-1.739c-0.279-0.177-0.601-0.201-0.948-0.05
		c-0.352,0.145-0.566,0.375-0.646,0.71C50.622,36.63,50.742,37.317,51.082,38.195z M59.61,29.984l2.229-0.914l-2.237,20.176
		l-2.204,0.891L59.61,29.984z M62.676,43.224c-0.295-0.726-0.415-1.475-0.371-2.246c0.053-0.767,0.321-1.456,0.84-2.075
		c0.498-0.619,1.188-1.099,2.057-1.45c1.309-0.531,2.482-0.578,3.528-0.136c1.049,0.448,1.821,1.279,2.319,2.511
		c0.504,1.237,0.527,2.369,0.088,3.415c-0.444,1.041-1.323,1.836-2.622,2.361c-0.876,0.351-1.707,0.492-2.503,0.4
		c-0.786-0.1-1.471-0.392-2.042-0.913C63.397,44.567,62.968,43.948,62.676,43.224z M65.655,42.044
		c0.351,0.873,0.743,1.444,1.188,1.728c0.277,0.186,0.602,0.206,0.943,0.059c0.356-0.142,0.572-0.377,0.648-0.704
		c0.124-0.514,0.015-1.188-0.342-2.072c-0.356-0.878-0.752-1.456-1.205-1.745c-0.274-0.171-0.602-0.191-0.949-0.059
		c-0.351,0.138-0.566,0.383-0.631,0.722C65.181,40.482,65.308,41.169,65.655,42.044z"/>
	<linearGradient id="SVGID_15_" gradientUnits="userSpaceOnUse" x1="27.5464" y1="70.5391" x2="45.312" y2="70.5391">
		<stop  offset="0" style="stop-color:#F6DDBB"/>
		<stop  offset="1" style="stop-color:#F9EFDC"/>
	</linearGradient>
	<path fill="url(#SVGID_15_)" d="M28.4,73.8c-1.032-2.529-1.129-4.787-0.289-6.758c0.846-1.986,2.517-3.484,5.034-4.494
		c2.57-1.053,4.836-1.158,6.796-0.352c1.954,0.82,3.439,2.477,4.441,4.969c0.737,1.816,1.041,3.426,0.893,4.828
		c-0.142,1.406-0.654,2.67-1.539,3.766c-0.89,1.115-2.19,2.016-3.914,2.721c-1.745,0.711-3.307,1.012-4.671,0.916
		c-1.374-0.084-2.652-0.598-3.855-1.508C30.095,76.97,29.119,75.606,28.4,73.8z M33.184,71.882c0.631,1.566,1.382,2.563,2.234,3.023
		c0.863,0.441,1.798,0.459,2.794,0.053c1.025-0.416,1.686-1.066,1.989-1.969c0.292-0.896,0.083-2.217-0.622-3.949
		c-0.596-1.451-1.314-2.404-2.178-2.836c-0.86-0.436-1.798-0.447-2.806-0.041c-0.967,0.395-1.597,1.049-1.91,1.969
		C32.382,69.052,32.544,70.302,33.184,71.882z"/>
	<linearGradient id="SVGID_16_" gradientUnits="userSpaceOnUse" x1="43.9023" y1="63.8301" x2="58.4053" y2="63.8301">
		<stop  offset="0" style="stop-color:#F6DDBB"/>
		<stop  offset="1" style="stop-color:#F9EFDC"/>
	</linearGradient>
	<path fill="url(#SVGID_16_)" d="M43.902,58.495l11.83-4.81l1.344,3.33l-7.032,2.853l1.099,2.699l6-2.434l1.262,3.129l-5.991,2.436
		l2.561,6.318l-4.807,1.957L43.902,58.495z"/>
	<linearGradient id="SVGID_17_" gradientUnits="userSpaceOnUse" x1="58.3262" y1="57.9834" x2="72.8379" y2="57.9834">
		<stop  offset="0" style="stop-color:#F6DDBB"/>
		<stop  offset="1" style="stop-color:#F9EFDC"/>
	</linearGradient>
	<path fill="url(#SVGID_17_)" d="M58.326,52.64l11.83-4.799l1.353,3.324l-7.026,2.851l1.091,2.7l5.994-2.43l1.271,3.125
		l-6.001,2.439l2.57,6.322l-4.807,1.953L58.326,52.64z"/>
</g>
</svg>
