<?xml version="1.0" encoding="utf-8"?>
<!-- Generator: Adobe Illustrator 16.0.0, SVG Export Plug-In . SVG Version: 6.00 Build 0)  -->
<!DOCTYPE svg PUBLIC "-//W3C//DTD SVG 1.1//EN" "http://www.w3.org/Graphics/SVG/1.1/DTD/svg11.dtd">
<svg version="1.1" id="圖層_1" xmlns="http://www.w3.org/2000/svg" xmlns:xlink="http://www.w3.org/1999/xlink" x="0px" y="0px"
	 width="100px" height="100px" viewBox="0 0 100 100" enable-background="new 0 0 100 100" xml:space="preserve">
<linearGradient id="SVGID_1_" gradientUnits="userSpaceOnUse" x1="790.0977" y1="2116.2217" x2="790.0977" y2="1994.3076" gradientTransform="matrix(0.7745 0 0 0.7745 -561.9322 -1541.8031)">
	<stop  offset="0" style="stop-color:#FADB7A"/>
	<stop  offset="1" style="stop-color:#F8F6D5"/>
</linearGradient>
<path fill="url(#SVGID_1_)" d="M49.996,2.793c1.512,0,3.002,0.073,4.479,0.202l43.076,35.917c0.891,3.561,1.373,7.274,1.373,11.09
	c0,26-21.979,47.209-48.925,47.209c-26.942,0-48.924-21.205-48.924-47.209C1.075,24,23.057,2.789,49.999,2.789L49.996,2.793z"/>
<linearGradient id="SVGID_2_" gradientUnits="userSpaceOnUse" x1="790.0977" y1="2116.2227" x2="790.0977" y2="1994.3076" gradientTransform="matrix(0.7745 0 0 0.7745 -561.9322 -1541.8031)">
	<stop  offset="0" style="stop-color:#EDAF6D"/>
	<stop  offset="1" style="stop-color:#F7E1C6"/>
</linearGradient>
<path fill="url(#SVGID_2_)" d="M49.996,2.793c1.506,0,3.002,0.073,4.479,0.202C67.012,15.667,81.372,27.64,97.547,38.913
	c0.895,3.561,1.377,7.274,1.377,11.09c0,26-21.979,47.209-48.925,47.209c-26.949,0-48.924-21.205-48.924-47.209
	C1.075,24,23.05,2.789,49.999,2.789L49.996,2.793z"/>
<linearGradient id="SVGID_3_" gradientUnits="userSpaceOnUse" x1="499.8398" y1="1657.2246" x2="499.8398" y2="1563.7891" gradientTransform="matrix(1 0 0 1 -449.8438 -1560.502)">
	<stop  offset="0" style="stop-color:#F1B97F"/>
	<stop  offset="1" style="stop-color:#F7E4CC"/>
</linearGradient>
<path fill="url(#SVGID_3_)" d="M49.996,3.287c1.643,0,3.26,0.09,4.855,0.255c12.412,12.319,26.438,24.019,42.08,35.095
	c0.963,3.637,1.479,7.449,1.479,11.37c0,25.733-21.751,46.716-48.414,46.716c-26.669,0-48.413-20.988-48.413-46.716
	c0-25.727,21.75-46.716,48.413-46.716V3.287z"/>
<linearGradient id="SVGID_4_" gradientUnits="userSpaceOnUse" x1="499.834" y1="1656.7266" x2="499.834" y2="1564.2852" gradientTransform="matrix(1 0 0 1 -449.8438 -1560.502)">
	<stop  offset="0" style="stop-color:#F3C18B"/>
	<stop  offset="1" style="stop-color:#F8E7CF"/>
</linearGradient>
<path fill="url(#SVGID_4_)" d="M49.996,3.782c1.771,0,3.516,0.102,5.234,0.305c12.283,11.966,25.976,23.388,41.082,34.266
	c1.021,3.717,1.582,7.626,1.582,11.65c0,25.454-21.521,46.222-47.907,46.222c-26.383,0-47.901-20.768-47.901-46.222
	c0-25.455,21.519-46.221,47.901-46.221H49.996L49.996,3.782z"/>
<linearGradient id="SVGID_5_" gradientUnits="userSpaceOnUse" x1="499.8418" y1="1656.2324" x2="499.8418" y2="1564.7764" gradientTransform="matrix(1 0 0 1 -449.8438 -1560.502)">
	<stop  offset="0" style="stop-color:#F3C795"/>
	<stop  offset="1" style="stop-color:#F9E8D2"/>
</linearGradient>
<path fill="url(#SVGID_5_)" d="M49.996,4.274c1.904,0,3.775,0.121,5.619,0.357c12.146,11.613,25.511,22.763,40.09,33.441
	c1.092,3.799,1.682,7.801,1.682,11.931c0,25.188-21.287,45.728-47.388,45.728c-26.101,0-47.388-20.541-47.388-45.728
	c0-25.187,21.291-45.729,47.388-45.729H49.996z"/>
<linearGradient id="SVGID_6_" gradientUnits="userSpaceOnUse" x1="499.8379" y1="1655.7461" x2="499.8379" y2="1565.2754" gradientTransform="matrix(1 0 0 1 -449.8438 -1560.502)">
	<stop  offset="0" style="stop-color:#F3CD9F"/>
	<stop  offset="1" style="stop-color:#F9EAD4"/>
</linearGradient>
<path fill="url(#SVGID_6_)" d="M49.996,4.773c2.033,0,4.036,0.139,5.999,0.413C68.016,16.444,81.042,27.312,95.083,37.8
	c1.162,3.873,1.788,7.976,1.788,12.207c0,24.915-21.059,45.237-46.875,45.237c-25.82,0-46.88-20.319-46.88-45.237
	C3.116,25.088,24.176,4.773,49.996,4.773z"/>
<linearGradient id="SVGID_7_" gradientUnits="userSpaceOnUse" x1="499.8379" y1="1655.2549" x2="499.8379" y2="1565.7637" gradientTransform="matrix(1 0 0 1 -449.8438 -1560.502)">
	<stop  offset="0" style="stop-color:#F4D0A6"/>
	<stop  offset="1" style="stop-color:#F9EBD7"/>
</linearGradient>
<path fill="url(#SVGID_7_)" d="M49.996,5.261c2.166,0,4.296,0.162,6.377,0.469c11.891,10.903,24.589,21.502,38.095,31.784
	c1.226,3.961,1.897,8.154,1.897,12.494c0,24.643-20.834,44.745-46.369,44.745c-25.538,0-46.373-20.103-46.373-44.745
	C3.624,25.365,24.453,5.261,49.996,5.261z"/>
<linearGradient id="SVGID_8_" gradientUnits="userSpaceOnUse" x1="499.8438" y1="1654.75" x2="499.8438" y2="1566.2559" gradientTransform="matrix(1 0 0 1 -449.8438 -1560.502)">
	<stop  offset="0" style="stop-color:#F5D4AC"/>
	<stop  offset="1" style="stop-color:#F9ECD8"/>
</linearGradient>
<path fill="url(#SVGID_8_)" d="M49.996,5.754c2.3,0,4.557,0.18,6.759,0.524c11.759,10.549,24.129,20.867,37.101,30.954
	c1.299,4.037,2,8.328,2,12.77c0,24.369-20.601,44.246-45.854,44.246S4.146,74.371,4.146,50.002c0-24.371,20.6-44.249,45.854-44.249
	L49.996,5.754L49.996,5.754z"/>
<linearGradient id="SVGID_9_" gradientUnits="userSpaceOnUse" x1="499.8398" y1="1654.2598" x2="499.8398" y2="1566.752" gradientTransform="matrix(1 0 0 1 -449.8438 -1560.502)">
	<stop  offset="0" style="stop-color:#F5D8B2"/>
	<stop  offset="1" style="stop-color:#F9EDDA"/>
</linearGradient>
<path fill="url(#SVGID_9_)" d="M49.996,6.249c2.432,0,4.814,0.196,7.141,0.574c11.629,10.2,23.663,20.243,36.102,30.129
	c1.357,4.123,2.104,8.508,2.104,13.051c0,24.103-20.369,43.755-45.343,43.755C25.02,93.758,4.65,74.105,4.65,50.003
	C4.647,25.9,25.017,6.249,49.996,6.249z"/>
<linearGradient id="SVGID_10_" gradientUnits="userSpaceOnUse" x1="499.8379" y1="1653.7656" x2="499.8379" y2="1567.2441" gradientTransform="matrix(1 0 0 1 -449.8438 -1560.502)">
	<stop  offset="0" style="stop-color:#F5DBB7"/>
	<stop  offset="1" style="stop-color:#F9EEDB"/>
</linearGradient>
<path fill="url(#SVGID_10_)" d="M49.996,6.741c2.563,0,5.07,0.214,7.523,0.626c11.496,9.843,23.197,19.609,35.103,29.305
	c1.431,4.197,2.203,8.682,2.203,13.331c0,23.83-20.136,43.261-44.829,43.261c-24.696,0-44.833-19.431-44.833-43.261
	C5.164,26.173,25.304,6.741,49.996,6.741z"/>
<linearGradient id="SVGID_11_" gradientUnits="userSpaceOnUse" x1="845.1807" y1="2193.5342" x2="845.1807" y2="2078.4014" gradientTransform="matrix(0.743 0 0 0.743 -577.9765 -1537.0206)">
	<stop  offset="0" style="stop-color:#F6DDBB"/>
	<stop  offset="1" style="stop-color:#F9EFDC"/>
</linearGradient>
<path fill="url(#SVGID_11_)" d="M49.996,7.236c2.693,0,5.332,0.237,7.9,0.683L92.01,36.395c1.494,4.276,2.305,8.857,2.305,13.608
	c0,23.56-19.91,42.772-44.315,42.772c-24.415,0-44.328-19.215-44.328-42.772c0-23.552,19.913-42.771,44.328-42.771L49.996,7.236
	L49.996,7.236z"/>
<path fill="#D4AA80" d="M54.471,2.995c-0.767,41.508,36.307,33.114,43.072,35.917C82.094,27.646,67.732,15.667,54.471,2.995z"/>
<linearGradient id="SVGID_12_" gradientUnits="userSpaceOnUse" x1="822.7021" y1="2018.1953" x2="814.3561" y2="2028.0469" gradientTransform="matrix(0.7745 0 0 0.7745 -560.9796 -1542.3705)">
	<stop  offset="0" style="stop-color:#E7E9EC"/>
	<stop  offset="0.34" style="stop-color:#FBFBFC"/>
	<stop  offset="1" style="stop-color:#FFFFFF"/>
</linearGradient>
<path fill="url(#SVGID_12_)" d="M54.471,2.995c0.094,26.148,26.291,21.412,43.072,35.917L54.471,2.995z"/>
<linearGradient id="SVGID_13_" gradientUnits="userSpaceOnUse" x1="37.3711" y1="50.0601" x2="64.5423" y2="45.269">
	<stop  offset="0" style="stop-color:#EAEAE3"/>
	<stop  offset="1" style="stop-color:#FFFFFF"/>
</linearGradient>
<path fill-rule="evenodd" clip-rule="evenodd" fill="url(#SVGID_13_)" d="M71.314,47.695c10.937-1.762,4.434-13.273-3.018-9.741
	c-2.863,1.357-4.655,4.867-3.877,8.823l-25.689,6.301c0.215,1.76,4.144,2.176,7.922,2.086c5.652-0.135,8.375-3.209,13.185-5.123
	C63.406,48.622,67.736,48.271,71.314,47.695L71.314,47.695z M66.038,44.326c-0.675-1.669,0.829-3.852,3.356-4.873
	c2.527-1.021,5.124-0.497,5.799,1.173c0.675,1.669-0.828,3.852-3.356,4.873C69.309,46.521,66.712,45.996,66.038,44.326z"/>
<linearGradient id="SVGID_14_" gradientUnits="userSpaceOnUse" x1="67.75" y1="49.3389" x2="73.818" y2="36.8976">
	<stop  offset="0" style="stop-color:#F6DDBB"/>
	<stop  offset="1" style="stop-color:#F9EFDC"/>
</linearGradient>
<path fill-rule="evenodd" clip-rule="evenodd" fill="url(#SVGID_14_)" d="M71.314,47.695c10.937-1.762,4.434-13.273-3.018-9.741
	c-2.863,1.357-4.655,4.867-3.877,8.823l-1.357,0.333l-0.107,0.535c0,0,0.649,0.54,1.586,1.094
	C66.854,48.293,69.215,48.034,71.314,47.695L71.314,47.695z M66.038,44.326c-0.675-1.669,0.829-3.852,3.356-4.873
	c2.527-1.021,5.124-0.497,5.799,1.173c0.675,1.669-0.828,3.852-3.356,4.873C69.309,46.521,66.712,45.996,66.038,44.326z"/>
<linearGradient id="SVGID_15_" gradientUnits="userSpaceOnUse" x1="79.8555" y1="53.2549" x2="37.103" y2="40.9958">
	<stop  offset="0" style="stop-color:#EAEAE3"/>
	<stop  offset="1" style="stop-color:#C3C3A0"/>
</linearGradient>
<path fill-rule="evenodd" clip-rule="evenodd" fill="url(#SVGID_15_)" d="M71.314,48.243c10.937-1.763,4.434-13.274-3.018-9.742
	c-2.863,1.358-4.655,4.867-3.877,8.823l-25.689,6.302c0.215,1.76,4.144,2.176,7.922,2.086c5.652-0.137,8.375-3.209,13.185-5.123
	C63.406,49.168,67.736,48.819,71.314,48.243L71.314,48.243z M66.038,44.873c-0.675-1.669,0.829-3.852,3.356-4.873
	s5.124-0.496,5.799,1.174c0.675,1.669-0.828,3.851-3.356,4.873C69.309,47.068,66.712,46.542,66.038,44.873z"/>
<linearGradient id="SVGID_16_" gradientUnits="userSpaceOnUse" x1="63.3105" y1="46.1548" x2="71.0137" y2="43.0425">
	<stop  offset="0" style="stop-color:#C8611D"/>
	<stop  offset="1" style="stop-color:#E6781C"/>
</linearGradient>
<path fill-rule="evenodd" clip-rule="evenodd" fill="url(#SVGID_16_)" d="M71.314,48.243c10.937-1.763,4.434-13.274-3.018-9.742
	c-2.863,1.358-4.655,4.867-3.877,8.823l-1.517,0.373l0.711,1.779C66.216,48.91,68.933,48.625,71.314,48.243L71.314,48.243z
	 M66.038,44.873c-0.675-1.669,0.829-3.852,3.356-4.873s5.124-0.496,5.799,1.174c0.675,1.669-0.828,3.851-3.356,4.873
	C69.309,47.068,66.712,46.542,66.038,44.873z"/>
<path fill-rule="evenodd" clip-rule="evenodd" fill="#FFFFFF" d="M23.481,46.055h29.343c0.649,0,1.18,0.521,1.18,1.158v29.314
	c0,0.637-0.53,1.158-1.18,1.158H23.481c-0.649,0-1.18-0.521-1.18-1.158V47.213C22.301,46.576,22.832,46.055,23.481,46.055z"/>
<linearGradient id="SVGID_17_" gradientUnits="userSpaceOnUse" x1="37.1533" y1="61.0117" x2="52.2632" y2="81.0632">
	<stop  offset="0" style="stop-color:#F6DDBB"/>
	<stop  offset="1" style="stop-color:#F9EFDC"/>
</linearGradient>
<path fill-rule="evenodd" clip-rule="evenodd" fill="url(#SVGID_17_)" d="M23.481,46.521h29.343c0.649,0,1.18,0.521,1.18,1.159
	v29.314c0,0.637-0.53,1.158-1.18,1.158H23.481c-0.649,0-1.18-0.521-1.18-1.158V47.68C22.301,47.043,22.832,46.521,23.481,46.521z"/>
<linearGradient id="SVGID_18_" gradientUnits="userSpaceOnUse" x1="34.5557" y1="46.2656" x2="40.1612" y2="65.8143">
	<stop  offset="0" style="stop-color:#F1B97F"/>
	<stop  offset="1" style="stop-color:#F7E4CC"/>
</linearGradient>
<path fill-rule="evenodd" clip-rule="evenodd" fill="url(#SVGID_18_)" d="M23.481,46.521h29.343c0.25,0,0.483,0.078,0.674,0.209
	C52.68,65.596,37.795,69.33,22.301,69.125V47.68C22.301,47.043,22.832,46.521,23.481,46.521z"/>
<path fill="#231815" d="M26.726,47.845c-0.431,0-0.437,0.662,0,0.662h0.663c0.431,0,0.437-0.662,0-0.662H26.726L26.726,47.845z
	 M25.573,48.84c0.341-0.223,0.052-0.849-0.431-0.508l-0.498,0.427c-0.266,0.292,0.146,0.802,0.518,0.414L25.573,48.84L25.573,48.84z
	 M24.55,50.801c0-0.431-0.663-0.437-0.663,0v0.662c0,0.43,0.663,0.438,0.663,0V50.801L24.55,50.801z M24.55,53.451
	c0-0.432-0.663-0.438-0.663,0v0.662c0,0.43,0.663,0.436,0.663,0V53.451L24.55,53.451z M24.55,56.1c0-0.43-0.663-0.436-0.663,0v0.662
	c0,0.432,0.663,0.438,0.663,0V56.1L24.55,56.1z M24.55,58.75c0-0.43-0.663-0.438-0.663,0v0.662c0,0.432,0.663,0.438,0.663,0V58.75
	L24.55,58.75z M24.55,61.4c0-0.432-0.663-0.438-0.663,0v0.662c0,0.432,0.663,0.438,0.663,0V61.4L24.55,61.4z M24.55,64.051
	c0-0.432-0.663-0.438-0.663,0v0.662c0,0.432,0.663,0.438,0.663,0V64.051L24.55,64.051z M24.55,66.701c0-0.432-0.663-0.438-0.663,0
	v0.662c0,0.43,0.663,0.438,0.663,0V66.701L24.55,66.701z M24.55,69.35c0-0.43-0.663-0.436-0.663,0v0.664c0,0.43,0.663,0.436,0.663,0
	V69.35L24.55,69.35z M24.55,72.002c0-0.432-0.663-0.438-0.663,0v0.662c0,0.432,0.663,0.436,0.663,0V72.002L24.55,72.002z
	 M24.625,74.557c-0.108-0.416-0.749-0.246-0.639,0.174c0.046,0.184,0.176,0.545,0.292,0.689c0.211,0.369,0.782,0.041,0.567-0.336
	l0.001-0.002L24.625,74.557L24.625,74.557z M26.186,76.1c-0.417-0.105-0.579,0.531-0.16,0.643l0.736,0.086
	c0.447,0,0.438-0.68-0.051-0.66L26.186,76.1L26.186,76.1z M28.75,76.166c-0.431,0-0.437,0.662,0,0.662h0.663
	c0.431,0,0.437-0.662,0-0.662H28.75L28.75,76.166z M31.4,76.166c-0.431,0-0.437,0.662,0,0.662h0.662c0.431,0,0.437-0.662,0-0.662
	H31.4L31.4,76.166z M34.05,76.166c-0.431,0-0.437,0.662,0,0.662h0.663c0.431,0,0.437-0.662,0-0.662H34.05L34.05,76.166z
	 M36.7,76.166c-0.431,0-0.437,0.662,0,0.662h0.663c0.431,0,0.437-0.662,0-0.662H36.7L36.7,76.166z M39.35,76.166
	c-0.431,0-0.437,0.662,0,0.662h0.662c0.431,0,0.437-0.662,0-0.662H39.35L39.35,76.166z M42,76.166c-0.431,0-0.437,0.662,0,0.662
	h0.663c0.431,0,0.437-0.662,0-0.662H42L42,76.166z M44.65,76.166c-0.431,0-0.437,0.662,0,0.662h0.663c0.431,0,0.437-0.662,0-0.662
	H44.65L44.65,76.166z M47.3,76.166c-0.431,0-0.437,0.662,0,0.662h0.662c0.431,0,0.437-0.662,0-0.662H47.3L47.3,76.166z M49.9,76.145
	c-0.413,0.066-0.37,0.74,0.163,0.643c0.215-0.039,0.462-0.092,0.654-0.197c0.395-0.18,0.123-0.781-0.268-0.604l-0.001-0.002
	L49.9,76.145L49.9,76.145z M51.61,74.77c-0.133,0.385,0.466,0.717,0.657,0.129l0.135-0.623c0.035-0.402-0.608-0.547-0.664-0.008
	L51.61,74.77L51.61,74.77z M51.756,72.258c0,0.43,0.662,0.436,0.662,0v-0.662c0-0.432-0.662-0.439-0.662,0V72.258L51.756,72.258z
	 M51.756,69.607c0,0.43,0.662,0.436,0.662,0v-0.664c0-0.43-0.662-0.436-0.662,0V69.607L51.756,69.607z M51.756,66.955
	c0,0.432,0.662,0.438,0.662,0v-0.662c0-0.43-0.662-0.436-0.662,0V66.955L51.756,66.955z M51.756,64.307c0,0.43,0.662,0.438,0.662,0
	v-0.662c0-0.432-0.662-0.438-0.662,0V64.307L51.756,64.307z M51.756,61.656c0,0.432,0.662,0.438,0.662,0v-0.662
	c0-0.43-0.662-0.438-0.662,0V61.656L51.756,61.656z M51.756,59.006c0,0.432,0.662,0.438,0.662,0v-0.662c0-0.432-0.662-0.438-0.662,0
	V59.006L51.756,59.006z M51.756,56.355c0,0.432,0.662,0.438,0.662,0v-0.662c0-0.43-0.662-0.436-0.662,0V56.355L51.756,56.355z
	 M51.756,53.707c0,0.43,0.662,0.436,0.662,0v-0.664c0-0.43-0.662-0.436-0.662,0V53.707L51.756,53.707z M51.756,51.057
	c0,0.43,0.662,0.436,0.662,0l-0.02-0.702c-0.043-0.402-0.706-0.398-0.652,0.119L51.756,51.057L51.756,51.057z M50.916,48.969
	c0.317,0.251,0.814-0.23,0.332-0.578l-0.572-0.324c-0.388-0.169-0.674,0.438-0.215,0.627L50.916,48.969L50.916,48.969z
	 M48.588,48.507c0.431,0,0.437-0.662,0-0.662h-0.662c-0.431,0-0.438,0.662,0,0.662H48.588L48.588,48.507z M45.938,48.507
	c0.431,0,0.437-0.662,0-0.662h-0.662c-0.431,0-0.437,0.662,0,0.662H45.938L45.938,48.507z M43.289,48.507
	c0.431,0,0.437-0.662,0-0.662h-0.663c-0.431,0-0.437,0.662,0,0.662H43.289L43.289,48.507z M40.639,48.507
	c0.431,0,0.437-0.662,0-0.662h-0.663c-0.431,0-0.437,0.662,0,0.662H40.639L40.639,48.507z M37.988,48.507
	c0.431,0,0.437-0.662,0-0.662h-0.663c-0.431,0-0.437,0.662,0,0.662H37.988L37.988,48.507z M35.338,48.507
	c0.431,0,0.437-0.662,0-0.662h-0.663c-0.431,0-0.437,0.662,0,0.662H35.338L35.338,48.507z M32.688,48.507
	c0.431,0,0.437-0.662,0-0.662h-0.663c-0.43,0-0.436,0.662,0,0.662H32.688L32.688,48.507z M30.038,48.507
	c0.431,0,0.437-0.662,0-0.662h-0.663c-0.43,0-0.437,0.662,0,0.662H30.038z"/>
<g>
	<linearGradient id="SVGID_19_" gradientUnits="userSpaceOnUse" x1="41.6626" y1="48.7061" x2="62.8636" y2="52.8271">
		<stop  offset="0" style="stop-color:#EAEAE3"/>
		<stop  offset="1" style="stop-color:#FFFFFF"/>
	</linearGradient>
	<path fill-rule="evenodd" clip-rule="evenodd" fill="url(#SVGID_19_)" d="M71.862,50.742c10.937,1.76,4.433,13.273-3.018,9.74
		c-2.863-1.357-4.655-4.867-3.877-8.824l-25.689-6.3c0.214-1.759,4.144-2.176,7.921-2.086c5.651,0.136,8.375,3.209,13.186,5.123
		C63.952,49.815,68.284,50.166,71.862,50.742L71.862,50.742z M66.586,54.111c-0.675,1.668,0.827,3.852,3.355,4.871
		c2.528,1.021,5.125,0.498,5.8-1.172c0.674-1.67-0.829-3.852-3.356-4.873C69.856,51.916,67.26,52.441,66.586,54.111z"/>
	<linearGradient id="SVGID_20_" gradientUnits="userSpaceOnUse" x1="72.6494" y1="53.4424" x2="76.8823" y2="51.6456">
		<stop  offset="0" style="stop-color:#F1B97F"/>
		<stop  offset="1" style="stop-color:#F7E4CC"/>
	</linearGradient>
	<path fill-rule="evenodd" clip-rule="evenodd" fill="url(#SVGID_20_)" d="M71.862,50.742c10.937,1.76,4.433,13.273-3.018,9.74
		c-2.863-1.357-4.655-4.867-3.877-8.824l-2.144-0.525c0.474-0.527,0.836-0.892,0.813-0.881l0.072-0.844
		C66.448,50.042,69.342,50.335,71.862,50.742L71.862,50.742z M66.586,54.111c-0.675,1.668,0.827,3.852,3.355,4.871
		c2.528,1.021,5.125,0.498,5.8-1.172c0.674-1.67-0.829-3.852-3.356-4.873C69.856,51.916,67.26,52.441,66.586,54.111z"/>
	<linearGradient id="SVGID_21_" gradientUnits="userSpaceOnUse" x1="57.6953" y1="52.3691" x2="59.2497" y2="46.1349">
		<stop  offset="0" style="stop-color:#D6D6C4"/>
		<stop  offset="1" style="stop-color:#FFFFFF"/>
	</linearGradient>
	<path fill-rule="evenodd" clip-rule="evenodd" fill="url(#SVGID_21_)" d="M71.314,51.396c10.937,1.764,4.434,13.273-3.018,9.742
		c-2.863-1.357-4.655-4.867-3.877-8.822l-25.689-6.302c0.215-1.759,4.144-2.176,7.922-2.085c5.652,0.135,8.375,3.208,13.185,5.122
		C63.406,50.471,67.736,50.82,71.314,51.396L71.314,51.396z M66.038,54.766c-0.675,1.67,0.829,3.852,3.356,4.873
		s5.124,0.496,5.799-1.172c0.675-1.67-0.828-3.852-3.356-4.873S66.712,53.098,66.038,54.766z"/>
	<linearGradient id="SVGID_22_" gradientUnits="userSpaceOnUse" x1="63.2295" y1="53.6123" x2="70.9856" y2="56.5896">
		<stop  offset="0" style="stop-color:#C8611D"/>
		<stop  offset="1" style="stop-color:#E6781C"/>
	</linearGradient>
	<path fill-rule="evenodd" clip-rule="evenodd" fill="url(#SVGID_22_)" d="M71.314,51.396c10.937,1.764,4.434,13.273-3.018,9.742
		c-2.863-1.357-4.655-4.867-3.877-8.822l-1.517-0.373l0.711-1.779C66.216,50.73,68.933,51.014,71.314,51.396L71.314,51.396z
		 M66.038,54.766c-0.675,1.67,0.829,3.852,3.356,4.873s5.124,0.496,5.799-1.172c0.675-1.67-0.828-3.852-3.356-4.873
		S66.712,53.098,66.038,54.766z"/>
	<linearGradient id="SVGID_23_" gradientUnits="userSpaceOnUse" x1="57.5059" y1="49.4971" x2="59.4791" y2="50.0629">
		<stop  offset="0" style="stop-color:#0079B5"/>
		<stop  offset="1" style="stop-color:#FFFFFF"/>
	</linearGradient>
	<circle fill-rule="evenodd" clip-rule="evenodd" fill="url(#SVGID_23_)" cx="58.289" cy="49.722" r="0.949"/>
</g>
<linearGradient id="SVGID_24_" gradientUnits="userSpaceOnUse" x1="43.9478" y1="65.4453" x2="46.056" y2="68.243">
	<stop  offset="0" style="stop-color:#C8611D"/>
	<stop  offset="1" style="stop-color:#E6781C"/>
</linearGradient>
<path fill="url(#SVGID_24_)" d="M40.046,66.836c0-0.4,0.041-0.842,0.135-1.32c0.09-0.477,0.243-0.959,0.464-1.436
	c0.22-0.477,0.518-0.914,0.896-1.314c0.378-0.396,0.851-0.721,1.422-0.959c0.572-0.242,1.256-0.369,2.053-0.373
	c0.797,0.004,1.481,0.131,2.053,0.373c0.572,0.238,1.045,0.563,1.423,0.959c0.378,0.4,0.679,0.838,0.896,1.314
	c0.221,0.477,0.374,0.959,0.469,1.436c0.09,0.479,0.135,0.92,0.129,1.32c-0.004,0.918-0.129,1.697-0.368,2.336
	c-0.244,0.635-0.559,1.156-0.946,1.563c-0.388,0.4-0.806,0.711-1.252,0.932c-0.45,0.221-0.882,0.369-1.305,0.455
	c-0.423,0.08-0.788,0.121-1.099,0.117c-0.311,0.004-0.675-0.037-1.098-0.117c-0.419-0.086-0.855-0.234-1.306-0.455
	c-0.446-0.221-0.865-0.531-1.251-0.932c-0.387-0.406-0.702-0.928-0.941-1.563C40.177,68.533,40.055,67.754,40.046,66.836z"/>
<linearGradient id="SVGID_25_" gradientUnits="userSpaceOnUse" x1="36.7847" y1="60.1309" x2="40.2538" y2="64.7346">
	<stop  offset="0" style="stop-color:#C8611D"/>
	<stop  offset="1" style="stop-color:#E6781C"/>
</linearGradient>
<polygon fill="url(#SVGID_25_)" points="31.105,71.887 43.152,52.979 45.935,52.979 33.888,71.887 "/>
<linearGradient id="SVGID_26_" gradientUnits="userSpaceOnUse" x1="36.1758" y1="55.1719" x2="43.0794" y2="66.2199">
	<stop  offset="0" style="stop-color:#C8611D"/>
	<stop  offset="1" style="stop-color:#E6781C"/>
</linearGradient>
<path fill="url(#SVGID_26_)" d="M36.523,67.75c-1.042,0.26-2.111,0.48-3.204,0.66l9.833-15.432h2.782L36.523,67.75z"/>
<linearGradient id="SVGID_27_" gradientUnits="userSpaceOnUse" x1="42.1885" y1="61.791" x2="45.1014" y2="66.4527">
	<stop  offset="0" style="stop-color:#C8611D"/>
	<stop  offset="1" style="stop-color:#E6781C"/>
</linearGradient>
<path fill="url(#SVGID_27_)" d="M47.501,62.014c-0.138-0.076-0.281-0.145-0.433-0.207c-0.572-0.242-1.256-0.369-2.053-0.373
	c-0.797,0.004-1.481,0.131-2.053,0.373c-0.571,0.238-1.044,0.563-1.422,0.959c-0.378,0.4-0.675,0.838-0.896,1.314
	c-0.221,0.477-0.374,0.959-0.464,1.436c-0.08,0.404-0.121,0.781-0.132,1.131c1.076-0.41,2.108-0.883,3.089-1.422
	c0.122-0.373,0.278-0.678,0.469-0.914c0.212-0.262,0.437-0.447,0.68-0.568c0.248-0.117,0.491-0.176,0.729-0.176
	c0.209,0.004,0.4,0.031,0.572,0.086C46.261,63.15,46.9,62.604,47.501,62.014z"/>
<linearGradient id="SVGID_28_" gradientUnits="userSpaceOnUse" x1="29.5176" y1="54.0078" x2="34.5474" y2="62.0571">
	<stop  offset="0" style="stop-color:#C8611D"/>
	<stop  offset="1" style="stop-color:#E6781C"/>
</linearGradient>
<path fill="url(#SVGID_28_)" d="M27.081,58.029c0.009-0.918,0.131-1.697,0.365-2.336c0.234-0.635,0.544-1.156,0.923-1.563
	c0.383-0.4,0.797-0.715,1.238-0.932c0.445-0.221,0.877-0.369,1.301-0.455c0.423-0.08,0.797-0.121,1.117-0.117
	c0.315-0.004,0.684,0.037,1.107,0.121c0.423,0.086,0.86,0.24,1.306,0.461c0.45,0.219,0.865,0.531,1.251,0.936
	c0.387,0.404,0.698,0.924,0.937,1.557c0.239,0.641,0.36,1.414,0.369,2.328c-0.004,0.848-0.112,1.576-0.329,2.188
	c-0.212,0.617-0.495,1.131-0.851,1.545c-0.36,0.414-0.752,0.742-1.188,0.99c-0.437,0.244-0.878,0.418-1.328,0.527
	c-0.45,0.104-0.873,0.152-1.274,0.152c-0.329,0.004-0.711-0.035-1.135-0.125c-0.428-0.086-0.864-0.24-1.305-0.459
	c-0.441-0.227-0.851-0.541-1.229-0.947c-0.378-0.404-0.684-0.922-0.914-1.557C27.207,59.709,27.09,58.939,27.081,58.029z"/>
<linearGradient id="SVGID_29_" gradientUnits="userSpaceOnUse" x1="31.541" y1="54.5859" x2="32.3331" y2="60.2222">
	<stop  offset="0" style="stop-color:#F6DDBB"/>
	<stop  offset="1" style="stop-color:#F9EFDC"/>
</linearGradient>
<path fill="url(#SVGID_29_)" d="M29.917,58.029c0.004,0.594,0.067,1.1,0.198,1.514c0.126,0.418,0.292,0.756,0.5,1.012
	c0.207,0.258,0.437,0.445,0.68,0.568c0.248,0.115,0.491,0.176,0.729,0.176c0.238,0,0.481-0.061,0.729-0.176
	c0.243-0.123,0.473-0.311,0.68-0.568c0.207-0.256,0.373-0.594,0.504-1.012c0.126-0.414,0.189-0.92,0.194-1.514
	c-0.005-0.639-0.077-1.17-0.212-1.594c-0.135-0.422-0.311-0.756-0.527-1.004c-0.216-0.242-0.445-0.418-0.684-0.521
	c-0.243-0.104-0.468-0.154-0.684-0.148c-0.212-0.006-0.441,0.045-0.684,0.148c-0.239,0.104-0.469,0.279-0.685,0.521
	c-0.216,0.248-0.392,0.582-0.527,1.004C29.993,56.859,29.921,57.391,29.917,58.029z"/>
<linearGradient id="SVGID_30_" gradientUnits="userSpaceOnUse" x1="44.8662" y1="66.5186" x2="46.916" y2="70.7212">
	<stop  offset="0" style="stop-color:#F6DDBB"/>
	<stop  offset="1" style="stop-color:#F9EFDC"/>
</linearGradient>
<path fill="url(#SVGID_30_)" d="M42.909,66.836c0.004,0.729,0.108,1.336,0.302,1.818c0.194,0.486,0.45,0.846,0.765,1.088
	c0.32,0.24,0.667,0.361,1.04,0.361c0.216,0.004,0.441-0.045,0.684-0.146c0.239-0.105,0.468-0.281,0.685-0.525
	c0.216-0.246,0.392-0.58,0.526-1.002c0.14-0.424,0.208-0.955,0.212-1.594c0.004-0.135-0.009-0.334-0.031-0.592
	c-0.023-0.256-0.072-0.535-0.149-0.84c-0.077-0.303-0.189-0.596-0.342-0.873c-0.157-0.281-0.36-0.51-0.616-0.686
	c-0.257-0.18-0.581-0.273-0.968-0.279c-0.238,0-0.481,0.059-0.729,0.176c-0.243,0.121-0.468,0.307-0.68,0.568
	c-0.207,0.256-0.374,0.594-0.5,1.012C42.977,65.736,42.914,66.24,42.909,66.836z"/>
</svg>
