<?xml version="1.0" encoding="utf-8"?>
<!-- Generator: Adobe Illustrator 16.0.0, SVG Export Plug-In . SVG Version: 6.00 Build 0)  -->
<!DOCTYPE svg PUBLIC "-//W3C//DTD SVG 1.1//EN" "http://www.w3.org/Graphics/SVG/1.1/DTD/svg11.dtd">
<svg version="1.1" id="圖層_1" xmlns="http://www.w3.org/2000/svg" xmlns:xlink="http://www.w3.org/1999/xlink" x="0px" y="0px"
	 width="100px" height="100px" viewBox="0 0 100 100" enable-background="new 0 0 100 100" xml:space="preserve">
<linearGradient id="SVGID_1_" gradientUnits="userSpaceOnUse" x1="470.5537" y1="-1537.5562" x2="470.5537" y2="-1415.6421" gradientTransform="matrix(0.7745 0 0 -0.7745 -314.4449 -1093.6261)">
	<stop  offset="0" style="stop-color:#FADB7A"/>
	<stop  offset="1" style="stop-color:#F8F6D5"/>
</linearGradient>
<path fill="url(#SVGID_1_)" d="M49.996,2.793c1.512,0,3.002,0.073,4.479,0.202l43.076,35.917c0.891,3.561,1.373,7.274,1.373,11.09
	c0,26-21.979,47.209-48.925,47.209c-26.942,0-48.924-21.205-48.924-47.209C1.075,24,23.057,2.789,49.999,2.789L49.996,2.793z"/>
<linearGradient id="SVGID_2_" gradientUnits="userSpaceOnUse" x1="470.5537" y1="-1537.5571" x2="470.5537" y2="-1415.6421" gradientTransform="matrix(0.7745 0 0 -0.7745 -314.4449 -1093.6261)">
	<stop  offset="0" style="stop-color:#EDAF6D"/>
	<stop  offset="1" style="stop-color:#F7E1C6"/>
</linearGradient>
<path fill="url(#SVGID_2_)" d="M49.996,2.793c1.506,0,3.002,0.073,4.479,0.202C67.012,15.667,81.372,27.64,97.547,38.913
	c0.895,3.561,1.377,7.274,1.377,11.09c0,26-21.979,47.209-48.925,47.209c-26.949,0-48.924-21.205-48.924-47.209
	C1.075,24,23.05,2.789,49.999,2.789L49.996,2.793z"/>
<linearGradient id="SVGID_3_" gradientUnits="userSpaceOnUse" x1="252.2422" y1="-1186.3843" x2="252.2422" y2="-1092.9492" gradientTransform="matrix(1 0 0 -1 -202.2441 -1089.6621)">
	<stop  offset="0" style="stop-color:#F1B97F"/>
	<stop  offset="1" style="stop-color:#F7E4CC"/>
</linearGradient>
<path fill="url(#SVGID_3_)" d="M49.996,3.287c1.643,0,3.26,0.09,4.855,0.255c12.412,12.319,26.438,24.019,42.08,35.095
	c0.963,3.637,1.479,7.449,1.479,11.37c0,25.733-21.751,46.716-48.414,46.716c-26.669,0-48.413-20.988-48.413-46.716
	c0-25.727,21.75-46.716,48.413-46.716V3.287z"/>
<linearGradient id="SVGID_4_" gradientUnits="userSpaceOnUse" x1="252.2363" y1="-1185.8862" x2="252.2363" y2="-1093.4443" gradientTransform="matrix(1 0 0 -1 -202.2441 -1089.6621)">
	<stop  offset="0" style="stop-color:#F3C18B"/>
	<stop  offset="1" style="stop-color:#F8E7CF"/>
</linearGradient>
<path fill="url(#SVGID_4_)" d="M49.996,3.782c1.771,0,3.516,0.102,5.234,0.305c12.283,11.966,25.976,23.388,41.082,34.266
	c1.022,3.717,1.582,7.626,1.582,11.65c0,25.454-21.521,46.222-47.906,46.222c-26.383,0-47.901-20.768-47.901-46.222
	c0-25.455,21.519-46.221,47.901-46.221H49.996L49.996,3.782z"/>
<linearGradient id="SVGID_5_" gradientUnits="userSpaceOnUse" x1="252.2441" y1="-1185.3921" x2="252.2441" y2="-1093.936" gradientTransform="matrix(1 0 0 -1 -202.2441 -1089.6621)">
	<stop  offset="0" style="stop-color:#F3C795"/>
	<stop  offset="1" style="stop-color:#F9E8D2"/>
</linearGradient>
<path fill="url(#SVGID_5_)" d="M49.996,4.274c1.904,0,3.775,0.121,5.619,0.357c12.146,11.613,25.511,22.763,40.09,33.441
	c1.092,3.799,1.682,7.801,1.682,11.931c0,25.188-21.287,45.728-47.388,45.728c-26.101,0-47.388-20.541-47.388-45.728
	c0-25.187,21.291-45.729,47.388-45.729H49.996z"/>
<linearGradient id="SVGID_6_" gradientUnits="userSpaceOnUse" x1="252.2383" y1="-1184.9058" x2="252.2383" y2="-1094.4351" gradientTransform="matrix(1 0 0 -1 -202.2441 -1089.6621)">
	<stop  offset="0" style="stop-color:#F3CD9F"/>
	<stop  offset="1" style="stop-color:#F9EAD4"/>
</linearGradient>
<path fill="url(#SVGID_6_)" d="M49.996,4.773c2.033,0,4.036,0.139,5.999,0.413C68.016,16.444,81.042,27.312,95.083,37.8
	c1.162,3.873,1.788,7.976,1.788,12.207c0,24.915-21.059,45.237-46.875,45.237c-25.82,0-46.88-20.319-46.88-45.237
	C3.116,25.088,24.176,4.773,49.996,4.773z"/>
<linearGradient id="SVGID_7_" gradientUnits="userSpaceOnUse" x1="252.2393" y1="-1184.4146" x2="252.2393" y2="-1094.9229" gradientTransform="matrix(1 0 0 -1 -202.2441 -1089.6621)">
	<stop  offset="0" style="stop-color:#F4D0A6"/>
	<stop  offset="1" style="stop-color:#F9EBD7"/>
</linearGradient>
<path fill="url(#SVGID_7_)" d="M49.996,5.261c2.166,0,4.296,0.162,6.377,0.469c11.891,10.903,24.589,21.502,38.095,31.784
	c1.226,3.961,1.897,8.154,1.897,12.494c0,24.643-20.834,44.745-46.369,44.745c-25.538,0-46.373-20.103-46.373-44.745
	C3.624,25.365,24.453,5.261,49.996,5.261z"/>
<linearGradient id="SVGID_8_" gradientUnits="userSpaceOnUse" x1="252.2461" y1="-1183.9097" x2="252.2461" y2="-1095.415" gradientTransform="matrix(1 0 0 -1 -202.2441 -1089.6621)">
	<stop  offset="0" style="stop-color:#F5D4AC"/>
	<stop  offset="1" style="stop-color:#F9ECD8"/>
</linearGradient>
<path fill="url(#SVGID_8_)" d="M49.996,5.754c2.3,0,4.557,0.18,6.759,0.524c11.759,10.549,24.129,20.867,37.101,30.954
	c1.299,4.037,2,8.328,2,12.77c0,24.369-20.601,44.246-45.854,44.246S4.146,74.371,4.146,50.002c0-24.371,20.6-44.249,45.854-44.249
	L49.996,5.754L49.996,5.754z"/>
<linearGradient id="SVGID_9_" gradientUnits="userSpaceOnUse" x1="252.2402" y1="-1183.4194" x2="252.2402" y2="-1095.9111" gradientTransform="matrix(1 0 0 -1 -202.2441 -1089.6621)">
	<stop  offset="0" style="stop-color:#F5D8B2"/>
	<stop  offset="1" style="stop-color:#F9EDDA"/>
</linearGradient>
<path fill="url(#SVGID_9_)" d="M49.996,6.249c2.432,0,4.814,0.196,7.141,0.574c11.629,10.2,23.663,20.243,36.102,30.129
	c1.357,4.123,2.103,8.508,2.103,13.051c0,24.103-20.37,43.755-45.343,43.755c-24.979,0-45.349-19.652-45.349-43.755
	C4.647,25.9,25.017,6.249,49.996,6.249z"/>
<linearGradient id="SVGID_10_" gradientUnits="userSpaceOnUse" x1="252.2393" y1="-1182.9253" x2="252.2393" y2="-1096.4033" gradientTransform="matrix(1 0 0 -1 -202.2441 -1089.6621)">
	<stop  offset="0" style="stop-color:#F5DBB7"/>
	<stop  offset="1" style="stop-color:#F9EEDB"/>
</linearGradient>
<path fill="url(#SVGID_10_)" d="M49.996,6.741c2.563,0,5.07,0.214,7.523,0.626c11.496,9.843,23.198,19.609,35.103,29.305
	c1.431,4.197,2.203,8.682,2.203,13.331c0,23.83-20.136,43.261-44.829,43.261c-24.696,0-44.833-19.431-44.833-43.261
	C5.164,26.173,25.304,6.741,49.996,6.741z"/>
<linearGradient id="SVGID_11_" gradientUnits="userSpaceOnUse" x1="512.1094" y1="-1594.5952" x2="512.1094" y2="-1479.4624" gradientTransform="matrix(0.743 0 0 -0.743 -330.5048 -1092.0092)">
	<stop  offset="0" style="stop-color:#F6DDBB"/>
	<stop  offset="1" style="stop-color:#F9EFDC"/>
</linearGradient>
<path fill="url(#SVGID_11_)" d="M49.996,7.236c2.693,0,5.332,0.237,7.9,0.683L92.01,36.395c1.494,4.276,2.305,8.857,2.305,13.608
	c0,23.56-19.91,42.772-44.316,42.772c-24.415,0-44.328-19.215-44.328-42.772c0-23.552,19.913-42.771,44.328-42.771L49.996,7.236
	L49.996,7.236z"/>
<path fill="#D4AA80" d="M54.471,2.995c-0.767,41.508,36.307,33.114,43.072,35.917C82.094,27.646,67.732,15.667,54.471,2.995z"/>
<linearGradient id="SVGID_12_" gradientUnits="userSpaceOnUse" x1="503.1572" y1="-1439.5298" x2="494.8117" y2="-1449.3806" gradientTransform="matrix(0.7745 0 0 -0.7745 -313.4922 -1094.1935)">
	<stop  offset="0" style="stop-color:#E7E9EC"/>
	<stop  offset="0.34" style="stop-color:#FBFBFC"/>
	<stop  offset="1" style="stop-color:#FFFFFF"/>
</linearGradient>
<path fill="url(#SVGID_12_)" d="M54.471,2.995c0.094,26.148,26.291,21.412,43.072,35.917L54.471,2.995z"/>
<g>
	<linearGradient id="SVGID_13_" gradientUnits="userSpaceOnUse" x1="21.1343" y1="53.5078" x2="36.6128" y2="53.5078">
		<stop  offset="0" style="stop-color:#C8611D"/>
		<stop  offset="1" style="stop-color:#E6781C"/>
	</linearGradient>
	<path fill="url(#SVGID_13_)" d="M21.134,48.218l10.212-4.138l1.388,3.425l-6.914,2.809l0.572,2.47
		c0.386-0.415,0.787-0.775,1.211-1.075c0.421-0.311,0.869-0.543,1.314-0.737c1.553-0.625,3-0.66,4.353-0.118
		c1.344,0.533,2.293,1.527,2.874,2.947c0.41,1.008,0.548,2.063,0.424,3.184c-0.112,1.125-0.537,2.125-1.256,2.971
		c-0.722,0.859-1.783,1.57-3.2,2.154c-1.026,0.408-1.939,0.662-2.756,0.768c-0.796,0.102-1.539,0.074-2.199-0.105
		c-0.669-0.17-1.255-0.441-1.768-0.805c-0.513-0.361-1.026-0.859-1.524-1.494l4.144-2.239c0.395,0.646,0.854,1.085,1.382,1.291
		c0.542,0.196,1.07,0.188,1.612-0.024c0.61-0.241,1.002-0.666,1.203-1.278c0.209-0.613,0.135-1.37-0.23-2.281
		c-0.377-0.917-0.846-1.509-1.412-1.78c-0.578-0.271-1.188-0.271-1.842,0c-0.421,0.165-0.772,0.425-1.076,0.79
		c-0.229,0.265-0.439,0.666-0.625,1.185l-3.884,0.961L21.134,48.218z"/>
	<linearGradient id="SVGID_14_" gradientUnits="userSpaceOnUse" x1="35.728" y1="48.2402" x2="50.8105" y2="48.2402">
		<stop  offset="0" style="stop-color:#C8611D"/>
		<stop  offset="1" style="stop-color:#E6781C"/>
	</linearGradient>
	<path fill="url(#SVGID_14_)" d="M36.931,50.753c-1.196-2.941-1.5-5.217-0.914-6.832c0.581-1.604,1.954-2.844,4.129-3.719
		c1.041-0.418,1.948-0.64,2.72-0.657c0.772-0.021,1.447,0.103,2.034,0.351c0.601,0.236,1.108,0.537,1.539,0.881
		c0.424,0.354,0.831,0.813,1.226,1.353c0.749,1.044,1.388,2.185,1.901,3.437c1.143,2.812,1.49,5.057,1.075,6.758
		c-0.421,1.674-1.798,3-4.12,3.943c-1.309,0.521-2.443,0.742-3.419,0.651c-0.973-0.083-1.877-0.431-2.717-1.025
		c-0.595-0.425-1.203-1.079-1.818-1.983C37.972,52.998,37.42,51.949,36.931,50.753z M41.202,49.037
		c0.796,1.969,1.515,3.248,2.163,3.825c0.646,0.584,1.291,0.734,1.951,0.463c0.439-0.183,0.751-0.486,0.943-0.916
		c0.209-0.442,0.239-1.023,0.127-1.739c-0.118-0.726-0.46-1.792-1.022-3.187c-0.84-2.054-1.568-3.368-2.208-3.937
		c-0.64-0.569-1.309-0.702-1.999-0.422c-0.719,0.292-1.076,0.854-1.105,1.706C40.029,45.687,40.4,47.08,41.202,49.037z"/>
	<linearGradient id="SVGID_15_" gradientUnits="userSpaceOnUse" x1="49.5747" y1="41.1924" x2="73.2803" y2="41.1924">
		<stop  offset="0" style="stop-color:#C8611D"/>
		<stop  offset="1" style="stop-color:#E6781C"/>
	</linearGradient>
	<path fill="url(#SVGID_15_)" d="M49.943,40.956c-0.295-0.71-0.407-1.456-0.357-2.234c0.047-0.766,0.328-1.468,0.82-2.075
		c0.512-0.607,1.201-1.091,2.077-1.45c1.3-0.524,2.481-0.566,3.521-0.13c1.041,0.431,1.813,1.265,2.317,2.497
		c0.507,1.238,0.527,2.378,0.082,3.421s-1.314,1.834-2.614,2.352c-0.878,0.354-1.709,0.492-2.496,0.401
		c-0.796-0.089-1.471-0.392-2.042-0.905C50.671,42.317,50.234,41.681,49.943,40.956z M52.914,39.783
		c0.356,0.866,0.76,1.438,1.211,1.727c0.283,0.18,0.596,0.209,0.943,0.065c0.365-0.145,0.571-0.375,0.64-0.708
		c0.126-0.507,0.009-1.206-0.348-2.075c-0.352-0.867-0.752-1.45-1.191-1.739c-0.279-0.177-0.601-0.201-0.948-0.05
		c-0.352,0.145-0.566,0.375-0.646,0.71C52.454,38.218,52.574,38.905,52.914,39.783z M61.442,31.572l2.229-0.914l-2.237,20.176
		l-2.204,0.891L61.442,31.572z M64.508,44.812c-0.295-0.726-0.415-1.475-0.371-2.246c0.053-0.767,0.321-1.456,0.84-2.075
		c0.498-0.619,1.188-1.099,2.057-1.45c1.309-0.531,2.482-0.578,3.528-0.136c1.049,0.448,1.821,1.279,2.319,2.511
		c0.504,1.237,0.527,2.369,0.088,3.415c-0.444,1.041-1.323,1.836-2.622,2.361c-0.876,0.351-1.707,0.492-2.503,0.4
		c-0.786-0.1-1.471-0.392-2.042-0.913C65.229,46.155,64.8,45.536,64.508,44.812z M67.487,43.632
		c0.351,0.873,0.743,1.444,1.188,1.728c0.277,0.186,0.602,0.206,0.943,0.059c0.356-0.142,0.572-0.377,0.648-0.704
		c0.124-0.514,0.015-1.188-0.342-2.072c-0.356-0.878-0.752-1.456-1.205-1.745c-0.274-0.171-0.602-0.191-0.949-0.059
		c-0.351,0.138-0.566,0.383-0.631,0.722C67.013,42.07,67.14,42.757,67.487,43.632z"/>
	<linearGradient id="SVGID_16_" gradientUnits="userSpaceOnUse" x1="29.3784" y1="72.127" x2="47.144" y2="72.127">
		<stop  offset="0" style="stop-color:#C8611D"/>
		<stop  offset="1" style="stop-color:#E6781C"/>
	</linearGradient>
	<path fill="url(#SVGID_16_)" d="M30.232,75.388c-1.032-2.529-1.129-4.787-0.289-6.758c0.846-1.986,2.517-3.484,5.034-4.494
		c2.57-1.053,4.836-1.158,6.796-0.352c1.954,0.82,3.439,2.477,4.441,4.969c0.737,1.816,1.041,3.426,0.893,4.828
		c-0.142,1.406-0.654,2.67-1.539,3.766c-0.89,1.115-2.19,2.016-3.914,2.721c-1.745,0.711-3.307,1.012-4.671,0.916
		c-1.374-0.084-2.652-0.598-3.855-1.508C31.927,78.558,30.951,77.194,30.232,75.388z M35.016,73.47
		c0.631,1.566,1.382,2.563,2.234,3.023c0.863,0.441,1.798,0.459,2.794,0.053c1.025-0.416,1.686-1.066,1.989-1.969
		c0.292-0.896,0.083-2.217-0.622-3.949c-0.596-1.451-1.314-2.404-2.178-2.836c-0.86-0.436-1.798-0.447-2.806-0.041
		c-0.967,0.395-1.597,1.049-1.91,1.969C34.214,70.64,34.376,71.89,35.016,73.47z"/>
	<linearGradient id="SVGID_17_" gradientUnits="userSpaceOnUse" x1="45.7344" y1="65.418" x2="60.2373" y2="65.418">
		<stop  offset="0" style="stop-color:#C8611D"/>
		<stop  offset="1" style="stop-color:#E6781C"/>
	</linearGradient>
	<path fill="url(#SVGID_17_)" d="M45.734,60.083l11.83-4.81l1.344,3.33l-7.031,2.853l1.099,2.699l6-2.434l1.262,3.129l-5.991,2.436
		l2.561,6.318L52,75.562L45.734,60.083z"/>
	<linearGradient id="SVGID_18_" gradientUnits="userSpaceOnUse" x1="60.1582" y1="59.5713" x2="74.6699" y2="59.5713">
		<stop  offset="0" style="stop-color:#C8611D"/>
		<stop  offset="1" style="stop-color:#E6781C"/>
	</linearGradient>
	<path fill="url(#SVGID_18_)" d="M60.158,54.228l11.83-4.799l1.353,3.324l-7.026,2.851l1.091,2.7l5.994-2.43l1.271,3.125
		l-6.001,2.439l2.57,6.322l-4.807,1.953L60.158,54.228z"/>
</g>
</svg>
