<?xml version="1.0" encoding="utf-8"?>
<!-- Generator: Adobe Illustrator 16.0.0, SVG Export Plug-In . SVG Version: 6.00 Build 0)  -->
<!DOCTYPE svg PUBLIC "-//W3C//DTD SVG 1.1//EN" "http://www.w3.org/Graphics/SVG/1.1/DTD/svg11.dtd">
<svg version="1.1" id="圖層_1" xmlns="http://www.w3.org/2000/svg" xmlns:xlink="http://www.w3.org/1999/xlink" x="0px" y="0px"
	 width="100px" height="100px" viewBox="0 0 100 100" enable-background="new 0 0 100 100" xml:space="preserve">
<linearGradient id="SVGID_1_" gradientUnits="userSpaceOnUse" x1="722.4697" y1="2145.1768" x2="722.4697" y2="2029.6309" gradientTransform="matrix(0.7745 0 0 0.7745 -509.5537 -1566.6957)">
	<stop  offset="0" style="stop-color:#E7945C"/>
	<stop  offset="1" style="stop-color:#F6D0B2"/>
</linearGradient>
<path fill="url(#SVGID_1_)" d="M50.004,5.259c1.43,0,2.84,0.064,4.245,0.188c12.733,12.184,26.397,23.481,40.825,34.045
	c0.85,3.37,1.297,6.894,1.297,10.506c0,24.645-20.828,44.746-46.367,44.746c-25.542,0-46.375-20.098-46.375-44.746
	c0-24.643,20.833-44.744,46.375-44.744V5.259z"/>
<linearGradient id="SVGID_2_" gradientUnits="userSpaceOnUse" x1="447.5859" y1="1679.5703" x2="447.5859" y2="1591.0059" gradientTransform="matrix(1 0 0 1 -397.5781 -1585.2842)">
	<stop  offset="0" style="stop-color:#E18A4E"/>
	<stop  offset="1" style="stop-color:#F3BF95"/>
</linearGradient>
<path fill="url(#SVGID_2_)" d="M50.004,5.721c1.561,0,3.094,0.087,4.604,0.245C67.133,17.797,80.475,28.84,94.498,39.227
	c0.916,3.445,1.396,7.064,1.396,10.78c0,24.386-20.617,44.279-45.882,44.279C24.74,94.285,4.12,74.389,4.12,50.006
	c0-24.393,20.62-44.279,45.893-44.279L50.004,5.721z"/>
<linearGradient id="SVGID_3_" gradientUnits="userSpaceOnUse" x1="447.5801" y1="1679.1006" x2="447.5801" y2="1591.4707" gradientTransform="matrix(1 0 0 1 -397.5781 -1585.2842)">
	<stop  offset="0" style="stop-color:#DC8141"/>
	<stop  offset="1" style="stop-color:#F0B07C"/>
</linearGradient>
<path fill="url(#SVGID_3_)" d="M50.004,6.186c1.682,0,3.337,0.096,4.971,0.292C67.271,17.955,80.296,28.74,93.914,38.959
	c0.968,3.524,1.499,7.229,1.499,11.045c0,24.133-20.401,43.813-45.41,43.813c-25.011,0-45.412-19.68-45.412-43.813
	C4.592,25.868,24.994,6.186,50.004,6.186z"/>
<linearGradient id="SVGID_4_" gradientUnits="userSpaceOnUse" x1="447.584" y1="1678.6396" x2="447.584" y2="1591.9307" gradientTransform="matrix(1 0 0 1 -397.5781 -1585.2842)">
	<stop  offset="0" style="stop-color:#D87C37"/>
	<stop  offset="1" style="stop-color:#F0A568"/>
</linearGradient>
<path fill="url(#SVGID_4_)" d="M50.004,6.646c1.805,0,3.583,0.116,5.33,0.343c12.085,11.126,24.791,21.659,38.003,31.7
	c1.034,3.604,1.599,7.398,1.599,11.314c0,23.879-20.188,43.353-44.931,43.353c-24.75,0-44.93-19.474-44.93-43.353
	S25.255,6.646,50.004,6.646z"/>
<linearGradient id="SVGID_5_" gradientUnits="userSpaceOnUse" x1="447.5791" y1="1678.1787" x2="447.5791" y2="1592.3936" gradientTransform="matrix(1 0 0 1 -397.5781 -1585.2842)">
	<stop  offset="0" style="stop-color:#D4762D"/>
	<stop  offset="1" style="stop-color:#ED9B54"/>
</linearGradient>
<path fill="url(#SVGID_5_)" d="M50.004,7.109c1.936,0,3.827,0.133,5.688,0.396c11.873,10.772,24.254,21.052,37.064,30.919
	c1.102,3.677,1.697,7.567,1.697,11.58c0,23.62-19.969,42.891-44.45,42.891c-24.489,0-44.454-19.268-44.454-42.891
	C5.551,26.376,25.524,7.109,50.004,7.109z"/>
<linearGradient id="SVGID_6_" gradientUnits="userSpaceOnUse" x1="447.5898" y1="1677.7109" x2="447.5898" y2="1592.8633" gradientTransform="matrix(1 0 0 1 -397.5781 -1585.2842)">
	<stop  offset="0" style="stop-color:#D17126"/>
	<stop  offset="1" style="stop-color:#EA9244"/>
</linearGradient>
<path fill="url(#SVGID_6_)" d="M50.004,7.578c2.057,0,4.081,0.147,6.057,0.438c11.65,10.422,23.713,20.44,36.117,30.141
	c1.165,3.758,1.799,7.732,1.799,11.846c0,23.366-19.752,42.424-43.962,42.424c-24.22,0-43.966-19.063-43.966-42.424
	C6.046,26.64,25.785,7.578,50.004,7.578z"/>
<linearGradient id="SVGID_7_" gradientUnits="userSpaceOnUse" x1="447.582" y1="1677.251" x2="447.582" y2="1593.3223" gradientTransform="matrix(1 0 0 1 -397.5781 -1585.2842)">
	<stop  offset="0" style="stop-color:#CF6C20"/>
	<stop  offset="1" style="stop-color:#E98B33"/>
</linearGradient>
<path fill="url(#SVGID_7_)" d="M50.004,8.037c2.188,0,4.326,0.169,6.415,0.496c11.433,10.064,23.185,19.836,35.179,29.359
	c1.232,3.826,1.896,7.898,1.896,12.112c0,23.107-19.536,41.963-43.487,41.963c-23.95,0-43.494-18.855-43.494-41.963
	C6.51,26.888,26.055,8.037,50.004,8.037L50.004,8.037z"/>
<linearGradient id="SVGID_8_" gradientUnits="userSpaceOnUse" x1="447.5762" y1="1676.7861" x2="447.5762" y2="1593.7852" gradientTransform="matrix(1 0 0 1 -397.5781 -1585.2842)">
	<stop  offset="0" style="stop-color:#CC671D"/>
	<stop  offset="1" style="stop-color:#E88326"/>
</linearGradient>
<path fill="url(#SVGID_8_)" d="M50.004,8.501c2.311,0,4.57,0.185,6.773,0.543c11.222,9.712,22.646,19.23,34.24,28.579
	c1.299,3.908,1.989,8.068,1.989,12.379c0,22.854-19.313,41.5-43.005,41.5c-23.688,0-43.013-18.646-43.013-41.5
	C6.992,27.144,26.316,8.501,50.004,8.501z"/>
<linearGradient id="SVGID_9_" gradientUnits="userSpaceOnUse" x1="447.585" y1="1676.3232" x2="447.585" y2="1594.2441" gradientTransform="matrix(1 0 0 1 -397.5781 -1585.2842)">
	<stop  offset="0" style="stop-color:#CA641C"/>
	<stop  offset="1" style="stop-color:#E67E1F"/>
</linearGradient>
<path fill="url(#SVGID_9_)" d="M50.004,8.959c2.432,0,4.816,0.207,7.141,0.597c11,9.359,22.106,18.619,33.295,27.798
	c1.36,3.979,2.1,8.237,2.1,12.649c0,22.601-19.107,41.036-42.533,41.036c-23.427,0-42.531-18.43-42.531-41.036
	C7.473,27.397,26.577,8.959,50.004,8.959z"/>
<linearGradient id="SVGID_10_" gradientUnits="userSpaceOnUse" x1="773.9346" y1="2222.6436" x2="773.9346" y2="2113.5254" gradientTransform="matrix(0.7437 0 0 0.7437 -525.5701 -1562.3961)">
	<stop  offset="0" style="stop-color:#C8611D"/>
	<stop  offset="1" style="stop-color:#E6781C"/>
</linearGradient>
<path fill="url(#SVGID_10_)" d="M50.004,9.433c2.555,0,5.061,0.22,7.5,0.644l32.354,27.017c1.42,4.06,2.195,8.402,2.195,12.914
	c0,22.348-18.891,40.576-42.05,40.576c-23.158,0-42.045-18.229-42.045-40.576C7.959,27.655,26.847,9.433,50.004,9.433z"/>
<path fill="#9F653A" d="M54.249,5.448C53.521,44.79,88.652,36.831,95.074,39.493C80.305,28.699,66.766,17.323,54.249,5.448z"/>
<linearGradient id="SVGID_11_" gradientUnits="userSpaceOnUse" x1="753.3184" y1="2052.3057" x2="745.4082" y2="2061.6426" gradientTransform="matrix(0.7745 0 0 0.7745 -508.6006 -1567.2631)">
	<stop  offset="0" style="stop-color:#DCDDE1"/>
	<stop  offset="0.29" style="stop-color:#F2F3F5"/>
	<stop  offset="1" style="stop-color:#FFFFFF"/>
</linearGradient>
<path fill="url(#SVGID_11_)" d="M54.249,5.444c0.085,24.782,24.916,20.295,40.825,34.042L54.249,5.444z"/>
<path fill="#F9E8D2" d="M21.732,65.551c1.11,0.626,2.509,0.809,4.544,0c1.517-0.603,3.514,0.406,5.143,0
	c4.446-1.104,9.49-1.726,13.342,0c0.874,0.391,1.76,0.401,2.64,0c1.249-0.566,3.169,0.616,4.381,0c1.061-0.543,2.118-0.543,3.178,0
	c1.05,0.534,1.266-2.868,0-2.868c-3.546,0-7.345,0.982-10.642,0c-3.548-1.068-7.098-0.944-10.643,0c-3.756,0.987-7.961,0-11.941,0
	c-1.265,0-1.012,2.296,0,2.868H21.732z"/>
<path fill="#F9E8D2" d="M54.357,67.948v2.675c0,1.226-1.619,2.229-3.598,2.229H25.937c-1.979,0-3.596-1.004-3.596-2.229V68.38
	c0.393,0.085,0.804,0.142,1.243,0.153h0.01c1.066,0.031,2.267-0.18,3.651-0.729c0.151-0.058,0.758,0.027,1.366,0.114
	c1.091,0.156,2.189,0.309,3.436,0c2.069-0.512,4.263-0.913,6.35-0.984c1.945-0.064,3.786,0.15,5.308,0.833
	c0.779,0.348,1.576,0.527,2.387,0.527c0.803,0,1.606-0.177,2.395-0.539c0.133-0.059,0.237,0.138,0.61,0.207
	c1.232,0.231,2.46,0.461,3.867-0.254c0.156-0.078,0.293-0.115,0.409-0.115c0.122,0,0.259,0.037,0.411,0.115
	c0.196,0.1,0.389,0.178,0.576,0.239H54.357z"/>
<path fill="#F9E8D2" d="M21.864,60.235c-5.312-17.775,38.46-17.775,32.978,0c-1.165,0.004-2.438,0.119-3.711,0.233
	c-2.169,0.201-4.341,0.397-6.07-0.124c-2.044-0.611-4.073-0.877-6.084-0.868c-2.001,0.021-3.99,0.316-5.966,0.837
	c-2.049,0.548-4.545,0.342-7.042,0.142C24.659,60.345,23.346,60.239,21.864,60.235z"/>
<path fill="#D56712" d="M23.832,58.002c-0.149-5.506,4.343-8.164,11.39-9.424C29.985,51.547,25.709,54.884,23.832,58.002z"/>
<path fill="#D4AA80" d="M45.611,47.792"/>
<path fill="#D4AA80" d="M53.258,51.98"/>
<path fill="#F9E8D2" d="M76.227,72.117c0.074,0.651-0.134,0.735-0.629,0.735H65.387c-0.497,0-0.697-0.084-0.63-0.735
	c0.312-8.689-1.528-17.2-2.892-25.727h17.252C77.713,54.869,76.051,63.523,76.227,72.117z"/>
<path fill="#F9E8D2" d="M52.605,39.403l7.225-0.482c1.174-0.082,1.744-0.144,2.338,1.324l2.03,5.019h-1.544l-1.442-3.554
	c-0.427-1.044-0.981-1.546-2.149-1.465l-6.316,0.459c-0.05-0.622-0.094-0.681-0.139-1.298L52.605,39.403z"/>
<path fill="#D56712" d="M76.137,57.121c-0.465,4.667-1.141,9.333-1.188,14.103c0.01,0.254-0.119,0.275-0.293,0.254
	c-2.685-0.421-5.659-0.416-8.33,0c-0.168,0.023-0.302,0.005-0.292-0.254c0.021-4.765-0.784-9.431-1.188-14.103H76.137z"/>
<path fill="#F9E8D2" d="M64.605,48.576c3.349,6.852,4.49,14.235,2.823,22.007C67.166,63.246,65.77,55.911,64.605,48.576z"/>
<linearGradient id="SVGID_12_" gradientUnits="userSpaceOnUse" x1="-434.4868" y1="-628.0728" x2="-434.4868" y2="-628.0728" gradientTransform="matrix(0.7745 0 0 -0.7745 206.6626 -352.946)">
	<stop  offset="0" style="stop-color:#E7945C"/>
	<stop  offset="1" style="stop-color:#F6D0B2"/>
</linearGradient>
<path fill="url(#SVGID_12_)" d="M-129.848,133.497"/>
<linearGradient id="SVGID_13_" gradientUnits="userSpaceOnUse" x1="-448.3037" y1="-482.4839" x2="-448.3037" y2="-482.4839" gradientTransform="matrix(1 0 0 -1 319.0889 -348.9824)">
	<stop  offset="0" style="stop-color:#E18A4E"/>
	<stop  offset="1" style="stop-color:#F3BF95"/>
</linearGradient>
<path fill="url(#SVGID_13_)" d="M-129.214,133.502"/>
<linearGradient id="SVGID_14_" gradientUnits="userSpaceOnUse" x1="-447.6953" y1="-482.479" x2="-447.6953" y2="-482.479" gradientTransform="matrix(1 0 0 -1 319.0889 -348.9824)">
	<stop  offset="0" style="stop-color:#DC8141"/>
	<stop  offset="1" style="stop-color:#F0B07C"/>
</linearGradient>
<path fill="url(#SVGID_14_)" d="M-128.606,133.497"/>
<linearGradient id="SVGID_15_" gradientUnits="userSpaceOnUse" x1="-447.0742" y1="-482.479" x2="-447.0742" y2="-482.479" gradientTransform="matrix(1 0 0 -1 319.0889 -348.9824)">
	<stop  offset="0" style="stop-color:#D87C37"/>
	<stop  offset="1" style="stop-color:#F0A568"/>
</linearGradient>
<path fill="url(#SVGID_15_)" d="M-127.985,133.497"/>
<linearGradient id="SVGID_16_" gradientUnits="userSpaceOnUse" x1="-446.4629" y1="-482.4839" x2="-446.4629" y2="-482.4839" gradientTransform="matrix(1 0 0 -1 319.0889 -348.9824)">
	<stop  offset="0" style="stop-color:#D4762D"/>
	<stop  offset="1" style="stop-color:#ED9B54"/>
</linearGradient>
<path fill="url(#SVGID_16_)" d="M-127.374,133.502"/>
<linearGradient id="SVGID_17_" gradientUnits="userSpaceOnUse" x1="-445.8428" y1="-482.479" x2="-445.8428" y2="-482.479" gradientTransform="matrix(1 0 0 -1 319.0889 -348.9824)">
	<stop  offset="0" style="stop-color:#D17126"/>
	<stop  offset="1" style="stop-color:#EA9244"/>
</linearGradient>
<path fill="url(#SVGID_17_)" d="M-126.753,133.497"/>
<linearGradient id="SVGID_18_" gradientUnits="userSpaceOnUse" x1="-445.2217" y1="-482.479" x2="-445.2217" y2="-482.479" gradientTransform="matrix(1 0 0 -1 319.0889 -348.9824)">
	<stop  offset="0" style="stop-color:#CF6C20"/>
	<stop  offset="1" style="stop-color:#E98B33"/>
</linearGradient>
<path fill="url(#SVGID_18_)" d="M-126.132,133.497"/>
<linearGradient id="SVGID_19_" gradientUnits="userSpaceOnUse" x1="-444.6006" y1="-482.479" x2="-444.6006" y2="-482.479" gradientTransform="matrix(1 0 0 -1 319.0889 -348.9824)">
	<stop  offset="0" style="stop-color:#CC671D"/>
	<stop  offset="1" style="stop-color:#E88326"/>
</linearGradient>
<path fill="url(#SVGID_19_)" d="M-125.511,133.497"/>
<linearGradient id="SVGID_20_" gradientUnits="userSpaceOnUse" x1="-443.9795" y1="-482.4839" x2="-443.9795" y2="-482.4839" gradientTransform="matrix(1 0 0 -1 319.0889 -348.9824)">
	<stop  offset="0" style="stop-color:#CA641C"/>
	<stop  offset="1" style="stop-color:#E67E1F"/>
</linearGradient>
<path fill="url(#SVGID_20_)" d="M-124.89,133.502"/>
<linearGradient id="SVGID_21_" gradientUnits="userSpaceOnUse" x1="-423.3604" y1="-652.4438" x2="-423.3604" y2="-652.4438" gradientTransform="matrix(0.7437 0 0 -0.7437 190.5847 -351.7259)">
	<stop  offset="0" style="stop-color:#C8611D"/>
	<stop  offset="1" style="stop-color:#E6781C"/>
</linearGradient>
<path fill="url(#SVGID_21_)" d="M-124.269,133.497"/>
</svg>
