<?xml version="1.0" encoding="utf-8"?>
<!-- Generator: Adobe Illustrator 16.0.0, SVG Export Plug-In . SVG Version: 6.00 Build 0)  -->
<!DOCTYPE svg PUBLIC "-//W3C//DTD SVG 1.1//EN" "http://www.w3.org/Graphics/SVG/1.1/DTD/svg11.dtd">
<svg version="1.1" id="圖層_1" xmlns="http://www.w3.org/2000/svg" xmlns:xlink="http://www.w3.org/1999/xlink" x="0px" y="0px"
	 width="100px" height="100px" viewBox="0 0 100 100" enable-background="new 0 0 100 100" xml:space="preserve">
<linearGradient id="SVGID_1_" gradientUnits="userSpaceOnUse" x1="722.4697" y1="2145.1768" x2="722.4697" y2="2029.6309" gradientTransform="matrix(0.7745 0 0 0.7745 -509.5537 -1566.6957)">
	<stop  offset="0" style="stop-color:#E7945C"/>
	<stop  offset="1" style="stop-color:#F6D0B2"/>
</linearGradient>
<path fill="url(#SVGID_1_)" d="M50.004,5.259c1.43,0,2.84,0.064,4.245,0.188c12.733,12.184,26.397,23.481,40.825,34.045
	c0.85,3.37,1.297,6.894,1.297,10.506c0,24.645-20.828,44.746-46.367,44.746c-25.542,0-46.375-20.098-46.375-44.746
	c0-24.643,20.833-44.744,46.375-44.744V5.259z"/>
<linearGradient id="SVGID_2_" gradientUnits="userSpaceOnUse" x1="447.5859" y1="1679.5703" x2="447.5859" y2="1591.0059" gradientTransform="matrix(1 0 0 1 -397.5781 -1585.2842)">
	<stop  offset="0" style="stop-color:#E18A4E"/>
	<stop  offset="1" style="stop-color:#F3BF95"/>
</linearGradient>
<path fill="url(#SVGID_2_)" d="M50.004,5.721c1.561,0,3.094,0.087,4.604,0.245C67.133,17.797,80.475,28.84,94.498,39.227
	c0.916,3.445,1.396,7.064,1.396,10.78c0,24.386-20.617,44.279-45.882,44.279C24.74,94.285,4.12,74.389,4.12,50.006
	c0-24.393,20.62-44.279,45.893-44.279L50.004,5.721z"/>
<linearGradient id="SVGID_3_" gradientUnits="userSpaceOnUse" x1="447.5801" y1="1679.1006" x2="447.5801" y2="1591.4707" gradientTransform="matrix(1 0 0 1 -397.5781 -1585.2842)">
	<stop  offset="0" style="stop-color:#DC8141"/>
	<stop  offset="1" style="stop-color:#F0B07C"/>
</linearGradient>
<path fill="url(#SVGID_3_)" d="M50.004,6.186c1.682,0,3.337,0.096,4.971,0.292C67.271,17.955,80.296,28.74,93.914,38.959
	c0.968,3.524,1.499,7.229,1.499,11.045c0,24.133-20.401,43.813-45.41,43.813c-25.011,0-45.412-19.68-45.412-43.813
	C4.592,25.868,24.994,6.186,50.004,6.186z"/>
<linearGradient id="SVGID_4_" gradientUnits="userSpaceOnUse" x1="447.584" y1="1678.6396" x2="447.584" y2="1591.9307" gradientTransform="matrix(1 0 0 1 -397.5781 -1585.2842)">
	<stop  offset="0" style="stop-color:#D87C37"/>
	<stop  offset="1" style="stop-color:#F0A568"/>
</linearGradient>
<path fill="url(#SVGID_4_)" d="M50.004,6.646c1.805,0,3.583,0.116,5.33,0.343c12.085,11.126,24.791,21.659,38.003,31.7
	c1.034,3.604,1.599,7.398,1.599,11.314c0,23.879-20.188,43.353-44.931,43.353c-24.75,0-44.93-19.474-44.93-43.353
	S25.255,6.646,50.004,6.646z"/>
<linearGradient id="SVGID_5_" gradientUnits="userSpaceOnUse" x1="447.5791" y1="1678.1787" x2="447.5791" y2="1592.3936" gradientTransform="matrix(1 0 0 1 -397.5781 -1585.2842)">
	<stop  offset="0" style="stop-color:#D4762D"/>
	<stop  offset="1" style="stop-color:#ED9B54"/>
</linearGradient>
<path fill="url(#SVGID_5_)" d="M50.004,7.109c1.936,0,3.827,0.133,5.688,0.396c11.873,10.772,24.254,21.052,37.064,30.919
	c1.102,3.677,1.697,7.567,1.697,11.58c0,23.62-19.969,42.891-44.45,42.891c-24.489,0-44.454-19.268-44.454-42.891
	C5.551,26.376,25.524,7.109,50.004,7.109z"/>
<linearGradient id="SVGID_6_" gradientUnits="userSpaceOnUse" x1="447.5898" y1="1677.7109" x2="447.5898" y2="1592.8633" gradientTransform="matrix(1 0 0 1 -397.5781 -1585.2842)">
	<stop  offset="0" style="stop-color:#D17126"/>
	<stop  offset="1" style="stop-color:#EA9244"/>
</linearGradient>
<path fill="url(#SVGID_6_)" d="M50.004,7.578c2.057,0,4.081,0.147,6.057,0.438c11.65,10.422,23.713,20.44,36.117,30.141
	c1.165,3.758,1.799,7.732,1.799,11.846c0,23.366-19.752,42.424-43.962,42.424c-24.22,0-43.966-19.063-43.966-42.424
	C6.046,26.64,25.785,7.578,50.004,7.578z"/>
<linearGradient id="SVGID_7_" gradientUnits="userSpaceOnUse" x1="447.582" y1="1677.251" x2="447.582" y2="1593.3223" gradientTransform="matrix(1 0 0 1 -397.5781 -1585.2842)">
	<stop  offset="0" style="stop-color:#CF6C20"/>
	<stop  offset="1" style="stop-color:#E98B33"/>
</linearGradient>
<path fill="url(#SVGID_7_)" d="M50.004,8.037c2.188,0,4.326,0.169,6.415,0.496c11.433,10.064,23.185,19.836,35.179,29.359
	c1.232,3.826,1.896,7.898,1.896,12.112c0,23.107-19.536,41.963-43.487,41.963c-23.95,0-43.494-18.855-43.494-41.963
	C6.51,26.888,26.055,8.037,50.004,8.037L50.004,8.037z"/>
<linearGradient id="SVGID_8_" gradientUnits="userSpaceOnUse" x1="447.5762" y1="1676.7861" x2="447.5762" y2="1593.7852" gradientTransform="matrix(1 0 0 1 -397.5781 -1585.2842)">
	<stop  offset="0" style="stop-color:#CC671D"/>
	<stop  offset="1" style="stop-color:#E88326"/>
</linearGradient>
<path fill="url(#SVGID_8_)" d="M50.004,8.501c2.311,0,4.57,0.185,6.773,0.543c11.222,9.712,22.646,19.23,34.24,28.579
	c1.299,3.908,1.989,8.068,1.989,12.379c0,22.854-19.313,41.5-43.005,41.5c-23.688,0-43.013-18.646-43.013-41.5
	C6.992,27.144,26.316,8.501,50.004,8.501z"/>
<linearGradient id="SVGID_9_" gradientUnits="userSpaceOnUse" x1="447.585" y1="1676.3232" x2="447.585" y2="1594.2441" gradientTransform="matrix(1 0 0 1 -397.5781 -1585.2842)">
	<stop  offset="0" style="stop-color:#CA641C"/>
	<stop  offset="1" style="stop-color:#E67E1F"/>
</linearGradient>
<path fill="url(#SVGID_9_)" d="M50.004,8.959c2.432,0,4.816,0.207,7.141,0.597c11,9.359,22.106,18.619,33.295,27.798
	c1.36,3.979,2.1,8.237,2.1,12.649c0,22.601-19.107,41.036-42.533,41.036c-23.427,0-42.531-18.43-42.531-41.036
	C7.473,27.397,26.577,8.959,50.004,8.959z"/>
<linearGradient id="SVGID_10_" gradientUnits="userSpaceOnUse" x1="773.9346" y1="2222.6436" x2="773.9346" y2="2113.5254" gradientTransform="matrix(0.7437 0 0 0.7437 -525.5701 -1562.3961)">
	<stop  offset="0" style="stop-color:#C8611D"/>
	<stop  offset="1" style="stop-color:#E6781C"/>
</linearGradient>
<path fill="url(#SVGID_10_)" d="M50.004,9.433c2.555,0,5.061,0.22,7.5,0.644l32.354,27.017c1.42,4.06,2.195,8.402,2.195,12.914
	c0,22.348-18.891,40.576-42.05,40.576c-23.158,0-42.045-18.229-42.045-40.576C7.959,27.655,26.847,9.433,50.004,9.433z"/>
<path fill="#9F653A" d="M54.249,5.448C53.521,44.79,88.652,36.831,95.074,39.493C80.305,28.699,66.766,17.323,54.249,5.448z"/>
<linearGradient id="SVGID_11_" gradientUnits="userSpaceOnUse" x1="753.3184" y1="2052.3057" x2="745.4082" y2="2061.6426" gradientTransform="matrix(0.7745 0 0 0.7745 -508.6006 -1567.2631)">
	<stop  offset="0" style="stop-color:#DCDDE1"/>
	<stop  offset="0.29" style="stop-color:#F2F3F5"/>
	<stop  offset="1" style="stop-color:#FFFFFF"/>
</linearGradient>
<path fill="url(#SVGID_11_)" d="M54.249,5.444c0.085,24.782,24.916,20.295,40.825,34.042L54.249,5.444z"/>
<g>
	<g>
		<path fill="#5DC9E8" d="M81.758,40.726L79.775,38.7c-4.664,3.845-6.264,10.042-6.662,11.97c0.102,0.027,0.209,0.051,0.32,0.073
			c0.51,0.098,0.975,0.101,1.285,0.029C76.438,43.841,81.758,40.726,81.758,40.726z"/>
	</g>
</g>
<ellipse fill="#BBBBBB" cx="66.335" cy="79.675" rx="8.292" ry="1.14"/>
<ellipse fill="#BBBBBB" cx="37.187" cy="79.469" rx="18.606" ry="1.389"/>
<g>
	<path fill="#F3C018" d="M36.981,57.095c-1.524-2.625-3.143-5.214-4.85-7.76c-1.075-1.402,1.664-2.392,2.488-1.832
		c1.323,2.994,2.566,6.014,3.731,9.053C37.892,56.733,37.436,56.912,36.981,57.095z"/>
	<path fill="#F3C018" d="M38.375,55.701c-0.579-3.229-1.193-6.454-1.846-9.672c0.614-1.292,1.984-1.292,2.779-0.705
		c0.199,3.421,0.39,6.843,0.572,10.265C39.379,55.623,38.877,55.659,38.375,55.701z"/>
	<path fill="#FCD600" d="M38.791,55.918c-0.363-3.253-0.748-6.503-1.151-9.751c0.915-0.228,1.832-0.441,2.752-0.645
		c-0.05,3.431-0.093,6.861-0.127,10.291C39.773,55.845,39.282,55.879,38.791,55.918z"/>
	<path fill="#F3C018" d="M39.781,56.817c-0.258-3.399-0.529-6.798-0.815-10.195c0.917-1.58,2.515-1.58,3.129-0.073
		c-0.297,3.392-0.572,6.785-0.82,10.179C40.778,56.753,40.278,56.784,39.781,56.817z"/>
	<path fill="#FCD600" d="M43.304,56.532c0.005-3.269,0.011-6.537,0.015-9.806c0.758-0.039,1.516-0.068,2.274-0.09
		c-0.289,3.286-0.562,6.574-0.818,9.862C44.285,56.507,43.794,56.518,43.304,56.532z"/>
	<path fill="#FCD600" d="M45.166,57.36c0.166-3.158,0.341-6.315,0.524-9.473c0.74-0.02,1.479-0.031,2.219-0.035
		c-0.458,3.165-0.893,6.332-1.303,9.504C46.127,57.354,45.646,57.354,45.166,57.36z"/>
	<path fill="#FCD600" d="M46.244,56.532c0.292-3.134,0.601-6.267,0.925-9.397c0.02-0.8,1.617-1.028,2.278-0.006
		c-0.608,3.134-1.185,6.272-1.728,9.417C47.228,56.538,46.736,56.534,46.244,56.532z"/>
	<path fill="#FCD600" d="M46.857,56.282c1.57-2.703,3.241-5.366,5.01-7.984c0.875-0.517,2.474,0.472,1.789,1.406
		c-1.928,2.349-3.755,4.754-5.483,7.205C47.736,56.696,47.297,56.488,46.857,56.282z"/>
	<path fill="#F3C018" d="M46.261,55.846c1.217-3.214,2.522-6.403,3.916-9.566c0.892-0.554,2.109-0.097,2.163,1.046
		c-1.642,2.944-3.184,5.929-4.626,8.945C47.231,56.125,46.747,55.983,46.261,55.846z"/>
	<path fill="#F3C018" d="M43.293,55.125c-0.188-3.545-0.394-7.091-0.617-10.635c0.935-1.124,2.609-1.124,3.889,0.127
		c-0.623,3.486-1.203,6.978-1.743,10.474C44.312,55.098,43.803,55.11,43.293,55.125z"/>
	<path fill="#FFE200" d="M39.182,57.852c-1.427-3.154-2.96-6.277-4.596-9.359c-0.257-1.245,0.808-2.31,2.059-1.055
		c1.407,3.26,2.722,6.549,3.938,9.862C40.114,57.479,39.647,57.664,39.182,57.852z"/>
	<path fill="#FFE200" d="M41.665,56.513c-0.2-3.439-0.415-6.877-0.643-10.313c0.154-1.234,2.132-1.234,2.539-0.155
		c-0.149,3.47-0.291,6.938-0.42,10.408C42.649,56.469,42.157,56.488,41.665,56.513z"/>
	<path fill="#FFE200" d="M44.716,55.566c0.095-3.147,0.196-6.296,0.299-9.444c0.271-0.929,2.249-1.157,2.682-0.13
		c-0.519,3.185-1.009,6.371-1.47,9.562C45.723,55.554,45.218,55.559,44.716,55.566z"/>
	<path fill="#F3C018" d="M43.557,58.103c-0.521-3.395-0.954-6.814-1.294-10.254c0.504-0.92,1.79-1.122,2.396-0.153
		c0.019,3.372,0.144,6.729,0.372,10.064C44.539,57.87,44.047,57.985,43.557,58.103z"/>
	<path fill="#BD272E" d="M38.606,68.51c-1.282-5.259-2.718-10.49-4.31-15.685c-0.222,0.005,8.472-6.654,17.467,0.211
		c-1.983,5.111-3.767,10.281-5.346,15.494C46.45,68.549,43.002,65.51,38.606,68.51z"/>
</g>
<g>
	<path fill="#FFDA7F" d="M78.505,52.246c3.734-5.387-5.202-8.119-7.065-11.645c-1.373,0.199-3.096,0.923-4.001,1.712
		c-2.151,1.894-0.785,0.551-4.108,1.534c-2.985,0.881-6.439,4.979-5.324,7.256C59.586,52.434,75.438,51.549,78.505,52.246"/>
	<path fill="#BD272E" d="M57.195,50.936c-0.029,0.056,2.885-3.53,11.75-3.098c3.574,0.197,7.514,1.324,10.301,4.202
		c-2.48,9.05-4.503,18.167-6.064,27.313c-0.02,0.009-2.982,1.78-7.512,1.414c-5.313-0.376-6.338-2.753-6.332-2.781
		C58.492,68.983,57.777,59.966,57.195,50.936z"/>
	<path fill="#FFE200" d="M57.613,57.371c7.702-8.025,21.447-3.954,21.23-3.832c-0.391,1.469-0.77,2.939-1.137,4.411
		c0.189-0.103-12.612-6.472-19.949,1.496C57.635,57.711,57.727,59.107,57.613,57.371z"/>
	<path fill="#FFE200" d="M58.238,65.249c6.689-7.147,18.751-3.667,18.572-3.567c-0.323,1.315-0.635,2.632-0.938,3.95
		c0.157-0.085-11.107-5.691-17.492,1.406C58.261,65.489,58.348,66.798,58.238,65.249z"/>
</g>
<path fill="#865426" d="M52.494,72.841c2.278,8.043-13.367,8.461-17.926,8.166c-4.152-0.267-9.758-0.728-13.011-3.676
	c-1.321-1.194-2.233-4.926,0.297-4.891C32.067,72.572,42.281,72.707,52.494,72.841"/>
<path fill="#D1A969" d="M52.09,73.89c2.6,8.356-24.204,7.764-27.461,2.699c0.205,0.314,4.141,0.117,4.602,0.145
	c2.993,0.175,5.993,0.345,8.991,0.282C42.799,76.916,47.929,76.21,52.09,73.89"/>
<path fill="#45A948" d="M44.499,74.566c2.689,0.231,5.763,0.098,7.798-0.155c0.443-0.053,2.297-0.388,2.438-0.039
	c-0.635-1.562-1.91-2.724-4.033-3.354c-1.538-0.458-14.225-1.09-15.729,1.38C35.712,74.214,40.444,74.662,44.499,74.566z"/>
<path fill="#F0DF08" d="M24.467,74.641c8.063,1.089,4.192-3.253,24.935-0.344c1.297,0.183-0.508,4.677-0.782,5.001
	c-3.21-0.919-6.534-1.412-9.842-1.832c-3.045-0.384-6.106-0.653-9.14-1.128C28.096,76.098,25.584,75.921,24.467,74.641"/>
<path fill="#45A948" d="M31.14,73.104c-3.308-0.231-7.086-0.097-9.588,0.152c-0.546,0.054-2.824,0.388-2.997,0.039
	c0.779,1.556,2.348,2.712,4.959,3.338c1.89,0.454,4.01,0.733,5.176,1.798c0.565-0.562,1.444-0.861,2.447-1.071
	c0.985,0.267,2.65-0.293,3.272,0.275c1.905-1.894,6.595,0.082,8.444-2.374C41.943,73.453,36.125,73.008,31.14,73.104z"/>
<path fill="#BD272E" d="M34.346,75.089c-1.667-2.679,4.779-3.484,12.169-1.769C46.77,79.112,37.275,76.907,34.346,75.089"/>
<path fill="#2D1E0E" d="M53.32,70.117c4.096,5.818-18.368,5.782-20.18,5.696c-4.253-0.203-9.6-0.391-13.319-2.761
	c-1.802-1.149-2.345-3.897,0.046-4.717c5.381-1.845,12.354-1.02,17.911-0.739c3.438,0.175,6.886,0.437,10.292,0.955
	C49.378,68.752,52.445,68.877,53.32,70.117"/>
<g>
	<g>
		<path fill="#865426" d="M36.265,60.35c5.534,0.066,16.257,1.24,17.399,8.394c0.396,2.479-0.609,3.728-2.889,4.277
			c-3.317,0.8-9.385-2.07-12.784-1.862c-6.185,0.378-13.21,4.41-18.447,0.273C17.753,62.327,29.83,60.273,36.265,60.35"/>
		<path fill="#D1A969" d="M36.265,60.767c5.12,0.205,17.163,1.625,17.01,8.925c-0.055,2.579-1.664,2.899-3.921,3.221
			c-3.235,0.458-7.741-2.679-11.005-2.65c-5.371,0.047-12.084,3.958-16.983,1.307c-2.486-1.346-0.533-5.474,0.893-6.862
			C25.763,61.294,31.568,60.578,36.265,60.767"/>
	</g>
	
		<ellipse transform="matrix(-0.9996 -0.0279 0.0279 -0.9996 48.5581 130.2773)" fill="#F0D27F" cx="25.187" cy="64.8" rx="1.034" ry="0.564"/>
	
		<ellipse transform="matrix(-0.9996 -0.0283 0.0283 -0.9996 44.8367 137.9362)" fill="#F0D27F" cx="23.396" cy="68.65" rx="1.034" ry="0.564"/>
	
		<ellipse transform="matrix(-0.9996 -0.0283 0.0283 -0.9996 59.8488 140.1198)" fill="#F0D27F" cx="30.917" cy="69.636" rx="1.034" ry="0.564"/>
	
		<ellipse transform="matrix(-0.9996 -0.0279 0.0279 -0.9996 93.3274 143.2585)" fill="#F0D27F" cx="47.662" cy="70.979" rx="1.034" ry="0.563"/>
	
		<ellipse transform="matrix(-0.9996 -0.0269 0.0269 -0.9996 100.5873 141.1618)" fill="#F0D27F" cx="51.244" cy="69.904" rx="1.034" ry="0.564"/>
	
		<ellipse transform="matrix(-0.9996 -0.0274 0.0274 -0.9996 96.7088 134.1481)" fill="#F0D27F" cx="49.274" cy="66.411" rx="1.033" ry="0.565"/>
	
		<ellipse transform="matrix(-0.9996 -0.0283 0.0283 -0.9996 56.6451 126.1037)" fill="#F0D27F" cx="29.216" cy="62.65" rx="1.034" ry="0.565"/>
	
		<ellipse transform="matrix(-0.9996 -0.0279 0.0279 -0.9996 82.4647 138.8069)" fill="#F0D27F" cx="42.2" cy="68.829" rx="1.033" ry="0.566"/>
	
		<ellipse transform="matrix(-0.9996 -0.0283 0.0283 -0.9996 92.0477 130.0098)" fill="#F0D27F" cx="46.945" cy="64.353" rx="1.034" ry="0.565"/>
	
		<ellipse transform="matrix(-0.9996 -0.0283 0.0283 -0.9996 53.0658 138.5881)" fill="#F0D27F" cx="27.515" cy="68.918" rx="1.034" ry="0.565"/>
</g>
</svg>
