<?xml version="1.0" encoding="utf-8"?>
<!-- Generator: Adobe Illustrator 16.0.0, SVG Export Plug-In . SVG Version: 6.00 Build 0)  -->
<!DOCTYPE svg PUBLIC "-//W3C//DTD SVG 1.1//EN" "http://www.w3.org/Graphics/SVG/1.1/DTD/svg11.dtd">
<svg version="1.1" id="圖層_1" xmlns="http://www.w3.org/2000/svg" xmlns:xlink="http://www.w3.org/1999/xlink" x="0px" y="0px"
	 width="100px" height="100px" viewBox="0 0 100 100" enable-background="new 0 0 100 100" xml:space="preserve">
<linearGradient id="SVGID_1_" gradientUnits="userSpaceOnUse" x1="470.5537" y1="-1537.5562" x2="470.5537" y2="-1415.6421" gradientTransform="matrix(0.7745 0 0 -0.7745 -314.4449 -1093.6261)">
	<stop  offset="0" style="stop-color:#FADB7A"/>
	<stop  offset="1" style="stop-color:#F8F6D5"/>
</linearGradient>
<path fill="url(#SVGID_1_)" d="M49.996,2.793c1.512,0,3.002,0.073,4.479,0.202l43.076,35.917c0.891,3.561,1.373,7.274,1.373,11.09
	c0,26-21.979,47.209-48.925,47.209c-26.942,0-48.924-21.205-48.924-47.209C1.075,24,23.057,2.789,49.999,2.789L49.996,2.793z"/>
<linearGradient id="SVGID_2_" gradientUnits="userSpaceOnUse" x1="470.5537" y1="-1537.5571" x2="470.5537" y2="-1415.6421" gradientTransform="matrix(0.7745 0 0 -0.7745 -314.4449 -1093.6261)">
	<stop  offset="0" style="stop-color:#EDAF6D"/>
	<stop  offset="1" style="stop-color:#F7E1C6"/>
</linearGradient>
<path fill="url(#SVGID_2_)" d="M49.996,2.793c1.506,0,3.002,0.073,4.479,0.202C67.012,15.667,81.372,27.64,97.547,38.913
	c0.895,3.561,1.377,7.274,1.377,11.09c0,26-21.979,47.209-48.925,47.209c-26.949,0-48.924-21.205-48.924-47.209
	C1.075,24,23.05,2.789,49.999,2.789L49.996,2.793z"/>
<linearGradient id="SVGID_3_" gradientUnits="userSpaceOnUse" x1="252.2422" y1="-1186.3843" x2="252.2422" y2="-1092.9492" gradientTransform="matrix(1 0 0 -1 -202.2441 -1089.6621)">
	<stop  offset="0" style="stop-color:#F1B97F"/>
	<stop  offset="1" style="stop-color:#F7E4CC"/>
</linearGradient>
<path fill="url(#SVGID_3_)" d="M49.996,3.287c1.643,0,3.26,0.09,4.855,0.255c12.412,12.319,26.438,24.019,42.08,35.095
	c0.963,3.637,1.479,7.449,1.479,11.37c0,25.733-21.751,46.716-48.414,46.716c-26.669,0-48.413-20.988-48.413-46.716
	c0-25.727,21.75-46.716,48.413-46.716V3.287z"/>
<linearGradient id="SVGID_4_" gradientUnits="userSpaceOnUse" x1="252.2363" y1="-1185.8862" x2="252.2363" y2="-1093.4443" gradientTransform="matrix(1 0 0 -1 -202.2441 -1089.6621)">
	<stop  offset="0" style="stop-color:#F3C18B"/>
	<stop  offset="1" style="stop-color:#F8E7CF"/>
</linearGradient>
<path fill="url(#SVGID_4_)" d="M49.996,3.782c1.771,0,3.516,0.102,5.234,0.305c12.283,11.966,25.976,23.388,41.082,34.266
	c1.022,3.717,1.582,7.626,1.582,11.65c0,25.454-21.521,46.222-47.906,46.222c-26.383,0-47.901-20.768-47.901-46.222
	c0-25.455,21.519-46.221,47.901-46.221H49.996L49.996,3.782z"/>
<linearGradient id="SVGID_5_" gradientUnits="userSpaceOnUse" x1="252.2441" y1="-1185.3921" x2="252.2441" y2="-1093.936" gradientTransform="matrix(1 0 0 -1 -202.2441 -1089.6621)">
	<stop  offset="0" style="stop-color:#F3C795"/>
	<stop  offset="1" style="stop-color:#F9E8D2"/>
</linearGradient>
<path fill="url(#SVGID_5_)" d="M49.996,4.274c1.904,0,3.775,0.121,5.619,0.357c12.146,11.613,25.511,22.763,40.09,33.441
	c1.092,3.799,1.682,7.801,1.682,11.931c0,25.188-21.287,45.728-47.388,45.728c-26.101,0-47.388-20.541-47.388-45.728
	c0-25.187,21.291-45.729,47.388-45.729H49.996z"/>
<linearGradient id="SVGID_6_" gradientUnits="userSpaceOnUse" x1="252.2383" y1="-1184.9058" x2="252.2383" y2="-1094.4351" gradientTransform="matrix(1 0 0 -1 -202.2441 -1089.6621)">
	<stop  offset="0" style="stop-color:#F3CD9F"/>
	<stop  offset="1" style="stop-color:#F9EAD4"/>
</linearGradient>
<path fill="url(#SVGID_6_)" d="M49.996,4.773c2.033,0,4.036,0.139,5.999,0.413C68.016,16.444,81.042,27.312,95.083,37.8
	c1.162,3.873,1.788,7.976,1.788,12.207c0,24.915-21.059,45.237-46.875,45.237c-25.82,0-46.88-20.319-46.88-45.237
	C3.116,25.088,24.176,4.773,49.996,4.773z"/>
<linearGradient id="SVGID_7_" gradientUnits="userSpaceOnUse" x1="252.2393" y1="-1184.4146" x2="252.2393" y2="-1094.9229" gradientTransform="matrix(1 0 0 -1 -202.2441 -1089.6621)">
	<stop  offset="0" style="stop-color:#F4D0A6"/>
	<stop  offset="1" style="stop-color:#F9EBD7"/>
</linearGradient>
<path fill="url(#SVGID_7_)" d="M49.996,5.261c2.166,0,4.296,0.162,6.377,0.469c11.891,10.903,24.589,21.502,38.095,31.784
	c1.226,3.961,1.897,8.154,1.897,12.494c0,24.643-20.834,44.745-46.369,44.745c-25.538,0-46.373-20.103-46.373-44.745
	C3.624,25.365,24.453,5.261,49.996,5.261z"/>
<linearGradient id="SVGID_8_" gradientUnits="userSpaceOnUse" x1="252.2461" y1="-1183.9097" x2="252.2461" y2="-1095.415" gradientTransform="matrix(1 0 0 -1 -202.2441 -1089.6621)">
	<stop  offset="0" style="stop-color:#F5D4AC"/>
	<stop  offset="1" style="stop-color:#F9ECD8"/>
</linearGradient>
<path fill="url(#SVGID_8_)" d="M49.996,5.754c2.3,0,4.557,0.18,6.759,0.524c11.759,10.549,24.129,20.867,37.101,30.954
	c1.299,4.037,2,8.328,2,12.77c0,24.369-20.601,44.246-45.854,44.246S4.146,74.371,4.146,50.002c0-24.371,20.6-44.249,45.854-44.249
	L49.996,5.754L49.996,5.754z"/>
<linearGradient id="SVGID_9_" gradientUnits="userSpaceOnUse" x1="252.2402" y1="-1183.4194" x2="252.2402" y2="-1095.9111" gradientTransform="matrix(1 0 0 -1 -202.2441 -1089.6621)">
	<stop  offset="0" style="stop-color:#F5D8B2"/>
	<stop  offset="1" style="stop-color:#F9EDDA"/>
</linearGradient>
<path fill="url(#SVGID_9_)" d="M49.996,6.249c2.432,0,4.814,0.196,7.141,0.574c11.629,10.2,23.663,20.243,36.102,30.129
	c1.357,4.123,2.103,8.508,2.103,13.051c0,24.103-20.37,43.755-45.343,43.755c-24.979,0-45.349-19.652-45.349-43.755
	C4.647,25.9,25.017,6.249,49.996,6.249z"/>
<linearGradient id="SVGID_10_" gradientUnits="userSpaceOnUse" x1="252.2393" y1="-1182.9253" x2="252.2393" y2="-1096.4033" gradientTransform="matrix(1 0 0 -1 -202.2441 -1089.6621)">
	<stop  offset="0" style="stop-color:#F5DBB7"/>
	<stop  offset="1" style="stop-color:#F9EEDB"/>
</linearGradient>
<path fill="url(#SVGID_10_)" d="M49.996,6.741c2.563,0,5.07,0.214,7.523,0.626c11.496,9.843,23.198,19.609,35.103,29.305
	c1.431,4.197,2.203,8.682,2.203,13.331c0,23.83-20.136,43.261-44.829,43.261c-24.696,0-44.833-19.431-44.833-43.261
	C5.164,26.173,25.304,6.741,49.996,6.741z"/>
<linearGradient id="SVGID_11_" gradientUnits="userSpaceOnUse" x1="512.1094" y1="-1594.5952" x2="512.1094" y2="-1479.4624" gradientTransform="matrix(0.743 0 0 -0.743 -330.5048 -1092.0092)">
	<stop  offset="0" style="stop-color:#F6DDBB"/>
	<stop  offset="1" style="stop-color:#F9EFDC"/>
</linearGradient>
<path fill="url(#SVGID_11_)" d="M49.996,7.236c2.693,0,5.332,0.237,7.9,0.683L92.01,36.395c1.494,4.276,2.305,8.857,2.305,13.608
	c0,23.56-19.91,42.772-44.316,42.772c-24.415,0-44.328-19.215-44.328-42.772c0-23.552,19.913-42.771,44.328-42.771L49.996,7.236
	L49.996,7.236z"/>
<path fill="#D4AA80" d="M54.471,2.995c-0.767,41.508,36.307,33.114,43.072,35.917C82.094,27.646,67.732,15.667,54.471,2.995z"/>
<linearGradient id="SVGID_12_" gradientUnits="userSpaceOnUse" x1="503.1572" y1="-1439.5298" x2="494.8117" y2="-1449.3806" gradientTransform="matrix(0.7745 0 0 -0.7745 -313.4922 -1094.1935)">
	<stop  offset="0" style="stop-color:#E7E9EC"/>
	<stop  offset="0.34" style="stop-color:#FBFBFC"/>
	<stop  offset="1" style="stop-color:#FFFFFF"/>
</linearGradient>
<path fill="url(#SVGID_12_)" d="M54.471,2.995c0.094,26.148,26.291,21.412,43.072,35.917L54.471,2.995z"/>
<g>
	<g>
		<path fill="#5DC9E8" d="M83.93,40.399l-1.963-2.006c-4.618,3.807-6.203,9.944-6.598,11.853c0.102,0.027,0.208,0.05,0.318,0.072
			c0.504,0.097,0.964,0.1,1.271,0.029C78.661,43.484,83.93,40.399,83.93,40.399z"/>
	</g>
</g>
<ellipse fill="#BBBBBB" cx="68.658" cy="78.966" rx="8.21" ry="1.129"/>
<ellipse fill="#BBBBBB" cx="39.796" cy="78.763" rx="18.422" ry="1.375"/>
<g>
	<path fill="#F3C018" d="M32.651,56.436c-1.51-2.6-3.112-5.163-4.803-7.684c-1.064-1.388,1.647-2.368,2.463-1.813
		c1.31,2.965,2.541,5.955,3.694,8.963C33.553,56.077,33.101,56.255,32.651,56.436z"/>
	<path fill="#F3C018" d="M34.031,55.056c-0.573-3.198-1.182-6.391-1.828-9.577c0.608-1.279,1.964-1.279,2.751-0.698
		c0.197,3.387,0.386,6.776,0.566,10.164C35.025,54.979,34.528,55.014,34.031,55.056z"/>
	<path fill="#FCD600" d="M34.443,55.27c-0.36-3.22-0.74-6.438-1.14-9.655c0.905-0.225,1.813-0.437,2.726-0.638
		c-0.05,3.397-0.093,6.794-0.126,10.19C35.416,55.198,34.929,55.231,34.443,55.27z"/>
	<path fill="#F3C018" d="M35.423,56.161c-0.255-3.366-0.524-6.731-0.807-10.095c0.907-1.565,2.49-1.565,3.099-0.073
		c-0.294,3.358-0.566,6.719-0.812,10.079C36.41,56.098,35.916,56.128,35.423,56.161z"/>
	<path fill="#FCD600" d="M38.912,55.879c0.005-3.236,0.01-6.473,0.015-9.709c0.75-0.039,1.501-0.068,2.252-0.089
		c-0.286,3.254-0.556,6.51-0.81,9.766C39.882,55.854,39.397,55.864,38.912,55.879z"/>
	<path fill="#FCD600" d="M40.754,56.698c0.165-3.127,0.338-6.253,0.519-9.379c0.733-0.02,1.464-0.031,2.197-0.036
		c-0.453,3.134-0.883,6.271-1.29,9.411C41.707,56.691,41.23,56.693,40.754,56.698z"/>
	<path fill="#FCD600" d="M41.822,55.879c0.29-3.104,0.595-6.205,0.916-9.306c0.02-0.792,1.602-1.018,2.256-0.005
		c-0.602,3.103-1.172,6.211-1.71,9.325C42.796,55.884,42.31,55.88,41.822,55.879z"/>
	<path fill="#FCD600" d="M42.429,55.631c1.555-2.676,3.209-5.313,4.961-7.905c0.867-0.512,2.45,0.466,1.771,1.392
		c-1.908,2.326-3.717,4.708-5.429,7.135C43.3,56.041,42.866,55.835,42.429,55.631z"/>
	<path fill="#F3C018" d="M41.84,55.198c1.205-3.182,2.497-6.34,3.877-9.472c0.882-0.547,2.088-0.095,2.142,1.036
		c-1.625,2.916-3.152,5.87-4.581,8.857C42.8,55.475,42.321,55.335,41.84,55.198z"/>
	<path fill="#F3C018" d="M38.901,54.485c-0.186-3.511-0.39-7.021-0.611-10.531c0.926-1.112,2.584-1.112,3.851,0.126
		c-0.617,3.452-1.191,6.91-1.726,10.371C39.91,54.458,39.405,54.471,38.901,54.485z"/>
	<path fill="#FFE200" d="M34.83,57.185c-1.413-3.123-2.932-6.216-4.551-9.267c-0.254-1.232,0.799-2.287,2.038-1.044
		c1.394,3.229,2.695,6.484,3.9,9.766C35.752,56.816,35.291,56.999,34.83,57.185z"/>
	<path fill="#FFE200" d="M37.289,55.858c-0.198-3.404-0.411-6.809-0.636-10.211c0.152-1.222,2.111-1.222,2.514-0.153
		c-0.148,3.435-0.288,6.871-0.416,10.305C38.264,55.816,37.776,55.835,37.289,55.858z"/>
	<path fill="#FFE200" d="M40.31,54.922c0.094-3.116,0.194-6.233,0.296-9.351c0.268-0.92,2.227-1.146,2.656-0.128
		c-0.514,3.153-1,6.309-1.456,9.468C41.307,54.91,40.807,54.915,40.31,54.922z"/>
	<path fill="#F3C018" d="M39.162,57.434c-0.516-3.361-0.944-6.748-1.282-10.153c0.499-0.912,1.772-1.111,2.373-0.152
		c0.019,3.339,0.143,6.663,0.368,9.965C40.134,57.203,39.647,57.317,39.162,57.434z"/>
	<path fill="#BD272E" d="M34.26,67.739c-1.269-5.208-2.691-10.388-4.268-15.531c-0.22,0.005,8.389-6.589,17.296,0.208
		c-1.964,5.062-3.729,10.181-5.293,15.343C42.026,67.777,38.613,64.768,34.26,67.739z"/>
</g>
<g>
	<path fill="#FFDA7F" d="M80.709,51.807c3.697-5.334-5.151-8.039-6.996-11.53c-1.36,0.197-3.066,0.914-3.962,1.695
		c-2.13,1.875-0.778,0.546-4.068,1.52c-2.956,0.872-6.376,4.929-5.272,7.184C61.975,51.992,77.671,51.116,80.709,51.807"/>
	<path fill="#BD272E" d="M59.607,50.51c-0.028,0.055,2.857-3.497,11.635-3.068c3.539,0.196,7.439,1.312,10.2,4.161
		c-2.457,8.961-4.459,17.988-6.006,27.044c-0.018,0.009-2.952,1.764-7.438,1.4c-5.259-0.373-6.274-2.726-6.269-2.754
		C60.892,68.38,60.186,59.45,59.607,50.51z"/>
	<path fill="#FFE200" d="M60.021,56.882c7.627-7.947,21.237-3.916,21.022-3.795c-0.388,1.454-0.762,2.91-1.126,4.367
		c0.188-0.101-12.488-6.407-19.752,1.482C60.043,57.218,60.135,58.601,60.021,56.882z"/>
	<path fill="#FFE200" d="M60.641,64.682c6.624-7.076,18.567-3.631,18.391-3.532c-0.32,1.303-0.629,2.606-0.929,3.911
		c0.155-0.084-10.999-5.636-17.321,1.393C60.663,64.92,60.749,66.215,60.641,64.682z"/>
</g>
<path fill="#865426" d="M54.953,72.199c2.256,7.964-13.236,8.378-17.75,8.086c-4.111-0.265-9.662-0.721-12.883-3.64
	c-1.308-1.183-2.211-4.878,0.294-4.843C34.727,71.934,44.84,72.066,54.953,72.199"/>
<path fill="#D1A969" d="M54.553,73.238c2.574,8.273-23.966,7.687-27.191,2.672c0.202,0.312,4.1,0.116,4.557,0.144
	c2.963,0.173,5.934,0.342,8.902,0.278C45.354,76.234,50.433,75.535,54.553,73.238"/>
<path fill="#45A948" d="M47.036,73.907c2.663,0.229,5.706,0.097,7.723-0.153c0.438-0.053,2.272-0.384,2.413-0.038
	c-0.629-1.547-1.893-2.698-3.994-3.32c-1.522-0.454-14.085-1.08-15.575,1.365C38.336,73.559,43.021,74.003,47.036,73.907z"/>
<path fill="#F0DF08" d="M27.202,73.981c7.984,1.078,4.151-3.222,24.688-0.341c1.285,0.181-0.502,4.631-0.773,4.952
	c-3.179-0.91-6.471-1.398-9.746-1.813c-3.015-0.381-6.046-0.648-9.05-1.118C30.795,75.424,28.308,75.249,27.202,73.981"/>
<path fill="#45A948" d="M33.809,72.459c-3.275-0.229-7.017-0.095-9.494,0.151c-0.541,0.054-2.796,0.384-2.967,0.038
	c0.771,1.541,2.325,2.686,4.91,3.306c1.872,0.449,3.971,0.726,5.125,1.78c0.56-0.557,1.43-0.854,2.423-1.061
	c0.976,0.264,2.624-0.291,3.24,0.272c1.886-1.875,6.529,0.081,8.36-2.351C44.506,72.806,38.746,72.364,33.809,72.459z"/>
<path fill="#BD272E" d="M36.984,74.425c-1.651-2.652,4.732-3.45,12.049-1.751C49.286,78.409,39.884,76.226,36.984,74.425"/>
<path fill="#2D1E0E" d="M55.771,69.502c4.055,5.762-18.188,5.726-19.982,5.641c-4.211-0.201-9.506-0.387-13.188-2.734
	c-1.784-1.138-2.322-3.858,0.046-4.669c5.328-1.828,12.232-1.011,17.735-0.732c3.404,0.173,6.819,0.432,10.191,0.945
	C51.868,68.15,54.905,68.273,55.771,69.502"/>
<g>
	<g>
		<path fill="#865426" d="M38.883,59.831c5.479,0.065,16.097,1.228,17.229,8.311c0.393,2.454-0.604,3.69-2.86,4.235
			c-3.285,0.792-9.293-2.051-12.659-1.844c-6.124,0.374-13.081,4.366-18.265,0.271C20.553,61.788,32.512,59.756,38.883,59.831"/>
		<path fill="#D1A969" d="M38.884,60.244c5.069,0.202,16.993,1.608,16.843,8.837c-0.053,2.554-1.646,2.87-3.882,3.188
			c-3.204,0.453-7.666-2.652-10.897-2.625c-5.318,0.047-11.965,3.92-16.816,1.295c-2.462-1.332-0.528-5.42,0.884-6.795
			C28.484,60.766,34.232,60.057,38.884,60.244"/>
	</g>
	
		<ellipse transform="matrix(-0.9996 -0.0277 0.0277 -0.9996 54.0406 129.2222)" fill="#F0D27F" cx="27.914" cy="64.237" rx="1.024" ry="0.559"/>
	
		<ellipse transform="matrix(-0.9996 -0.0286 0.0286 -0.9996 50.3234 136.8199)" fill="#F0D27F" cx="26.141" cy="68.05" rx="1.024" ry="0.558"/>
	
		<ellipse transform="matrix(-0.9996 -0.0282 0.0282 -0.9996 65.2213 138.968)" fill="#F0D27F" cx="33.589" cy="69.025" rx="1.023" ry="0.559"/>
	
		<ellipse transform="matrix(-0.9996 -0.0282 0.0282 -0.9996 98.3365 142.0944)" fill="#F0D27F" cx="50.168" cy="70.355" rx="1.023" ry="0.558"/>
	
		<ellipse transform="matrix(-0.9996 -0.0267 0.0267 -0.9996 105.5599 139.9919)" fill="#F0D27F" cx="53.715" cy="69.291" rx="1.024" ry="0.559"/>
	<path fill="#F0D27F" d="M50.742,65.804c-0.01,0.309,0.439,0.57,1.006,0.588c0.566,0.015,1.031-0.222,1.039-0.531
		c0.01-0.306-0.442-0.569-1.006-0.585C51.215,65.258,50.75,65.496,50.742,65.804z"/>
	
		<ellipse transform="matrix(-0.9996 -0.0282 0.0282 -0.9996 62.0475 125.0913)" fill="#F0D27F" cx="31.904" cy="62.109" rx="1.023" ry="0.559"/>
	
		<ellipse transform="matrix(-0.9996 -0.0282 0.0282 -0.9996 87.5821 137.6852)" fill="#F0D27F" cx="44.76" cy="68.226" rx="1.023" ry="0.56"/>
	
		<ellipse transform="matrix(-0.9996 -0.0286 0.0286 -0.9996 97.0714 128.9777)" fill="#F0D27F" cx="49.459" cy="63.794" rx="1.023" ry="0.56"/>
	
		<ellipse transform="matrix(-0.9996 -0.0282 0.0282 -0.9996 58.5043 137.4535)" fill="#F0D27F" cx="30.22" cy="68.315" rx="1.023" ry="0.558"/>
</g>
</svg>
